<?xml version="1.0" encoding="utf-8"?>
<!-- Generator: Adobe Illustrator 23.0.3, SVG Export Plug-In . SVG Version: 6.00 Build 0)  -->
<svg version="1.1" id="Layer_1" xmlns="http://www.w3.org/2000/svg" xmlns:xlink="http://www.w3.org/1999/xlink" x="0px" y="0px"
	 viewBox="0 0 3871 2367" style="enable-background:new 0 0 3871 2367;" xml:space="preserve">
<style type="text/css">
	.st0{fill-rule:evenodd;clip-rule:evenodd;fill:#FF5678;}
	.st1{fill-rule:evenodd;clip-rule:evenodd;}
	.st2{fill-rule:evenodd;clip-rule:evenodd;fill:#FFB3B3;}
	.st3{fill-rule:evenodd;clip-rule:evenodd;fill:#FF9354;fill-opacity:0.9;}
</style>
<title>composition-11</title>
<desc>Created with Sketch.</desc>
<g id="composition-11">
	
		<g transform="translate(1377.000000, 1108.500000) rotate(-12.000000) translate(-1377.000000, -1108.500000) translate(40.000000, 106.000000)">
		<path id="Accent" class="st0" d="M1154.6,1727.5c5.8,23.4,9.7,47.6,16.6,70.8c2.9,9.7,8.7,18.3,11,28.3
			c2.4,10.6-4.9,13.9-12.7,19.6c4.3-5.8,9.4-9.5,9.2-17.2c-12.9,2.9-25.1,16.1-34.8,24.3c-12.9,10.6-25.4,21.5-38.2,32.4
			c-23.3,20.1-46.5,40.3-69.8,60.6c-21.7,19-45,36.1-68.1,53.5c-20.3,15.3-39.5,31.5-56.3,50.6c-3.5,3.9-14.3,21.2-20.8,18.3
			c-3.1-1.4-4.2-6.6-5.3-9.5c-2-5.2-4.1-10.3-5.9-15.6c-4.2-11.8-8.1-23.8-12.4-35.6c-3.6-9.9-9.4-17.4-0.1-25.8
			c17.5-15.8,33.5-32.8,51.3-48.4c20.4-17.8,41.5-34.7,62.2-52.2c19.8-16.8,38.6-34.8,58.7-51.3c19.8-16.2,39.3-32.3,58.5-49.4
			C1117.1,1763.5,1134.8,1744.4,1154.6,1727.5z M2431.4,1558.5c-3.9,5.9-7.3,8.8-12.9,13.3c-6.2,4.9-11,11.3-16.5,16.9
			c-10.2,10.8-21.5,20.8-32.6,30.5c-23.7,20.7-49.9,37.8-73.7,58.3c-11.4,9.7-19.4,22.6-30.6,32.4c-10.4,8.9-24,12.8-35.4,20.4
			c-5.7,3.8-10.3,9.5-16.6,12.5c-6.2,3-13.3,4.1-19.7,6.4c-8.1,3-15.6,4.5-24.1,5.7c-7.2,1-13.3,3-20.8,1.9c3.6-2.1,7.1-5.1,11-6.5
			c3.5-1.3,6.6-0.6,10.2-0.7c7.4-0.1,13.7-4.1,21.1-4.5c-6.7-5.6-16.9-1.5-24.3,0.7c-9.4,2.8-18.9,5.1-28.2,7.9
			c-43.8,12.9-87.7,23.7-132.2,33.8c-44,10.1-88,21.2-132.3,29.7c-42.8,8.2-86.1,13.6-129.1,21.6c-45.4,8.5-90.9,17.4-135.9,27.5
			c-21.4,4.8-42.7,8.7-63.7,14.5c-20.3,5.6-40.7,10.9-61,16.4c-5.5,1.5-11.3,2.7-16.6,4.6c-5,1.9-9.3,4.6-14.7,5.5
			c-9.3,1.5-17.9,3.8-27,5.9c-21,4.8-41.2,12-62,17.5c-22.3,5.9-44.5,12.4-66.5,19.3c-20.5,6.4-41.8,10.8-62.1,17.9
			c-4.9,1.7-9.4,4.1-14.5,4.8c-4.2,0.6-8.4,0.2-12.4,1.5c-4.3,1.4-7.8,4.1-12.3,4.8c-5,0.7-6.6,1.3-11,3.6
			c-9.2,4.8-20.1,5.3-29.9,7.5c-9.7,2.2-19,5.5-28.6,8.4c-20.7,6.5-41.4,12.3-62.1,18.2c-10.9,3.1-21.5,7.2-32.1,10.8
			c-2.7,0.9-17.6,7-14.6,0.9c1.3-2.4,7.9-5.9,9.9-7.4c4.1-3,8.1-6.2,12.2-9.2c8.1-6,16.4-12.2,24.3-18.6
			c17.6-14,33.5-29.9,50.8-44.6c16-13.6,32.7-25.9,47.5-41c15-15.3,28.1-32.7,41.8-49.1c5.8-6.8,8.6-14.6,13.3-21.9
			c5-7.7,12.1-6.7,20.2-6.8c22.1-0.1,45-7.9,65.9-14.2c20-5.9,40.3-12.1,60.6-16.6c10.3-2.3,20.5-3.5,30.8-6.5
			c10.1-2.9,20.4-4.9,30.8-7c21.8-4.4,42.8-11,64.1-17.5c20.8-6.4,41.9-11,62.8-16.6c11.5-3,22.9-6.4,34.5-9.4
			c9.5-2.6,19.7-6.2,29.6-6.8c21.2-1.5,41.2-4.4,61.7-10.4c10.7-3.1,21.6-4.9,32.3-7.7c10.1-2.6,19.3-8,29.4-10.1
			c21-4.3,41.5-8.6,62.3-13.9c41.8-10.8,83.6-20,126.3-26.2c10.8-1.6,21.4-4.9,32-7c10.3-2,20.8-2.9,31.1-4.5
			c22.5-3.4,44.5-9.1,66.7-13.3c21.8-4.2,43.8-7,65.6-11.3c11-2.2,22.4-3.9,33.3-6.7c10-2.6,18.5-7.1,28.8-8
			c10.8-1,20.9-4.3,31.2-7.5c9.7-3,19-4.4,28.9-6.3c5.6-1,9.9-4.6,15.2-6.2c4.4-1.3,9.1-0.5,13.6-1c10.4-1.2,20.4-5.1,30.6-7.2
			c21.1-4.2,42.4-7.9,63.3-12.8C2390.1,1570.5,2410.7,1564.2,2431.4,1558.5z M1992,1672.5c-8.4,0.2-16.8,0.6-25.2,1.4
			c-18.2,1.6-36.2,4.1-54.3,7c-36.9,5.9-73.6,15.7-109.8,24.6c-65.1,16-129.6,32.7-193.2,54.3c-31.8,10.8-63.6,21.7-95.4,32.4
			c-26.1,8.7-54.8,17.2-77.5,33.3c-5.6,3.9-16.9,12.7-10.3,20.3c3.9,4.6,11.3,4.4,16.8,5.3c7.4,1.3,13.2,1.5,20.8,0.9
			c16.2-1.4,32.5,0.5,48.7-1.6c15.4-2,31.1-4.4,46.3-8.1c7.5-1.9,14.9-4.3,22.4-5.9c8-1.7,16.2-1.5,24.3-3.2
			c7.1-1.6,14.2-3.5,21.2-5c5.3-1.2,10.2-2.7,14.9-5.1c5.5-2.9,11.7-1.5,17.8-2.7c7.1-1.3,14.2-2.9,21.2-4.4
			c8.9-1.9,17.8-3.7,26.7-5.6c6-1.3,12-2.4,16.7-6.6c-8-6.5-15.4-2.6-24.7-0.3c-10.7,2.6-21.4,4.9-32,7.4
			c-20.1,4.6-40,9.7-60.4,13.3c-20,3.6-39.8,8-60,10.3c-20.3,2.2-40.9,3.1-61.2,6c-9.6,1.4-16.8,2.4-26.3,0.6
			c-5.7-1-13.6-0.8-6.8-7.3c4.4-4.3,11.3-5.1,14-10.7c1.6-3,1-5,4.8-6c2-0.6,5.9-0.8,8-0.9c3-0.2,5.5,1,8.4,0.3
			c2.8-0.6,5.9-2.7,8.6-3.8c6.8-2.9,14.3-3,21-5.9c2.8-1.2,5.9-5.2,8.8-5.7c1.9-0.2,3.9,1.3,5.9,1c5.8-0.5,12-4.9,17.1-7.5
			c3.9-2.1,5.1-2.2,9.2-1.7c3.8,0.5,3.9,0.6,7.4-1.4c7.1-3.9,12.8-4.5,20.9-5.7c8.4-1.2,16.7-3.8,24.4-7.2c3.2-1.4,6.2-3.6,9.4-5
			c2.3-1,5-0.9,7.1-1.9c3.8-1.7,0.5-2.2,2.2-3.8c1.9-1.6,3.1-0.1,5.2,0.2c3.1,0.5,2.6-0.5,5-1.3c2.8-0.9,3.1-0.7,6.8-0.5
			c8.2,0.3,16-4.9,23.4-7.7c2.8-1,6.5-1.6,9.1-3.2c2-1.3,3.2-4.3,5.9-3.8c2.9,0.3,3.5,3.9,7.3,3.6c2.7-0.2,4.8-2.7,7-3.9
			c6-3.6,13.6-2.2,20.2-4.6c3.5-1.3,6.3-2.7,9.9-3.5c2.4-0.5,3.8-1.5,6.2-2.2c6.7-2,12,0.1,18.6-4.2c2.7-1.7,4.5-3.8,7.9-4.1
			c2.7-0.2,5.1,0.8,7.9,0.5c7-0.8,14.7-4.6,21.2-7.1c7.9-3,15.6-5.9,24-6.6c8.1-0.7,15.8-0.7,23.6-3.4c7.9-2.7,15.7-5.2,23.4-8.1
			c7.2-2.7,14.9-2.3,22.4-3.6s17.4-1.6,24.4-4.8c5.2-2.3,10.9-2.4,16.1-4.9c3.8-1.7,6.2-4.1,10.6-4.1c3.4,0,6.2,0.7,9.5,0
			c3.2-0.6,5.9-1.6,9.2-1.3c4.3,0.5,4.3,0.2,8-1.4c6.8-3.1,15.6-2.4,22.9-3.6c8.1-1.3,15.9-4.1,23.9-6c1.4-0.6,2.7-1.4,3.7-2.4
			C2007,1671.9,1999,1672.4,1992,1672.5z M2444.4,1447.6c4.8,11,7,24.4,10.4,36c3.4,11.3,6.7,22.5,10.1,33.8
			c2.4,8.4-4.1,9.1-10.4,9.9c-10.6,1.3-20.7,4.1-30.9,7.2c-22.4,7-45.3,11.3-68.4,15.7c-23.7,4.5-47,10.3-70.8,13.8
			c-22.3,3.2-43.9,10.1-66,14c-11.3,2-23.1,4.3-33.8,8.5c-4.9,1.9-9.1,3.8-14.4,4.3c-5.3,0.3-10.4,0.2-15.7,1.4
			c-21.9,5-44.9,8.1-67.4,11c-23.7,3.1-46.9,8.1-70.3,12.2c-11.5,2-23.1,3.9-34.6,6c-10.1,1.7-20.5,6.3-30.6,6.6
			c-6.7,0.2-12.8-0.7-19.5,0.5c-5.2,0.9-10.4,2-15.7,3c-11.4,2.2-22.5,5.5-33.9,7.9c-46,9.7-92.2,19-137.8,30.4
			c-11.4,2.9-22.6,6.2-34.2,8.4c-10.6,2-20.2,5.8-30.6,8.4c-21.8,5.3-44.3,7-65.8,13c-21.6,6.2-44.1,6-65.8,11.5
			c-23.4,5.9-46.7,12.8-69.8,20c-45.4,14-91.9,23-137.9,34.8c-22.6,5.8-44.8,13-67.2,19.7c-11.6,3.5-23.4,6.5-35.3,9.1
			c-8,1.7-18.7,5.5-26.9,4.6c-7.4-0.8-12.3-14.2-15.3-20.1c-4.6-8.9-5.6-17.2-6.5-27c-0.5-4.5-1.2-9.3-3-13.6
			c-1.2-2.7-6.3-6.5-6.6-8.9c-0.9-5,16-4.9,19.6-5.7c10.6-2.2,20.8-7.4,31.3-10c10.8-2.7,20.8-6.4,31-10.4
			c21.1-8.4,42.7-15.2,64.3-21.8c11.4-3.5,22.3-8,33.7-11.7c9.2-3,18.7-3,28-5.9c21.9-7.1,44.9-11.5,67.1-17.5
			c12.2-3.2,24.7-4.4,37-7.1c11-2.3,21.9-5.1,33.1-6.7c10.3-1.5,19.5-4.2,29.5-7.1c10.4-3,21.5-3.5,32.1-5.6
			c11.7-2.3,23.4-4.8,35.3-6.7c10.2-1.6,20.4-2.8,30.1-6.7c9.5-3.9,18.9-4.1,28.9-6.3c10.7-2.3,21.1-3.8,31.8-5.6
			c12.5-2.1,25-5.2,37.5-7.4c9.9-1.7,20.4-1.9,30.1-4.9c5.3-1.6,9.4-4.3,15.2-4.9c4.9-0.5,9.3-0.8,14.2-1.7c11.3-2.1,22.6-3,34-5
			c23-3.9,46.2-6.6,68.9-11.5c12.4-2.7,24.5-6,37-8c10.9-1.7,21.9-2.9,32.6-5.9c11.7-3.4,22.9-6.7,35-8.4c10.1-1.4,20.2-3,30.2-5.1
			c24.1-5,48.7-6.3,73.1-10.1c21.9-3.5,44.6-7.3,65.5-15.2c10.9-4.1,22.6-5.8,33.8-9.1c10.9-3.1,21.7-6.3,32.6-9.4
			c45.4-13.2,91.6-24.1,137.9-33.9c11.3-2.3,22.4-4.8,33.7-7.2c4.6-1,9.6-2.9,14.4-3.5C2442.5,1443,2442.7,1443.6,2444.4,1447.6z
			 M1783.9,1756.4c-15.1,1.7-30.2,3.6-45.1,5.7c-14.2,1.9-29.2,3.1-42,10.1c23-1.5,46.1-2.2,68.9-5.5c20.8-2.9,42.2-9.4,63-3.8
			c-9.4,7.4-21.4,9.9-32.5,13.6c-13.9,4.6-27.7,9.6-41.7,14.3c4.3,5.6,11.1,1.6,16.2-0.2c6.4-2.3,13-3.8,19.4-5.8
			c15-4.8,29.2-11.4,43.6-17.4c4.1-1.7,10.3-6.3,5.8-11c-2.8-2.8-8.2-2.1-11.7-2.2C1813.1,1753.5,1798.6,1754.7,1783.9,1756.4z
			 M977.2,293.4c7.3,9.1-0.1,16,0.6,25.6c0.6,9.3,10.4,4.4,16.2,3.2c-1.9,8.9-3.7,17.9-5.5,26.8c-2-2.3,0.1-4.5-3.7-4.3
			c-0.5,0-3.4,2.2-4.1,2.6c-2.1,0.9-4.4,1.3-6.6,2.1c1.7,1.2,5,5.1,6.7,5.7c3.6,1.2,4.3-2.3,7.1-4.1c-3.7,49.2-13,104.5,6.7,151.6
			c2.4,5.8,5.7,11.4,7.8,17.3c1.6,4.6,0.8,4.2-2.3,7c-1.2,1-3.4,3.1-2.9,5c0.8,3.7,3.6,1.9,5.8,3.5c3.2,2.4,2.8,6.6,3.4,10.6
			c0.6,3.8,2.3,6.8,3.1,10.4c0.5,2.1-1.6,1.6,0.8,3.5c1.7,1.4,4.1-0.3,5.9-0.1c3.4,0.5,1.3-0.6,2.8,2c0.7,1.2,2.1,5.7,1.9,7
			c-0.8,4.3-4.8,3.7-8.5,4.9c2.4,2.3,5.2,4.2,7.3,6.7c0.7,0.8,0.7,3,1.7,3.4c2.1,0.7,6.4-2.1,8.1-3.1c2.4-1.5,5.1-5.1,8-5.5
			c4.4-0.5,5.8,4.1,9.1,5.7c4.1,2.1,9.1,0.1,13.5,0.5c5.2,0.5,10.1,2.3,15.1,3.8c11.6,3.7,23.3,4.8,35.5,3.8
			c19.8-1.6,40-9.7,57.9-18.3c16.8-8.1,28-23.1,38.4-38l1-1.4c11.8-16.8,23.8-33,32.3-51.8c9.1-20,14.7-41,18.1-62.6
			c1.7-11.3,2.9-22.3,3.1-33.7c0.1-8.2,6-16.2,15-16.6c5.3-0.2,9.1,3.5,14,3.9c3.5,0.3,7.1-3.2,9.9-2.9c2.8,0.5,5.8,7.1,7.3,9.2
			c2.9,4.1,5.8,8.1,8.7,12.2c6.2,8.6,12.1,17.4,17.6,26.5c2.6,4.2,2.4,8.5,4.4,12.8c1.9,3.8,5,5,6,9.5c1,4.5,0.6,6.8,4.4,9.9
			c3.4,2.7,5,2.4,6.2,7.2c0.9,3.9,1.3,8.6,1.5,12.7c0.2,4.3-2.6,11.1-0.1,15c1.6-3.2,3.1-9.4,7.8-9.3c2.4,0.1,3.7,3,6.2,3.2
			c2.4,0.2,4.3-2.4,6.7-1.4c5.6,2.7,1.6,8.2-0.8,10.6c-4.8,4.5-6.3,9.6-3,15.7c5.6-6.5,10.9-2.1,15.2,3.2c-4.4,1.3-9.5,1.7-5.3,7
			c0.9,1.2,6.7,6.3,7.9,6c2.1-0.3,1-2.9,3.6-3.4c1.6-0.3,4.1,1.7,4.8,2.9c2,3.7-3.5,11.4-4.9,15c3.8-2,6.6-7.7,11.1-8
			c4.8-0.3,9.5,5.2,9.3,9.5c-0.2,3.5-3.8,6.2,0,8.7c4.9,3.2,12.4-2.2,17.5-0.9c5.2,1.3,5.8,8.7,9.7,12.4c3.8,3.6,4.9,8,9.5,10.6
			c11.5,6.5,11.6,21.6,19.8,31.3c4.2-3.8,4.6-5,10-5.2c2.4-0.1,6.2-1,8.4,0.2c3.4,2,2.1,5.6,4.1,8.4c2.1,3.1,5.5,3.1,8.8,3.7
			l0.3,0.1l-2.8,15c2.9-2,4.8-8.7,7.9-2.7c3.7-3.9,2-10.6,9.9-7.8c5,1.7,8.8,6.7,12.9,10c12.1,9.6,27.6,14.5,42.6,17.5
			c3.4,0.7,9.4,0,12.5,1.3c2.6,1,1.9,1.5,3,3.6c0.8,1.5-0.1,3.8,2.3,3.6c1.9-0.2,2-4.1,2.8-5.3c3.4-5.6,8.8-3.6,14.2-2.2
			c6.8,1.7,7.5,7.3,10.3,13.5c3.4-3.6,6-7.7,10.8-9.5c5.2-2.2,11.6-2.3,17.2-3.8c5.9-1.5,11.3-4.2,16.8-6.4c4.8-2,10.2-2.8,14.7-5.2
			c4.8-2.6,8.4-6.5,13.3-8.6c5.6-2.3,11.1-4.6,16.7-7.2c11.3-5.2,22.1-11.3,31.7-19.1c10-8.2,18.6-18.2,26.9-28
			c3.9-4.6,13.6-19.5,3.6-23.9c-4.3-1.9-8,2.8-10.6,5.6c-4.5,4.9-8.9,9.5-14,13.8c-9.2,7.7-19.5,13.9-30.8,17.9
			c5.9-10.2,15.9-17.9,23.6-26.8c7.9-9.3,16.4-19.1,26.7-25.9c7.5-4.9,16.9-6.8,23-14c4.5-5.3,13.1-20.4,20.9-18.2
			c6,1.7,10.8,5.2,17.4,5c4.2-0.2,7.7-2,11.8-0.5c4.1,1.4,8,4.6,11.7,6.7c5,2.8,9.9,5.1,13.9,9.2c15.2,15.2,28.9,36.2,36.7,56.3
			c4.3,10.9-2.7,19.6-7.9,28.9c-5.2,9.3-10.6,18.5-16.8,27.2c-14.3,19.3-28.3,38.4-41.9,58.3c-12.8,18.8-26,37.4-41,54.5
			c-7.8,8.9-15.8,17.9-24.5,25.9c-7.2,6.7-15.8,11.6-23.7,17.3c-20.8,14.7-41.7,29.6-62.6,44.2c-18.3,12.9-38.9,21.4-60.1,28.3
			c-0.6-3.8-2.9-1.5-5.8-1.9c-3.5-0.5-7.2-3.9-10-6c-2.4-1.7-4.8-4.4-7.3-5.8c-2.7-1.4-3.8,0-6.2-0.6c-5.9-1.3-11.4-14.6-14.5-19.3
			c-5.6-8.2-11-16.6-16.5-25c-21.5-32.6-46.1-67.4-78.6-89.9c-29-20.1-66.4-22.2-99.8-13.7c-12.8,3.2-35,15.6-45.6,3.6
			c-2.4-2.8-7.5-7.8-8.8-11.1c-1-2.7,1.7-6.7,2.6-10c1.7-7.3,1.5-15,0.5-22.3c-2.2-16-7.8-31.6-12.1-47.1
			c-5.2-18.7-10.3-37.4-13.9-56.5c-3.4-18.2-8.1-38.8-7-57.4c0.3-5.5,5.9-15.6-1.5-18.3c-7.1-2.6-11.4,5-12.3,10.6
			c-2.9,15.7-0.6,34.1,1.2,49.8c2.1,18.1,5.9,36.1,10.2,53.9c4.3,17.9,8.9,35.5,13.6,53.3c2.1,7.9,3.4,15.4,0.3,23.2
			c-2.8,7.2-7.9,13.6-11.1,20.7c-3.6,7.8-6.5,16.6-12,23.4c-3.2,4.1-8.5,7-9.2,12.5c-0.7,6.2,5.5,9.1-0.2,13.5
			c-5.6,4.3-11.8,7.8-17.9,11.4c-15.1,8.9-31.5,16.7-46.1,26.3c-3.5,2.3-19.3,16.4-23.3,10.8c0.9,5.1-20,14.2-23.6,16.4
			c-13.6,8.4-27.2,16.8-40.6,25.4c-27.3,17.3-54.8,34.1-81,53c-12.7,9.2-25.8,15.7-39.5,23c-7.3,3.8-14.3,8.2-21.5,12.4
			c-7,3.9-10.3,5.2-18,5c-5.8-0.1-8.9,2.8-13.1,6.4c-5.9,5.1-12.1,9.7-18.3,14.4c-13,9.6-26.5,18.6-39.9,27.4
			c-10,6.5-19.8,13.2-29.1,20.4c-7.9,6.2-15.7,13-25.1,16.7c-1.3-3.9-2.7-7.9-3.9-11.8c-1.5,2.9-2.9,6-3.2,9.4c-0.1,1.9,1.3,5,1,6.4
			c-0.5,3.4-7.3,8-10,10.2c-10,7.9-20.1,15.8-29.9,23.8c-10,8.1-18.1,18.1-27.9,26.3c-4.5,3.8-9.6,8.5-15,10.9
			c-5,2.3-6.3,0.5-9.3-3.7c-3.1,6.3-2.9,8.5-9.9,9.9c-5.6,1.2-8.7,3-10-3.7c-2.8-14.3-4.4-29.5-5.1-44c-0.7-14.9-0.2-30.3,0.6-45.1
			c0.5-7.1,0.9-14.3,2.7-21.1c1.5-5.8,1-7-0.9-12.3c-2.4-6.5,2.4-5.6,3.8-10.9c1.2-4.4-4.9-7.5-3-12.5c0.7-2.1,3-2.9,3.6-5.1
			c0.6-2.3-1-4.2-1.5-6.4c-0.5-2.6-1-3.1,0.3-5.5c1-1.6,3-0.2,3-2.6c0-3.9-5.8-5.8-4.2-11.3c0.6-2.1,2.8-3.4,3.2-4.9
			c0.3-1.4-0.8-3.4,0-5.2c1.3-2.9,2.9-3.8,3.5-7.1c0.3-2.6,0.5-4.6,1.4-7.1c2-5.6,3.6-9.7,3.7-15.8c0.1-6.7-1.3-13.3,0.8-20
			c1.4-4.3,4.4-8.4,4.4-12.9c0-5.7-5.8-8.9-7.4-14.3c-1.9-6.2-1.4-13,1.2-18.9c1,3.4,2.1,6.7,3,10.1c0.8-2.9,2.6-6.4,1.9-9.5
			c-0.5-2.4-2.1-2.8-3-4.8c-2.1-4.2,0.3-2.4,2-6.3c0.8-2-0.2-4.5-0.1-6.6c0.1-2.6,1-4.6,1.7-7c1.2-4.9,0.1-8,3.7-11.7
			c7.4-7.9,17.3-14.5,25.4-21.7c4.5-4.1,9.3-8,13.8-12.1c4.3-3.8,4.2-6,3.9-11.7c-13.2,4.9-22.9,16.4-33.4,25.3
			c-11.4,9.5-24,17.6-35.9,26.6c-23,17.6-47.7,33.8-72.8,48.2c-12.3,7.1-24.8,13.9-37.3,20.9c-11.5,6.5-22.7,12.9-35.6,16.2
			c-10.9,2.8-24.7,5.9-33.5-3.7c-4.2-4.6-2.7-9.9-5.5-15c-1.4-2.6-3-1.9-4.6-3.5c-2.3-2.3-1.6-0.6-0.8-4.1c0.8-2.9,2.2-2.6,1.3-6.3
			c-0.6-2.4-2.2-5-3.1-7.5c-1.9-5.2-3.1-10.3-7.3-14.2c-2.9-2.7-2-1.4-2.8-4.5c-0.5-1.7,0-2.4-1-4.2c-2.1-3.5-7.4-5.5-10.6-7.9
			c0.8,0.5,1.7,0.9,2.6,1.4c-0.3-4.6-2.9-8.6-3.1-13.2c-0.2-4.4,0.7-6.3-1.9-10.2c-2.1-3.4-5.3-5.8-7.4-9.2c-2.2-3.8-3.1-8.4-5-12.4
			c-3.1-7.1-9.4-12.1-10.6-19.8c-0.3-2.3,0.1-4.2-1.4-6.3c-0.6-0.8-2.2-0.8-2.7-1.5c-1.9-2.7-1-5.9-3.1-8.5c-2-2.3-6-2.1-7.8-4.6
			c-2.1-3-0.3-5.3,1-8.2c3.7-8.5-3-9.9-6.7-16.5c-3.7-6.8-5-15-7.4-22.3c-1.4-4.2-3-5.6-5.6-8.8c-2.3-2.9-2.2-1.5-0.9-5.6
			c-7.9,0.3-7.4-16.2-9.1-21.6c-0.6-1.9-1.6-6.2-3.4-7.3c-0.9-0.7-4.4-0.1-4.6,0l0,0l-0.8-0.8c-1.7-1.6-3.5-6.7-3.2-8.6
			c0.1-1.5,1.6-1.7,1.5-3.7c-0.1-1.7-2.4-3.6-3.6-4.8c-5.7-6-15.6-18.1-12.1-27.3c16.6,17.2,31.9,35.9,49.6,52
			c14.7,13.5,32,20,51.8,22.2c11.7,1.3,23.7,2.1,35.5,1.4c9.9-0.6,19.7-2.2,29.6-1.7c4.2,0.2,6.6,0.5,8.2,4.2
			c1.5,3.4-0.7,5.2,3.9,5.3c6.3,0.1,10.6-6.6,13.9,1.9c2.3-9.1,11.1-13.1,19.1-15.9c11.1-3.9,21.7-8.6,32.1-13.9
			c19.8-10.2,38-23.6,52.9-40.2c26.7-29.6,44.3-66,61.9-101.4c18.7-37.6,40-74.6,64.2-109.1c11.3-16.1,24.4-30.1,40-41.9
			c15.3-11.6,32.7-25.4,52-29c9.9-1.9,19.8-3.4,29.7-5C961,287.1,970.6,285.1,977.2,293.4z M392.6,579.8l121.3,270.4
			c-6.8-1.6-13.9-3.1-20.3-6.3c-3.4-1.6-10.2-7.4-14.2-5.9c-1,0.3-0.8,2.3-1.6,2.6c-2.1,0.6-2.8,0.6-5.2,0.2
			c-5.9-1-11.3-4.4-16.8-6.5c3.4-5.5,0.6-10.2-2.9-14.6c-1.6-2.1-4.3-6.3-7.4-5.5c-3.6,0.9-2.8,6.4-7.7,3.8c-1.3-0.7-1-2.8-2.6-3.4
			c-1.7-0.7-2.7,1.3-4.3,0.9c-3.9-0.8-4.8-6.8-8.7-7c-2.7,0-3.6,3.6-6.6,3.9c-4.8,0.5-4.9-3.2-5.1-6.7c-0.5-5.1-0.5-8-5.5-11
			c-1.3,4.6-0.3,11.1-6.4,10c-4.4-0.8-9.5-5.6-11.5,1.7c-26.8-13.2-50.8-31-73.1-50.9c-20.8-18.6-35.9-41-50.9-64.1
			c-6.8-10.6-15.3-21.2-20.9-32.5c-3-6-1.4-10.1,0.5-16.2c0.7-2.6,1.4-5,1.2-7.7c-0.1-1.2-1.4-3.7-0.9-4.8c1.9-3.9,9.6-1.7,13-1.6
			c6.2,0.1,12.4-0.3,18.5-0.9c13-1.2,26.1-3.2,38.5-7.7c25.8-9.2,46.4-24,68.6-39.5c1.5,4.1,3,8,4.5,12.1
			C388.2,588.5,390.4,584.2,392.6,579.8z M403.7,792.5c-1.5,0.8-1.2,1.5,1.2,2.1C404.5,793.9,404,793.2,403.7,792.5z M1180.6,773.3
			c0.6,6.5,5.8,5,9.7,5.7C1188.4,774.8,1185,773.3,1180.6,773.3z M1175.8,776.2c-0.1,0.2-0.1,0.3,0,0.6
			C1175.7,776.5,1175.8,776.3,1175.8,776.2z M1807.7,662.2c-1.3,4.4-3.8,8.6-7.3,11.6c-3.7,3.2-7.9,3.4-12.1,5.6
			c-7.2,3.9-8,13-11,19.8c0,1.3,0.2,2.6,0.8,3.8c4.3-1.6,5.7-6.3,10.2-7.5c2-0.6,3.4,0.1,5.2-1c1.7-1,2.8-3.6,4.2-5
			c3.7-3.7,8.4-5.7,11.5-10.1c3-4.3,4.8-9.5,7.1-14.3c-2.3-0.8-3.1,2.3-5.2,2.1C1808.3,666.8,1808.7,664.3,1807.7,662.2z
			 M1202.1,651.6c-0.9,0.2-3.9-0.1-4.3,1c-1.4,4.6-2.2,9.5-3.2,14.3C1201.1,664,1201.3,657.9,1202.1,651.6z M280.3,636.5
			c-0.8,2.9-1.7,5.6,1.5,7.4c1.2,0.2,2.2,0.2,3.4,0C283.4,641.5,281.9,639.1,280.3,636.5z M1398.2,592.2l-0.2,1
			c-0.6,2.3-1.3,4.8-2.1,7.9C1404.5,597.5,1404.7,597.3,1398.2,592.2z M1395.7,569.3c-1.9,0.1-3.6,0.3-5.5,0.7
			c2,2.1,4.5,4.3,5.5,7.1c0.5,1.3-0.7,4.4,0.1,5.5c2.7,3.2,7.8-0.2,10.8-1.3c-3-1.7-5.9-3.5-7.9-6.3
			C1398.3,574.2,1397,569.3,1395.7,569.3z M1404.8,552.6c-1,4.2-4.8,8.5-3.2,13c1,3.5,3.1,4.5,5.9,3.1c4.1-2.1,4.8-6.3,2.4-9.2
			c-0.6-0.7-1.9-0.3-2.6-1.2C1405.9,556.7,1405.7,554.6,1404.8,552.6z M1805.1,543.8c0.8,1.4,2.4,2.6,2.7,4.2
			c0.1,1.2-1.4,2.2-1.3,3.6c0.3,2.8,0.9,3.5,3.9,3.8c6.4,0.7,11.1-7.4,3.9-10.3C1811.5,543.8,1808.2,544.2,1805.1,543.8z
			 M1388.2,540.4c-1.3,1.9-8.9,12.7-2.9,10.9c1.7-0.5,5.3-4.9,6.2-6.5c0.2-0.6,1.6-1.6,1.5-2.3
			C1392.8,540.9,1389.3,538.7,1388.2,540.4z M1362.9,538.2L1362.9,538.2c-0.5,0.7-0.7,1.4-0.8,2.2c-4.9,3.5,7,9.5,9.1,10.9
			c1.9-5.2,0.7-5.1-3-8.1C1367.4,542.7,1363.9,538.5,1362.9,538.2L1362.9,538.2z M1862.7,523.5l-1.9,1.9c2.4,0.5,0.9,3.5,2.6,4.3
			c2.9,1.4,4.1,0.1,5.8-2.2C1867.2,526.1,1865,524.8,1862.7,523.5z M1319,423.2c-0.1,0.2-0.2,0.6-0.3,0.8
			C1319,423.8,1319.6,424.3,1319,423.2z M1321,409.4c-1,0.2-2.1,0.3-3.1,0.6c0.6,2.9,1,5.7,1.6,8.6
			C1323.5,417.3,1321.3,412.2,1321,409.4z"/>
		<g id="Ink" transform="translate(331.638687, 57.434851)">
			<path id="Fill-11" class="st1" d="M57.3,125.5c0.3,0.6,0.7,1.2,1,1.7C57.7,123.8,57.3,123.3,57.3,125.5"/>
			<path id="Fill-13" class="st1" d="M1382.8,517.5C1382.9,517.5,1382.9,517.5,1382.8,517.5L1382.8,517.5z"/>
			<path id="Fill-15" class="st1" d="M2127.7,1469.2c-22.7,1.4-43.9,11.4-65.8,16.5c-23.3,5.5-47.1,8.8-70.6,13.7
				c-11.3,2.3-22.6,4.8-34,6.3c-11.4,1.5-21.9,4.4-33.1,6.8c-22.2,4.8-45.7,8.2-67.2,15.4c-21.1,7-43.6,8.4-65.6,12.1
				c-23.7,4.1-47.5,6.8-71.1,11c-23.3,4.2-46.5,8.6-69.9,12.8c-11.1,2-22.1,6.2-33.4,6.6c-12.7,0.6-24.6,2-37.1,4.5
				c-47.9,9.4-95.5,20.8-143.1,31.9c-11.6,2.7-23.2,5.5-34.7,8.4c-11.8,2.9-24.1,4.6-35.7,8.1c-21.4,6.4-42.9,12.8-65.1,14.3
				c-11.1,0.7-21.4,5.6-32.1,7.9c-11.4,2.4-23.1,2.9-34.6,4.3c-23.1,2.8-46.5,11.3-68.9,17.8c-22.3,6.5-44.5,14.4-67,20
				c-23.6,5.8-47.5,10.2-71.1,16.1c-45.8,11.5-90.2,28.3-136.6,36.6c-3.6,0.6-9.4,2.4-13,1.2c-3.8-1.4-5.5-6.3-7.4-9.4
				c-5.8-9.3-11-18.2-12.2-29.4c-1.2-10.1-0.9-19.7-7.7-28c-2-2.4-4.5-2.9-1-5.6c2.2-1.7,9.7-1.3,12.5-1.7
				c10.1-1.7,18.7-6.5,28.7-8.9c11-2.7,21.9-5.7,32.6-9.5c21.7-7.8,43.4-15,65.3-21.9c10.8-3.4,21.5-7.1,31.9-11.3
				c5-2,10-4.4,15.4-5.2c5.9-0.9,11-0.7,16.8-2.6c22.7-7.3,46.2-12.7,69.4-18.1c22.1-5.2,44.8-10.8,67.2-13.7
				c11.1-1.4,21.5-4.2,32.3-7.2c11.5-3.2,23.4-4.2,35.2-6.5c20.5-4.2,43.5-5,62.9-13c9.2-3.8,17.9-3.8,27.5-5.6
				c12-2.2,23.8-4.4,35.7-6.5c11.4-2,22.7-4.6,34.1-6.8c11.5-2.2,24.3-2.3,35.3-6.3c19.5-7.1,41.3-6.8,61.6-10.9
				c23.9-4.8,48.2-7.5,72.1-12.4c23.1-4.6,46.9-8,69.6-13.8c10.7-2.8,20.5-5.9,31.6-7.2c12.1-1.4,23.8-4.1,35.7-6.3
				c22.1-4.2,44.6-5.2,66.7-9.1c45.1-7.8,88.8-21.4,132.8-33.9c22.6-6.4,45-12.7,68-17.2c10.8-2.1,21-6,31.6-8.8
				c11.8-3.1,23.9-5.3,35.9-7.5c10.9-2.1,21.8-4.2,32.6-6.7c5.2-1.2,14.2-6,19.1-4.8c4.8,1.2,4.5,8.9,5.5,13.1
				c2.3,10.6,5.8,20.9,8.9,31.2c2.7,8.8,5.5,17.6,8.4,26.5C2134.2,1461.5,2135.7,1468.7,2127.7,1469.2L2127.7,1469.2z
				 M2094.3,1509.1c-11.8,7.1-20,18.8-29.6,28.4c-10.8,10.7-22.4,20.7-33.9,30.5c-12,10.2-24.3,20.1-36.8,29.5
				c-11.7,8.7-24.1,16.9-34.7,27c-10,9.5-17.4,21.6-28.4,30.1c-10.8,8.4-23.9,12.3-34.9,20.3c-5.1,3.7-9.7,8.2-15.8,10.6
				c-6.8,2.8-14.2,4.9-21.1,7.3c-6.8,2.4-13.5,3.2-20.7,4.4c-7.8,1.2-13.2,3.4-21.2,2.1c3.6-2.2,7.2-5.1,11.3-6.5
				c3.4-1.2,6.5-0.6,10-0.7c7.4-0.2,13.7-4.1,21.1-4.5c-6.5-5.5-16.5-1.9-23.6,0.3c-11.1,3.5-22.4,6.3-33.4,9.6
				c-22.2,6.6-44.5,12.8-67,18.2c-47.1,11.5-94.4,22.3-141.6,33.1c-23.2,5.3-46.8,8.6-70,13.8c-21.9,5-44.8,6.8-67.2,11
				c-47,8.9-94.1,17.6-141,27c-46.3,9.2-93.1,18.6-138.5,31.8c-21.2,6.2-42.2,13.7-63.6,18.3c-22.1,4.9-43.3,12.2-65,18.3
				c-22.5,6.3-45.4,11.1-67.7,18.3c-22.5,7.3-45.1,14.2-68,20.4c-4.8,1.3-9.2,2.9-13.8,4.6c-5.7,2.2-10.7,2.2-16.6,3
				c-4.5,0.6-8.1,2.7-12.3,4.3c-5,1.9-10,0.9-14.5,3.6c-9.3,5.3-18.5,6.6-29,8.7c-12.3,2.4-24.1,6.3-36.1,10.1
				c-21.9,7.1-44.2,12.7-66.2,19.5c-3.2,1-38.5,15.3-39.1,11c-0.3-2.7,9.1-7.8,11.1-9.4c9.7-7.2,19.5-14.4,29-21.8
				c17.4-13.3,33.1-28.6,49.4-43.1c16.9-15.1,35.6-28,51.9-43.9c15.4-15.2,28-33.1,42.4-49.2c6.2-7,10.9-13.7,15-22.1
				c4.4-9.1,9.7-11,19.6-10.9c21.8,0.2,45-6.6,65.8-13c21-6.5,42.9-14.2,64.8-17.4c22.2-3.2,43.4-10,65.2-14.6
				c23.1-4.9,45.4-12.2,68-19c22.5-6.7,45.5-12,68.2-18c10.6-2.8,21-5.9,31.5-8.9c11.6-3.4,22.4-3,34.1-4.4
				c21.9-2.7,42.4-9.4,63.9-13.8c10.7-2.2,20.1-5,30.1-9.2c10.2-4.3,21.1-5.2,31.9-7.5c23.4-5,46.4-12.1,69.6-17.8
				c22.2-5.5,44.9-9.9,67.3-14.4c10.7-2.2,21.5-3,32.3-4.5c12-1.7,23.6-5.5,35.5-7.5c46.2-8.1,92.2-16.9,138.5-24.6
				c23.8-3.9,47.4-8.4,70.2-15.9c9.9-3.2,20.3-3.4,30.3-6.2c10.6-2.9,20.8-7.3,31.7-9.1c5.7-0.9,11.6-0.8,17.1-2.7
				c3.7-1.3,6.8-3.7,10.7-4.9c10.9-3.2,23.2-3.4,34.5-6.2c22.9-5.6,46.2-8.9,69.1-14.2c22.3-5.1,44.1-11.7,66-17.8
				C2098.1,1503.7,2097.2,1507.4,2094.3,1509.1L2094.3,1509.1z M663.6,1921.8c-17.2,13.1-34.9,25.6-51.6,39.5
				c-15.1,12.5-28.1,27.2-41,41.9c-4.3,5-9.5,12.4-14.6,4.2c-5.1-8-7.4-18.6-10.6-27.5c-3.5-9.9-6.7-20-10.3-29.7
				c-2.8-7.3-7.8-15-2.4-22.3c5-6.8,13-12.8,19-18.7c7.8-7.8,15.6-15.6,23.8-22.9c15.7-14,32.3-27.2,48.5-40.6
				c17.3-14.5,34.4-29.5,51.3-44.3c14.9-13,29-26.7,45-38.3c37.4-27.3,67.5-62.9,102.5-93c5.8,23.4,9.7,47.6,16.6,70.8
				c2.8,9.4,8.2,17.8,10.8,27.3c3,11.1-4.1,14.6-12.4,20.7c4.3-5.9,9.4-9.4,9.2-17.2c-8.7,2-15.6,8.8-22.4,14.2
				c-7.3,5.8-14.5,11.7-21.7,17.6c-15.9,13.3-31.6,26.9-47.2,40.4C725.4,1870.2,695.6,1897.5,663.6,1921.8L663.6,1921.8z
				 M593.1,1767.7c-15,1-29.5,5.5-44.6,6.4c-7.2,0.5-14.3,2-21.5,2.2c-8.2,0.2-16.2-1-24.5-0.6c-16.1,0.9-31.9-0.5-47.9-1.4
				c-15.9-0.9-31.8-1.3-47.6-3.7c-6.4-0.9-12.8-2-19.3-2.8c-5.2-0.7-13.5-0.8-15.7-6.5c-2.1-5.3-0.2-14.2-0.2-19.8
				c0.1-5.1,0.3-10.2,0.3-15.3c0-7.1-0.5-18.3-9.5-19.4c-5.3-0.6-10.7,3.1-15.2,5.3c-7.5,3.8-15,7.8-22.2,12.2
				c-7.1,4.4-14.2,8.9-20.8,13.9c-5.2,3.9-10.7,9.3-17.9,8.4c-6.2-0.8-11.4-5-16.9-7.3c-7.9-3.2-16.9-4.9-25.4-5
				c1-12.8,2.2-25.6,3.2-38.4c0.3-4.6,0.8-9.4,1.2-14c0.5-5-0.3-11.5,0.9-16.2c2-7.8,16.7-3,23.2-2.6c12.5,0.9,25,1.9,37.5,3
				c5.9,0.6,18.2,4.2,23.3,0.1c6.4-5.1,4.6-24.3,5.1-31.6c0.3-5.6-1.6-20.9,3.5-24.6c3.4-2.4,10.3-0.6,14-0.3c5.9,0.3,12,0.5,18,0.3
				c47.1-0.9,94.1-11.5,140-21.7c10.2-2.3,18.8-5.7,23.9,5.5c5.1,11.3,9.7,22.9,14.7,34.2c3.8,8.8,10.9,17.3,6.2,26.9
				c-5.1,10.7-11.5,20.9-17.5,31.1c-3.9,6.6-16.1,23.2-0.8,24.6c10.9,0.9,23.9-3,34.6-4.9c4.6-0.8,9.2-1.9,12.7,1.7
				c3.9,4.1,5.8,11.8,8,16.8c5.8,12.9,12.2,25.5,17.5,38.8C606.7,1764.9,600.1,1767.2,593.1,1767.7L593.1,1767.7z M361.3,1763.9
				c-13.2-2.2-26.3-4.3-39.6-6.5c-3.4-0.6-22.9-1-20-6.7c1.2-2.2,8.1-4.8,10.1-6c5.7-3.6,11.4-7.2,17.2-10.6
				c10.8-6.3,22.1-12,33.9-15.8C362.4,1733.6,361.9,1748.7,361.3,1763.9L361.3,1763.9z M250.9,1640c0.5-8.6-0.1-19.1,2.1-27.5
				c2-7.7,8.7-9.2,15.9-8.4c8.9,0.9,17.6,3.7,26.6,4.8c11.1,1.3,22.3,1.5,33.4,0.9c0,12.8,1.9,26.9-1.3,39.3
				c-2.6,10.2-12.8,6.5-20.8,5.9c-13.2-0.9-26.6-1.3-39.8-2.8C259,1651.5,250.4,1650.1,250.9,1640L250.9,1640z M536.9,1541.3
				c-0.2-0.5-0.5-0.9-0.7-1.5C536.4,1540.3,536.6,1540.8,536.9,1541.3L536.9,1541.3z M516.3,1483.7c-1.3-3.8-3.6-7.2-4.6-11.1
				c-0.9-3.4-0.8-6.7-2.3-10c-3.4-7.3-8.8-13.5-11.7-21.1c-3.4-8.6-4.3-19-9.6-26.8c-2.3-3.4-4.2-5.1-5.5-9.1
				c-1.4-4.3-3.1-7.3-5.1-11.4c-3-6.4-4.5-12.3-8-18.5c-4.4-7.7-8.6-15.8-12.2-23.9c-1.6-3.7-2.3-13.7-6.4-15.9
				c-3.2-1.7-3.1,1.6-5.8-2.1c-2.1-3-2-4.8,1.9-6.2c-1.5-2.1-4.4-1-6.3-2.9c-1.7-1.7-1.4-4.9-2-7.1c2.4,0.8,4.8,1.5,7.2,2.2
				c-7-15-13.2-30.4-20.8-45.1c-6.5-12.8-10.9-26.6-20-37.6c-4.5-5.5-1.2-11.1-4.3-16.9c-1.2-2.2-3.2-3.8-4.3-6.2
				c-1-2.4-0.6-5.9-2.1-8.1c-2.1-3.1-3.8-1.2-6.4-2.9c-1.9-1.3-2.8-3.5-3.9-5.3c-0.6-0.9-2.8-4.2-2.6-5.3c0.8-3.6,3.1-0.2,4.8-2
				c-3.8-9.6-8-19.1-12.2-28.7c-2-4.4-5.3-20.1-12.2-15.2c-3.8-9.2-2.9-16.8-7-25.9c-5.7-12.9-10.9-26.1-16.5-39.1
				c-2.7-6.4-5-12.9-7.9-19.1c-2.4-5.2-6.5-7.8-9.6-12.4c-2.8-4.2-2.9-11.5-4.6-16.8c-7-21.6-18.8-40.4-28.6-60.7
				c-6-12.7-11.6-25.6-17.4-38.4c-2.8-6.3-6-12.3-9.1-18.5c-1.2-2.4-2.2-4.6-2.7-7.4c-0.2-1.5,0.3-4.8-0.3-6c-0.9-1.7-3.6-6.4-5-9.2
				c-2.1-4.2-6.3-6.6-7.3-10.9c-0.6-2.7,0.5-3.9-1.3-6.6c-2.1-3.2-3.2-3.6-3.8-7.7c-0.9-6.3-2.9-10.1-6.7-15.3
				c-3.7-4.9-5.7-9.5-8.1-15.1c-1.7-4.2-7-10.3-5.1-15.1c1.5-3.9,6.2-4.5,9.7-5.5c6.3-1.5,12.4-3.2,18.5-5.3
				c12.9-4.4,24.1-10.9,35.4-18.6c10.3-7,21-15.8,32.3-21c10-4.6,20.3-14.6,29.9-21.8c11.3-8.4,23-19.6,36.2-24.6
				c-13.6,30.6-18.5,63-21.5,96.2c-3.1,34.6-3.2,68.4-2.4,103.1c0.8,33.7-0.3,67.2,5.2,100.6c2.7,16,6.7,31.7,8.8,47.8
				c0.9,7.5,3.8,28.3,13.8,29.6c6.3,0.8,10.3-5.3,15.6,1c3.8,4.6,4.4,10.9,6.2,16.2c2,5.9,8.2,8.9,7.2,15.4
				c-0.6,3.2-2.2,4.2,0.2,7.1c1.4,1.7,4.9,3.9,6.6,5.9c0-1-0.7-3.7,0-4.5c0.8-1.2,2.7-0.1,3.7-1.2c-1,1-2.6,0.5-3.4,1.5
				c-1.7,2.4,0.7,7.1,1.6,9.4c2.2,5.6,5,10.3,8.7,15.1c3.5,4.5,6.4,10.3,10.4,14.4c3.9,3.9,8.9,5.5,12.4,10.2
				c3.1,4.1,5.1,8.7,9.5,11.6c5,3.2,7.7,6,11.1,10.8c7.9,10.3,22.4,16.5,33.4,23.1c11.8,7.1,25.2,12.9,39.2,12
				c2.1-0.1,4.4-0.7,6.5-0.2c3.6,0.7,3,2.2,5.3,3.9c3.4,2.6,7.3,2.3,11.6,2.7c14.3,1,29.2,1.3,43.4,3.4c7,1,27.6,7.5,30.4-2.3
				c9.6,7,18.8,3.1,29.5,0.7c10.6-2.3,23.3,0.6,32.7-5.6c4.9-3.2,5.5-4.3,11.7-4.6c5.2-0.2,10.4-0.1,15.2-2.3
				c4.8-2.2,7-3.8,12.2-4.8c6.2-1,11-3.7,16.7-6.2c11.3,36.9,30.1,70,34.1,109c2.1,19.7,0.7,38.2-2.7,57.7
				c-1.4,8.4-2.6,16.2-7.2,23.6c-4.8,7.5-11.5,14.2-18,20.2c-12.8,11.7-27.5,21.1-42.6,29.6c-15.9,8.9-32,18-48.9,25
				c-17.2,7.1-34.1,14.5-50.9,22.3c-18.1,8.4-35.6,12.3-55.1,15.6c-4.9,0.8-9.7,1.7-14.5,3.1c-3.8,1-9.7,3.9-13.7,1.5
				c-4.6-2.9-6.6-13.7-8.7-18.6c-3.6-8.6-6.3-18.2-11.5-26c-1.9-2.7-2.8-4.3-3.8-7.2C520.6,1487.9,520.3,1484.9,516.3,1483.7
				c-0.7,3.1-2.7,8.7,1.7,10.1C514.6,1492.8,514.7,1490.6,516.3,1483.7L516.3,1483.7z M487.7,1434.7c0.1,0.3,0.2,0.8,0.3,1
				C487.9,1435.4,487.8,1435.1,487.7,1434.7L487.7,1434.7z M425.1,1285.9c-0.5-0.7-0.9-1.4-1.4-2.1c1.7-0.7,2-0.1,3,1.2
				C426.2,1285.4,425.6,1285.6,425.1,1285.9L425.1,1285.9z M310.6,1027.5c-1.6-2-1.5-1.5-0.5-3
				C312.1,1025.4,312.2,1026.3,310.6,1027.5L310.6,1027.5z M311.7,1031.4c-0.8-0.5-0.8-0.9,0-1.4
				C312.7,1030.5,312.7,1031,311.7,1031.4L311.7,1031.4z M310.2,1041.5c0.2,1.4,0.9,2.4,2,3C311.1,1044,310.4,1043,310.2,1041.5
				L310.2,1041.5z M298.7,1011.8c-0.2,1.3-0.5,2.6-0.6,3.8c0.5-2.6,0.8-5,0.5-7.5c0.5,3-0.3,3.1,1.9,5.6
				C299.9,1013,299.3,1012.4,298.7,1011.8L298.7,1011.8z M399.5,1050.3c0.2-0.5,0.5-1,0.7-1.5
				C399.9,1049.3,399.7,1049.8,399.5,1050.3L399.5,1050.3z M545.7,1235.2l0.3-1.9L545.7,1235.2z M617.2,1249.6
				c0,1.2,0.1,2.4,0.2,3.6C617.3,1252.1,617.2,1250.9,617.2,1249.6L617.2,1249.6z M594.2,1254c0.1-0.1,0.2-0.2,0.3-0.3
				C594.4,1253.8,594.3,1253.9,594.2,1254L594.2,1254z M652.4,1254.6c-2,0.8-3.5,2.4-5.2,3.6
				C647.4,1257.3,651.3,1255.1,652.4,1254.6L652.4,1254.6z M1282,1426.6c-3.5-1.5-7.7-4.9-4.9-9.1c-4.1-0.6-4.1-4.6-5.1-7.8
				c-1.9-5.1-5.1-9.5-7.9-14.3c10.1-4.5,21.4-5.5,32.1-7.5L1282,1426.6z M1273.4,1439.3c3-4.1,5.8-8.4,8.6-12.7
				C1281,1430.4,1275.7,1436.1,1273.4,1439.3L1273.4,1439.3z M1162.2,1202.4l1-0.9C1162.3,1201.6,1162,1201.8,1162.2,1202.4
				L1162.2,1202.4z M1138.9,1150.5c-0.6-0.1-1-0.7-1.4-1.5C1137.8,1149.8,1138.3,1150.4,1138.9,1150.5L1138.9,1150.5z
				 M1129.7,1130.5c-3.8-2.7-6.8-6.3-9.1-10.4C1123,1124.3,1125.9,1127.9,1129.7,1130.5L1129.7,1130.5z M1119.8,1118.5
				c-0.5-1-1-2.2-1.4-3.4C1118.9,1116.3,1119.4,1117.3,1119.8,1118.5L1119.8,1118.5z M1123.8,1110.3c-1.5-0.1-3.6-0.5-5.1,0.3
				C1119.7,1110.2,1121.4,1110.2,1123.8,1110.3L1123.8,1110.3z M1148.9,1151.9c-1-0.5-1-1.7-1.7-2.4c-0.9-0.7-2.3-0.7-2.9-1.2
				c-2.2-1.9-1.6-0.8-1.9-4.4c-0.3-4.5-3.1-7.1-4.1-10.7c-1.2-4.5,0.6-6.8-3.1-10.6c-4.4-4.5-10.2-8.4-11.7-15
				c-0.7-3,0.3-5.7,0.3-8.6c0-2.2-2.2-6.5-1.3-8.5c1.6-3.5,11.8-3.8,15.3-4.6c16.7-3.8,33.4-7.7,50.1-11.5
				C1177.3,1101.3,1165.8,1128.2,1148.9,1151.9L1148.9,1151.9z M1155.1,1191.1c0.2,0.3,0.5,0.6,0.6,0.8c-0.6-0.8-1.3-1.6-1.9-2.4
				C1154.3,1190.1,1154.8,1190.7,1155.1,1191.1L1155.1,1191.1z M1123.7,1500.8c0.7-8.5,3.8-16.6,5.6-24.8c2.1-9.3,2.8-18.8,2.8-28.3
				c0-18.1-2-36.2-3-54.3c-2.2-37.3-8.2-74.3-13.8-111.2c-5.3-35.2-12.3-70-28.3-102c-7.3-14.5-16.6-29.1-20.7-44.9
				c-0.9-3.6-0.8-7.5-2-10.9c-1.3-3.7-3.9-5.6-6.3-8.6c-5.5-7.1-8.6-16.5-12.5-24.5c-3.6-7.3-6.5-15.2-10.7-22.2
				c-1.6-2.8-3.5-5.3-5.9-7.4c-1.7-1.5-5.5-3-6.5-5.1c-2.1-4.3,3.6-7.7,6.5-10.9c7-7.7,13.2-16.1,19.7-24.1
				c4.9,25.5,9.9,50.6,19.8,74.7c9.6,23.4,19.8,46.4,31.1,69.1c21.9,44.1,43.4,88.4,64.2,133.1c4.9,10.4,10.6,20,16.1,29.9
				c6.3,11.3,11.5,23.1,17.5,34.4c11.5,21.6,21,44.2,32.7,65.7c11.6,21.4,25.9,40.9,38.9,61.3c3.4,5.3,15.6,19.1,13.6,25.8
				c-0.9,3-3.7,3-6.3,3.5c-6.8,1.3-13.9,1.7-20.8,2.9c-13.3,2.4-26.3,6.4-39.9,8.6c-11.7,1.9-23.6,2.7-34.8,6.5
				c-6.6,2.3-12.8,2.4-19.6,3.6c-6.4,1-12.7,3.1-19,4.8c-13.9,3.5-28.2,5.5-42.4,8.2C1110.2,1537.2,1122.2,1520.6,1123.7,1500.8
				L1123.7,1500.8z M1094.2,1279.8c3,18.2,6,36.6,9.1,54.8c-15.8-6-32.5-10.4-46.5-20.2C1067.4,1300.9,1081.3,1290.8,1094.2,1279.8
				L1094.2,1279.8z M1041.7,1132.7c6.3,2.2,4.6,4.9,1.9,10.3c-2.8,5.6-5.5,11-7.7,16.8c-5.8,15.4-10.9,31.1-16.1,46.8
				c-4.9,14.7-9.9,29.5-14.5,44.2c-0.6,1.9-1.9,9.5-4.6,9.3c-3.1-0.2-6-13.8-7-16.2c-5.5-15.2-12-30.1-19.4-44.5
				c-2.3-4.4-7.5-10.7-7-16c0.6-5.1,5.9-7.5,9.7-10c13.6-8.5,27.2-16.9,40.7-25.5c4.6-3,9.1-6,13.5-9.4
				C1033.4,1136.8,1038.5,1131.6,1041.7,1132.7L1041.7,1132.7z M823,1391.6c-0.1-0.7-0.1-1.4-0.1-2.1
				C823,1390.2,823,1390.9,823,1391.6L823,1391.6z M823,1389.5c0-0.7,0.1-1.4,0.2-2.1C823,1388.1,823,1388.8,823,1389.5L823,1389.5z
				 M561.9,1601.7c-0.2,0-0.5-0.1-0.8-0.1C561.5,1601.6,561.7,1601.7,561.9,1601.7L561.9,1601.7z M566.5,1659.9
				c3,6.5,5.9,13.2,9.2,19.6c1.9,3.6,6.5,9.5,3.9,13.7c-2.3,3.8-8.6,3.1-12.3,3.5c-7.1,0.7-14.2,1.7-21.2,2.6
				C552.9,1686.1,559.7,1673,566.5,1659.9L566.5,1659.9z M563.1,1602.4c0.7,1,0.1,3,0.7,4.2C563.2,1605.5,563.8,1603.5,563.1,1602.4
				L563.1,1602.4z M601.4,1686.3c-1.6-1.6,0.2-5.9,0.1-7.8c-0.2-4.5-1.4-3.1-4.4-5.3c-5.8-4.3,3.2-7.7-0.2-13.6
				c-0.6-1-2.4-1.3-2.9-2.3c-0.5-0.9-0.1-2.1-0.5-2.9c-0.9-2.6-1.9-5.6-2.8-8.2c-1.6-4.3-3.8-13.8-10.2-12.5
				c5.8-12.2,11.7-24.3,17.5-36.4c13.1,33.7,27.6,67.3,49.3,96.4c-15.2,0-30.4,0.8-45.5-1C604.7,1690.5,601.4,1688.8,601.4,1686.3
				L601.4,1686.3z M636.8,1759.6c-1.2,0.6-2.3,0.1-3.5-0.8C634.5,1759.7,635.5,1760,636.8,1759.6L636.8,1759.6z M803.2,1656.3
				c-17.5,12.7-34.7,26-51.3,39.8c-7.2-20.2-7.8-41.8-8.7-63C762.1,1643.4,783.7,1647.2,803.2,1656.3L803.2,1656.3z M946.8,1590.8
				c-5.2,0.6-9.5-2.3-14.2-4.2c-5.5-2.2-11.1-2.9-16.8-3.8c-12.2-2-24.4-4.2-36.4-6.2c17.8-22.7,35.6-45.4,53.4-68.1
				C932.5,1536.5,941.6,1563.4,946.8,1590.8L946.8,1590.8z M1019.1,1510.4c3.4,6.5,6.8,13.1,10.2,19.6c2.2,4.2,4.4,11.8,7.8,15.2
				c4.2,4.1,8.8,0.5,7.8-4.6c-1.2-5.6-6-12-8.8-16.8c-2.9-5.1-7.1-7.9-1.5-11.3c4.5-2.8,10.8-4.4,15.8-5.8c15-4.1,30.5-4.1,45.8-3.5
				c-5.6,12.7-12.7,24.7-20.2,36.2c-3.2,4.9-6.8,9.4-11.1,13.5c-3.4,3.2-4.5,7.4-7.7,10.6c-3.6,3.6-9.2,4.6-13.9,5.8
				c-5.7,1.4-10.7,3.5-16.1,5.5c-5.8,2.1-12.7,1.4-18.1,3.8c-5.1,2.3-9.2,4.3-14.9,5.5c-11.1,2.6-21.1,9.1-32.1,11
				c-5.3,1-5.3-0.1-7-5.3c-1.4-4.5-2-9.2-2.8-13.8c-5-28.3-9.1-56.6-14-85c-12.8,14.6-24.1,30.4-36.9,45
				c-6.4,7.3-13.3,14.2-19.8,21.4c-3.9,4.4-12.4,11.1-12.4,17.8c0,9.4,15.3,11.8,22.2,12.9c17.9,2.9,36.2,3.5,52.8,12
				c-5,5.6-13,6.8-19.7,9.2c-9.2,3.2-18.1,7.1-27.2,10.7c-4.5,1.7-9.2,4.1-13.8,5.5c-5,1.5-10.2,1-15.1,2.3c-3.8,1-7,3.6-10.7,5
				c-4.2,1.6-8.4,1.6-12.8,2.2c-9.5,1.2-18,4.8-26.7,8.4c-8.7,3.5-15.9,2.7-24.6-0.5c-18.6-6.5-37.7-11.7-55.8-19.5
				c-2.4,18.6-3.4,39.5,1.7,57.7c1.9,6.6,7.5,15.1,3.1,21.7c-3.6,5.3-12.4,9.2-17.4,13c-15.4,11.6-30.6,24-47.8,32.7
				c-8.5,4.3-17.2,7.1-26.6,8.4c-3.1,0.5-9.9,2.3-12.4,0.9c-0.6-0.3-0.2-2.1-0.9-2.4c-2.2-1.3-2.8-1.4-5.5-1.7
				c4.9-6.4-2.8-6.4-5.7-10.4c10.9-8.7-7.3-17.8-10.1-25.2c6.5,0.7,4.4-3.9,2.2-7.8c-3.4-5.6-8.6-5.5-14.7-6.8
				c4.6,1,9.1,2.7,13.8,2.9c4.6,0.1,9.3-0.9,13.8-1.5c5.3-0.7,20.4,0.9,23.4-4.4c3-5.5-4.9-14.5-7.5-18.9
				c-5.6-9.1-12-17.6-16.9-27.2c-9.5-18-17.6-37-25.2-55.8c-3.6-9.1-8.2-13.2-14.4-3.1c-4.5,7.4-6,16.6-12,23.3
				c-3.9-4.4-4.4-8-6.4-13.6c-2.1-6.2-6-11.3-8.7-17.1c-5.7-12.7,9.7-9.5,17.5-10.4c13-1.5,24.6-7.1,36.8-11.4
				c13-4.5,25.8-9.5,38.3-15.1c25.1-11.3,50.6-21.5,73.9-36.1c21.4-13.5,44.3-25.6,61.7-44.3c9.4-10.1,16.6-21.7,21.2-34.8
				c2.4-7.1,4.2-14.3,6.2-21.6c1.7-6.3,4.8-12.8,4.2-19.5c0,0.3,0,0.7,0.1,1c7.9-5.6,5.3-15.1,5.2-23.2c0-1.5-0.6-3.5,0.1-4.9
				c0.9-1.7,2.9,0,3.7-2.3c0.8-2.3-2.7-6.5-3.2-8.8c1.2,0.6,2.2,1.2,3.4,1.6c1.2-7.2,3.1-14.3,2.9-21.6c-0.2-7.3-2-14.7-3.5-21.8
				c-1.4-6.6-2.9-13.3-4.8-19.8c-0.3-1.3,0.1-3.4-1.3-4.3c-2.2-1.5-5,0.7-5.5,2.9c0.5-2.1,1.5-2.8,1.5-5.2c0-2.3-1-5-1.4-7.4
				c-1-6.4-2.2-12.7-3.5-19c-1.2-5.6-2.1-11.3-3.6-16.7c-0.5-1.9-1.5-3.8-1.6-5.7c-0.1-2.9,0.6-2.4,1.5-4.5c0.2-0.6,1.4-1.2,1.7-1.9
				c0.6-1.3-0.6-3.1,0.1-4.4c0.8-1.6,2.1-2.1,3.6-2.7c5.2-1.9,7.1-0.5,11.3-4.9c3.4-3.6,7.9-4.9,12.1-7.4c5-3.1,9.2-5,13.7-9.2
				c4.8-4.4,10.2-8.2,14.5-13.1c2.9-3.4,3.8-9.2,7.7-11.6c2.3-1.5,5.3-1.4,7.8-2.9c2.4-1.5,4.6-3.9,7-5.6c5.9-4.3,12.1-8,18-12.2
				c23.9-16.5,47.1-34.7,67.5-55.5c10.3-10.4,20-21.5,29.8-32.4c1-1.2,7.1-9.7,9.4-9.4c2.6,0.5,4.6,11.4,5.8,13.8
				c5.7,11.7,10.9,23.2,15.3,35.4c1.7,4.8,3.8,7.5,0.1,11c-4.5,4.3-12,7-17.3,10.1c-12.9,7.5-25.8,15.1-38.6,22.7
				c-6.8,4.1-23.4,10.3-25.8,18.8c-3,10.8,9.4,25.9,13.9,34.9c6.3,12.5,10.9,25.5,15.6,38.8c2,5.6,8.2,29.4,17.2,27.2
				c4.5-1,6.3-6.7,7.8-10.6c2.4-6.4,4.9-12.8,7.1-19.1c11.3-31.5,21.4-63.3,33.8-94.2c10.2,18.2,18.3,37.6,26.9,56.6
				c3.7,8.4,6.5,16.5,8.4,25.4c1.7,8.6,5,19.3,4.5,28.2c-0.9,17.6-72.7,43.9-39.9,65.1c14.3,9.3,32.8,10.8,47.4,19.5
				c7.7,4.6,7.4,12.3,7.2,20.3c-0.3,10,0.5,20.1,1,30.1c1.2,21.7,4.9,44.9,0.3,66.3c-1.5,7.1-2,16.2-4.4,22.9
				c-3.4,8.9-17.1,5.7-24.7,5.5C1071.2,1490.8,1010.7,1494.4,1019.1,1510.4L1019.1,1510.4z M1295.1,1480.9c2.8-1.7,2.9-1,0.8,1.5
				C1295.7,1482,1295.3,1481.4,1295.1,1480.9L1295.1,1480.9z M1315.1,1509.7c-1.5,2.1-4.4,2.2-5.8,1.7
				C1310.6,1511.9,1313.5,1511.8,1315.1,1509.7L1315.1,1509.7z M474.9,1019.8c20.1-18.1,44.6-31.2,65.8-48.2
				c23-18.3,46.9-35.2,70.8-52.1c47.7-33.8,94.4-68.6,142.8-101.3c47.8-32.4,97.7-61.6,148.2-89.7c23.2-12.9,44.9-28.8,68.9-40.2
				c12.7-5.9,25.1-12.1,37.8-17.8c6.2-2.8,9.7-3.7,14.4,1.9c3.2,3.9,5.6,8.7,8.5,13c8.6,12.4,17.4,24.7,28.1,35.4
				c4.6,4.6,20.4,20.8,27.9,13.9c2.9-2.8,3.4-8.4,4.5-12.1c2.3-7.7,5.1-15.2,7.7-22.7c5.3-15.3,11.6-30.4,17.5-45.6
				c12.4,6.3,25.3,11.4,36.1,20.3c10.3,8.6,19.8,17.8,29.1,27.5c3.6,3.8,4.6,3.9,2.7,8.6c-0.9,2.1-2.3,3-1.2,5.6
				c0.9,2.1,4.1,2.2,4.1,5.1c0,2.8-5,7.2-7.1,8.7c-5.8,3.9-13.2,6.4-19.5,9.4c-7,3.4-25.5,8.5-27.7,17.2c-1.5,6.3,4.4,10.1,8.7,13.5
				c5.8,4.4,11.7,8.8,17.4,13.3c11.4,9.3,21.6,20,30.3,31.7c8.1,10.8,13.6,23.2,21.2,34.1c2.6,3.6,8.4,11.7,13.2,7.3
				c4.1-3.6,4.3-14.5,5.3-19.4c3.6-16.4,7.5-33.1,13.3-48.7c15,24.3,25.5,49.9,36.9,75.9c11.8,27,24.4,53.9,35.9,81
				c2.9,6.7,12.7,19.7,7.1,26.6c-2.7,3.4-7.4,5.1-10.9,7.4c-5.8,3.8-11.3,8.1-16.8,12.3c-10.8,8-25,16-33.5,26.6
				c-7.9,9.7,3,18.7,10.9,23.8c11.8,7.7,25.9,10.7,39.1,15.1c14.5,4.9,28.6,12,43.9,13.9c-0.5-6.5-0.5-12.5-6.8-16
				c-7.3-4.1-16.2-5.5-24.1-8c-18-5.7-35.6-12.4-53.2-19.4c18.6-17.2,38.3-33.1,58.5-48.3c19.3,43.2,26,90.4,45,133.5
				c19,43.1,37.7,87,47,133.5c-2.1-1.5-4.1-3.1-6.2-4.6c-17.6,24.3-22.1,55.8-41.8,78.8c-3.1-14.7-11.6-26.8-18.8-39.8
				c-3.4-6-11-18.7-5.9-25.4c3.1-4.3,12.1-4.6,16.8-5.8c8-2,15.7-5.2,23.2-8.4c5.3-2.2,11.7-3.6,16.6-6.5c3.9-2.3,7.7-7.9,0.8-7.9
				c-5.9,0-13,4.1-18.5,5.8c-8.1,2.6-16.2,5-24.5,7.2c-5.3,1.4-11.1,1.5-16.4,3.1c-6.8,2.2-7.5,7.4-7,14c1.4,14.6,8,27,15.4,39.2
				c3.8,6.4,7.7,12.7,9.9,19.7c1.5,4.6,2.2,11,6.8,13.8c10.8,6.6,20.5-20.8,23.7-27.3c9.1-18.1,17.5-36.6,26.2-54.9
				c4.3,3.7,5.3,9.7,7.1,14.9c1.9,5.7,3.8,11.4,5.8,17.1c2.2,6.6,4.2,13.3,6.7,19.8c1.6,4.2,4.9,8.8,4.3,13.6
				c-0.7,5.7-6.5,10.6-9.9,14.9c-3.6,4.6-7,9.5-10.3,14.3c-7.8,11-15.9,21.7-23.3,33c-7.4,11.3-13.7,23.3-21,34.7
				c-7,10.8-14.6,21.2-22.2,31.8c-7.2,10-12.5,20.7-19.1,31c-7.8,12.1-16.9,23.2-25.5,34.7c0-1-3.4-3-4.1-3.9
				c-1.5-2-0.3-3.4-3.2-3.8c-2.8-0.5-3,3-6,0.1c-1.9-1.7-1.6-4.9-0.9-6.6c0.9-2.2,2.7-1.5,2.4-4.4c-0.1-1-1.9-1.9-2.2-2.8
				c-0.6-1.5-0.1-3.4-0.5-4.9c-1.4-6-7.5-9.9-11.1-3.7c-0.5-1.4-0.8-2.8-1.3-4.2c1.2,0.1,2.3,0.2,3.5,0.2
				c-0.8-5.1,0.2-10.2-1.6-14.7c-1.6-4.1-3.5-6.6-2.2-10.9c1.3-4.6,4.6-10.9,6.6-16c2.7-6.6,5.1-13.5,7.4-20.2
				c3.2-9.5,10.2-23.8,3.7-33.3c-3.2-4.8-7.1-4.4-12.2-3.2c-7.2,1.7-14.4,3.7-21.4,5.8c-4.6,1.4-10.3,3.7-15,1.3
				c-4.9-2.6-7.1-10.3-9.1-15.1c-3-7.2-5.8-14.4-9.6-21.2c-3.2-5.8-5.5-12.3-9.7-17.3c-3.5-4.1-6.8-8.1-7.8-13.6
				c-0.3-1.9,0.5-4.2-0.5-5.8c-1-2-3.5-2.2-4.6-4.5c-2.8-5.5-0.6-11.3-7.1-15.1c-2.4-1.5-12.1-4.2-3.8-6.5
				c-3.6-9.5-8-18.8-12.3-28.1c-2.2-4.6-4.3-9.3-6.4-13.9c-0.9-2.2-1.6-5.3-2.9-7.3c-1-1.6-2.4-2.1-3.4-3.4c-2.2-3.1-1.5-5-2.4-8.6
				c-0.9-3.8-4.1-7-6.3-10.1c-6-8.6-8.2-18.8-11.3-28.7c-1.3-4.3-3.7-9.3-4.2-13.8c-0.5-4.2,0.8-5,3.2-8.8
				c5.8-9.4,11.4-18.9,16.4-28.8c4.2-8.2,7.7-16.9,11.7-25.3c3.5-7.2,7.9-14,10-21.7c1.9-6.6,1.5-14-3.8-19
				c-7.1-6.7-17.4-2.2-25.4,0c-10.2,2.8-20.4,5.5-30.6,8.2c-5,1.4-18.5,8.2-22.9,3.6c-1.9-1.9-1.4-5.1-1.6-7.5
				c-0.3-3.5-1.4-6.3-2.9-9.5c-1.7-3.6-3.9-6.8-5-10.7c-1-3.5-0.5-6.6-3-9.4c-2.3-2.6-2.8-1.3-3-5.2c-0.2-3.7,0.6-5.9-1.3-9.6
				c-1.7-3.4-4.3-6.2-5.8-9.6c-1.2-2.7-0.8-4.8-1.2-7.7c-1.2-7.5-9.4-15.2-8-23c1.3-7,9.4-10.6,10.3-18.2c2.3-19.4-20.3-6.4-27.4-1
				c-2.2,1.6-4.8,5-7.9,4.2c-2.4-0.6-3.1-4.2-5.3-4.9c-6.2-2-3.2,10.2-4.9,13.9c-3.7,8.4-12.8,15-18.7,21.7
				c-7.3,8.4-13.9,17.3-21.1,25.9c-2.3,2.7-9.2,13.7-13.5,14.4c-7,1.2,2.3-10.2,3.5-12c5.1-7.9,8.4-17.3,11.8-25.9
				c4.1-9.9,8.7-19.4,13.5-28.9c4.5-9.2,9.2-18.2,13.1-27.6c2.4-5.9,8.5-15.6,7.3-22.3c-1.3-7.3-9.2-6.8-15.1-6.2
				c-9.9,1.2-19.6,2.8-29.4,4.3C975,926,950,927.9,925.7,933c-4.4,0.9-26.6,3.9-23.9,10c2.1,4.6,20-0.9,23.2-1.4
				c12-1.7,23.8-3.1,35.7-4.3c12.7-1.3,25.3-2.4,37.8-4.6c12.3-2.2,24.5-6.5,37-7.2c-6.6,21.9-19.6,42.1-28.6,63.1
				c-4.4,10.3-9.2,20.5-13.9,30.9c-2.2,4.8-4.6,14.5-10.4,16c-6.5,1.7-12.8-7.5-16.2-11.8c-6.8-8.5-12.4-17.6-17.9-27
				c-3-5.2-29-54.2-34.5-50.7c-2,1.3,35.9,65,39.9,70.9c6.2,8.8,15.2,24.1,26.2,27.5c2.1,0.7,8.2-0.2,8.6,2.6
				c0.3,2.6-7.1,5.2-8.7,6.2c-10.8,6.6-19.6,16.8-28.9,25.5c-10.4,9.9-22.1,18.2-33.7,26.7c-4.4,3.1-8.8,6.3-12.9,9.9
				c-3.2,2.9-7.1,7.5-11.4,8.7c-4.1,1-5-0.8-7-4.1c-3.8-6.3-7.8-12.4-11.6-18.7c-15.1-24.4-31.5-46.9-52.5-66.6
				c-2.6-2.4-6.4-5.9-8.7-1.7c-2.9,5.6,3.1,7.4,6.4,9.6c10.8,7.3,19.6,20.4,27.3,30.8c8.9,12,17.1,24.5,25.1,37.1
				c3.8,6,14.5,15.7,4.5,20.4c-10.7,5.1-24.5,5.3-35.9,8.8c-13.6,4.2-26.5,10.4-40,14.6c-11.6,3.6-23.6,5.9-35.3,9.1
				c-2.9,0.8-9.3,2.1-10.3,5.6c-1.3,4.1,2.7,4.6,5.6,4.8c10.3,0.3,22.6-2.8,32.5-5.3c7.9-2,15.8-4.5,23.4-7.1
				c5.1-1.7,8.9-5.1,11.8,0.5c-8.6,3.7-16.4,8.1-25.1,11.3c-3.1,1.2-4.8,3.6-7.5,5.2c-3.8,2.4-8.7,3.2-12.9,4.9
				c-9.1,3.5-17.5,8.4-26.8,11.4c-9.7,3.2-20,5.1-29.8,8.1c-7.7,2.3-13.6,6.8-21.8,7.2c-4.3,0.2-8.8-0.3-13.1,0.3
				c-3.9,0.6-7.2,2.9-11,3.5c-2.8,0.5-6.7-0.1-9.5-0.2c-1.3-0.1-2.1,0.2-3.5,0.1c-0.9-0.1-2.1-1.6-3.2-1.7
				c-3.8-0.6-8.8,1.5-12.9,1.5c-4.3,0-8.6-0.5-12.9-0.9c-8-0.7-16.8-1.2-23.8-5.6c-6.5-4.1-13.1-2.2-20.4-5.1
				c-7.8-3.2-15.1-0.6-22.7-3c-3.1-1-4.4,0.1-7.7-0.1c-3.9-0.2-8.4-5.1-12-6.8c-17.2-8.2-32.7-17.2-46.2-30.9
				c-5.7-5.7-9.9-12.7-17.3-16.1c-7.1-3.4-8.8-10.3-14-16c-4.8-5.2-24.4-21.6-18.2-29c2.1-2.4,7.3-3.4,10.2-4.5
				c4.6-1.9,9.3-3.9,13.9-5.9c10.6-4.4,21.2-8.4,32.1-11.7c-3.8,11.1-7.2,22.6-11.6,33.7c-1.3,3.2-4.2,7.4-3.8,11
				c0.3,4.5,4.5,5.8,6.7,9.2c3.6-9.3,6.8-18.7,10.6-27.9c3-7.7,7.5-16.2,7.1-24.7c-1.3-20.9-23.8-7.2-34.1-2.7
				c-8.1,3.5-16.4,7.1-24.5,10.6c-4.6,2-11.6,6.2-16.7,3.7c-6.6-3-6.4-12.5-4.8-18.3c2.7-9.4,1.5-12.3-6.4-18.3
				C448.6,1042.6,462,1031.5,474.9,1019.8L474.9,1019.8z M996.1,623.6c1.7,4.6,9.3,17.3,5.9,21.5c-1.9,2.3-9.5,4.2-12.3,5.3
				c-5.2,2.3-10.3,4.6-15.6,6.8C981.5,646,988.8,634.7,996.1,623.6L996.1,623.6z M1107.3,653c-5.8,15.1-11,30.4-15.8,45.8
				c-1.7,5.5-4.8,27.5-13,26.3c-4.4-0.6-8.7-6.4-11.8-9.3c-5-4.6-9.6-9.5-14-14.9c-9.4-11.1-19.4-22.3-26.1-35.4
				C1052.1,654.9,1080,653.9,1107.3,653L1107.3,653z M1200.4,720.5c-0.6-0.6-1.3-1.3-1.9-1.9
				C1199.1,719.2,1199.7,719.9,1200.4,720.5L1200.4,720.5z M1208.2,735.5c5.7,8.9,11.1,18,16.8,26.9c-3.7-5.8-7.3-11.6-11-17.4
				c-3.6-5.5-3.2-6.4-9.5-4.3c2.9,7.4,4.2,15,11.6,19.3c8.7,5,16.5,6.7,18.9,18c2.2,10.3-3,20.8-5.8,30.5
				c-3.6,12.4-5.9,25.3-9.1,37.8c-7.2-3-10-11.6-13-18c-4.3-8.9-9.9-17.5-15.9-25.4c-13.1-16.9-30.4-30.1-46.9-43.4
				c12.7-6.5,25.2-12.9,37.8-19.4C1189.9,736.2,1201.9,725.6,1208.2,735.5L1208.2,735.5z M1473.1,1471.5
				c15.1-25.2,29.5-50.9,45.6-75.6c7.8-12,16.5-23.2,25-34.6c7.1-9.4,13.2-20.3,21.6-28.6c9.1-8.8,17.2-18.7,25.6-28.1
				c3.9-4.4,7.1-9.4,11.4-13.5c4.8-4.5,10.2-8.5,15.1-12.9c9.9-8.9,18.6-19.1,28.7-27.9c10.1-8.7,21.1-16.7,32.1-24.4
				c8.5-5.9,19.7-15.8,30.5-15.8c11.5,0,10,13.7,10.1,22.1c0.3,13.8-1.9,27.6-3.6,41.3c-1.7,14-3.9,28-7.8,41.7
				c-7.3,26.1-15.2,53.2-25.3,78.3c-5.1,12.7-11.6,24.5-17.1,36.9c-3.7,8.2-6.3,18.8-14.4,23.9c-5.6,3.5-13.1,3.7-19.4,4.9
				c-8.1,1.4-16.4,2.8-24.5,4.2c-15.1,2.8-30.4,4.1-45.4,6.8c-15.8,2.9-31.3,5.1-47.4,6.8c-8.4,0.9-16.5,2.9-24.7,4.4
				c-7.5,1.4-15.6,1-23,3.4C1468.6,1480.6,1470.6,1475.9,1473.1,1471.5L1473.1,1471.5z M1356.6,1501c2.9-1.9,3.1-5.2,4.2-8.1
				c1.3-3.2,3.4-5.6,5-8.6c3.4-5.9,3.6-11.5,8.1-16.7c10.2-11.7,13.7-28.7,21.5-41.9c18.9-32.1,37.5-64.4,55.6-97
				c5.9,11.8,11.5,23.8,17.6,35.6c5,9.5,13.8,20.3,15.9,31c1.7,8.9-8.9,20.1-13,27.4c-6,10.9-12.2,21.9-17.1,33.5
				c-3.9,9.6-6.2,20.8-12.3,29.2c-6.2,8.5-16.2,7.1-25.5,8.4c-12.2,1.5-24.1,4.4-36.1,6.6c-5.5,1-10.7,2.2-15.9,4.1
				C1362.2,1505.2,1352.2,1508,1356.6,1501L1356.6,1501z M1289.8,816.6c29,1.9,51.3-10.7,75.8-24c12.4-6.8,23.9-15.1,35.9-22.7
				c11.8-7.5,24.1-14.9,35.3-23.4c4.9-3.7,8.8-8.6,13.5-12.5c4.4-3.7,9.7-6.3,13.9-10.3c8.1-8,16.9-17.4,23-27
				c14.5-23.4,32.3-44.9,49.3-66.5c9.5-12.1,17.3-25.4,25.6-38.3c8.7-13.5,17.5-26.7,25.2-40.7c52.8,112.3,106.8,224.2,160,336.3
				c27.3,57.3,54.4,114.7,81.6,172c13,27.5,26.8,54.5,40.6,81.6c13.3,26.5,24.8,54.2,37.1,81.2c6.7,14.9,15.7,28.4,22.1,43.5
				c6.3,14.9,13.6,29.2,21.5,43.3c7.7,13.8,14,28.4,21.7,42.1c7.5,13.5,11.7,28.8,20.4,41.7c-25,5.1-50.1,9.6-75,15.7
				c-12.3,3-24.8,4.9-37.1,7.9c-12.1,2.9-23.7,8-36.1,10c-25.5,4.1-51.2,8.4-76.8,11.8c-12.9,1.7-25.9,2.1-38.8,3.5
				c-13.3,1.4-26.5,4.6-39.7,7c0.7-8.9,5.7-16.9,9.2-25c4.1-9.4,7.8-18.9,10.9-28.7c6.2-19.4,11.1-39.5,16.4-59.1
				c10-38.1,19.8-81.4,11-120.7c-2.9-13.1-10-27-22.7-33c-16.6-7.7-32.6,4.6-46.1,13.2c-17.3,11-33.1,24.4-48.3,38
				c-7.4,6.6-14.5,13.1-20.9,20.7c-6.2,7.3-13.6,12.4-20.1,19.3c-30.9,32.8-57.7,69.4-81,107.9c-4.2-10.7-7.4-21.2-13.6-31
				c-4.6-7.4-9.9-14.5-15.2-21.5c-3.6-4.8-8.8-10.8-6-16.9c2.9-6.4,12.4-9.4,10.6-17.8c-3.8,2.2-7.7,4.5-11.5,6.7
				c-11.3-35.9-24.8-70.8-36-106.7c-5.6-17.8-10.9-35.5-16.8-53.2c-5.5-16.4-13.6-31.5-20.8-47.1c-14.6-32.3-19.5-67.5-31.9-100.6
				c-2.6-6.7-6.3-12.8-8.7-19.5c-1-3-2.1-5.2-0.6-8c0.9-1.7,4.1-2.7,4.4-4.5c0.9-4.8-7.4-2.8-10.1-5.3c-2.2-2.1-3.1-6.3-4.3-9.1
				c-2.1-5-4.2-10-6.2-14.9c-16.4-39.3-33.9-78.2-52.2-116.6C1282.2,815.7,1285.9,816.4,1289.8,816.6L1289.8,816.6z M1570,442.4
				c-1.7-2.6-1.6-6.5-3.8-8.6c-2.3-2.2-5-1.6-7-4.2c-0.7-0.9-3.6-6-3.9-7.2c-0.2-0.6,0.3-2.7,0-3.8c-0.7-2.2-2.8-3.4-3.9-5.2
				c-4.9-8.2,3.4-10.7,5.2-18.3c1-4.4,0.6-7.2,4.2-10.6c2.7-2.6,7.1-5.5,10.3-7.4c2.3-1.4,2.4-1,4.8-1.7c1-0.3,1.6,0.3,2.9-0.2
				c2.6-1,4.9-4.5,6.7-6.4c5.3-5.6,8.4-9.7,6.5-17.5c-0.9-3.8-2.4-10.4-7.4-9.6c-2.7,0.5-6.2,5.3-8.1,7.2
				c-3.7,3.6-7.3,7.8-11.6,10.7c-3,2-6.6,1.7-9.5,3.6c-3.6,2.2-3.2,5.9-4.9,9.4c-3.5,7.2-13.3,13-19.4,18c-6.2,5-12.5,10-19.6,13.6
				c-6.4,3.2-17.4,7.9-24.7,5.6c-12.5-3.9,8-32.8,12.4-38.3c8.9-11.1,30.1-20.1,27.2-36.9c-1.3-7.7-5.9-12.8-13.8-9.5
				c-9.7,4.2-18.3,12-28,16.8c-10,5-20.3,9.3-30.6,13.7c-5.6,2.4-11.3,4.8-16.8,7.3c-4.3,1.9-8.8,4.8-13.7,3.1
				c15.2-21,30.4-42.1,47.6-61.5c8.1-9.2,17.4-16.8,26.8-24.5c7.1-5.7,15.1-11.6,14.6-21.7c-0.3-7.7-4.6-17.9-13.8-16.1
				c-5.8,1.2-10.8,6.2-16.4,8.4c-4.8,1.9-8.4,3.6-12.8,6.2c-4.9,2.8-11.1,3.2-16.5,4.6c-5.8,1.5-11.6,3.4-17.5,4.6
				c-12.7,2.8-25.4,2-38.3,2c10.7-18.5,27.7-31.8,43.9-45.3c9.1-7.5,17.5-15.9,26.7-23.4c9.1-7.4,18.9-13.8,27.9-21.2l2,7.8
				c4.3-2,5.3-7.5,9.5-9.9c5.1-2.9,11.4-1.7,16.7-0.5c11.7,2.8,22.2,8.5,31.2,16.4c18.7,16.2,32.3,37.3,43.1,59.3
				c5.8,11.7,10.9,23.8,15.3,36.1c2.1,6,4.2,12.2,4.3,18.7c0.1,7.1-3,13.1-4.8,19.8c-3.4,12.8-4.1,26.3-5.9,39.3
				c-1.9,13.8-2.9,27.7-4.1,41.7c-0.6,7.4-1.5,14.7-2.7,22.1c-0.3,2.2-0.3,5.3-1.4,7.4c-0.9,1.9-3.5,2.6-4.3,4.4
				c-1,2.1-0.2,2,0.5,4.8c0.8,3.5,0.3,6.2-0.7,9.6c-2.2,7.7-4.5,15.2-6.6,22.9c-5.8-2.4-13.1-8.5-15.3-14.5
				c-1.3-3.4-0.1-5.3,0.5-8.6C1573.6,450,1572.6,446.1,1570,442.4L1570,442.4z M1412.1,121.9c0.1,0.1,0.2,0.2,0.3,0.3
				C1412.3,122.2,1412.2,122.1,1412.1,121.9L1412.1,121.9z M1353.8-7.9c-0.1-0.1-0.2-0.2-0.3-0.3C1353.6-8,1353.7-7.9,1353.8-7.9
				L1353.8-7.9z M1353.6-2.7c-0.5-1.4,1.2-3.6,0.5-5C1354.3-7.2,1353.5-2.7,1353.6-2.7L1353.6-2.7z M1699.4,752.2
				c0.8,1.3,1.6,2.4,2.6,3.7C1701.1,754.6,1700.3,753.5,1699.4,752.2L1699.4,752.2z M1711.4,752.7c-0.3-0.7-0.7-1.3-1-2
				C1710.7,751.4,1711,752.1,1711.4,752.7L1711.4,752.7z M1718.6,764.6c0.1-0.2,0.2-0.5,0.5-0.8c-0.3,1.2-0.9,1-1.6-0.3
				C1717.8,763.9,1718.1,764.3,1718.6,764.6L1718.6,764.6z M1723.9,772.7c-0.1-0.6-0.2-1-0.2-1.6
				C1723.7,771.7,1723.8,772.3,1723.9,772.7L1723.9,772.7z M160.5,786c-2.9-1.4-7.1-5.8-10.6-5.8c-1.5,0-4.8,1-2.9,2.8
				c0.8,0.8-5.9,0-6,0c-4.1-1-8.1-2.6-12.1-3.9c-7-2.4-13.9-5-20.9-7.4c-14-5-27.2-11.7-40.7-17.4C41,743,18.6,727.5-3.8,709.7
				c-45.8-36.3-75.1-89.5-102.1-140.2c27.5,2.4,55.9,3.6,82.5-5c27.6-8.9,49.8-24.7,73.2-41.1c1.5,4.1,3,8,4.5,12.1
				c2.2-4.3,4.4-8.7,6.6-13c40.4,90.2,80.9,180.2,121.3,270.4C174.9,791.1,167.3,789.3,160.5,786L160.5,786z M-106.1,647.7
				c7.3,3.2,9.1,6.6,9.1,15.3C-97,654.4-98.8,651.1-106.1,647.7L-106.1,647.7z M-101,290c0,0.3-0.1,0.8-0.1,1.2
				C-101.1,290.9-101.1,290.4-101,290L-101,290z M-129.3,352.1c0.9-3.4,1.9-6.8,2.8-10.2c0.6,6.6,4.3,9.1-3.8,12.1
				C-130,353.4-129.6,352.8-129.3,352.1L-129.3,352.1z M-123.3,359.7c-0.7,1.2-0.9,0.9-0.7-0.8
				C-123.7,359.1-123.5,359.3-123.3,359.7L-123.3,359.7z M-86.5,268.3c16.6-21.1,32.7-42.6,50.9-62.3c14.5-15.6,31-33,52.9-36.8
				c-1.9,20.1-15.7,36.4-26.7,52.3c-6.2,8.9-12.2,17.5-19.4,25.8c-6.5,7.3-10.1,15.6-5.8,25.1c2.6,5.7,8.1,13.9,15.2,12.9
				c4.3-0.6,8.1-4.8,11.5-7.2c4.8-3.5,9.7-6.5,14.7-9.7c9.3-6,18.6-12,28-17.8c8.5-5.1,17.4-13,27.7-13.8c-3.8,10.1-9.1,19.5-14,29
				c-5.1,9.6-9.7,19.7-16.2,28.6c-6.5,8.6-14.6,14.2-22.7,21c-7,5.8-6.4,14-2.6,21.8c4.4,8.9,10.9,14,18.9,6.5
				c8.6-8.1,16.8-15.1,26.6-21.8c8.1-5.7,16-9.1,25.2-13c3.6-1.5,11-6.6,15.2-4.5c5.7,3,0.8,17.6-0.3,22.4
				c-2.7,11.1-6.7,21.9-12.3,31.8c-9.4,17.1-19.5,34.7-35.7,46.1c-13.2,9.3-43.9,19.1-33.8,39.9c4.4,9.1,9.4,18,14,26.9
				c2.9,5.6,13,17.9,9.3,24.5c-2.4,4.5-10.8,7.5-15,10.1c-5.8,3.5-11.6,6.8-17.4,10.1c-10.8,5.9-21.9,11.5-33.4,16
				c-23.3,9.2-49.1,10.3-72.2,20.2c1.4-0.6,2.8-1,4.2-1.6c-4.1-0.7-5.7-7-7.1-10.2c-0.7-1.5-2.2-3.7-2.4-5.3
				c-0.3-1.9,0.9-3.2,0.8-4.3c-0.2-2.4-1.5-2-2.3-3.5c-1.5-2.8-0.8-2.3-1.3-5.2c-0.3-2.1-1.4-3.7-1.9-5.7c-0.9-3.6,0.3-7.2,0.9-10.8
				c-9.9,0.8,3.4-10.8,2.2-14.3c-1.2-3.2-4.9-3.9-5.5-7.9c-0.6-4.2,0-8.8-0.6-13.1c-0.6-4.4-1.5-9.1-0.6-13.5
				c0.8-3.9,3.1-6.6,0.2-10.3c-1.7-2.3-5-2.9-6.6-5.5c-2.4-3.8-0.3-7.9,3.6-9.6c-3.4-2-5.8-5-5.5-9.1c0.2-3.8,2.1-3.9,4.2-6.6
				c6.7-8.4-7.3-8.5-5.5-17.2c0.9-4.2,4.6-7.4,6.2-11.5c1.5-4.3,2.1-9.7,2.3-14.2c0.1-3.5-1.7-5.8-2-8.8c-0.2-3.4,2.2-4.6,2.8-7.7
				c0.6-3.4-2.2-6.8-1.5-10.2c0.8-3.5,4.2-4.9,5.2-8.5c1.2-4.1-0.9-7-0.8-10.8c0.2-5.6,2.7-2.3,5.6-4.6c2-1.5,0.9-3.2,1.3-5.3
				c0.6-2.7,1.3-3.6,2.9-5.8c2.2-2.9,4.8-5.3,6.4-8.6c1.9-3.8,2.3-8,4.4-11.7c2.8-5.2,2.3-7-0.3-12.2c-1.5,3.5-5,5.9-6,9.7
				C-98.7,281.7-91,274-86.5,268.3L-86.5,268.3z M-157.6,446.6c-1.3-1.2,0.7-1.5,1.3-0.6C-156.8,446.1-157.3,446.4-157.6,446.6
				L-157.6,446.6z M230.6,195.5c0.1-0.1,0.2-0.1,0.3-0.2C230.8,195.2,230.7,195.3,230.6,195.5L230.6,195.5z M203-140.8
				c-0.1,0.2-0.2,0.3-0.3,0.7C202.6-140.4,202.7-140.6,203-140.8L203-140.8z M203.9-141.3c-0.2,0.1-0.5,0.2-0.6,0.3
				C203.4-141.1,203.7-141.2,203.9-141.3L203.9-141.3z M206.9-142c-0.8,0.2-1.7,0.3-2.6,0.6C205.2-141.7,206.1-141.7,206.9-142
				L206.9-142z M144.1,187.2c1.6,0.2,3.2,0.8,4.9,2C147.4,188,145.8,187.4,144.1,187.2L144.1,187.2z M761,244.1
				c1-20.1,0.8-40.9,8.1-59.9c2.3-5.9,4.9-15,11.6-17.3c9.2-3.2,23.3,0.9,32.8,1.5c19.8,1.3,39.6-1,59-5
				c10.4-2.1,20.1-6.7,30.1-10.1c10.1-3.4,20.1-7.1,29.5-12.1c3.9,11.7,11.4,22.2,20,30.9c7.7,7.7,18.6,14.2,11.4,25.9
				c-6.4,10.6-9.5,21.7-14.6,32.8c-5.8,12.5-15,23.2-23.2,34c-1-3.5-1.3-7-1.2-10.7c-5.7,1.3-14.5,8.5-17.4,0.3
				c-1-2.9,1-8.9-3.2-9.5c-6.4-0.8-6.8,10.9-6.2,14.5c1.5,8.1,6.7,12.2,13.9,15.6c-21.8,11.8-40.6,28.2-63,39.2
				c-11.3,5.5-24,7.5-36.3,9.7c-7.8,1.4-15.9,1-23.1-2.2C762,309.9,759.6,269.4,761,244.1L761,244.1z M2167.4,1465.5
				c-6.6-9.7-7.9-21.8-9.7-33.2c-2.1-12.9-5.1-25.5-10.1-37.6c-4.5-11-9.9-22.1-15.7-32.4c-1.6-2.9-3.7-7-7.5-7.2
				c-4.3-0.3-6.3,3.9-9.1,6.3c-4.1,3.2-9.4,4.2-14.2,5.8c-5.9,2.1-11.7,4.6-17.8,6.5c-11.4,3.7-24,4.1-35.7,6.7
				c-5.6,1.2-11,2.3-16.6,3.6c-3.7,0.8-10,3.7-13.8,3.1c-8-1.3-13.8-20-16.5-26.6c-4.4-10.7-11.1-20.5-15.2-31.3
				c-4.2-11.3-7.9-22.4-13-33.3c-5.3-11.4-10.9-22.7-16-34.2c-2-4.4-3.2-9.3-5.9-13.3c-2.9-4.4-6.5-5.2-7.8-10.6
				c-0.3-1.7-0.3-4.6-1.6-6c-2.2-2.4-3-0.1-5.1-0.9c-2.2-0.8-1.7,0-2.6-2.1c-0.1-0.3,1-1.4,0.9-2c-0.1-1-0.8-2-1-3
				c-0.8-4.5,0.3-7.7-1.6-12.2c-2.4-5.8-4.5-11.7-6.6-17.6c-8.7-23.6-21.4-45-31.8-67.4c-1.3-2.7-3.5-4.8-4.4-7.5
				c-0.8-2.6-0.2-5.6-1.4-8c-1.4-2.7-3.6-2.6-5.3-4.5c-1.5-1.6-1.6-3.2-2.2-5.3c-2.3-10.7-8.5-19.4-11.4-29.9
				c-1.6-5.9-4.9-10.3-7.9-15.7c-3.5-6.2-5.8-13.1-8.8-19.6c-2.8-6-5.5-12.2-8.6-18.1c-2.9-5.5-4.6-6.2-8.8-1.3
				c-3.2-4.8-6.8-8.7-9.1-14c-1.9-4.5-5-4.8-9.3-7.5c2.8,1.9,4.6,4.3,7.5,1.2c1.3,5.2,7.8,0.3,6.7-3.9c-1.3-4.6-7.4-5.5-11.3-6.8
				c1.9-4.9,4.9-0.6,4.9-6c-0.1-4.6-4.6-10-6.6-13.8c-5.7-10.7-10-22.1-14.7-33.1c-4.8-11.1-9.2-22.5-14.5-33.3
				c-2.2-4.4-4.5-9.2-7.3-13.3c-1.2-1.7-2.6-3.8-4.3-5.1c-1.2-0.8-4.3-1-5-2.2c-1.3-2.4,1.5-6.8,1-9.9c-0.6-4.6-3.1-10-5.1-14.2
				c-5.1-10.8-10-21.7-15.2-32.3c-5.1-10.3-10.7-20.1-14.7-30.9c-2.1-5.6-5-10.3-7.7-15.6c-2.1-4.2-3.4-8.7-7-11.8
				c0.3,2.2,0.3,4.5,0.5,6.7c-0.2-2.6,0.5-5.9-1-8.1c-1.9-2.7-5.6-2-7.7-4.3c1.7,1.9,4.4,2.9,7,2.9c-5.1-13.6-8.9-28.7-18.2-40.2
				c-1.2-1.5-2.8-3.9-4.4-4.8c-1-0.6-4.6-0.2-5.1-0.8c-3-3.2,1.9-9.3,0.9-13.2c-1-4.2-5.1-8-6.6-12.3c-2.3-6.8-4.1-11.4-8.4-17.1
				c-2.7-3.6-3.6-7.8-5.2-12.1c-2.8-7.4-5.7-14.9-8.7-22.2c-5.9-13.7-13.7-26.3-20.1-39.8c-3-6.3-4.4-13.5-8-19.4
				c-2.7-4.6-7-7.9-9.2-13c-2.6-6.2-3.8-12.7-6.6-18.7c-2-4.3-4.1-8.5-5.8-12.9c-2.4-5.9-6.8-19.3-15.7-14.4
				c3.1-10.6,6.7-21.1,9.5-31.9c0.7-2.8,0.8-6.5,2.8-8.8c2.2-2.3,3.5-2,5-5c4.1-8.1,1.9-21.5,2.6-30.3c0.8-10.8,2.8-21.6,3-32.5
				c0.2-10.9,0.2-21.5,0.9-32.4c0.7-10,1.4-20,0.2-29.9c-0.9-9.4,6-15.2,7.9-24.1c2-9.7,0.8-20.2-0.6-29.8
				c-5.1-35.6-21.4-73.3-43.6-101.8c-16.9-21.7-48.4-49.4-78.1-36.3c-4.1,1.9-6,3.7-10.1,0.8c-3.2-2.3-3.5-6-8-6.3
				c-4.5-0.2-9.2,3.9-12.8,6.2c-5,3-10.2,5.7-15.3,8.6c-9.4,5.1-17.8,11-24.4-0.7c-1.7-3.1-3.2-10.6-6.8-12.1
				c-2.9-1.3-4.3,1.6-6.2-1c-0.2,0.3-0.5,0.6-0.7,0.9c1.5-1.9-0.1-3.6,0.1-5.6c-0.1-0.7-0.2-1.4-0.3-2.1c0.8-0.7,1.4-1.4,2-2.2
				c0.3-3-2.3-7-3.6-9.4c-4.2-8.1-7-16.8-11.3-24.8c-5.1-9.6-8.8-19.3-13.2-29.2c-4.5-10.3-10.9-19.7-15.7-29.9
				c-9.9-21.1-18.8-42.6-28.9-63.5c-2.1-4.3-13.3-35.5-20.9-32c1.7-7.7-3.4-12.2-7.7-18c-2.6-3.5-4.2-7-6.2-10.7
				c-1.7-3.1-4.4-5.3-6.2-8.4c-1.5-2.7-1.3-5.5-2.2-8.4c-0.9-3.2-3-5.5-5.1-8.1c-4.9-6.3-8.6-13.6-15.2-18.6
				c-4.1,16.1,5.2,32.3,11.3,46.5c7.4,17.5,13.9,35.4,20.9,53.2c13.8,34.9,29.5,69.1,45.7,102.9c8.6,17.8,17.5,35.2,25.4,53.3
				c3.1,7.2,6.4,14.3,10.2,21.1c4.3,7.5,6.4,15.9,10,23.8c2.7,5.7,7.7,11.4,5.7,18c-2,6.4-10.6,14.3-15.3,18.8
				c-10.8,10.3-25.4,13.3-29.5,29c-3.8,14.9-2,35.9,10.8,46.4c13.3,10.9,37.3,4.8,52.1,2.7c-9.2,13.7-18.6,27.2-27.6,41
				c-8.4,12.8-15.6,26.2-13.5,41.9c5.1,38.2,54.4,5.1,72.2-3.4c-4.6,15.3-7.9,37,2.6,50.9c7.5,10.2,23.3,9.2,34.1,6.4
				c8.2-2.2,10.7-1.4,15.6,6.2c4.2,6.4,9.1,11.5,14.3,17.1c12.4,13.3,20,27.6,28,43.8c4.4,8.9,7.1,14.9,2.4,24.5
				c-4.2,8.6-9.1,17.2-13.9,25.4c-9.4,15.7-21.9,29.1-32.7,43.9c-21.8,29.8-40.7,61.4-65.8,88.8c-24.7,27-56.4,47.4-86.3,68.1
				c-15.7,10.8-30.6,22.4-48.2,30.1c-8.9,3.9-18.1,7-27.4,9.9c-4.4,1.4-8.9,2.6-13.2,4.1c-2.4,0.8-6.5,3-9.2,1.9
				c-2-0.8-3.8-7-4.6-8.5c-2-3.8-3.9-7.5-6.3-11.1c-5-7.4-10.7-14.4-15.6-21.9c-10.9-16.6-20.9-33.9-33-49.8
				c-11.4-15-24.1-28.9-37.4-42.1c-12.8-12.8-26.7-24.5-43.6-31.1c-17.1-6.6-34.9-7.8-53-6.4c-17.1,1.3-32.6,6.6-49,11
				c-5.8,1.6-13.5,4.1-18.9,0.5c-2.7-1.7-3.8-4.8-5.8-7.2c-2-2.4-5.3-4.4-6.7-7.3c-2.2-4.6,1.9-10.6,2.7-15.3
				c1.5-9.5,0.1-19.6-2-28.9c-8.8-39.3-21.2-77.3-27.3-117.3c-1.4-9.3-3.1-18.8-3.4-28.2c-0.2-5.9,2.7-11.6,2.4-17.2
				c-0.2-5.6-6.2-7.3-10.8-4.3c-5,3.2-5,10.9-5.3,16.2c-2.3,41,7,80.1,16.9,119.4c2.4,9.5,4.6,19.1,7.2,28.7
				c2.2,8.2,4.6,16.6,1.3,25c-3,7.4-7.9,14.3-11.4,21.5c-3.6,7.7-6.6,17.2-12.2,23.8c-5.2,6.2-10.4,7.4-8,16.8
				c0.6,2.1,2,4.1,1.3,6.2c-0.9,3-7.5,5.9-10.1,7.5c-16.7,10.7-34.5,19.6-51.4,29.7c-7.4,4.4-14.7,10.6-22.6,13.8
				c-7.7,3.1-14.2,6.2-21,10.9c-15.7,10.8-32.3,20.5-48.4,30.8c-16.6,10.6-33.2,21.1-49.8,31.8c-15.6,10.1-29.9,22.1-46,31.2
				c-16,9.2-32.6,17.9-48.9,26.8c-3.7,2-7,4.1-11.3,4.1c-3.4,0-5.9-1.2-9.2,0c-7.8,2.9-15.1,11.6-21.5,16.8
				c-15.3,12.2-31.9,22.5-48.4,33.1c-7.9,5.1-15.7,10.4-23.1,16.2c-6.4,5-12.3,10.9-19.3,15c-7.4,4.3-13.8,7.7-20.2,13.5
				c-6.7,6-13.6,11.8-20.7,17.4c-7.4,5.8-15,11.5-22.1,17.9c-6.4,5.8-11.8,12.5-18.3,18.2c-6.5,5.7-13.7,10.3-19.4,16.8
				c-6.2,7.1-10.8,15.4-15.8,23.3c0-0.8-3.8-3.5-4.2-4.2c-2.1-2.9-1.4-6.4-3-9.6c-5.5,5.6-1,19-0.7,25.8
				c-0.8-14.3-0.3-28.6-2.2-42.7c-1.9-13.9-4.6-27.7-5-41.9c-0.3-14.3,0.7-28.6,1-42.8c0.2-6.2,0.6-12.2,1.9-18.2
				c0.5-2.4,1.7-5.1,2-7.7c0.2-3.5-0.9-3.7-2.2-6.7c-2.1-4.6-0.2-5.2,2.2-9.1c2.8-4.5,0-5.9-1.3-10.3c-1.7-5.7,3.4-7,3.4-12.1
				c0-2.1-2-4.2-2-6.2c0-4.3,2-1.9,3.4-4.5c1.4-2.6-2.3-4.6-3.2-7.4c-0.8-2.6-0.8-4.6,0.5-7c0.3-0.6,1.2-1.4,1.4-2
				c0.5-1.3,0.2-1.5,0.5-2.4c2.2-8,5.6-15.7,8.1-23.8c2.3-7.3,0.6-14.9,0.7-22.4c0.1-6.4,3.4-11.4,4.6-17.5c1.4-6.7-2.8-9.5-5.6-15
				c-3.1-6.5-2.6-14.7,0.1-21.2c1,3.4,2.1,6.7,3,10.1c0.8-2.7,2.2-5.5,1.9-8.2c-0.3-3.2-2.1-3.5-3-5.9c-1.7-4.3,0.2-2.3,1.9-6.3
				c0.8-2-0.2-4.6,0-6.7c0.2-2.7,1.3-4.9,1.9-7.4c0.8-4.2,0-7.2,2.9-10.7c2.6-3,6.4-5.1,9.5-7.7c5.7-4.6,11.1-9.9,16.6-14.7
				c7.7-6.8,18.1-12.4,17.6-23.8c-11.6,4.3-20.1,14.2-29.2,21.9c-10.2,8.7-22.1,15.4-32.4,24c-22.2,18.2-46.3,34.2-71,48.7
				c-12.3,7.2-24.8,14.2-37.3,21.1c-11.3,6.3-21.9,14-34.1,18.5c-11.1,4.1-25.1,8.9-36.7,4.4c-4.6-1.9-9.2-5.1-11-9.9
				c-1.5-3.9,0-10.2-3.9-13.1c-1.5-1.2-4.4,0-5-2.3c-0.5-1.9,3-3.9,3.4-5.8c0.7-4.6-5-12.8-6.7-17.1c-1-2.4-1.9-5.7-3.9-7.5
				c-0.8-0.7-2.3-0.7-2.8-1.4c-0.6-0.8-0.1-1.6-0.5-2.4c-1.3-2.4-0.9-4.1-3-6.4c-2.3-2.4-5.6-4.2-8.4-6.2c0.1-0.1,2.3,1.3,2.6,1.4
				c-0.2-3.9-2.3-7.3-2.9-11.1c-0.6-4.1,0.7-7.5-1.3-11.3c-2-3.8-5.9-6.5-8.1-10.2c-2.2-3.8-3.1-8.4-5-12.4
				c-3.5-7.8-9.1-12.5-10.6-21c-0.3-1.9-0.2-3.6-1.4-5.2c-1-1.4-3-1.2-3.8-2.8c-1.3-2.6,0.5-4.4-1.9-7c-4.3-4.8-11.5-3.2-7.8-11.6
				c3.7-8.4,1.4-8.7-3.8-15.1c-5.2-6.5-6.6-16.2-9.1-24c-0.9-3-1.5-6.3-3.8-8.6c-3.7-3.7-4.9-1.4-3-7c-6.8,0.3-7.3-12.4-8.1-17.4
				c-0.6-3.2-1.3-7.5-3.6-10c-1.6-1.6-5.2-1.4-5.2-1.5c-1.5-1-4.2-6.5-4.5-8.1c-0.2-1.7,1.4-2.9,1.2-5.1c-0.3-2.2-2.6-4.3-3.9-5.8
				c-5.5-5.7-14.3-17.8-11-26.3c13.9,14.4,27.3,29.4,41.3,43.8c11,11.5,23.2,21.7,38.6,26.5c17.5,5.5,36.7,6.3,54.9,5.6
				c9.5-0.3,19-2.3,28.6-1.9c9.9,0.5,19.3,0,29-2.2c4.2-0.9,8.4-2.7,12.7-3c3.2-0.3,6.5,0.2,9.9-0.3c8.4-1.5,15.9-6.7,23.3-10.6
				c16.1-8.2,31.3-17.6,45-29.6c26.3-23,43.5-53.9,59.9-84.1c18.6-34.2,34.9-68.9,55.5-102c10.1-16.4,20-33,31.8-48.3
				c10.9-14,24.1-25.5,38.5-35.9c13.6-9.7,27.4-21.1,44.1-24.6c9.1-1.9,18.5-2.6,27.5-4.1c9.7-1.6,19-2.8,28.7-0.1
				c8.6,2.4,17.1,5.6,25.6,8c9.4,2.7,19.1,3.9,28,8.4c7.9,3.9,14.9,9.5,22.5,13.8c6.8,3.9,17.1,5.8,20.7,13.5
				c3.7,7.7,3.1,17.1,6.2,25.1c3.4,9.2,8.1,17.8,13.7,25.8c9.3,13.5,21.4,25.2,38.3,27.2c20.2,2.3,40.5-5.3,58.8-12.8
				c19-7.8,34.1-21.9,52.6-30.6c0,6.7,0.8,13.3,0.1,20c-0.8,7.3-2.8,14.6-4.5,21.8c-3.4,14.2-6.7,28.3-12.5,41.7
				c-5.6,12.9-13.5,24.3-21.5,35.6c-7.8,11-15.1,22.6-24.4,32.4c-16.6,17.3-40.2,27.7-63.7,31.2c-24.1,3.7-51.4,2.9-70.4-14.2
				c-18.3-16.4-32.6-37.6-36.8-62.1c-4.9-28.6-3.8-57.8-2-86.5c0.9-14.5,2.3-29.1,4.6-43.5c2.1-12.4,7.9-25.8,3.4-38.2
				c-1-2.9-1.5-5.7-4.4-5.8c-5-0.2-9.2,7.2-11.1,10.6c-6.7,11.4-8.5,24.3-10.8,37c-5.7,31-6.8,63.1-5.1,94.5
				c0.9,15.6,1.5,31.2,5.8,46.3c4.3,15,10.8,29.6,18,43.3c-3-0.6-4.6,1.2-3.7,4.1c1.3-1.3,2.6-2.6,3.8-3.8
				c14.7,18.9,32.1,41.7,55.9,49.6c13.9,4.6,27.4,8.4,42.2,8c14.6-0.5,28.2-4.4,41.7-9.9c12.2-5,24.7-9.2,34.9-17.9
				c10.3-8.8,18.8-20.5,27-31.3c17.9-23.3,32.8-48.7,41.5-76.8c4.3-13.8,6.2-28,8.5-42.2c1.2-7.1,2.2-14.2,2.3-21.4
				c0-5.8-1.4-11.5-1.4-17.3c0.1-11,10.8-14.9,20.3-16.2c12.3-1.9,18.6,9.2,25,17.9c8.5,11.6,16.7,23.3,24.4,35.5
				c3.4,5.3,5.3,12.4,8.9,17.4c2.6,3.5,6.8,5.2,9.7,8.8c8.8,10.9,18.2,22.7,25.3,34.8c6.8,11.6,16.8,22.1,25.6,32.3
				c9.7,11.4,20.3,21.8,30.1,33.1c7.7,8.9,17.9,14,25.5,22.7c7.9,8.8,20.7,14.2,30.2,21.2c5.5,4.1,10.9,8.4,16.1,12.8
				c5.1,4.4,9.4,10.1,14.7,14.2c19.8,14.9,39.7,28.3,65.6,29.2c5.6,0.2,10.4-1.7,15.8-2c5.8-0.3,11.3,2.6,17.4,2
				c13.7-1.2,28-4.3,41.1-8.1c26.5-7.9,54.4-17.5,76.9-33.9c11.4-8.2,20.5-18.6,29.9-28.9c5-5.5,16.7-18.2,8.2-26.1
				c-7.2-6.6-20.2,11.8-24.7,16.1c-9.9,9.4-21.9,15.8-34.5,20.9c-12.7,5.1-25.9,8.9-38.8,13.5c-13.6,4.8-26.7,10.2-41,12
				c-7.3,0.9-14.7,1.4-22.2,2.1c-7.5,0.8-15.1,2.9-22.7,1.7c-13.8-2-28.4-3.7-40.7-10.6c-23.9-13.5-42-36.3-63.9-52.8
				c-11-8.2-22.9-15.2-33.2-24.4c-10.7-9.4-19.7-20.5-28.9-31.3c-20.3-23.8-40.3-47.8-59.9-72.2c-8.7-10.8-18.5-21.4-26.3-32.8
				c-3.1-4.6-5.6-9.7-4.6-15.4c1-6.8,5.5-12.4,6.3-19.4c1.6-13.1-5.2-26-10.7-37.6c-2.1-4.5-5.1-9.6-1.5-14c3.6-4.5,9.4-8,13.3-12.3
				c9.5-10.4,18.8-21,27.6-32.1c3.9-5,8-9.9,11.3-15.3c3.8-6.7,5.5-14.3,7.7-21.6c8.6-28.4,11.7-57.8,8.4-87.4
				c-3-27.2-5.1-57.7-17.2-82.5c-11.6-23.8-30.3-42.6-50.3-59.4c-11.5-9.7-23.2-19.3-34.8-28.8c-11.3-9.3-23.6-15.1-35.9-22.6
				c-24.1-14.3-51.1-16.7-79.2-14.4c-14.6,1.2-29.2,0.7-43.4,5.2c-13.5,4.3-25.9,11.5-37.6,19.1c-23.7,15.2-46.9,31-70.8,45.7
				C642.8-39.3,582.1-14.6,524.8-29c-28.3-7.2-56.5-18.5-82.3-32.3c-26-13.9-50.1-29.7-77.5-40.4c-14.2-5.5-28.4-10.3-42.5-16.1
				c-6-2.4-12.2-6-18.8-7c-2.4-0.3-5.6,0.6-7.8-0.6c-2-1-1.3-2.2-2.8-3.1c-3.2-2.1-8.9-1.7-12.9-3.2c-3.7-1.4-10.4-6.3-14.4-5.8
				c-2.2,0.2-3,2.4-5.3,2.3c-2.2-0.1-4.2-2.6-6-3.5c-6-3.1-13.6-3.9-20.2-4.9c-12.9-1.9-24.4-3.6-36.8,0.9
				c-11.7,4.3-23.8,7.9-35.7,11.7c-6.3,2-10,3.9-15.2,7.5c-3.1,2.2-7,2.6-10.6,4.1c-10.4,4.3-21.8,13.9-26.5,24.1
				c-2.4,5.2-5.8,3.9-8.8,7.8c-3.2,3.9-2,9.6-5.8,13.7c-3.2,3.4-4.4,6.8-7.8,10.2c-4.4,4.4-6.7,10.6-9.3,16.1
				c-12.2,27-20.7,56.4-24.5,85.9c-1.9,14.6-2.1,29.1-0.8,43.8c1,13.8,0.6,28.7,5.1,41.8c0.5-1,0.9-2.1,1.3-3.1
				c0.9,1.3,3.1,2.7,3.1,4.4c0,2.6-1.6,3.9-3.5,1.6c3.4,11.7,8,22.5,13.9,33.2c2.6,4.5,4.4,5.7,8.6,7.3c4.2,1.6,3.1,2.3,5.8,6.3
				c2.2,3.2,3.6,3.7,7.4,2.2c1.6-0.6,1.7-2.2,3.6-1.7c1.4,0.2,3.4,3.5,4.3,4.4c1.7,1.7,3.4,3.5,5.8,4.1c2.9,0.7,4.6-1.5,6.7-1.3
				c4.5,0.6,6.6,4.9,11.5,5.6c4.9,0.7,7.1,0.8,11.7,2.7c6.5,2.6,13.6,3.5,20.5,3.4c5.6-0.1,12-0.5,17.4-2.1c2.9-0.9,5.2-2.3,8.2-2.7
				c2.7-0.3,5.2,0.2,7.9-0.3c5.5-1.3,10.3-3.5,16-4.5c5.2-0.9,10.2-2.6,15.3-4.2c3-0.9,7.3-3.1,9.2,0.6c2.2,4.4-3.7,12.1-5.2,15.8
				c1-0.1,2.1-0.1,3.1-0.2c-4.3,1.6-4.1,1.6-6.2,5.9c-2.1,4.4-5,8.5-6.6,13.1c-3.8,10.7-5.1,22.5-7.4,33.7
				c-5.1,23.9-10.3,47-9.1,71.6c1.2,21.4,3.1,44.3,18.3,60.7c3.1,3.4,6.7,6.6,8.9,10.8c2.2,4.2,3,8.5,6,12.3
				c5.8,7.3,15.2,13.3,24.3,15.6c10.2,2.3,21.5,4.8,32,3.4c10.2-1.4,20.8-2.9,30.9-4.9c22.1-4.3,39.1-21.4,53.4-37.7
				c7.4-8.5,15.2-16.8,22.3-25.8c2-2.4,4.2-7.3,7.3-8.5c3.9-1.5,7,1.7,10.4,3.1c5.6,2.2,12.1,3.1,17.9,4.3c4.3,0.9,7.9,0.1,7.7,5.1
				c-0.2,4.5-5.9,11.8-8,16c-2.8,5.6-5.6,11.1-8.2,16.6c-10.8,21.8-22.1,43.3-34.5,64.3c-11.6,19.8-24.5,38.5-42.7,53
				c-17.3,13.8-37.7,25.5-58.1,34.2c-11.3,4.8-23.2,6.3-35.3,7.5c-5.3,0.6-10.7,0.9-15.9,1.5c-2.3,0.2-4.6,0.8-7,0.8
				c-2.3,0-4.8-1.4-6.8-1.3c-3.4,0.1-5.7,2.4-9.4,2.3c-5.3,0-10.7-0.7-16-0.9c-12.1-0.5-24.4-0.7-36.2-2.9
				c-23.1-4.3-38.1-18-54.7-33.4c-7.1-6.6-14.7-13.2-21.1-20.5c-1.9-2.1-3-3.1-2.2-5.8c0.3-1.2,2.4-2.3,3.1-3.2
				c2.2-2.8,4.8-6.8,5.8-10.2c1.9-5.8-2.8-18.6-10.8-16.1c-5.5,1.7-6.2,10.3-11.4,12.4c-4.8,1.9-5.8-1.9-6.7-5.6
				c-1.3-4.8-1.5-8.4-5.2-12.2c-3.4-3.5-7.7-4.9-7.8-10.6c0-2.1,1-4.1,0.8-6.2c-0.2-2.2-2.7-4.9-2.4-6.8c0.6-4.3,9.4-6.6,12.7-8.8
				c4.8-3.1,8.8-7,12.5-11.1c8.7-9.9,15.7-21.5,21.7-33.1c10.1-19.6,18.5-42.1,16.2-64.5c-0.8-8.5-3.2-17.3-8.9-23.9
				c-8.8-10.2-20.5-8.4-32.7-8.4c9.6-18.3,23.4-45.1,9.9-65c-11-16.1-32.6-7.2-47.7-3.5c3-14.9,7.2-30.1,4.4-45.3
				c-1.7-9.9-6.4-22.1-16.2-26.2c-11.3-4.8-25.2,2.2-34.6,8.4c-11.1,7.3-20.8,17.9-28.8,28.6c-3.8,5.1-12.3,21.2-18.7,9.9
				c-2.1-3.6-2.4-8.4-3.9-12.2c-2.7-7.2-6.3-12.4-10.7-18.5c-2.9-3.9-2-8.1-4.4-12.4c-1.4-2.6-3.7-4.6-5.1-7.3
				c-1.7-3.4-2.3-7.1-3.5-10.7c-2-6.3-5.8-11.1-8.9-16.7c-3.7-6.5-3.5-13.8-6-20.8c-6.3-16.4-15.1-32-22.3-47.9
				c-6-13.3-12.3-26.7-25-35.2c-3.2,9.5-2.7,15.3,0.5,24.8c3.1,9.5,6.3,18.9,9.7,28.3c6.7,17.8,15,34.9,22.7,52.2
				c7.9,17.4,14.4,35.4,22.2,52.9c3.7,8.5,7.7,16.9,11.4,25.5c2.7,6,10.1,16.5,6.2,22.9c-1.6,2.7-4.6,4.6-6.6,7
				c-2.8,3.4-5.1,7.1-7.5,10.7c-4.9,7.2-10.2,14-15.3,21.1c-10.7,15-20.4,30.9-30.3,46.4c-20,32-30.1,70.8-25.3,107.5
				c2.6,19.4,2.1,38.9,4.9,58.1c2.7,19.1,7,38.2,12.3,56.8c4.9,16.8,15.2,33,14.2,50.8c-0.8,14.4-1.2,28.8,1.5,43.1
				c1.2,5.8,2.8,11.6,5.6,16.9c1.4,2.7,3,5.2,5,7.5c2.1,2.4,6,4.1,7.8,6.5c1.2,1.5,0.9,4.3,1.5,6c0.8,2.9,2.2,5.5,3.7,8.1
				c4.5,7.9,9.6,16.5,15.7,23.3c11.3,12.5,22.5,25.6,34.7,37.1c12.7,11.8,25.1,24.6,38.5,35.4c3.7,2.9,7.5,5.7,11.7,8
				c1.6,0.9,3.8,2.4,5.7,2.8c1.3,0.2,3.1-0.3,4.3,0.1c3.1,1,0.2,0.2,3.1,2.9c2.6,2.3,5,2.8,8.1,4.3c17.4,8.7,32.8,19.6,51.3,25.9
				c20.2,7,40.7,14.6,61.9,17.9c9.3,1.4,31.7-3.6,33.5,9.7c6.5-6.4,13.8-1.2,20.9,0.7c0-1.9-1.3-6.6,0-8.1c1.7-1.9,9.3,0.1,11,1.3
				c3.6,2.6,4.8,8.5,6.4,12.3c2.8,6.5,5.9,12.9,8.8,19.4c11.5,25.4,23,50.9,34.6,76.4c23.2,50.8,45.4,102.1,67.7,153.4
				c5.2,11.8,9.9,24,14.9,36c4.5,10.9,10.9,20.9,15.9,31.6c5.7,12,9.6,24.5,15.1,36.4c5.6,12.3,11.3,24.6,16.8,36.9
				c22.7,50.3,44.6,101,66.4,151.7c24.8,57.6,50.3,114.8,75.8,172c-27.3,5.9-54.5,13.1-82.2,17.1c-13,1.9-26.1,1.5-39,3.8
				c-6.7,1.2-12.5,2.8-19.5,2.6c-6.7-0.2-13.2-0.1-20,0.1c-26.8,1-54.4,0.7-80.9-3.4c-10.7-1.6-22.5-4.8-32.6,0.7
				c-8.8,4.9-11.5,13.9-13.1,23.2c-17.6-4.2-32.7-15.1-50-20.3c-16.5-5-35.2-6.5-51.6-0.7c-16.6,5.8-34.5,14.2-48.6,24.6
				c-14.6,10.8-24.8,26.1-33.8,41.5c-10,17.2-18.8,35-28.6,52.3c-10.1,17.9-20.2,35.5-28.8,54.2c-17.2,37.4-30.6,77.1-39.8,117.1
				c-3.5,15.2-5.3,31.6,4.8,44.8c10.4,13.6,27.5,13.8,42.6,8.8c8.4-2.8,15.9-7.1,23.6-11.4c7.3-4.1,14.7-7.3,21.2-12.8
				c13.9-11.7,29.4-22.1,43.5-33.7c26.7-22.1,56.4-38.8,78.3-66.2c11-13.8,25.2-27,33-43.2c2.4-5.1,4.1-15.4-4.4-15.7
				c-5.5-0.1-10.4,6.6-13.7,10.1c-15.2,16.2-31.8,31.3-49.6,44.7c-8.4,6.3-17.4,11.7-26.2,17.4c-8.8,5.7-16.6,12.4-25.1,18.6
				c-8.4,6.2-17.3,10.9-25.3,17.5c-8.1,6.6-16.4,12.7-25.3,18.3c-17.8,11.3-35.7,22.9-55.9,29.1c0-13.8,7.7-25.3,12.1-37.7
				c4.6-13.1,8.4-25.9,14.2-38.6c6.2-13.7,12.2-27.5,18.7-41.1c6.2-12.8,13.8-24.7,20-37.5c5.6-11.6,13.7-21.2,18.6-33
				c2.6-6,6.7-11.3,10-16.9c3.5-6.3,6.7-12.8,10.3-19c14-24.4,33.4-40.5,58.5-53.2c13.6-6.8,28.6-10.9,43.6-11.4
				c17.4-0.5,34.5,4.5,51.9,4.5c-0.6,10.9,0.8,23.8-2.6,34.4c-1.3,3.7-3.5,5.7-2.8,9.4c0.2,1.5,2.3,3.1,2.7,5c0.5,2.8-0.3,6-0.5,8.8
				c-1.2,24.1-0.7,48.2,0.6,72.3c0.5,7.9,0.5,18.6,8.4,23.1c3.4,1.9,3.9,0.9,7.2-0.2c4.8-1.6,7.7-0.6,12.2,1.5
				c2.9,1.4,5.9,2.7,8.8,3.9c1.5,0.6,4.4,1.2,5.2,2.9c0.3,0.9-0.3,2.9,0,3.5c1.9,2.8,0.8,1.5,4.9,1.2c5.3-0.5,8.5,1.5,13.1,4.3
				c40.3,23.7,88,26,133.4,31.3c23.9,2.8,47.4,7,71.5,7.4c24,0.3,48.2,0.7,72-1.6c10.6-1,21.1-2.8,31.6-4.2c3.5-0.5,17.4-6,13.3,3
				c-1.7,3.9-7.1,6.3-10.2,9.1c-3.4,3.1-5.8,7.3-9.6,10c-5,3.6-9.9,6.2-14.6,10.3c-16.4,14.4-31.2,29.8-48.4,43.4
				c-7,5.6-15.2,11.1-19.7,19.1c-4.5,7.9-4.5,18.1-3.6,26.8c1,9.7,5.2,18.2,9.1,27.2c4.8,11,8.1,22.7,12.2,34.1
				c3.8,10.8,7.8,21.5,12.2,31.9c2.9,6.7,5.5,16.1,10.8,21.5c2.4,2.4,5.8,4.4,9.3,2.9c3.5-1.5,3.6-5.6,6-7.8c3.5-3.2,5.7-0.9,10,0
				c6,1.2,8.1-1.6,13.3-3.5c3.7-1.3,7.4,0.3,11.3-1.4c3.5-1.5,5.7-5,8.9-6.7c8.7-4.9,22.3-4.4,32-6.2c48.2-8.4,95.1-22.9,142.5-34.4
				c23.7-5.8,47.7-10.8,71.3-17.1c11-2.9,22.1-6.2,33-9.5c5.8-1.9,11.8-3.4,17.5-5.7c5.3-2.2,9.7-5.1,15.6-5.9
				c10.9-1.5,20.4-5.8,31.1-8.4c11.6-2.7,22.3-7.8,33.7-11.1c11.5-3.5,23.3-5.7,34.8-9.1c11.7-3.4,23.2-7.9,34.9-11.3
				c22.9-6.5,46.5-10,68.7-18.8c4.5-1.9,8.9-4.2,13.8-5.2c5.9-1.2,11.8-1,17.6-2.8c11.8-3.4,23.2-7.9,35.2-10.9
				c22.6-5.8,45.4-11,68-17.1c21.4-5.7,43.4-8.2,65.1-12.9c23.6-5.1,47.2-10.2,70.7-15.7c10.8-2.6,21.2-5.3,32.3-7
				c11.4-1.6,21.7-6.6,33.1-8.1c45.4-6.4,90.4-13.6,135-24c23.3-5.5,46.8-10.8,70.2-15.9c10.7-2.3,22.4-3.5,32.5-7.5
				c10.7-4.3,21.1-5.2,32-8.5c22.9-6.8,46.5-9.7,69.6-15.4c22.6-5.6,46-9.4,68.4-15.8c4.2-1.2,11-5.3,15.4-4.1
				c3.4,1,4.1,4.9,6.7,6.6c7.2,4.9,14.9-4.6,19.5-9.2c6.6-6.5,13.3-8.9,21-13.6c9.4-5.7,18.3-15.6,25.6-23.7
				c30.3-33.8,71.7-53.7,104.6-85.1c16.8-16.1,32-33.2,46.9-51.2c6.8-8.4,14.5-16,22.2-23.7c4.2-4.2,8.5-8.2,12.7-12.4
				c2.6-2.6,7-9.5,10.8-10.3c3.5-0.8,7.2,2.4,11,1.6c3.5-0.7,6-3.1,7.9-6C2170.5,1483.6,2172.3,1472.8,2167.4,1465.5L2167.4,1465.5z
				"/>
			<path id="Fill-18" class="st1" d="M1824.4,998.7c-0.3,0,0.1,0,0.2,0C1824.6,998.6,1824.2,998.7,1824.4,998.7"/>
			<path id="Fill-20" class="st1" d="M1292.7,1473.5C1292.5,1473.4,1292.5,1473.6,1292.7,1473.5
				C1292.5,1473.6,1292.7,1473.5,1292.7,1473.5"/>
			<path id="Fill-22" class="st1" d="M1113.9,499.9c2.6-0.3,5.1-0.7,7.7-0.9C1117.8,495.9,1117.1,497.3,1113.9,499.9"/>
			<path id="Fill-24" class="st1" d="M323.3,1046.9c-1,0.2-2.1,0.5-3.1,0.6C321.8,1050,321.7,1048.7,323.3,1046.9"/>
			<path id="Fill-26" class="st1" d="M818.4,880.8c-2.9,2.6-5.5,5.3-7.4,8.6c3.6-0.7,7.3-1.4,10.9-2.1c-16.8,29.9-27.7,62.8-38,95.4
				c-15.8-14.9-30.9-30.3-45.7-45.8c-4.9-5.1-13.5-10.8-16.5-17.3c-1.4-2.9-0.8-4.8-3.2-7.1c-2.9-2.8-8.9-3.9-12.5-5.6
				C742.3,893.7,780.8,888.7,818.4,880.8 M686.2,912.2c4.3-1.3,9.7-5.1,14.4-4.4c5.2,0.7,5.8,6.5,8.7,10.4
				c9.5,12.7,22.3,23.8,33.4,35c11.3,11.4,22.1,23.2,34,33.9c3,2.7,8.4,9.5,12.5,6.5c4.5-3.2,6.7-15.9,8.7-21
				c5.6-15.1,10.2-30.6,16.6-45.4c6.5-15,13.9-29.8,21.2-44.5c2-3.9,5.8-9.4,2.7-13.7c-3.7-5-11.6-1.4-16.2-0.1
				c-15.9,4.5-32.4,7.2-48.5,10.2c-17.8,3.2-35,8.4-52.2,13.8c-8.2,2.6-16.5,5.2-24.6,8c-6.8,2.3-14.7,4.4-19.3,10.6
				C680.7,912.7,683,913.2,686.2,912.2"/>
			<path id="Fill-28" class="st1" d="M906.9,846.9c22.5-7.3,45.7-13.5,69.3-15.9c12-1.3,23.9-1.2,35.9-1c8.5,0,20.8-0.7,13.7-12
				c-5.2-8.2-16.1-13.9-23.4-20.3c-7.7-6.7-12.7-15.2-17.5-24c-5.7-10.1-11.7-20.1-17.3-30.3c-4.1-7.7-7.4-18.6-15.7-22.6
				c6.3,21.2,18.8,39.9,29.9,58.8c5,8.6,10.2,18,17.8,24.6c6,5.2,16,8.6,18.7,16.8c-22.1,0-44.5,0.5-66.4,3.6
				c-18.5,2.7-37.7,14.2-56.5,12.7c11.3-25.5,24.3-50,36.4-75.1c4.4-9.1,9.3-18.8,11.5-28.8c2.2-9.5-3.1-5.3-6.2,0.5
				c-11,21.6-22.2,43.1-33.4,64.4c-3.1,5.9-6,11.8-8.8,17.9c-2.6,5.8-6.5,12.2-6.7,18.7C887.8,845.5,897.7,849.8,906.9,846.9"/>
			<path id="Fill-30" class="st1" d="M561.4,1097.5c21.6-5.8,42.2-14.3,64.2-18.8c20-4.1,42.8-2,61.6-10.3
				c-6.4-11.8-19.3-14.6-28.9-23.6c-10.4-9.7-19.1-21.9-28.1-33.1c-9.3-11.6-16.7-24.1-25.4-36.1c-4.8-6.5-14-20.3-23.2-19.8
				c-4.9,0.2-8.1,5.5-4.4,9.6c2.7,3,8.6,2.4,12.1,4.3c10.4,5.6,16,20.1,22.7,29.4c8.7,12.2,18.5,23.7,28,35.2
				c10.6,12.7,22.1,21.8,35.6,31.1c-41.1,0.6-81,12.1-119.8,24.8c6.7-20.1,10-41.1,12.9-61.9c1.5-10.3,2.9-20.8,3.8-31.1
				c0.8-9.2,2.8-19.6,0.5-28.7c-5.9,10.3-6,23.2-7.3,34.8c-1.5,14-3,28.1-5.6,41.9c-2.4,13.1-6.7,25.9-9.2,39
				C549.4,1092.2,551.3,1100.3,561.4,1097.5"/>
			<path id="Fill-32" class="st1" d="M1276.9,1167.9c3.5,18.2,2.9,36.8,6.6,54.9c1.9,8.8,3.8,17.6,5.9,26.5
				c1.5,6.4,4.8,15.7,2.2,22.2c-4.3,11.3-24.7-11.6-29.1-15c-15.1-11.7-29.9-23.8-44.8-35.9
				C1237.4,1203.1,1257.1,1185.6,1276.9,1167.9 M1209.8,1225.2c19.8,17.5,42.9,31.5,62.1,49.7c5.9,5.7,17.2,19.5,24.7,9.5
				c7.1-9.3,2.2-26.1-0.1-36.2c-3-13.2-5.2-26.7-6.6-40.3c-0.7-7-1.2-13.8-1.7-20.8c-0.5-6.7-2.2-13.7-2.2-20.5
				c0-2.1,0.1-4.5,1.3-6.3c1-1.6,3.5-2.1,4.4-3.6c2.8-4.6-2-5.2-5.7-5.1c-5,0.1-6.3,0.8-9.4,4.6c-3.5,4.5-7.7,7.7-12.2,11.1
				c-12.1,9.3-24.1,18.5-35.7,28.4C1222.6,1201.2,1199.3,1216.1,1209.8,1225.2"/>
			<path id="Fill-34" class="st1" d="M1186.7,942.5c0.3,25.2,4.9,50.4,14,73.8c-26.6-5.5-50.4-19-73.5-32.8
				C1147.1,969.9,1166.8,956.2,1186.7,942.5 M1124.9,994.5c12.1,6.8,23.9,14.9,36.7,20.5c11,4.9,23,6.6,34.2,10.7
				c6.3,2.3,19.7,8.9,16.1-3.8c-1.3-4.6-4.2-8.9-6.2-13.3c-2.8-6.5-5-13.3-6.6-20.3c-3.1-13.8-4.1-28.2-4.5-42.4
				c-0.3-10.8,8-17.5,18.3-20.2c3.4-0.9,11.1-3.8,3.8-7.5c-3.9-2-10,1.4-13.5,3.1c-11.8,5.7-22.3,13.7-33.2,20.9
				c-13.7,9.1-27.6,17.6-41.3,26.6c-4.3,2.8-10.1,5.9-11.5,11.3C1115.8,985.9,1120,991.5,1124.9,994.5"/>
			<path id="Fill-36" class="st1" d="M657.5,1184c-19.3-6.6-39.5-10.1-59.5-13.6c13.9-18.2,29.8-35,46.9-50.4
				c13.6,23.9,26.9,48.3,35,74.6C672.4,1191.1,665.4,1186.7,657.5,1184 M681.5,1181.8c-4.8-11.6-9.2-23.3-14.7-34.6
				c-2.3-4.8-4.9-9.5-7.7-14c-1.7-2.7-4.8-5.9-5.2-9.3c-0.5-3.6,1.4-3.9,0.2-7.5c-1.2-4.1-3.4-7.2-7.9-6.4
				c-8.5,1.4-18.7,12.8-24.6,18.3c-9.1,8.5-17.8,17.5-25.8,26.9c-7.9,9.2-8.9,18.9,3,25.2c9.7,5.1,22.2,5.1,32.8,6.6
				c12.2,1.7,24.4,4.1,35.3,10c4.6,2.6,15.3,13.2,18.6,4.2C687.6,1195.7,683.7,1187.1,681.5,1181.8"/>
			<path id="Fill-38" class="st1" d="M803.8,1027.4c-12.2,25.3-23.6,51.1-33.9,77.2c-4.6,11.8-9.5,23.8-13.3,35.9
				c-1,3.5-4.9,22.5,3.8,15.2c2.8-2.3,6.3-7.9,7.7-11c2.2-5.1,0.2-10,2.1-15.3c4.4-12.4,9.6-24.7,14.3-37c4.8-12.4,9.5-25,14.3-37.4
				c4.1-10.3,13-22.3,10.1-34C807.2,1023.1,805,1024.9,803.8,1027.4"/>
			<path id="Fill-40" class="st1" d="M1276.8,1774.7c-0.2-0.1-0.5-0.2-0.8-0.3C1276.2,1774.4,1276.5,1774.6,1276.8,1774.7
				 M1650.2,1615.4c-64.4,3.2-128,19.8-190.6,34.9c-63.1,15.2-125.8,33-187.4,53.6c-30.5,10.2-60.9,21-91.5,31.5
				c-25.9,8.8-54.4,17.5-77.1,33.2c-6.5,4.5-16.8,14.6-7.2,21.5c6,4.3,17.9,5.6,25.2,5.9c7,0.3,13.9-1.5,20.9-1.5
				c8.6,0.1,17.1,0.5,25.6-0.1c15.9-1.2,31.9-4.3,47.5-7.5c16.9-3.6,33.4-8.2,50.7-10c6.4-0.6,11.3-2.6,17.4-4.5
				c6.7-2.2,14.3-1.7,20.9-4.2c2.7-1,4.5-3.4,7.3-4.2c3.4-1.2,7.1,0,10.6-0.2c8.2-0.5,16.7-3.1,24.8-4.9c8.7-1.7,17.3-3.6,26-5.5
				c6.7-1.4,13.6-2.3,18.9-7.1c-6.5-5.3-10.4-4.1-18.5-1.9c-8.8,2.4-18,4.2-26.9,6.3c-18.1,4.2-36.2,8.8-54.4,12.7
				c-37.1,7.8-74.2,13.6-112,16.9c-9.3,0.8-18.6,1.5-27.9,2.8c-8.9,1.3-15.8,2.4-24.7,0.6c-7.2-1.5-13.8-1.9-5.8-8.5
				c2.4-2.1,5.3-3.2,8-5c3.2-2.2,3.4-4.1,5.5-7.1c3.6-5.5,10.8-3.9,16.7-4.2c6.7-0.3,12.4-4.5,19.1-6.5c7.4-2.2,13.5-2.7,20.2-6.7
				c2.9-1.7,2.8-1.3,5.8-1.3c3.8,0,6.7-0.9,10.3-2.7c7-3.4,12-6.5,19.6-6.2c4.3,0.1,5.9-1.3,9.9-3.2c4.3-2.2,8.4-3,13.1-3.7
				c9.9-1.3,19.1-3.2,28.3-7.2c4.1-1.7,7.7-4.3,11.7-6.2c0.6-0.2,7.3-1.3,7.4-1.4c0.7-0.7-0.6-3.9,2.2-4.2c2.4-0.2,3.4,2.4,6,2
				c1.2-0.2,0.9-1.7,1.9-2.2c1.7-0.8,2.8-1.2,4.8-1.2c8-0.1,12.3-1.6,19.6-5.1c3.2-1.5,6.3-2.4,9.9-3.4c3.7-1,4.9-2.7,8-4.4
				c5.3-2.9,6.3,3.1,11.8,2c2.8-0.6,4.9-2.8,7.2-4.2c3.2-1.7,5.8-1.9,9.4-2.2c6.8-0.8,12.9-4.1,19.7-5.2c2.8-0.5,5.2-1.7,8-2.3
				c3.7-0.8,7.4,0,11-1.3c6-2.1,8.6-6.3,15.1-6.3c7.9,0,14.6-2.7,22.1-5.5c8-2.9,15.8-6.6,24.3-7.8c7.9-1,15.8-0.9,23.7-2.8
				c7.9-1.9,15.3-4.9,23-7.4c8.2-2.8,16.5-3.8,25.1-5.3c7.3-1.3,15.2-1.6,22.3-3.4c3.1-0.8,5.8-2.7,8.8-3.5
				c3.6-0.9,6.8-0.6,10.4-2.2c3.1-1.4,5.9-3.9,9.4-4.4c4.3-0.6,8.2,0.5,12.7-0.6c4.1-0.9,7.1-0.7,11-0.9c3.1-0.2,5.1-2.1,8.7-3.2
				c7.7-2.6,16.4-1.3,24.3-2.8c7.9-1.4,16.5-3.1,23.1-7.7C1672.7,1612.5,1660.1,1615,1650.2,1615.4"/>
			<path id="Fill-42" class="st1" d="M1500.2,1696.7c-25.1-1.7-49.8,2.7-74.6,5.5c-20.3,2.3-42.1,2.6-60.5,12.5
				c23-1.5,46.1-2.2,68.9-5.5c20.8-2.9,42.2-9.4,63-3.8c-9.4,7.4-21.4,9.9-32.5,13.6c-13.9,4.6-27.7,9.6-41.7,14.3
				c5.2,6.7,18-0.8,24.3-2.7c10-2.9,19.8-6.2,29.5-10.1c8.4-3.4,17.4-5.8,25.3-10.1C1510.8,1705.4,1511.5,1697.5,1500.2,1696.7"/>
			<path id="Fill-44" class="st1" d="M1046.4,1433.9c-3.2-7.1-12.7-11.5-17.4-17.6c-7-8.9-13.9-17.6-21.2-26.3
				c-6.8-8-13-16.4-18.1-25.6c-5.6-10-9.2-21-15.1-30.8c-1.9,3.6-3.9,7.9-3.4,12.1c0.6,4.1,3.8,6.2,6,9.2
				c5.6,7.9,8.4,17.6,13.9,25.6c11.8,17.4,26.3,32.8,39.6,49.2c-32.1,4.3-64.3,8.5-96.4,12.8c7.3-21,16.1-41.7,23.1-62.8
				c3.4-10.1,5.9-20.3,8.7-30.6c2.1-8.1,5.5-17.9-0.7-25.2c-3.7,12.9-6.3,26-10.8,38.5c-4.5,12.4-9.9,24.6-14.9,36.8
				c-4.9,12-25.4,51.8-0.1,54.1c10.7,0.9,22.5-2.1,33-3.7c13.2-2.1,26.3-4.3,39.6-6C1017,1443.1,1051.3,1444.8,1046.4,1433.9"/>
			<path id="Fill-46" class="st1" d="M836.9,1511.7c-8.5-9.7-17.3-19.1-26-28.7c-5.8,6-3.8,8.2,1.9,13.9
				c5.2,5.2,10.9,10.1,15.9,15.6c5,5.5,4.3,8.1-1.2,12.7c-5.9,5.1-12.4,9.6-18.5,14.6c-12.4,10.2-24.8,20.4-37.5,30.3
				c-10.3,8-22.4,20.8-35.3,24.4c-3.2-17.1-6.5-34.1-9.7-51.2c-6.2,1.5-7.3,3-6.3,9.4c1.3,8.1,3.8,16,5.5,24
				c1.4,6.8,4.2,14.5,3,21.5c-0.5,3-2.6,5.8-2.7,8.9c-0.1,3.6,2.3,5.6,3.8,8.6c24.8-16.1,48.2-34.4,71.1-53.2
				c10.9-8.8,21.5-18.2,32.5-26.7c3.5-2.7,8-5,9.1-9.6C843.6,1521.5,839.9,1515.2,836.9,1511.7"/>
			<path id="Fill-48" class="st1" d="M912.1,1244.9c-30.3,5.7-60.8,9.4-91.3,13.3c6.5,11.1,17.4,8.1,28,6.6
				c15.6-2.2,31.2-3.9,46.9-5.1c1.2,27.5,3.7,55.2,3.6,82.8c0,6.8-0.3,16-8.5,18c-11.3,2.8-26.7-4.6-37.4-7.8
				c2.2,3.7-1,7.3,2.7,10.4c2.4,2,6.6,2.3,9.5,3.2c9.1,2.9,18.2,7.1,28,5c14.4-3.1,12.3-19.7,12.1-31c-0.6-21.7-2.9-43.8-1.7-65.5
				c0.5-8.6,3.9-12,10.3-16.9c2.4-1.9,5.2-3.7,5.5-7.1C919.6,1246.8,915.8,1244.2,912.1,1244.9"/>
			<path id="Fill-50" class="st1" d="M-112.6,504.6c-0.7,0.3-0.5,0.3-0.6,1.2C-112.7,505.9-112.5,505.5-112.6,504.6"/>
			<path id="Fill-52" class="st1" d="M474.6,1611.8c-5.7-3.4-7.9,3-10.2,7c-4.5,7.8-9.2,15.4-13.7,23.2c-3.1-6.7-3.8-14-4.6-21.4
				c-0.5-3.6,0.1-15.8-6.2-12.3c-5.3,2.9-1.3,12.1-0.6,16.5c1.2,7.1,2,14.4,4.2,21.1c5,14.9,13.9,5.6,19.5-3.2
				c4.3-6.8,9.1-13.5,13.2-20.3C479.2,1617.5,479.9,1615.1,474.6,1611.8"/>
			<path id="Fill-54" class="st1" d="M551.6,1732.3c-9.7,11.1-19.3,22.5-28.9,33.7c13.8-0.7,18.1-8.1,26.6-17.4
				c2.8-3,6.8-8.2,11.4-8.9c3.4-0.6,2.3-0.9,4.8,2.9c1.6,2.7,3.5,5.2,5.3,7.8c1.7,2.3,7.7,10.1,10.6,3.6c1.4-3-5.5-9.9-7.2-12.3
				C568.9,1734,560.8,1721.7,551.6,1732.3"/>
			<path id="Fill-56" class="st1" d="M854.6,286.7c4.1,16.4,19.3,4.2,25.1-3.2c8.2-10.8,13.2-24.4,15.8-37.6
				c1-5.5,1.9-12.3-0.6-17.5c-2.8-6-8.2-4.8-11.8-0.2c-4.5,5.6-6.2,14-8.9,20.5c-3,7.3-6.4,14.5-10.7,21.1c-3.5-3.7-8.8-7.8-11-0.8
				C850.8,274.1,853.4,281.5,854.6,286.7"/>
			<path id="Fill-58" class="st1" d="M829.2,252.6c7.4-0.7,18.8-5.6,21.5-13.2c5.1-14.7-17.1-7.8-23.7-7c0.3-5.3,4.4-22.1-3-24.7
				c-5.6-2-8.4,9.4-9.2,13.1C812.8,231.3,813.7,254.1,829.2,252.6"/>
			<path id="Fill-60" class="st1" d="M799.5,283.7c-0.1,5.1,8.9,29.9,17.2,20.1c3.8-4.5-0.6-7.9-3.2-11.3c-4.2-5.5-6-12.2-10-17.9
				C802.2,277,799.5,280.8,799.5,283.7"/>
			<path id="Fill-62" class="st1" d="M1140.5,518.3c-2.8,3.1-5.3,5.7-3.2,9.9c0.9,1.9,4.6,6.4,7.3,5.6c2.4-0.7,2.2-4.2,1.7-6.2
				c-1.2-3.9-5-4.9-3-9.5C1142.5,518.2,1141.4,518.3,1140.5,518.3"/>
			<path id="Fill-64" class="st1" d="M679.6,495.6c0.1,0.6,0.3,1,0.7,1.5C683.7,494.2,679.9,494.2,679.6,495.6"/>
			<path id="Fill-66" class="st1" d="M90.9,755.3c-0.3-0.5-0.6-1-0.9-1.5c-1,0.9-1,1.9,0,2.8C90.2,756.1,90.5,755.8,90.9,755.3"/>
		</g>
	</g>
	<circle id="Oval" class="st2" cx="3158.3" cy="2003.1" r="290.9"/>
	<circle class="st3" cx="2241.8" cy="1304.8" r="748.6"/>
</g>
</svg>
