<?xml version="1.0" encoding="utf-8"?>
<!-- Generator: Adobe Illustrator 23.0.3, SVG Export Plug-In . SVG Version: 6.00 Build 0)  -->
<svg version="1.1" id="Layer_1" xmlns="http://www.w3.org/2000/svg" xmlns:xlink="http://www.w3.org/1999/xlink" x="0px" y="0px"
	 viewBox="0 0 1024 768" style="enable-background:new 0 0 1024 768;" xml:space="preserve">
<style type="text/css">
	.st0{fill-rule:evenodd;clip-rule:evenodd;fill:#FF9354;fill-opacity:0.9;}
	.st1{fill-rule:evenodd;clip-rule:evenodd;fill:#FF5678;}
	.st2{fill-rule:evenodd;clip-rule:evenodd;}
	.st3{fill-rule:evenodd;clip-rule:evenodd;fill:#FFB3B3;}
</style>
<circle class="st0" cx="339.4" cy="301.6" r="266.3"/>
<title>Character/loving</title>
<desc>Created with Sketch.</desc>
<g>
	<path id="Accent" class="st1" d="M463.8,342.2c-10.4,7.5-8.7,22.4-5.6,33.1c4.6,15.9,13.8,30.6,24.3,43.2
		c18.6,22.5,50.1,47.7,79.2,28c25.9-17.6,42.2-53,47.9-82.8c1.7-9.2,4.1-23-4.1-29.9c-12.1-10.2-33.4-8.4-48.1-7.1
		c-9.6,0.9-18.9,3.8-28.4,2.4C506.8,325.9,482.3,328.8,463.8,342.2"/>
	<g id="Ink" transform="translate(89.999840, 82.000000)">
		<path id="ink-shape" class="st2" d="M821.7,377.7c-21.1,26.7-56.9,30.9-88.7,30.7c-19.1-0.2-38.2-1.6-56.9-5.5
			c-10.1-2.1-20.1-4.9-29.9-8.2c-6.4-2.2-16-3.3-18.8-10.2c-7.2-18.2-1.9-41,1.1-59.5c1.5-9.4,2.7-18.9,4.1-28.3
			c0.9-6,1.4-12.7,3.9-18.3c3-6.6,6.7-5.3,12.9-3.5c8.6,2.5,17.4,3.6,26.3,4.9c21.6,3.3,40.4,9.9,60.1,19.4
			c19.4,9.3,38.2,18.5,55.6,31.5c8.8,6.6,16.3,13.7,23.4,22.1C820.2,359.2,828.3,369.3,821.7,377.7 M729.6,496.4
			c-0.2,2.9-33.2-5.8-37.5-6.8c-28.5-6.4-57.6-13.7-84.5-25.2c-25.1-10.8-47.2-23.1-67-42.3c-9.2-8.9-17.5-18.3-25.4-28.3
			c-4-5-9.4-4.4-13.8-8.7c-4-3.8-7-6.8-5.8-12.5c10,2.6,28.4,19.1,38.7,10.8c5.9-4.7-2.3-9.7-6-12.5c-7.1-5.2-13.1-11.6-18.8-18.3
			c9.7,1.9,18.7,5.5,27.1,10.5c3.7,2.2,16.6,10.4,19.5,2.6c1.8-4.8-6.9-10.8-9.6-13.4c-6.7-6.5-13.8-14-17.4-22.7
			c8.7-2,17,4.7,22.9,10.2c6.6,6.1,14.7,12.5,20.2,19.5c2.9,3.6,3.5,7.9,5.7,11.8c2.5,4.4,6.5,8.2,10.4,11.4
			c7.4,6.3,16,10.9,24.9,14.7c20.3,8.7,42,14.9,63.6,19.2c10.6,2.1,20.9,3.1,31.7,3.5c8.4,0.3,12.1,2.8,15.3,10.5
			C732.5,451.4,730.9,474.4,729.6,496.4 M481.4,337.5c-4.8,4.5-11.1,7.4-16.2,11.7c-4.4,3.8-9.6,7.9-14.5,11c-5.3,3.3-9.3,1-14-2
			c-5.6-3.5-12-4.9-17.8-8.1c-20-10.9-44.4-37.5-40.6-61.9c1.6-10.4,6.9-20.5,16.7-25.2c8.8-4.3,21.7-6.6,31.1-3.1
			c5.3,2,9.1,6.5,12.6,10.8c4,5.1,5.5,4.3,9.6-0.6c7.3-8.8,19.2-16.5,31-16.3c5.9,0.1,11.7,1.3,17,3.8c0.7,0.3,1.1,1.3,1.8,1.7
			c0.9,0.4,2.3-0.4,3-0.1c1.6,1,3.1,4,4,5.6c3.6,6.2,10,18.5,3.5,23.7c0,0,0.3,7.1,0.2,7.9c-0.5,4.2-1.9,7.7-3.8,11.6
			C499.2,319.7,490.8,328.7,481.4,337.5 M491,436c-4.6,1.4-9.5-12.9-5.1-15.2C490.1,418.6,495.2,434.7,491,436 M419.1,418.9
			c-1.6,5.4-2.3,11.6-6.1,16c-3.6-4.2-3.9-12-0.5-16.3C414.5,416,420.8,412.9,419.1,418.9 M565.7,323.8c0,0.1,5.5,2.8,2.8,5.7
			C564.8,333.5,565.3,325.8,565.7,323.8 M588.6,279.6c-0.1,5.5-11.7,4.2-11.6-1.4C577.1,271.5,588.7,273.8,588.6,279.6 M574.7,233.8
			c1.1-5,21.3-12,20.8-3.3C595.2,234.9,572.3,244.5,574.7,233.8 M367.7,404.1c-2.3,2.7-5.5,3.8-8.2,5.9c-2.8,2.2-4.9,5-7.4,7.6
			c-6.8,7.1-15,12.9-22.4,19.3c-13.5,11.9-26.5,24.7-41.5,34.8c-26.8,18.1-57.9,27.9-88.8,36.6c-2.6,0.7-9.9,3.6-12.5,1.5
			c-2.7-2.3-1.3-10.5-1.2-13.6c0.5-12.7,2-25.5,1.8-38.1c-0.1-5.2-1.6-12.6,1.1-17.3c3-5.3,11.5-6.9,16.7-8.9
			c15.9-6.1,31.2-16.3,45.2-25.8c17.3-11.7,34.7-23.5,52.4-34.4c17.4-10.7,36.6-17.8,56-23.9c0.9,1.9-8.4,8-9.4,8.8
			c-5.1,4.1-10.6,8.3-14.4,13.7c-2.7,3.8-5.4,12.5,2,12.7c3.6,0.1,8.9-3.3,12.1-4.5c5.3-1.8,10.9-3.1,16.5-4
			c-4.8,5.3-21.1,14.8-18.1,23.6c2.9,8.5,19.5-1.4,25.3-1.4C372,399.6,369.7,401.7,367.7,404.1 M171,427.9
			c-10.7,3.7-21.6,5.9-32.6,8.3c-10.5,2.3-20.2,4-30.9,2.7c-14.8-1.9-31.2-8-33.1-24.9c-2.2-20,11.9-38.3,24-52.6
			c14.7-17.4,31.3-33,49.2-47.1c17.9-14.1,37.3-26.5,57.5-37c15.4-8,32.8-12.8,49.1-18.8c3.1-1.1,11.7-5.1,14.6-1.8
			c2.3,2.7-0.8,7.2-1.9,9.6c-2.1,4.9-2.4,9.7-2.9,15c-2.4,23.3-5.3,46.6-6.6,70c-0.4,6.5-1,13.3-0.6,19.9c0.2,3.6,2.1,8.2,0.8,11.7
			c-2.4,6.8-13.4,11.3-19.3,14.3c-10.5,5.4-21.5,9.5-32.1,14.7C194.6,417.5,183.3,423.6,171,427.9 M318.9,276.6
			c2.9-0.4,7.3-1.2,9.9,0.7c3.4,2.5,2.5,5.9-0.6,7.7c-2.5,1.4-8.3,1.8-10.7,0.5C313.3,283.3,314,277.3,318.9,276.6 M335.1,330.5
			c-2.4,3.9-11,6.5-10.3-0.8C325.5,323.4,339.5,323.3,335.1,330.5 M331.9,219.6c3.8,1.5,10.7,2.7,11.8,7.6c1,4.6-3.3,4.3-6.4,3
			C334.8,229.1,323.4,219.5,331.9,219.6 M927.5,393.2c-2.2-8.6-0.5-18.2-1.8-27.1c-1.2-8.6-3.3-16.5-6.4-24.5
			c-6.8-17.9-14.6-34-25.6-49.7c-20.7-29.6-44.8-55.6-73.9-77.2c-28.7-21.3-60.5-38.7-94.1-50.8c-35.7-12.9-71.6-17.4-109.3-19.8
			c-11.2-0.7-22.5-1.6-33.6-3c-8.2-1-18.4-2.3-26.5,0.2c-5.1,1.6-7.9,6-2.4,8.9c3.9,2.1,9.1,2.3,13.4,2.9
			c-5.2,16.6-13.7,33.3-27.2,44.7c-13.2,11.2-30.8,15-47.4,17.8c-9,1.5-19.1,2.7-28.2,2.1c-5.8-0.4-10.3-3.1-12.6,2.9
			c-1.6,4.1-2.4,8.7-4.5,2.4c-2.5-7.4-3.8-7.3-11.6-9.4c-16.1-4.3-34.5-8.2-48.5-17.5c-14.5-9.6-19.6-25.2-27.7-39.7
			c-2-3.6-8.1-10.8-5-14.9c2.8-3.8,12-3.4,16.2-3.8c4.4-0.4,8.9-0.4,13.4-0.6c2.6-0.1,7.8,1,6.7-2.9c-1.6-5.8-18.4-5.1-22.5-5.2
			c-7.8-0.2-15.6,0-23.4,0.9c-38.3,4.2-76.9,12.1-114,22.5c-71.9,20.3-141.5,57.6-194,111.4C-13.3,315.1-29.2,401,1.7,466.9
			c16.1,34.3,51,48.3,84.9,59.7c17.9,6,36.8,10.7,55.7,9.6c9.1-0.5,17.7-3,26.6-4.8c3.9-0.8,8.3-2.1,12.3-1.8c3,0.2,5.9,3,8.7,1.5
			c2-1,2.9-4,5.3-5.3c2.9-1.5,6.5-2.1,9.7-2.9c8.8-2.1,17.4-5.6,26-8.5c8.9-3,17.4-6.8,25.9-10.6c4.3-1.9,14.3-9.8,17.2-4.1
			c1.3,2.6,0.7,7.7,1.1,10.5c0.5,4.8,1.2,9.6,1.9,14.5c1.6,10.6,3.4,21.1,5.3,31.6c3.4,19,7.9,37.2,15.3,55
			c5.9,14.3,11.1,30.4,22.1,41.8c4.8,5,11.3,7.2,18.2,5.6c7.8-1.8,11.7-8.9,16.5-14.6c10.4-12.6,27.7-22.3,43.6-25.8
			c19.5-4.3,38.5,2,57.1,7.3c19.7,5.6,39.7,11,59,17.7c18,6.3,37.4,15.6,57,14.8c17-0.7,32.9-14.6,45.2-25.1
			c12.3-10.6,27.7-26.1,45.5-24.9c8.8,0.6,16.8,4.9,25.4,6.6c9.4,1.9,19.4,2.2,29,2.9c11.9,0.9,38.5-2.2,42.9-16.5
			c0.7-2.1,0.7-6.5-2.1-7.3c-2.6-0.8-3.9,2.2-6.3,2.1c-5-0.3-8.8-8.9-11.6-12.3c-11-13.5-26.1-23.6-38.5-35.9
			c-14-13.8-25.9-30.5-36.4-47c4.8-1.2,9.9,0.8,14.5,1.8c5.6,1.2,11,2.6,16.5,4.1c6.1,1.7,12.2,2.8,18.4,4.1
			c4.6,0.9,10.7,1.2,14.8,3.5c3.6,2,5.6,4.2,10.1,4.8c4.6,0.6,9.3,0.1,13.9,0.1c12.4-0.1,24.8-0.3,37.2-1.6
			c43.7-4.6,90-23.1,116.3-59.8c7.1-10,12.9-21,16.5-32.8C925.1,415.7,930,402.8,927.5,393.2"/>
		<path class="st2" d="M517.8-29.4c11.5,0.2,22.2,3.6,32.9,7.4c9.4,3.4,19.4,6.6,27,13.3c13.7,12.2,17.2,32.5,19.5,49.8
			c2.8,21.6-6.5,39.7-14.3,59.3c-7.3,18.3-20.7,33.1-36.7,44.4c-8.4,5.9-17.6,9.5-27.3,12.6c-9.8,3.2-19.3,7.4-29.8,7.4
			c-16,0-36.4-7.6-43.2-23.3c-3.1-7.2-0.1-8.4,6.1-4.6c9,5.6,17.6,11.7,28.1,14.2c20.4,4.9,44.8-2.7,62.6-12.6
			c17.8-9.9,29.8-24.8,37.8-43.4c8.1-18.7,11.2-37.2,8.1-57.4c-2.6-17.1-7.9-32.7-23.3-42c-33.3-20.1-78.1-18.4-107.8,7.6
			c-4.1,3.6-8.1,7-12.3,10.5c-2.7,2.2-5.8,4.8-5.4,8.5c0.3,3.2,7.2,15.6-1.1,11.8c-6.7-3.1-10.3-9.1-18.4-9.9
			c-8.6-0.8-18.9,5.8-21.5,14.2c-2.5,7.9,1.9,18.8,8.8,23.4c4.3,2.8,8.9,2.4,13.8,2.3c2.4-0.1,9.1-0.8,10.7,1.7
			c2.8,4.5-7.1,9.2-10.3,10.2c-7.8,2.4-17-0.4-21.4-7.4c-4.5-7.1-7.7-15.2-8.3-23.6c-0.6-8.1,1.2-16.2,6-22.8
			c5.1-7,15.4-14.9,24.6-12.5c4,1.1,7.2,5.2,11.2,6c2.5,0.5,1.4,0.9,3.5-1c1.3-1.2,2.5-3.3,3.7-4.7c6.9-8,13.8-16.5,22.3-22.8
			C478.7-24.2,498.9-29.6,517.8-29.4z M475.7,128.4c1.8-4.2,5.1,3.3,6.1,4.6c1.9,2.5,6.5,4.4,6.3,8.1c-0.3,6.1-8.6,4.9-11.3,1.8
			C473.6,139.2,473.9,132.6,475.7,128.4z M534.4,99.7c4.5,6.9-1,14.4-4.5,20.6c-3.4,5.9-6.5,12.5-10.4,18
			c-6.5,9.2-20.7-0.8-21.1-10.2c-0.3-7.2,4.8-4.1,8.1-1.4c3.4,2.8,5,3.5,8.5,0.4c7.1-6.1,10.3-16.3,15.2-24
			C531.2,101.7,532.9,100.7,534.4,99.7z M547.1,101.9c1.1,3.4-1.3,12.3,5.4,11.4c3.7-0.5,4.5-5.8,6.4-8.1c6.5-7.8,4.5,6.9,2.8,10.6
			c-3.8,8.1-14.3,13.7-19.6,3.4c-1.9-3.8-1.9-8.7-0.9-12.8C541.8,104.2,545,95.7,547.1,101.9z M487.3,86c-0.6,3.9-4.3,11.7,0.2,14.5
			c4,2.5,10.8-2.9,13.9-5.1c3.2-2.3,10.3-9,10.6-0.7c0.1,4.2-4.1,9.3-7.1,11.7c-6.4,5.2-19.8,9.9-24.6,0.1
			c-2.6-5.3-1.2-12.9,0.5-18.3C482.3,83.9,488.8,76.6,487.3,86z M571.9,64.6c2.6,3,8.8,9.9,5.5,14.2c-4,5.1-10.4-4.2-12.9-6.8
			c-2.3-2.3-7.1-9-5-12.5C562.8,53.6,569.6,61.9,571.9,64.6z M530.6,51.5c8.6,5.6-2.7,9.6-7.6,10.1c-5.9,0.6-13.5,1-18.9-1.9
			c-7.7-4.1-5.1-10.3,2.3-11.8C514.1,46.3,524,47.1,530.6,51.5z M419.2,33.7c6.3,1.2,13.5,2.8,15.7,9.7c2.2,7.1-1,9.5-7.4,7.9
			c-6-1.5-14.9-3-18.2-8.8C405.2,35.5,413.3,32.5,419.2,33.7z"/>
		<path class="st2" d="M72.2,186.4c-2.1,6.8-12.8,11.4-18.2,15.5c-18.7,14.5-36.9,29.7-53.8,46.3c-8.8,8.6-15.4,19-23,28.6
			c-1.9,2.3-5.1,7.6-8.8,7.1c-4-0.5-4.8-7.4-4.7-10.4c0.4-10.2,9.8-20.1,16.5-27.2c7.5-7.9,15.5-15.7,23.7-22.9
			c9-7.9,18.8-14.8,28.8-21.5c9.8-6.6,19.2-14.2,29.4-20.1C66.8,179,74.8,177.9,72.2,186.4z M725.3,121.5c7.8,0.2,15.4,2.8,22.8,5.2
			c16.2,5.2,31.6,12.5,46.8,20c26.6,13.3,52.3,29.3,75.8,47.6c4.9,3.8,9.9,6.9,15.3,10c3.4,2,8.3,4.4,9.6,8.5
			c3.3,10.4-13.5,0-15.9-1.5l-3.4-2.1c-50-31-99.9-61.1-156.5-78.9c-3-0.9-3.9-3.6-2.4-6.3C719,121.2,722.4,121.4,725.3,121.5z
			 M69.9,143.1c-0.4,3.2-3.9,3.9-6.3,4.9c-9,3.8-18.2,7-27.2,10.8c-16.6,7.1-31.9,17.5-49.3,22.9c-4,1.2-4.6-2.8-3.5-5.5
			c1.2-3,4.7-5.2,7.3-6.9c7.4-5.1,15.8-8.7,24.1-12.3c8.2-3.5,16.6-6.2,24.9-9.1c7.8-2.7,16.8-7.8,25.2-8.2l0.4,0
			C68.1,139.6,70.3,139.4,69.9,143.1z M739.5,95.2c-8-2.2-0.4-7.3,4.3-6.9c5.3,0.4,10.4,2.9,15.4,4.4c15.3,4.6,29.5,9.6,43.7,16.7
			c2.1,1.1,11.5,6.1,5.3,8.3c-4.3,1.5-14.3-5.1-18-6.7C773.9,104.1,756.4,100,739.5,95.2z"/>
		<path class="st2" d="M422.5,111.5c1-2.9,13.3-34.8,8.5-35.8c-5.1-1-11.9,17.5-13.4,20.8c-5.5,12.3-8.7,25.6-11.2,38.8
			c-1.8,9.2-3.3,18.7-2.7,28.1c0.5,7.2,3.5,8.3,8.4,12.8C412.1,154.3,415.4,132.3,422.5,111.5"/>
	</g>
</g>
<circle id="Oval" class="st3" cx="863.1" cy="625.1" r="117.9"/>
</svg>
