<?xml version="1.0" encoding="utf-8"?>
<!-- Generator: Adobe Illustrator 23.0.3, SVG Export Plug-In . SVG Version: 6.00 Build 0)  -->
<svg version="1.1" id="Layer_1" xmlns="http://www.w3.org/2000/svg" xmlns:xlink="http://www.w3.org/1999/xlink" x="0px" y="0px"
	 viewBox="0 0 764 666" style="enable-background:new 0 0 764 666;" xml:space="preserve">
<style type="text/css">
	.st0{fill-rule:evenodd;clip-rule:evenodd;fill:#FF9354;fill-opacity:0.9;}
	.st1{fill:none;stroke:#231F20;stroke-width:2;}
	.st2{opacity:0.59;}
	.st3{opacity:0.18;fill-rule:evenodd;clip-rule:evenodd;fill:url(#SVGID_1_);enable-background:new    ;}
	.st4{opacity:0.18;fill-rule:evenodd;clip-rule:evenodd;fill:url(#SVGID_2_);enable-background:new    ;}
	.st5{fill-rule:evenodd;clip-rule:evenodd;fill:url(#SVGID_3_);}
	.st6{opacity:0.3;fill-rule:evenodd;clip-rule:evenodd;fill:#131829;enable-background:new    ;}
	.st7{fill-rule:evenodd;clip-rule:evenodd;fill:url(#SVGID_4_);}
	.st8{opacity:0.6;}
	.st9{fill-rule:evenodd;clip-rule:evenodd;fill:#131829;}
	.st10{fill-rule:evenodd;clip-rule:evenodd;fill:#EF8943;}
	.st11{fill-rule:evenodd;clip-rule:evenodd;fill:#72142E;}
	.st12{opacity:0.6;fill-rule:evenodd;clip-rule:evenodd;fill:#131829;enable-background:new    ;}
	.st13{fill-rule:evenodd;clip-rule:evenodd;fill:#E6E6E6;}
	.st14{opacity:0.21;}
	.st15{fill-rule:evenodd;clip-rule:evenodd;fill:#231F20;}
	.st16{fill-rule:evenodd;clip-rule:evenodd;fill:url(#SVGID_5_);}
	.st17{fill-rule:evenodd;clip-rule:evenodd;fill:url(#SVGID_6_);}
	.st18{fill-rule:evenodd;clip-rule:evenodd;fill:url(#SVGID_7_);}
	.st19{fill-rule:evenodd;clip-rule:evenodd;fill:url(#SVGID_8_);}
	.st20{fill-rule:evenodd;clip-rule:evenodd;fill:url(#SVGID_9_);}
	.st21{opacity:0.21;fill-rule:evenodd;clip-rule:evenodd;fill:#131829;enable-background:new    ;}
	.st22{fill-rule:evenodd;clip-rule:evenodd;fill:url(#SVGID_10_);}
	.st23{opacity:0.3;}
	.st24{fill-rule:evenodd;clip-rule:evenodd;fill:url(#SVGID_11_);}
	.st25{fill-rule:evenodd;clip-rule:evenodd;fill:url(#SVGID_12_);}
	.st26{fill-rule:evenodd;clip-rule:evenodd;fill:url(#SVGID_13_);}
	.st27{fill-rule:evenodd;clip-rule:evenodd;fill:url(#SVGID_14_);}
	.st28{fill-rule:evenodd;clip-rule:evenodd;fill:url(#SVGID_15_);}
	.st29{fill-rule:evenodd;clip-rule:evenodd;fill:url(#SVGID_16_);}
	.st30{fill-rule:evenodd;clip-rule:evenodd;fill:#FFFFFF;}
	.st31{fill-rule:evenodd;clip-rule:evenodd;fill:#EF4164;}
	.st32{fill-rule:evenodd;clip-rule:evenodd;fill:url(#SVGID_17_);}
	.st33{fill-rule:evenodd;clip-rule:evenodd;fill:url(#SVGID_18_);}
	.st34{fill-rule:evenodd;clip-rule:evenodd;fill:url(#SVGID_19_);}
	.st35{fill-rule:evenodd;clip-rule:evenodd;fill:url(#SVGID_20_);}
	.st36{fill-rule:evenodd;clip-rule:evenodd;fill:url(#SVGID_21_);}
	.st37{fill-rule:evenodd;clip-rule:evenodd;fill:url(#SVGID_22_);}
	.st38{fill-rule:evenodd;clip-rule:evenodd;fill:url(#SVGID_23_);}
	.st39{fill-rule:evenodd;clip-rule:evenodd;fill:url(#SVGID_24_);}
	.st40{fill-rule:evenodd;clip-rule:evenodd;fill:url(#SVGID_25_);}
	.st41{fill-rule:evenodd;clip-rule:evenodd;fill:url(#SVGID_26_);}
	.st42{fill-rule:evenodd;clip-rule:evenodd;fill:url(#SVGID_27_);}
	.st43{fill-rule:evenodd;clip-rule:evenodd;fill:url(#SVGID_28_);}
	.st44{opacity:0.34;fill-rule:evenodd;clip-rule:evenodd;fill:#FFFFFF;enable-background:new    ;}
	.st45{opacity:0.38;fill-rule:evenodd;clip-rule:evenodd;fill:#131829;enable-background:new    ;}
	.st46{fill-rule:evenodd;clip-rule:evenodd;fill:url(#SVGID_29_);}
	.st47{fill-rule:evenodd;clip-rule:evenodd;fill:url(#SVGID_30_);}
	.st48{fill-rule:evenodd;clip-rule:evenodd;fill:url(#SVGID_31_);}
	.st49{fill-rule:evenodd;clip-rule:evenodd;fill:url(#SVGID_32_);}
	.st50{fill-rule:evenodd;clip-rule:evenodd;fill:url(#SVGID_33_);}
	.st51{fill-rule:evenodd;clip-rule:evenodd;fill:url(#SVGID_34_);}
	.st52{fill-rule:evenodd;clip-rule:evenodd;fill:url(#SVGID_35_);}
	.st53{fill-rule:evenodd;clip-rule:evenodd;fill:url(#SVGID_36_);}
	.st54{fill-rule:evenodd;clip-rule:evenodd;fill:url(#SVGID_37_);}
	.st55{fill-rule:evenodd;clip-rule:evenodd;fill:url(#SVGID_38_);}
	.st56{fill-rule:evenodd;clip-rule:evenodd;fill:url(#SVGID_39_);}
	.st57{fill-rule:evenodd;clip-rule:evenodd;fill:url(#SVGID_40_);}
	.st58{fill-rule:evenodd;clip-rule:evenodd;fill:url(#SVGID_41_);}
	.st59{fill-rule:evenodd;clip-rule:evenodd;fill:#D32F56;}
	.st60{fill-rule:evenodd;clip-rule:evenodd;fill:#E6E7E8;}
	.st61{fill:none;}
	.st62{fill-rule:evenodd;clip-rule:evenodd;fill:url(#SVGID_42_);}
	.st63{fill-rule:evenodd;clip-rule:evenodd;fill:url(#SVGID_43_);}
	.st64{fill-rule:evenodd;clip-rule:evenodd;fill:url(#SVGID_44_);}
	.st65{fill-rule:evenodd;clip-rule:evenodd;fill:url(#SVGID_45_);}
	.st66{fill-rule:evenodd;clip-rule:evenodd;fill:url(#SVGID_46_);}
	.st67{fill-rule:evenodd;clip-rule:evenodd;fill:url(#SVGID_47_);}
	.st68{fill-rule:evenodd;clip-rule:evenodd;fill:url(#SVGID_48_);}
	.st69{fill-rule:evenodd;clip-rule:evenodd;fill:url(#SVGID_49_);}
	.st70{fill-rule:evenodd;clip-rule:evenodd;fill:url(#SVGID_50_);}
	.st71{fill-rule:evenodd;clip-rule:evenodd;fill:url(#SVGID_51_);}
	.st72{fill-rule:evenodd;clip-rule:evenodd;fill:url(#SVGID_52_);}
	.st73{fill-rule:evenodd;clip-rule:evenodd;fill:#BCBEC0;}
</style>
<circle class="st0" cx="178.01" cy="158.22" r="147.91"/>
<circle class="st0" cx="223.14" cy="497.87" r="73.96"/>
<title>ROBOTICS-01</title>
<desc>Created with Sketch.</desc>
<g id="Page-1">
	<g id="Web-3" transform="translate(-527.000000, -267.000000)">
		<g id="ROBOTICS-01" transform="translate(526.000000, 268.000000)">
			<path id="Path" class="st1" d="M638.2,246.73c5.77,35.36,20.07,216.95-263.89,258.12C90.35,546.02,174.53,397.28,103.14,388.4
				s-58.55-67.65-37.52-101.69c21.03-34.04,52.19-51.98,8.24-92.56s70.09-92.72,168.5-79.75c136.47,17.99,203.65,0.73,193.86-33.12
				c-9.8-33.85-44.59-75.01,28.23-71.36s145.42,54.89,129.72,93.31C578.46,141.66,630.42,199.03,638.2,246.73z"/>
			
				<ellipse id="Oval" transform="matrix(0.1137 -0.9935 0.9935 0.1137 89.5073 246.0675)" class="st1" cx="182.67" cy="72.87" rx="21.64" ry="68.36"/>
			<g id="Group" transform="translate(47.000000, 19.000000)" class="st2">
				
					<linearGradient id="SVGID_1_" gradientUnits="userSpaceOnUse" x1="-621.9172" y1="853.7493" x2="-621.5129" y2="852.729" gradientTransform="matrix(677.3183 0 0 -577.4843 421392.8125 492965.8438)">
					<stop  offset="0" style="stop-color:#7D7CBB;stop-opacity:0.3"/>
					<stop  offset="0.09" style="stop-color:#7473B2;stop-opacity:0.38"/>
					<stop  offset="0.68" style="stop-color:#403E7F;stop-opacity:0.83"/>
					<stop  offset="1" style="stop-color:#2C2A6B"/>
				</linearGradient>
				<path class="st3" d="M600.65,245.17c5.76,35.45,20.05,217.51-263.63,258.78C53.33,545.23,137.44,396.11,66.13,387.21
					s-58.51-67.82-37.5-101.95s52.15-52.11,8.23-92.8s70.02-92.96,168.33-79.95c136.34,18.04,203.45,0.73,193.67-33.2
					s-44.55-75.21,28.2-71.54s145.27,55.04,129.56,93.56S592.87,197.35,600.65,245.17z"/>
				
					<linearGradient id="SVGID_2_" gradientUnits="userSpaceOnUse" x1="-623.2988" y1="850.1285" x2="-634.4505" y2="847.9668" gradientTransform="matrix(5.6513 -49.3707 -155.7423 -17.8272 136020.5313 -15650.2852)">
					<stop  offset="0" style="stop-color:#7D7CBB;stop-opacity:0.3"/>
					<stop  offset="0.09" style="stop-color:#7473B2;stop-opacity:0.38"/>
					<stop  offset="0.68" style="stop-color:#403E7F;stop-opacity:0.83"/>
					<stop  offset="1" style="stop-color:#2C2A6B"/>
				</linearGradient>
				<path class="st4" d="M77.69,63.56c1.36-11.89,32.87-18.05,70.38-13.75s66.81,17.41,65.45,29.3s-32.87,18.05-70.38,13.75
					C105.63,88.57,76.33,75.45,77.69,63.56z"/>
			</g>
			<g id="MAIL" transform="translate(469.000000, 397.000000)">
				
					<linearGradient id="SVGID_3_" gradientUnits="userSpaceOnUse" x1="-1041.9801" y1="474.3812" x2="-1042.028" y2="472.9723" gradientTransform="matrix(210.1375 0 0 -71.585 219016.9375 33882.9844)">
					<stop  offset="0" style="stop-color:#8A7EBB"/>
					<stop  offset="0.03" style="stop-color:#8378B5"/>
					<stop  offset="0.2" style="stop-color:#645C9A"/>
					<stop  offset="0.38" style="stop-color:#4B4685"/>
					<stop  offset="0.56" style="stop-color:#3A3677"/>
					<stop  offset="0.76" style="stop-color:#2F2D6E"/>
					<stop  offset="1" style="stop-color:#2C2A6B"/>
				</linearGradient>
				<path class="st5" d="M-31.47,34.02c-5.85-0.07-10.58-4.82-10.62-10.68c-0.05-5.87,4.6-10.69,10.45-10.85
					c0.72,0,57.65-1.17,88.67-15.63c7.22-3.37,14-6.99,20.55-10.49c18.77-10.02,33.6-17.94,47.17-13.52
					c6.61,2.15,11.76,6.95,15.3,14.26c1.72,3.46,1.45,7.58-0.71,10.79s-5.86,5.02-9.71,4.73c-3.85-0.29-7.25-2.62-8.91-6.11
					c-0.62-1.27-1.57-2.85-2.63-3.19c-4.86-1.59-19.03,5.98-30.41,12.05c-6.49,3.47-13.85,7.39-21.6,11
					c-35.21,16.41-94.83,17.6-97.37,17.64L-31.47,34.02z"/>
				<path class="st6" d="M128.97-6.07c-9.73-17.52-20.76-6.62-47.59,4.66C60.13,7.53-9.63,12.78-37.8,14.57
					c-3.75,2.75-5.31,7.6-3.88,12.02c1.44,4.43,5.55,7.42,10.2,7.43h0.18c2.52-0.04,62.15-1.23,97.37-17.64
					c7.75-3.61,15.1-7.54,21.6-11C99.05-0.7,113.21-8.27,118.08-6.68c1.06,0.35,2.01,1.93,2.63,3.19c1.06,2.2,2.84,3.96,5.04,5.01
					C128.89-1.39,130.14-3.97,128.97-6.07z"/>
				
					<linearGradient id="SVGID_4_" gradientUnits="userSpaceOnUse" x1="-1039.5199" y1="472.9669" x2="-1039.5995" y2="470.392" gradientTransform="matrix(105.1018 0 0 -32.5177 109359.6172 15286.9238)">
					<stop  offset="0" style="stop-color:#FFFFFF;stop-opacity:0.5"/>
					<stop  offset="0.18" style="stop-color:#FFFFFF;stop-opacity:0.48"/>
					<stop  offset="0.39" style="stop-color:#FFFFFF;stop-opacity:0.43"/>
					<stop  offset="0.61" style="stop-color:#FFFFFF;stop-opacity:0.34"/>
					<stop  offset="0.83" style="stop-color:#FFFFFF;stop-opacity:0.21"/>
					<stop  offset="1" style="stop-color:#FFFFFF;stop-opacity:0.1"/>
				</linearGradient>
				<path class="st7" d="M140.04-12.9c-3.55-7.31-8.7-12.1-15.3-14.26c-13.56-4.42-28.39,3.5-47.17,13.52
					c-6.56,3.5-13.33,7.12-20.55,10.49c-2.38,1.11-4.92,2.14-7.57,3.09c8.13-2.62,55.09-24.25,69.5-24.56
					c10.3-0.22,18.24,11.73,21.93,18.57C141.37-8.36,141.07-10.77,140.04-12.9z"/>
				<g transform="translate(81.969136, 15.647059)" class="st8">
					<path class="st9" d="M16.28-39.58L8.37-11.69c3.4-1.8,6.94-3.66,10.36-5.33l6.76-25.76C22.34-41.93,19.27-40.86,16.28-39.58z"
						/>
					<path class="st9" d="M-37.53-14c-4.46,1.4-9.17,2.62-13.96,3.68c-0.53,9.45-1.02,18.39-1.02,18.82c0,0.24,1.18,1.42,2.86,2.8
						c3.72-0.78,7.43-1.65,11.06-2.62C-38.97,2-38.24-7.27-37.53-14z"/>
				</g>
				<path class="st10" d="M120.8,2.93l64.82,1.11c2.42,0.04,4.71,1.14,6.26,3s2.21,4.32,1.82,6.71l-6.18,37.33
					c-0.67,4.03-4.14,6.98-8.22,6.98h-64.63c-2.43,0-4.75-1.07-6.33-2.92c-1.58-1.85-2.28-4.31-1.9-6.72l5.99-38.44
					C113.07,5.87,116.64,2.86,120.8,2.93z"/>
				<path class="st11" d="M151.89,35.96c-2.36,0-4.64-0.8-6.47-2.29L115.94,9.8c-0.24-0.2-0.28-0.55-0.09-0.8
					c0.2-0.24,0.55-0.28,0.8-0.09l29.47,23.88c3.2,2.58,7.73,2.72,11.08,0.34l31.65-22.61c0.25-0.18,0.61-0.12,0.79,0.13
					c0.18,0.25,0.12,0.61-0.13,0.79l-31.65,22.61C156.12,35.3,154.03,35.97,151.89,35.96z"/>
				<path class="st11" d="M180.64,51.3c-0.17,0-0.33-0.07-0.43-0.2l-11.59-14.06c-0.13-0.16-0.16-0.37-0.09-0.56
					c0.07-0.19,0.24-0.33,0.44-0.36c0.2-0.03,0.4,0.04,0.53,0.2l11.59,14.06c0.14,0.17,0.16,0.4,0.07,0.6
					C181.06,51.17,180.86,51.29,180.64,51.3z"/>
				<path class="st11" d="M114.16,51.3c-0.15,0-0.29-0.06-0.4-0.17c-0.22-0.22-0.22-0.58,0-0.8L129,35c0.22-0.22,0.58-0.22,0.8,0
					c0.11,0.11,0.17,0.25,0.17,0.4s-0.06,0.29-0.17,0.4l-15.24,15.33C114.45,51.24,114.31,51.3,114.16,51.3z"/>
				<path class="st12" d="M130.21,24.51c0,0,3.6,8.92,14.41,4.39l3.2,3.97c0,0,6.81,1.06,9.95-2.37c0,0,6.18,2.3,9.73-2.4
					c0,0,6.81,3.32,9.49-4.99c2.68-8.31,1.21-15.08,1.21-15.08L130.21,24.51z"/>
				<path class="st13" d="M120.8,2.93l11.11,0.19c0,0,1.61,13.11-1.25,18.85c-2.86,5.73,7.09,8.25,9.38,6.3
					c1.19-0.98,2.3-2.05,3.32-3.21c0,0-0.8,5.36,3.66,7.45c4.46,2.09,10.3-5.39,10.3-5.39s0,2.74,2.63,3.38
					c2.63,0.64,7.78-4.18,7.78-4.18s3.32,1.83,6.52-0.35c3.2-2.18,5.87-18.52,2.4-23.88c-1.26-1.95-4.57-1.43-4.57-1.43
					s-3.89-4.47-8.01-2.87c0,0-6.29-6.19-13.13-3.78c0,0-5.03-6.08-11.32-4.7S119.98-5.22,120.8,2.93z"/>
				<g transform="translate(186.800412, 39.676471)" class="st14">
					<path class="st9" d="M-65.53-40.02c-0.43,1.03-0.59,2.15-0.49,3.27l11.11,0.19C-54.9-36.56-60.7-40.37-65.53-40.02z"/>
					<path class="st9" d="M-14.63-38.88c-0.04-0.05-0.08-0.1-0.12-0.15C-14.69-38.98-14.63-38.93-14.63-38.88z"/>
					<path class="st9" d="M-46.73-11.41c1.19-0.98,2.3-2.05,3.32-3.21c0,0-0.8,5.36,3.66,7.45s10.3-5.39,10.3-5.39s0,2.74,2.63,3.38
						c2.63,0.64,7.78-4.18,7.78-4.18s3.32,1.83,6.52-0.35c3.07-2.09,5.65-17.18,2.81-23.16c-0.03,0.18-1.21,8-2.29,7.34
						c-0.71-0.43-0.87-2.05-0.89-3.11c0-0.25,0-0.49,0-0.75c0-0.15,0-0.24,0-0.24c-0.08-2.05-0.56-3.9-1.67-5.26
						c0.31,0.46,1.13,2,1.13,5.32c-0.03,0.64-0.53,7.41-5.04,8.88c-4.75,1.55-5.48-1.57-4.67-4.17c0.44-1.33,0.81-2.57,1.08-3.64
						c1.65-6.53-0.62-9.4-0.62-9.4c1.29,2.1,0.38,7.42-1.13,12.96c-0.05,0.16-1.95,6.05-6.32,7.63c-4.38,1.58-9.41-0.34-7.07-7.31
						v-0.03c0.88-2.28,1.6-4.62,2.14-7c1.66-7.9-0.76-10.04-0.76-10.04s1.26,1.89,0.11,7.8c-0.71,3.68-2.63,9.51-4.38,14.41
						c-0.32,0.87-2.56,6.42-8.36,7.41c-6.29,1.07-7.87,0.97-7.04-3.1l0,0c-0.16,0.5-0.36,0.99-0.59,1.46
						C-58.99-11.98-49.04-9.46-46.73-11.41z"/>
				</g>
				<path class="st15" d="M147.37-17.84c-0.41,0-0.76-0.3-0.84-0.7c-3.48-19.56-23.93-20.76-24.8-20.81
					c-0.22-0.01-0.44-0.11-0.59-0.28c-0.15-0.17-0.23-0.39-0.22-0.61c0.01-0.23,0.1-0.44,0.27-0.59c0.17-0.15,0.39-0.23,0.61-0.22
					c0.23,0,22.67,1.3,26.39,22.2c0.08,0.46-0.23,0.89-0.69,0.97L147.37-17.84z"/>
			</g>
			<g id="ARM_2" transform="translate(419.000000, 438.000000)">
				
					<linearGradient id="SVGID_5_" gradientUnits="userSpaceOnUse" x1="-990.0185" y1="433.4951" x2="-990.695" y2="433.0382" gradientTransform="matrix(141.2685 0 0 -111.42 139985.2031 48262.125)">
					<stop  offset="0" style="stop-color:#8A7EBB"/>
					<stop  offset="0.03" style="stop-color:#8378B5"/>
					<stop  offset="0.2" style="stop-color:#645C9A"/>
					<stop  offset="0.38" style="stop-color:#4B4685"/>
					<stop  offset="0.56" style="stop-color:#3A3677"/>
					<stop  offset="0.76" style="stop-color:#2F2D6E"/>
					<stop  offset="1" style="stop-color:#2C2A6B"/>
				</linearGradient>
				<path class="st16" d="M41.54,51.24c-9.26,0-20.42-2.04-33.86-7.16c-20.83-7.93-37.96-19.79-38.7-20.28
					c-5.11-3.56-6.4-10.62-2.86-15.78s10.54-6.45,15.65-2.89c11.02,7.66,39.15,23.4,59.59,23.43c7.26,0,13.55-1.98,17.75-7.02
					c4.43-5.29,6.25-10.64,5.55-16.37C63.02-8.22,48.43-21.49,42.94-25.47C38-29.15,36.9-36.15,40.48-41.19
					c3.57-5.04,10.5-6.26,15.55-2.73C58.86-41.88,83.78-23.3,86.99,2.3c1.5,12.04-2.19,23.76-10.67,33.88
					C69.87,43.89,59.11,51.24,41.54,51.24z"/>
				<path class="st6" d="M78.6,33.26c6.86-9.43,9.77-20.06,8.41-30.97C83.82-23.3,58.9-41.88,56.05-43.92
					c-5.06-3.64-12.09-2.45-15.7,2.64c-0.43,0.6-0.79,1.25-1.09,1.93C48.4-31.16,70.02-9.4,64.74,9.19
					c-0.38,4.25-2.23,8.32-5.62,12.36c-4.22,5.03-10.5,7.02-17.75,7.02c-20.45,0-48.57-15.78-59.59-23.43
					c-3.93-2.74-9.16-2.68-13.02,0.16s-5.53,7.83-4.14,12.45c8.22,3.21,18.77,7.93,32.26,14.42C54.56,59.89,76.64,35.6,78.6,33.26z"
					/>
				
					<linearGradient id="SVGID_6_" gradientUnits="userSpaceOnUse" x1="-990.7576" y1="430.3788" x2="-990.3553" y2="430.8621" gradientTransform="matrix(130.6622 0 0 -38.4263 129432.5547 16582.8789)">
					<stop  offset="0" style="stop-color:#FFFFFF;stop-opacity:0.5"/>
					<stop  offset="0.18" style="stop-color:#FFFFFF;stop-opacity:0.48"/>
					<stop  offset="0.39" style="stop-color:#FFFFFF;stop-opacity:0.43"/>
					<stop  offset="0.61" style="stop-color:#FFFFFF;stop-opacity:0.34"/>
					<stop  offset="0.83" style="stop-color:#FFFFFF;stop-opacity:0.21"/>
					<stop  offset="1" style="stop-color:#FFFFFF;stop-opacity:0.1"/>
				</linearGradient>
				<path class="st17" d="M-30.99,23.79c0.72,0.49,17.86,12.35,38.7,20.28c13.42,5.11,24.57,7.16,33.86,7.16
					c17.57,0,28.34-7.35,34.8-15.06c0.8-0.98,1.54-1.95,2.26-2.93c-1.94,2.36-24.02,26.62-81.69-1.11
					c-13.49-6.48-24.06-11.21-32.26-14.42C-34.6,20.19-33.08,22.33-30.99,23.79z"/>
				<path class="st12" d="M87.01,2.3c-1.94-15.35-11.64-28.18-19.73-36.43c-0.33,3.12-3.95,38.91,5.62,50.83
					c2.87,3.51,6.49,6.31,10.59,8.2C86.76,17.85,87.98,10.02,87.01,2.3z"/>
				
					<linearGradient id="SVGID_7_" gradientUnits="userSpaceOnUse" x1="-978.3784" y1="431.6622" x2="-977.4143" y2="431.7281" gradientTransform="matrix(31.3122 0 0 -55.6631 30663.7031 24015.4277)">
					<stop  offset="0" style="stop-color:#FFFFFF;stop-opacity:0.5"/>
					<stop  offset="0.18" style="stop-color:#FFFFFF;stop-opacity:0.48"/>
					<stop  offset="0.39" style="stop-color:#FFFFFF;stop-opacity:0.43"/>
					<stop  offset="0.61" style="stop-color:#FFFFFF;stop-opacity:0.34"/>
					<stop  offset="0.83" style="stop-color:#FFFFFF;stop-opacity:0.21"/>
					<stop  offset="1" style="stop-color:#FFFFFF;stop-opacity:0.1"/>
				</linearGradient>
				<path class="st18" d="M39.27-39.35c-2.21,4.93-0.66,10.74,3.71,13.88c5.49,3.98,20.08,17.26,21.71,30.65
					c0.16,1.33,0.19,2.68,0.07,4.02C70.04-9.4,48.42-31.16,39.27-39.35z"/>
				<path class="st15" d="M51.93,60.91c-0.45,0.02-0.83-0.32-0.87-0.77c-0.04-0.45,0.27-0.85,0.71-0.92
					C81.7,53.59,86.08,34.5,86.12,34.31c0.1-0.46,0.54-0.75,1-0.66c0.46,0.1,0.75,0.55,0.65,1.01c-0.04,0.21-1.13,5.22-6.1,10.99
					c-4.55,5.27-13.38,12.19-29.58,15.24L51.93,60.91z"/>
			</g>
			<g id="ARM_1" transform="translate(230.000000, 163.000000)">
				
					<linearGradient id="SVGID_8_" gradientUnits="userSpaceOnUse" x1="-802.176" y1="709.3087" x2="-802.039" y2="708.3896" gradientTransform="matrix(163.5884 0 0 -226.696 131276.6094 160752.2813)">
					<stop  offset="0" style="stop-color:#8A7EBB"/>
					<stop  offset="0.03" style="stop-color:#8378B5"/>
					<stop  offset="0.2" style="stop-color:#645C9A"/>
					<stop  offset="0.38" style="stop-color:#4B4685"/>
					<stop  offset="0.56" style="stop-color:#3A3677"/>
					<stop  offset="0.76" style="stop-color:#2F2D6E"/>
					<stop  offset="1" style="stop-color:#2C2A6B"/>
				</linearGradient>
				<path class="st19" d="M51.56,190.17c-1.3,0-2.58-0.23-3.8-0.67c-16.95-6.07-39.25-22.48-51-50.29
					c-7.68-18.17-13.21-47.8,4.01-85.92C14.54,22.87,40.15,2.89,74.88-4.47c25.5-5.4,46.97-2.05,47.87-1.9
					c6.08,1.07,10.18,6.85,9.21,12.97c-0.98,6.12-6.67,10.32-12.78,9.44c-0.43-0.07-18.96-2.82-40.28,1.84
					c-27.44,6-46.79,21.07-57.52,44.8c-11.11,24.57-12.38,47.32-3.79,67.69c8.91,21.08,25.92,33.52,37.79,37.77
					c5.18,1.85,8.29,7.18,7.35,12.63C61.77,186.2,57.07,190.17,51.56,190.17z"/>
				<path class="st6" d="M26.06,53.73C37.34,35.1,55.07,23.04,78.89,17.84c21.34-4.66,39.86-1.91,40.28-1.84
					c3.29,0.53,6.63-0.43,9.15-2.61c-4.99-8.85-8.92-15.03-8.92-15.03S43.49,9.12,26.06,53.73z"/>
				
					<linearGradient id="SVGID_9_" gradientUnits="userSpaceOnUse" x1="-802.3383" y1="707.4058" x2="-801.4661" y2="707.4058" gradientTransform="matrix(154.1357 0 0 -90.0424 123663.0703 63728.2305)">
					<stop  offset="0" style="stop-color:#FFFFFF;stop-opacity:0.5"/>
					<stop  offset="0.18" style="stop-color:#FFFFFF;stop-opacity:0.48"/>
					<stop  offset="0.39" style="stop-color:#FFFFFF;stop-opacity:0.43"/>
					<stop  offset="0.61" style="stop-color:#FFFFFF;stop-opacity:0.34"/>
					<stop  offset="0.83" style="stop-color:#FFFFFF;stop-opacity:0.21"/>
					<stop  offset="1" style="stop-color:#FFFFFF;stop-opacity:0.1"/>
				</linearGradient>
				<path class="st20" d="M29.36,20.33c29.82-25.76,89.21-24.32,99.2-23.9c-1.63-1.49-3.66-2.47-5.83-2.82
					c-0.9-0.15-22.36-3.5-47.87,1.9C40.15,2.87,14.53,22.83,0.76,53.28c-2.61,5.74-4.82,11.65-6.62,17.69
					C-2.33,60.21,6.84,39.79,29.36,20.33z"/>
				<path class="st15" d="M-10.58,48.29c-0.11,0-0.22-0.02-0.32-0.06c-0.43-0.18-0.64-0.68-0.46-1.11C-7.09,37.63-1.59,28.74,5,20.7
					C15.18,8.24,32.46-7.4,56.98-11.07c0.46-0.07,0.89,0.25,0.96,0.72c0.07,0.46-0.25,0.9-0.71,0.97
					C33.26-5.8,16.33,9.52,6.35,21.74C-4.51,35.03-9.74,47.64-9.79,47.77C-9.92,48.09-10.23,48.29-10.58,48.29z"/>
			</g>
			<g id="NOTEPAD" transform="translate(513.000000, 258.000000)">
				<path class="st21" d="M86.15,58.97c0,0,23-4.38,34.44-27.52S78.47,36.08,86.15,58.97z"/>
				
					<linearGradient id="SVGID_10_" gradientUnits="userSpaceOnUse" x1="-1085.3696" y1="614.278" x2="-1085.2349" y2="613.5695" gradientTransform="matrix(162.8466 0 0 -193.3967 176763.4219 118801.0313)">
					<stop  offset="0" style="stop-color:#8A7EBB"/>
					<stop  offset="0.03" style="stop-color:#8378B5"/>
					<stop  offset="0.2" style="stop-color:#645C9A"/>
					<stop  offset="0.38" style="stop-color:#4B4685"/>
					<stop  offset="0.56" style="stop-color:#3A3677"/>
					<stop  offset="0.76" style="stop-color:#2F2D6E"/>
					<stop  offset="1" style="stop-color:#2C2A6B"/>
				</linearGradient>
				<path class="st22" d="M11.66,204.71c-12.83,0-20.83-5.66-25.38-10.6c-12.73-13.85-15.72-38.91-9.68-81.26
					c1-7.03,1.24-16.31-3.32-20.6c-4.38-4.13-13.19-3.43-15.92-2.86h0.08l-4.93-22.11c2.24-0.49,22.24-4.51,36.08,8.32
					C-1.93,84.36,1.57,98-1.01,116.07c-5.96,41.81-1.15,57.18,3.93,62.71c1.57,1.7,4.13,3.61,10.12,3.24
					c0.03,0,2.92-0.62,7.09-10.94c3.99-9.83,7.29-23.87,10.83-38.7c8.75-37,18.69-78.93,46.68-94.86
					c5.43-3.09,12.34-1.19,15.43,4.25c3.09,5.44,1.19,12.36-4.24,15.46c-19.45,11.05-28.55,49.5-35.86,80.39
					c-3.72,15.72-7.24,30.57-11.89,42.01c-2.43,5.93-9.72,23.99-26.67,25.01C13.46,204.71,12.55,204.71,11.66,204.71z"/>
				<g transform="translate(2.230088, 78.208955)" class="st23">
					<path class="st9" d="M-44.86,11.2c2.73-0.57,11.53-1.27,15.92,2.86c4.56,4.29,4.32,13.57,3.32,20.6
						c-6.04,42.35-3.05,67.41,9.68,81.26c4.54,4.94,12.54,10.6,25.38,10.6c0.89,0,1.8,0,2.73-0.08
						c16.93-1.02,24.26-19.08,26.67-25.01c4.65-11.44,8.17-26.31,11.89-42.01c7.29-30.89,16.41-69.33,35.86-80.39
						c4.19-2.38,6.41-7.16,5.53-11.9c-33.06,5.43-53.28,134.3-81.31,136.69c-28.03,2.39-16.05-48.58-18.84-81.91
						C-10.1-3.02-35.33-3.99-47.92-2.9l3.14,14.08L-44.86,11.2z"/>
					<path class="st9" d="M-44.86,11.2c2.73-0.57,11.53-1.27,15.92,2.86c4.56,4.29,4.32,13.57,3.32,20.6
						c-6.04,42.35-3.05,67.41,9.68,81.26c4.54,4.94,12.54,10.6,25.38,10.6c0.89,0,1.8,0,2.73-0.08
						c16.93-1.02,24.26-19.08,26.67-25.01c4.65-11.44,8.17-26.31,11.89-42.01c7.29-30.89,16.41-69.33,35.86-80.39
						c4.19-2.38,6.41-7.16,5.53-11.9c-33.06,5.43-53.28,134.3-81.31,136.69c-28.03,2.39-16.05-48.58-18.84-81.91
						C-10.1-3.02-35.33-3.99-47.92-2.9l3.14,14.08L-44.86,11.2z"/>
				</g>
				
					<linearGradient id="SVGID_11_" gradientUnits="userSpaceOnUse" x1="-1081.4644" y1="613.6815" x2="-1080.8077" y2="612.9171" gradientTransform="matrix(68.2574 0 0 -120.5215 73843.4219 73982.8047)">
					<stop  offset="0" style="stop-color:#FFFFFF;stop-opacity:0.5"/>
					<stop  offset="0.18" style="stop-color:#FFFFFF;stop-opacity:0.48"/>
					<stop  offset="0.39" style="stop-color:#FFFFFF;stop-opacity:0.43"/>
					<stop  offset="0.61" style="stop-color:#FFFFFF;stop-opacity:0.34"/>
					<stop  offset="0.83" style="stop-color:#FFFFFF;stop-opacity:0.21"/>
					<stop  offset="1" style="stop-color:#FFFFFF;stop-opacity:0.1"/>
				</linearGradient>
				<path class="st24" d="M50.84,78.33c9.33-26.09,29.77-37.51,37.58-41.01c-3.39-1.76-7.44-1.68-10.77,0.21
					c-28.01,15.93-37.93,57.86-46.68,94.86c-0.7,2.96-1.4,5.89-2.09,8.77C28.89,141.16,39.18,110.96,50.84,78.33z"/>
				<path class="st9" d="M171.6-10.04l-1.16-6.92l-7.92,1.64l-4.58,2.28l-28.01-3.12c-1.54-0.17-3.08,0.29-4.27,1.29L71.55,30.13
					l-19.1,9.54l1.09,6.73h0.03c0.13,0.97,0.92,1.73,1.9,1.81l40.7,3.9c0.56,0.05,1.11-0.13,1.54-0.49l73.17-59.6
					C171.49-8.47,171.77-9.27,171.6-10.04z"/>
				
					<linearGradient id="SVGID_12_" gradientUnits="userSpaceOnUse" x1="-1084.9476" y1="612.9695" x2="-1084.6414" y2="611.7256" gradientTransform="matrix(135.4082 0 0 -78.3571 146997.625 47983.8789)">
					<stop  offset="0" style="stop-color:#8A7EBB"/>
					<stop  offset="0.03" style="stop-color:#8378B5"/>
					<stop  offset="0.2" style="stop-color:#645C9A"/>
					<stop  offset="0.38" style="stop-color:#4B4685"/>
					<stop  offset="0.56" style="stop-color:#3A3677"/>
					<stop  offset="0.76" style="stop-color:#2F2D6E"/>
					<stop  offset="1" style="stop-color:#2C2A6B"/>
				</linearGradient>
				<path class="st25" d="M95.03,45.26l-40.7-3.9c-0.85-0.08-1.57-0.67-1.83-1.49c-0.25-0.82,0.01-1.71,0.67-2.26l71.35-59.35
					c1.19-0.99,2.73-1.46,4.27-1.29l39.81,4.44c0.85,0.09,1.56,0.69,1.8,1.51c0.24,0.82-0.03,1.71-0.7,2.25L96.57,44.81
					C96.14,45.15,95.58,45.31,95.03,45.26z"/>
				
					<linearGradient id="SVGID_13_" gradientUnits="userSpaceOnUse" x1="-1084.688" y1="613.2661" x2="-1084.2311" y2="611.2989" gradientTransform="matrix(123.1287 0 0 -71.2892 133632.875 43639.293)">
					<stop  offset="0.06" style="stop-color:#F4D248"/>
					<stop  offset="0.96" style="stop-color:#F1BD45"/>
				</linearGradient>
				<path class="st26" d="M97.85,40.97l-37.02-3.56c-0.77-0.09-1.41-0.62-1.64-1.36c-0.23-0.74,0-1.54,0.59-2.05l64.92-54
					c1.08-0.9,2.49-1.33,3.89-1.17l36.22,4.04c0.76,0.1,1.39,0.64,1.61,1.38c0.22,0.74-0.02,1.53-0.6,2.03L99.25,40.55
					C98.86,40.87,98.35,41.02,97.85,40.97z"/>
				
					<linearGradient id="SVGID_14_" gradientUnits="userSpaceOnUse" x1="-1083.6351" y1="612.5764" x2="-1083.6293" y2="611.2299" gradientTransform="matrix(103.5739 0 0 -63.7626 112357.2734 39016.8086)">
					<stop  offset="0" style="stop-color:#FFFFFF;stop-opacity:0.5"/>
					<stop  offset="0.18" style="stop-color:#FFFFFF;stop-opacity:0.48"/>
					<stop  offset="0.39" style="stop-color:#FFFFFF;stop-opacity:0.43"/>
					<stop  offset="0.61" style="stop-color:#FFFFFF;stop-opacity:0.34"/>
					<stop  offset="0.83" style="stop-color:#FFFFFF;stop-opacity:0.21"/>
					<stop  offset="1" style="stop-color:#FFFFFF;stop-opacity:0.1"/>
				</linearGradient>
				<path class="st27" d="M165.79-13.69c0.58-0.47,0.84-1.23,0.66-1.95L76.17,38.88l11.33,1.09l74.27-50.4L165.79-13.69z"/>
				
					<linearGradient id="SVGID_15_" gradientUnits="userSpaceOnUse" x1="-1084.1471" y1="612.5812" x2="-1084.1418" y2="611.2697" gradientTransform="matrix(116.151 0 0 -65.4609 126034.1094 40057.5156)">
					<stop  offset="0" style="stop-color:#FFFFFF;stop-opacity:0.5"/>
					<stop  offset="0.18" style="stop-color:#FFFFFF;stop-opacity:0.48"/>
					<stop  offset="0.39" style="stop-color:#FFFFFF;stop-opacity:0.43"/>
					<stop  offset="0.61" style="stop-color:#FFFFFF;stop-opacity:0.34"/>
					<stop  offset="0.83" style="stop-color:#FFFFFF;stop-opacity:0.21"/>
					<stop  offset="1" style="stop-color:#FFFFFF;stop-opacity:0.1"/>
				</linearGradient>
				<path class="st28" d="M148.97-18.88l-69.4,36.41L59.77,34c-0.58,0.51-0.81,1.31-0.59,2.05c0.23,0.74,0.87,1.27,1.64,1.36
					l8.34,0.8l91.24-55.82L148.97-18.88z"/>
				<ellipse class="st9" cx="75.39" cy="41.17" rx="3.43" ry="1.19"/>
			</g>
			<g id="EXCLAMATIOn" transform="translate(467.000000, 179.000000)">
				
					<linearGradient id="SVGID_16_" gradientUnits="userSpaceOnUse" x1="-1039.9421" y1="693.1536" x2="-1039.9391" y2="692.2673" gradientTransform="matrix(203.802 0 0 -160.2245 211989 111030.5313)">
					<stop  offset="0" style="stop-color:#8A7EBB"/>
					<stop  offset="0.03" style="stop-color:#8378B5"/>
					<stop  offset="0.2" style="stop-color:#645C9A"/>
					<stop  offset="0.38" style="stop-color:#4B4685"/>
					<stop  offset="0.56" style="stop-color:#3A3677"/>
					<stop  offset="0.76" style="stop-color:#2F2D6E"/>
					<stop  offset="1" style="stop-color:#2C2A6B"/>
				</linearGradient>
				<path class="st29" d="M-30.3,162.03c-4.13,0-7.92-2.26-9.91-5.88c-1.99-3.62-1.84-8.04,0.37-11.52
					c2.23-3.51,55.14-86.25,103.29-112.39c19.11-10.38,35.81-12.66,49.64-6.71c17.44,7.49,22.53,24.75,23.05,26.69l-21.85,5.89
					l0.03,0.12c-0.03-0.09-2.66-8.76-10.32-11.95c-7.02-2.92-17.3-0.89-29.73,5.84C31.26,75.49-20.22,155.95-20.73,156.76
					C-22.81,160.04-26.42,162.03-30.3,162.03z"/>
				<path class="st6" d="M-39.84,144.63c-2.17,3.41-2.36,7.73-0.49,11.32s5.51,5.91,9.55,6.09c4.04,0.18,7.87-1.82,10.04-5.23
					c0.52-0.81,52-81.32,94.99-104.64c12.43-6.75,22.72-8.76,29.73-5.84c7.66,3.18,10.29,11.87,10.32,11.95l-0.03-0.12l17.46-4.7
					c1.19-1.62,2.2-3.36,3-5.2c-1.31-3.16-2.96-6.16-4.93-8.95c-9.38-7.36-21.93-7.22-48.39-7.59
					c-13.53-0.19-33.84,12.6-52.59,27.23C-7.13,93.44-38.14,141.97-39.84,144.63z"/>
				<path class="st21" d="M151.88,97.3c0,0-3.07,2.92-7.25,2.92C140.45,100.23,145.11,95.74,151.88,97.3z"/>
				<path class="st13" d="M121.47,41.83c0,0-8.69,2.81-9.73,9c-1.04,6.19,2.83,12.81,4.28,14.69c1.45,1.88,7.4,10.02,7.89,14.04
					c0.49,4.03,4.17,6.14,6.51,5.48s3.33-8.62,2.48-10.8s-1.95-7.59-0.58-7.06c1.36,0.53,6.57,13.88,7.52,16.75
					c0.95,2.87,2.78,11.53,5.4,13.51s6.85,0.78,6.75-0.52s-2.62-18.57-2.99-20.07c-0.37-1.5-1.02-8.83-1.12-11.1
					c-0.39-4.14-1.93-8.09-4.43-11.4C140.29,50.42,133.74,37.45,121.47,41.83z"/>
				<path class="st21" d="M145.64,95.17c-1.34-1.78-3.41-5.84-5.56-10.38c1.01,3.44,2.74,10.85,5.14,12.66
					c2.4,1.81,6.04,0.97,6.66-0.15C150.14,97.6,147.57,97.72,145.64,95.17z"/>
				<path class="st21" d="M130.4,85.05c2.34-0.65,3.33-8.62,2.48-10.8s-1.95-7.59-0.58-7.06c0,0-2.38-0.89-1.95,3
					c0.43,3.9,4.14,15.58-2.47,14.66C128.69,85.18,129.57,85.25,130.4,85.05z"/>
				<path class="st9" d="M151.15,100.09c-0.31,0.02-0.57-0.21-0.6-0.51c-0.03-0.31,0.19-0.58,0.5-0.61
					c0.14-0.03,2.97-0.67,2.36-6.33c-0.01-0.3,0.21-0.55,0.51-0.58c0.3-0.03,0.57,0.17,0.62,0.46c0.73,6.79-3.12,7.54-3.29,7.57
					L151.15,100.09z"/>
				<polygon class="st15" points="159.49,54.43 152.18,36.98 138.71,36.98 138.71,-13.17 180.21,-13.17 180.21,36.98 166.07,36.98 
									"/>
				<polygon class="st30" points="139.84,35.85 152.94,35.85 159.43,51.37 165.29,35.85 179.08,35.85 179.08,-12.04 139.84,-12.04 
									"/>
				<path class="st31" d="M159.46,21.03c-1.44,0.06-2.66-1.05-2.73-2.49V-4.62c0.12-1.42,1.31-2.51,2.73-2.51
					c1.42,0,2.61,1.09,2.73,2.51v23.15C162.12,19.98,160.9,21.09,159.46,21.03z"/>
				<ellipse class="st31" cx="159.52" cy="27.85" rx="2.89" ry="2.89"/>
				<path class="st15" d="M156.73,58.05c-0.18,0-0.35-0.09-0.45-0.23l-4.9-6.64c-0.19-0.25-0.13-0.61,0.12-0.79
					c0.25-0.19,0.61-0.13,0.79,0.12l4.9,6.64c0.13,0.17,0.14,0.4,0.05,0.59C157.14,57.93,156.94,58.05,156.73,58.05z"/>
				<path class="st15" d="M162.19,58.05c-0.2,0-0.39-0.11-0.49-0.29c-0.1-0.18-0.1-0.4,0.01-0.57l4.05-6.64
					c0.11-0.17,0.3-0.28,0.5-0.27c0.2,0,0.39,0.12,0.49,0.29c0.1,0.18,0.09,0.4-0.01,0.57l-4.07,6.64
					C162.56,57.94,162.38,58.04,162.19,58.05z"/>
			</g>
			<g id="HEAD" transform="translate(352.000000, 118.000000)">
				
					<linearGradient id="SVGID_17_" gradientUnits="userSpaceOnUse" x1="-925.9626" y1="754.0986" x2="-924.7896" y2="753.1324" gradientTransform="matrix(242.2251 0 0 -190.075 224208.125 143301.0625)">
					<stop  offset="0.11" style="stop-color:#B2DECD"/>
					<stop  offset="0.23" style="stop-color:#A2D4C9"/>
					<stop  offset="0.45" style="stop-color:#7ABABE"/>
					<stop  offset="0.76" style="stop-color:#3991AD"/>
					<stop  offset="1" style="stop-color:#016E9F"/>
				</linearGradient>
				<path class="st32" d="M116.55,1.34C42.17-24.27-2.07,32.85-25.71,83.25c-0.41,0.64-0.74,1.33-0.97,2.05c0,0,0,0,0,0.02
					c-5.03,16.12,36.79,43.57,93.47,61.28s106.73,18.99,111.8,2.86c0.06-0.17,0.1-0.35,0.15-0.53l0.1-0.49
					C190.34,94.89,188.73,26.2,116.55,1.34z"/>
				
					<linearGradient id="SVGID_18_" gradientUnits="userSpaceOnUse" x1="-925.212" y1="753.6622" x2="-923.6065" y2="752.2296" gradientTransform="matrix(176.973 0 0 -128.1888 163654.1563 96576.9219)">
					<stop  offset="0" style="stop-color:#F3D266"/>
					<stop  offset="0.14" style="stop-color:#F3D259"/>
					<stop  offset="0.4" style="stop-color:#F4D148"/>
					<stop  offset="0.67" style="stop-color:#F4D13D"/>
					<stop  offset="1" style="stop-color:#F4D13A"/>
				</linearGradient>
				<path class="st33" d="M127.17,5.5c-3.41-1.53-6.95-2.95-10.72-4.25C42.07-24.36-2.16,32.75-25.81,83.16
					c-0.4,0.64-0.72,1.33-0.95,2.05v0.02c-1.88,5.97,2.67,13.49,12.01,21.48c0.24-0.61,0.54-1.2,0.89-1.76
					C10.8,52.35,55.06-6.63,127.17,5.5z"/>
				<path class="st9" d="M116.21,28.94c-0.74-13.97-3.96-24.24-9.59-30.64c-0.69-0.17-1.37-0.34-2.06-0.49
					c15.2,14.88,11.4,53.67,5.14,84.8c-6.82,33.95-17.85,65.84-19.49,70.44l1.12,0.27c1.77-5.03,12.7-36.73,19.49-70.48
					C115.15,61.31,116.96,43.17,116.21,28.94z"/>
				<path class="st21" d="M178.48,149.37c0.06-0.18,0.1-0.36,0.15-0.54l0.1-0.49c8.35-38.85,9.78-85.67-17.61-117.94
					c2.21,17.41,3.77,52.55-16.94,65.36c-28,17.33-121.92-2.54-121.92-2.54s8.15,23.31,35.65,35.77
					c11.65,5.29,17.11,13.25,19.54,20.68C129.54,164.32,173.73,164.47,178.48,149.37z"/>
				
					<linearGradient id="SVGID_19_" gradientUnits="userSpaceOnUse" x1="-924.884" y1="753.7744" x2="-924.0031" y2="752.5294" gradientTransform="matrix(173.2571 0 0 -135.9463 160262.3438 102468.7109)">
					<stop  offset="0" style="stop-color:#2B2B6A"/>
					<stop  offset="0.07" style="stop-color:#292964"/>
					<stop  offset="0.45" style="stop-color:#1D2044"/>
					<stop  offset="0.78" style="stop-color:#161A30"/>
					<stop  offset="1" style="stop-color:#131829"/>
				</linearGradient>
				<path class="st34" d="M124.88,29.89C71.67,11.56,40.02,52.43,23.12,88.48c-0.29,0.46-0.51,0.95-0.68,1.46l0,0
					c-3.63,11.54,26.31,31.17,66.84,43.84s76.36,13.6,79.99,2.04c0.04-0.13,0.07-0.26,0.1-0.38l0.07-0.34
					C177.67,96.81,176.52,47.67,124.88,29.89z"/>
				
					<linearGradient id="SVGID_20_" gradientUnits="userSpaceOnUse" x1="-923.6401" y1="753.0934" x2="-924.1714" y2="752.7398" gradientTransform="matrix(163.0394 0 0 -116.2652 150790.5313 87629.1875)">
					<stop  offset="0.11" style="stop-color:#B2DECD"/>
					<stop  offset="0.23" style="stop-color:#A2D4C9"/>
					<stop  offset="0.45" style="stop-color:#7ABABE"/>
					<stop  offset="0.76" style="stop-color:#3991AD"/>
					<stop  offset="1" style="stop-color:#016E9F"/>
				</linearGradient>
				<path class="st35" d="M148.41,42.55c26.8,22.88,26.26,60.65,19.65,91.43l-0.07,0.34c-0.03,0.13-0.06,0.26-0.1,0.38
					c-3.63,11.54-39.46,10.63-79.99-2.04c-24.53-7.67-45.17-17.88-56.85-27.31c11.39,9.74,32.7,20.47,58.22,28.45
					c40.54,12.67,76.36,13.6,79.99,2.04c0.04-0.13,0.07-0.26,0.1-0.38l0.07-0.34C176.16,103.82,176.62,65.3,148.41,42.55z"/>
				
					<linearGradient id="SVGID_21_" gradientUnits="userSpaceOnUse" x1="-922.913" y1="751.0381" x2="-922.261" y2="747.8212" gradientTransform="matrix(100.5187 0 0 -29.2532 92801.3984 21925.4043)">
					<stop  offset="0" style="stop-color:#FFFFFF;stop-opacity:0.5"/>
					<stop  offset="0.18" style="stop-color:#FFFFFF;stop-opacity:0.48"/>
					<stop  offset="0.39" style="stop-color:#FFFFFF;stop-opacity:0.43"/>
					<stop  offset="0.61" style="stop-color:#FFFFFF;stop-opacity:0.34"/>
					<stop  offset="0.83" style="stop-color:#FFFFFF;stop-opacity:0.21"/>
					<stop  offset="1" style="stop-color:#FFFFFF;stop-opacity:0.1"/>
				</linearGradient>
				<path class="st36" d="M70.59,41.62c7.21-4.31,26.12-10.97,47.66-5.48s28.14,15.76,26.44,19.87s-51.88-11.19-74.11,0
					S57.98,49.15,70.59,41.62z"/>
				
					<linearGradient id="SVGID_22_" gradientUnits="userSpaceOnUse" x1="-911.3124" y1="749.1533" x2="-909.9342" y2="748.3334" gradientTransform="matrix(31.2694 0 0 -32.7945 28622.9766 24642.8711)">
					<stop  offset="0.06" style="stop-color:#F4D248"/>
					<stop  offset="0.96" style="stop-color:#F1BD45"/>
				</linearGradient>
				<path class="st37" d="M152,72.68c-8.87-2.47-15.85,5.06-20.27,17.56c-0.6,1.68-0.43,3.54,0.46,5.09s2.42,2.63,4.18,2.96
					l12.88,2.4c2.21,0.41,4.49-0.15,6.26-1.53c1.77-1.38,2.86-3.46,2.99-5.69C159.01,85.42,158.45,74.47,152,72.68z"/>
				
					<linearGradient id="SVGID_23_" gradientUnits="userSpaceOnUse" x1="-911.7745" y1="749.4099" x2="-910.5057" y2="748.4277" gradientTransform="matrix(32.8055 0 0 -34.1705 29984.3867 25666.3945)">
					<stop  offset="0.06" style="stop-color:#F4D248"/>
					<stop  offset="0.96" style="stop-color:#F1BD45"/>
				</linearGradient>
				<path class="st38" d="M99.15,59.8c-9-3.72-17.26,3.92-23.26,17.12c-0.5,1.1-0.5,2.36-0.01,3.47c0.49,1.1,1.44,1.94,2.6,2.31
					l18.33,5.77c1.12,0.35,2.34,0.23,3.36-0.35c1.02-0.58,1.76-1.55,2.03-2.69C104,77.85,106.53,62.86,99.15,59.8z"/>
				
					<linearGradient id="SVGID_24_" gradientUnits="userSpaceOnUse" x1="-910.3699" y1="746.6226" x2="-908.9185" y2="745.4079" gradientTransform="matrix(29.5653 0 0 -22.0343 27002.2129 16550.166)">
					<stop  offset="0.06" style="stop-color:#F4D248"/>
					<stop  offset="0.96" style="stop-color:#F1BD45"/>
				</linearGradient>
				<path class="st39" d="M99.57,99.5l23.26,12.79c0,0-8.11,9.36-19.52,5.48C91.89,113.9,99.57,99.5,99.57,99.5z"/>
				
					<linearGradient id="SVGID_25_" gradientUnits="userSpaceOnUse" x1="-917.2291" y1="700.5913" x2="-918.5901" y2="699.1002" gradientTransform="matrix(8.684 -13.1151 -8.32 -5.5089 13843.5127 -8128.1772)">
					<stop  offset="0" style="stop-color:#FFFFFF;stop-opacity:0.5"/>
					<stop  offset="0.18" style="stop-color:#FFFFFF;stop-opacity:0.48"/>
					<stop  offset="0.39" style="stop-color:#FFFFFF;stop-opacity:0.43"/>
					<stop  offset="0.61" style="stop-color:#FFFFFF;stop-opacity:0.34"/>
					<stop  offset="0.83" style="stop-color:#FFFFFF;stop-opacity:0.21"/>
					<stop  offset="1" style="stop-color:#FFFFFF;stop-opacity:0.1"/>
				</linearGradient>
				<path class="st40" d="M46.39,66.86c2.09-3.16,5.41-4.64,7.41-3.32c2,1.33,1.93,4.96-0.16,8.12c-2.09,3.16-5.41,4.64-7.41,3.32
					C44.23,73.66,44.3,70.02,46.39,66.86z"/>
				
					<linearGradient id="SVGID_26_" gradientUnits="userSpaceOnUse" x1="-914.4605" y1="732.4891" x2="-917.2914" y2="731.8204" gradientTransform="matrix(3.8892 -7.5741 -22.2976 -11.4496 19885.6348 1539.0254)">
					<stop  offset="0" style="stop-color:#FFFFFF;stop-opacity:0.5"/>
					<stop  offset="0.18" style="stop-color:#FFFFFF;stop-opacity:0.48"/>
					<stop  offset="0.39" style="stop-color:#FFFFFF;stop-opacity:0.43"/>
					<stop  offset="0.61" style="stop-color:#FFFFFF;stop-opacity:0.34"/>
					<stop  offset="0.83" style="stop-color:#FFFFFF;stop-opacity:0.21"/>
					<stop  offset="1" style="stop-color:#FFFFFF;stop-opacity:0.1"/>
				</linearGradient>
				<path class="st41" d="M-9.32,104.14c0.94-1.82,6.05-1.07,11.42,1.69c5.37,2.76,8.96,6.47,8.03,8.3
					c-0.94,1.82-6.05,1.07-11.42-1.69C-6.66,109.67-10.26,105.96-9.32,104.14z"/>
			</g>
			<g id="PHONE" transform="translate(304.000000, 134.000000)">
				<path class="st9" d="M69.54,16.61l-2.41,4.55l-14.06,2.78l-6.02,36.08L38.4,79.48l3.82,3.08c0.64,0.52,1.45,0.81,2.27,0.82
					l18.21,0.2c1.71,0.02,3.18-1.22,3.47-2.91l10.14-58.15c0.21-1.17-0.34-2.34-1.37-2.91L69.54,16.61z"/>
				
					<linearGradient id="SVGID_27_" gradientUnits="userSpaceOnUse" x1="-865.8277" y1="736.7723" x2="-864.7709" y2="735.5977" gradientTransform="matrix(37.6746 0 0 -73.1574 32644.2441 53884.5156)">
					<stop  offset="0" style="stop-color:#8A7EBB"/>
					<stop  offset="0.03" style="stop-color:#8378B5"/>
					<stop  offset="0.2" style="stop-color:#645C9A"/>
					<stop  offset="0.38" style="stop-color:#4B4685"/>
					<stop  offset="0.56" style="stop-color:#3A3677"/>
					<stop  offset="0.76" style="stop-color:#2F2D6E"/>
					<stop  offset="1" style="stop-color:#2C2A6B"/>
				</linearGradient>
				<path class="st42" d="M70.58,18.86L60.24,78.3c-0.18,1.04-1.08,1.81-2.14,1.81H39.92c-0.64,0-1.24-0.28-1.65-0.77
					c-0.41-0.49-0.59-1.14-0.48-1.77l9.27-55.63c0.15-0.9,0.84-1.61,1.72-1.78l19.25-3.81c0.7-0.14,1.42,0.08,1.93,0.58
					C70.47,17.43,70.7,18.15,70.58,18.86z"/>
				
					<ellipse transform="matrix(0.275 -0.9615 0.9615 0.275 13.6775 65.6903)" class="st9" cx="50.39" cy="23.78" rx="1.88" ry="1.7"/>
				
					<linearGradient id="SVGID_28_" gradientUnits="userSpaceOnUse" x1="-887.8467" y1="578.2832" x2="-888.9454" y2="576.7317" gradientTransform="matrix(1.086 -3.7974 -3.4386 -0.9834 2999.7627 -2783.7695)">
					<stop  offset="0.11" style="stop-color:#B2DECD"/>
					<stop  offset="0.23" style="stop-color:#A2D4C9"/>
					<stop  offset="0.45" style="stop-color:#7ABABE"/>
					<stop  offset="0.76" style="stop-color:#3991AD"/>
					<stop  offset="1" style="stop-color:#016E9F"/>
				</linearGradient>
				<path class="st43" d="M48.97,23.35c0.26-0.91,1.14-1.46,1.97-1.23s1.29,1.17,1.03,2.08c-0.26,0.91-1.14,1.46-1.97,1.23
					S48.71,24.26,48.97,23.35z"/>
				
					<ellipse transform="matrix(0.275 -0.9615 0.9615 0.275 13.7227 65.4848)" class="st44" cx="50.28" cy="23.64" rx="1.1" ry="0.99"/>
				<ellipse class="st44" cx="50.95" cy="23.22" rx="0.87" ry="0.87"/>
				<path class="st45" d="M59.97,54.12c-6.24,2.19-18.19,10.04-20.24,11.77l-0.87,5.25c3.08-0.66,21.17-4.45,23.09-2.66l2.5-14.41
					C63,53.53,61.41,53.54,59.97,54.12z"/>
				<path class="st13" d="M33.19,41.98c0,0,8.95-9.43,15.31-11.32c6.36-1.89,14.77-3.37,18.05-2.67c3.28,0.7,10.78,0.91,11.1,5.71
					c0.32,4.8-0.45,9.53-2.04,9.71c0,0,3.06,7.28-1.13,12.07c0,0-0.8,9.36-4.65,11.3s-3.18-5.36-18.28-2.05
					c-15.1,3.31-11.22,5-17.52,0S33.19,41.98,33.19,41.98z"/>
				<path class="st21" d="M70.61,51.49c-1.86-0.31-5-0.72-7.35-1.02c5.66,1.23,11.23,5.02,11.23,5.02c4.2-4.8,1.13-12.07,1.13-12.07
					C76.57,49.79,73.85,52.03,70.61,51.49z"/>
				<path class="st21" d="M63.27,50.47c-1-0.22-2.02-0.35-3.04-0.38C60.23,50.09,61.53,50.24,63.27,50.47z"/>
				<path class="st21" d="M65.8,39.96c-1.06-0.22-2.14-0.33-3.22-0.34C62.57,39.62,63.94,39.8,65.8,39.96z"/>
				<path class="st21" d="M34.04,64.72c6.31,5.01,2.41,3.32,17.52,0c15.11-3.32,14.42,3.99,18.28,2.05
					c3.86-1.94,4.65-11.3,4.65-11.3c-2.69,11.98-6.7,6.28-13.81,4.6s-19.74,8.98-18.51-1.06c1.23-10.04-3.31-14.21-3.31-14.21
					c-3.9,1.71-6.79,8.82-7.11,16.32C32.13,62.53,32.93,63.78,34.04,64.72z"/>
				<path class="st21" d="M65.8,39.96c4.83,0.93,9.83,3.45,9.83,3.45c1.59-0.2,2.38-4.94,2.04-9.71c0-0.02,0-0.05,0-0.07
					c-0.37,1.9-1.23,3.72-1.84,5.25C75.16,40.48,69.5,40.28,65.8,39.96z"/>
				<path class="st9" d="M33.6,42.03c0,0,9.79,2.15,8.56,14.71c-0.82,8.33-8.13,7.98-8.13,7.98L33.6,42.03z"/>
				
					<linearGradient id="SVGID_29_" gradientUnits="userSpaceOnUse" x1="-872.1876" y1="737.8171" x2="-871.6437" y2="736.8105" gradientTransform="matrix(72.3456 0 0 -134.8543 63087.4297 99507.9766)">
					<stop  offset="0" style="stop-color:#8A7EBB"/>
					<stop  offset="0.03" style="stop-color:#8378B5"/>
					<stop  offset="0.2" style="stop-color:#645C9A"/>
					<stop  offset="0.38" style="stop-color:#4B4685"/>
					<stop  offset="0.56" style="stop-color:#3A3677"/>
					<stop  offset="0.76" style="stop-color:#2F2D6E"/>
					<stop  offset="1" style="stop-color:#2C2A6B"/>
				</linearGradient>
				<path class="st46" d="M-0.54,159.56c-4.37,0-8.34-2.55-10.18-6.53c-0.82-1.77-19.79-43.68-3.86-77
					c8.16-17.06,23.4-29.02,45.66-33.92c3.98-0.88,9.21,2.04,10.69,8.09c1.47,6.05-1.29,12.71-5.35,13.83
					C21.04,68.27,10.87,74.94,5.68,85.75c-11.36,23.63,3.83,57.46,3.99,57.8c1.6,3.5,1.32,7.57-0.75,10.81
					C6.85,157.59,3.29,159.56-0.54,159.56L-0.54,159.56z"/>
				<path class="st6" d="M-10.71,153.02c2.64,5.6,9.27,8.02,14.86,5.42s8.05-9.25,5.52-14.9c-0.15-0.33-15.34-34.17-3.99-57.8
					c5.19-10.8,15.36-17.47,30.74-21.72c3.42-0.95,5.91-5.8,5.74-10.92c-5.92,3.55-12.09,6.66-18.47,9.29
					c-9.6,3.84-33.62,22.18-26.4,44.02s-6.97,34.09-12.73,25.43c-4.96-7.48-5.7-23.91-5.24-31.99
					C-22.71,126.52-11.34,151.66-10.71,153.02z"/>
				
					<linearGradient id="SVGID_30_" gradientUnits="userSpaceOnUse" x1="-872.15" y1="737.3364" x2="-871.604" y2="735.4713" gradientTransform="matrix(70.8018 0 0 -71.5055 61728.8789 52693.2266)">
					<stop  offset="0" style="stop-color:#FFFFFF;stop-opacity:0.5"/>
					<stop  offset="0.18" style="stop-color:#FFFFFF;stop-opacity:0.48"/>
					<stop  offset="0.39" style="stop-color:#FFFFFF;stop-opacity:0.43"/>
					<stop  offset="0.61" style="stop-color:#FFFFFF;stop-opacity:0.34"/>
					<stop  offset="0.83" style="stop-color:#FFFFFF;stop-opacity:0.21"/>
					<stop  offset="1" style="stop-color:#FFFFFF;stop-opacity:0.1"/>
				</linearGradient>
				<path class="st47" d="M31.08,42.1c-22.26,4.9-37.5,16.86-45.66,33.92c-4.34,9.11-6.1,18.88-6.32,28.29
					c10.35-56.6,52.42-57.21,61.75-56.64C38.73,43.36,34.46,41.36,31.08,42.1z"/>
				
					<linearGradient id="SVGID_31_" gradientUnits="userSpaceOnUse" x1="-805.5002" y1="711.7961" x2="-805.2119" y2="705.7935" gradientTransform="matrix(7.3491 0 0 -5.9325 5962.8813 4198.2407)">
					<stop  offset="0.4" style="stop-color:#F1666E"/>
					<stop  offset="0.54" style="stop-color:#EB606B"/>
					<stop  offset="0.73" style="stop-color:#DB5161"/>
					<stop  offset="0.94" style="stop-color:#C03751"/>
					<stop  offset="1" style="stop-color:#B82F4C"/>
				</linearGradient>
				<ellipse class="st48" cx="45.37" cy="12.68" rx="3.2" ry="2.59"/>
				
					<linearGradient id="SVGID_32_" gradientUnits="userSpaceOnUse" x1="-848.0896" y1="721.9407" x2="-847.9673" y2="718.3394" gradientTransform="matrix(17.3348 0 0 -9.8895 14742.1855 7115.25)">
					<stop  offset="0.4" style="stop-color:#F1666E"/>
					<stop  offset="0.54" style="stop-color:#EB606B"/>
					<stop  offset="0.73" style="stop-color:#DB5161"/>
					<stop  offset="0.94" style="stop-color:#C03751"/>
					<stop  offset="1" style="stop-color:#B82F4C"/>
				</linearGradient>
				<path class="st49" d="M36.8,12.46c-0.19,0-0.37-0.03-0.55-0.1c-0.88-0.31-1.34-1.27-1.04-2.15c1.3-3.75,5.48-6.37,10.14-6.37
					c1.25,0,2.5,0.18,3.7,0.55c0.58,0.18,1.01,0.65,1.15,1.24c0.13,0.59-0.06,1.21-0.5,1.62c-0.44,0.41-1.07,0.55-1.64,0.38
					c-0.88-0.27-1.79-0.41-2.71-0.41c-3.27,0-6.13,1.69-6.97,4.11C38.14,12,37.51,12.45,36.8,12.46z"/>
				
					<linearGradient id="SVGID_33_" gradientUnits="userSpaceOnUse" x1="-858.3647" y1="726.3841" x2="-858.2825" y2="723.8195" gradientTransform="matrix(25.7917 0 0 -13.8852 22177.0215 10061.7881)">
					<stop  offset="0.4" style="stop-color:#F1666E"/>
					<stop  offset="0.54" style="stop-color:#EB606B"/>
					<stop  offset="0.73" style="stop-color:#DB5161"/>
					<stop  offset="0.94" style="stop-color:#C03751"/>
					<stop  offset="1" style="stop-color:#B82F4C"/>
				</linearGradient>
				<path class="st50" d="M30.45,10.44c-0.22,0-0.43-0.04-0.63-0.13c-0.41-0.17-0.74-0.5-0.92-0.91c-0.17-0.41-0.17-0.88,0-1.3
					c2.36-5.82,8.98-9.78,16.46-9.78c1.54,0,3.08,0.17,4.59,0.51C50.53-1.03,51-0.6,51.18-0.02s0.04,1.21-0.37,1.65
					c-0.41,0.44-1.02,0.64-1.6,0.51c-1.27-0.28-2.56-0.42-3.86-0.42c-6.12,0-11.49,3.08-13.34,7.66
					C31.75,10.02,31.13,10.43,30.45,10.44z"/>
				
					<linearGradient id="SVGID_34_" gradientUnits="userSpaceOnUse" x1="-863.488" y1="728.0771" x2="-863.4258" y2="725.9357" gradientTransform="matrix(34.0811 0 0 -16.6289 29464.9688 12083.0234)">
					<stop  offset="0.4" style="stop-color:#F1666E"/>
					<stop  offset="0.54" style="stop-color:#EB606B"/>
					<stop  offset="0.73" style="stop-color:#DB5161"/>
					<stop  offset="0.94" style="stop-color:#C03751"/>
					<stop  offset="1" style="stop-color:#B82F4C"/>
				</linearGradient>
				<path class="st51" d="M24.6,7.3c-0.27,0-0.54-0.07-0.78-0.2c-0.4-0.21-0.69-0.57-0.82-1c-0.13-0.43-0.09-0.89,0.12-1.29
					C26.94-2.47,35.67-7.21,45.37-7.21c1.99,0,3.98,0.2,5.93,0.6c0.59,0.12,1.07,0.55,1.26,1.12s0.06,1.21-0.34,1.66
					c-0.4,0.45-1.01,0.66-1.6,0.54c-1.73-0.36-3.49-0.53-5.25-0.53c-8.46,0-16.03,4-19.28,10.19C25.81,6.94,25.23,7.29,24.6,7.3z"/>
			</g>
			<g id="BODY" transform="translate(283.000000, 282.000000)">
				
					<linearGradient id="SVGID_35_" gradientUnits="userSpaceOnUse" x1="-857.085" y1="590.4281" x2="-855.9465" y2="589.3768" gradientTransform="matrix(265.3346 0 0 -256.2682 227345.4688 151282.0313)">
					<stop  offset="0.11" style="stop-color:#B2DECD"/>
					<stop  offset="0.23" style="stop-color:#A2D4C9"/>
					<stop  offset="0.45" style="stop-color:#7ABABE"/>
					<stop  offset="0.76" style="stop-color:#3991AD"/>
					<stop  offset="1" style="stop-color:#016E9F"/>
				</linearGradient>
				<path class="st52" d="M48.92,220.05C-75.48,177.14,10.46,2.86,10.46,2.86L212.94,72.7C212.94,72.7,173.3,262.96,48.92,220.05z"
					/>
				<path class="st21" d="M36.63,206.16c-12.26-4.23-22.88-9.29-32.06-15.01c10.32,12.11,24.71,22.15,44.33,28.92
					c57.7,19.9,97.15-10.36,122.88-48.54C143.65,205.03,100.69,228.24,36.63,206.16z"/>
				
					<linearGradient id="SVGID_36_" gradientUnits="userSpaceOnUse" x1="-850.209" y1="590.2051" x2="-844.715" y2="588.977" gradientTransform="matrix(54.9832 0 0 -219.3869 46653.5664 129485.1953)">
					<stop  offset="0" style="stop-color:#F3D266"/>
					<stop  offset="0.14" style="stop-color:#F3D259"/>
					<stop  offset="0.4" style="stop-color:#F4D148"/>
					<stop  offset="0.67" style="stop-color:#F4D13D"/>
					<stop  offset="1" style="stop-color:#F4D13A"/>
				</linearGradient>
				<path class="st53" d="M29.47,9.42L10.44,2.86c0,0-62.93,127.62-3.13,191.33C-13.97,134.8,14.38,48.15,29.47,9.42z"/>
				<path class="st21" d="M162.98,55.47c-5.23,22.2-43.07,165.54-143.43,149.54c8.14,5.97,17.84,11.06,29.34,15.05
					C173.3,262.96,212.92,72.7,212.92,72.7L162.98,55.47z"/>
				
					<ellipse transform="matrix(0.3259 -0.9454 0.9454 0.3259 39.5572 131.0654)" class="st9" cx="111.69" cy="37.79" rx="30.6" ry="107.09"/>
				<path class="st9" d="M145.67,175.93c-20.95-1.13-47.36-6.88-74.35-16.19c-26.99-9.31-51.33-21.06-68.53-33.1
					c-10.45-7.32-17.57-14.33-20.82-20.35c-0.05,0.69-0.09,1.38-0.13,2.08c3.63,5.83,10.49,12.34,20.31,19.2
					c17.28,12.09,41.72,23.89,68.81,33.24c27.09,9.34,53.6,15.11,74.66,16.25c2.5,0.14,4.89,0.2,7.17,0.2
					c6.25,0,11.64-0.49,16.06-1.49c0.34-0.49,0.68-0.97,1.01-1.46C163.75,175.89,155.56,176.46,145.67,175.93z"/>
				
					<linearGradient id="SVGID_37_" gradientUnits="userSpaceOnUse" x1="-857.4276" y1="588.6418" x2="-858.3572" y2="587.7897" gradientTransform="matrix(20.0941 -58.2915 -204.0061 -70.3246 137288.7031 -8648.9668)">
					<stop  offset="0.11" style="stop-color:#B2DECD"/>
					<stop  offset="0.23" style="stop-color:#A2D4C9"/>
					<stop  offset="0.45" style="stop-color:#7ABABE"/>
					<stop  offset="0.76" style="stop-color:#3991AD"/>
					<stop  offset="1" style="stop-color:#016E9F"/>
				</linearGradient>
				<path class="st54" d="M22.73,7.13c4.84-14.04,48.59-11.69,97.72,5.25s85.04,42.05,80.2,56.08
					c-4.84,14.04-48.59,11.69-97.72-5.25S17.89,21.17,22.73,7.13z"/>
				
					<ellipse transform="matrix(0.3259 -0.9454 0.9454 0.3259 39.5573 131.0654)" class="st9" cx="111.69" cy="37.79" rx="8.86" ry="31.03"/>
				
					<linearGradient id="SVGID_38_" gradientUnits="userSpaceOnUse" x1="-850.955" y1="584.368" x2="-850.0828" y2="584.368" gradientTransform="matrix(67.5851 0 0 -27.7852 57594.0781 16273.5283)">
					<stop  offset="0.11" style="stop-color:#B2DECD"/>
					<stop  offset="0.23" style="stop-color:#A2D4C9"/>
					<stop  offset="0.45" style="stop-color:#7ABABE"/>
					<stop  offset="0.76" style="stop-color:#3991AD"/>
					<stop  offset="1" style="stop-color:#016E9F"/>
				</linearGradient>
				<path class="st55" d="M114.56,29.4c-16.2-5.59-30.62-6.36-32.22-1.73c-0.12,0.37-0.17,0.76-0.13,1.14
					c3.25-3.5,16.67-2.43,31.61,2.71S140,44.14,140.4,48.87c0.27-0.28,0.47-0.61,0.6-0.97C142.6,43.26,130.77,34.98,114.56,29.4z"/>
				<g transform="translate(39.491968, 49.539347)" class="st14">
					<path class="st9" d="M103.36-32.64c5.24,6.09,7.45,11.65,5.87,16.23c-5.5,15.98-55.3,13.3-111.2-5.99
						c-7.36-2.54-14.45-5.24-21.21-8.04C-10.03-15.16,22.24,3.38,62.2,17.17c55.91,19.29,105.7,21.97,111.2,5.99
						C178.2,9.28,148.01-14.1,103.36-32.64z"/>
				</g>
				<path class="st9" d="M130.25,73.63c-3.99,13.73-8.81,27.2-14.46,40.33c-6.79,15.66-16.36,34.17-29.11,50.7l1.16,0.34
					c12.69-16.53,22.24-34.99,28.98-50.6c5.64-13.14,10.47-26.61,14.47-40.34L130.25,73.63z"/>
				<path class="st9" d="M-18.02,106.42c0-0.04,0-0.08,0-0.12C-18.02,106.33-18.02,106.38-18.02,106.42z"/>
				<ellipse class="st9" cx="89.1" cy="175.96" rx="1.84" ry="1.84"/>
				<ellipse class="st9" cx="74.33" cy="171.91" rx="1.84" ry="1.84"/>
				<ellipse class="st9" cx="60.01" cy="166.86" rx="1.84" ry="1.84"/>
				
					<linearGradient id="SVGID_39_" gradientUnits="userSpaceOnUse" x1="-851.6911" y1="581.917" x2="-854.6817" y2="581.2565" gradientTransform="matrix(7.9719 -17.8466 -56.0642 -25.0435 39444.4453 -639.1959)">
					<stop  offset="0" style="stop-color:#FFFFFF;stop-opacity:0.5"/>
					<stop  offset="0.18" style="stop-color:#FFFFFF;stop-opacity:0.48"/>
					<stop  offset="0.39" style="stop-color:#FFFFFF;stop-opacity:0.43"/>
					<stop  offset="0.61" style="stop-color:#FFFFFF;stop-opacity:0.34"/>
					<stop  offset="0.83" style="stop-color:#FFFFFF;stop-opacity:0.21"/>
					<stop  offset="1" style="stop-color:#FFFFFF;stop-opacity:0.1"/>
				</linearGradient>
				<path class="st56" d="M19.5,49.83c1.92-4.3,14.42-2.89,27.92,3.14s22.89,14.4,20.97,18.7c-1.92,4.3-14.42,2.89-27.92-3.14
					S17.58,54.13,19.5,49.83z"/>
				<g transform="translate(1.668675, 137.485605)" class="st14">
					<path class="st9" d="M-6.88-3.11c0,0-5.75,3.56-11.64,7.4c0.6,3.88,1.38,7.77,2.35,11.58C-12.21,11.08-6.9,5.78-6.9,5.78
						L-6.88-3.11z"/>
					<path class="st9" d="M1.85,53.97c0.36-0.08,0.72-0.18,1.09-0.28l-0.08-0.1C2.2,53.84,1.85,53.97,1.85,53.97z"/>
					<path class="st9" d="M117.88,14.99l5.17,5.83l31.15-32L89.46-43.87c0,0-27.34,64.78-68.26,89.66
						c14.98-6.93,35.48-17.79,49.6-30.75C70.82,15.05,100.53,20.27,117.88,14.99z"/>
				</g>
			</g>
			
				<linearGradient id="SVGID_40_" gradientUnits="userSpaceOnUse" x1="-564.6012" y1="873.7604" x2="-564.1415" y2="868.2732" gradientTransform="matrix(49 0 0 -38 27912.9824 33323.9727)">
				<stop  offset="0" style="stop-color:#8A7EBB"/>
				<stop  offset="0.03" style="stop-color:#8378B5"/>
				<stop  offset="0.2" style="stop-color:#645C9A"/>
				<stop  offset="0.38" style="stop-color:#4B4685"/>
				<stop  offset="0.56" style="stop-color:#3A3677"/>
				<stop  offset="0.76" style="stop-color:#2F2D6E"/>
				<stop  offset="1" style="stop-color:#2C2A6B"/>
			</linearGradient>
			<path class="st57" d="M276.94,352.55c3.85,1.48,8.21,0.76,11.38-1.88c3.17-2.65,4.65-6.8,3.88-10.85
				c-0.78-4.05-3.69-7.36-7.62-8.65c-5.44-1.95-11.96-5.6-18.3-11l-16.62,15.62C258.78,344.01,268.52,349.54,276.94,352.55z"/>
			<path class="st6" d="M226.49,302.57c11.74,27.69,34.02,44.03,50.98,50.07c2.82,1.02,5.93,0.86,8.64-0.42
				c2.71-1.28,4.8-3.59,5.8-6.42c0.22-0.62,0.38-1.26,0.49-1.91c-5,0.05-11.66-2.02-14.92-3.4c-5.3-2.3-65.31-14-56.57-93.59
				C216.54,270.63,220.97,289.56,226.49,302.57z"/>
			<g id="FOLDER_HAND" transform="translate(232.000000, 367.000000)">
				<ellipse class="st9" cx="37.44" cy="49.1" rx="11.52" ry="12.04"/>
				
					<linearGradient id="SVGID_41_" gradientUnits="userSpaceOnUse" x1="-803.787" y1="504.6286" x2="-802.7932" y2="503.6678" gradientTransform="matrix(129.8967 0 0 -119.9049 104503.2969 60474.3555)">
					<stop  offset="0.05" style="stop-color:#F1666E"/>
					<stop  offset="0.28" style="stop-color:#EB606B"/>
					<stop  offset="0.58" style="stop-color:#DB5161"/>
					<stop  offset="0.91" style="stop-color:#C03751"/>
					<stop  offset="1" style="stop-color:#B82F4C"/>
				</linearGradient>
				<path class="st58" d="M95.96,15.13l76.02,59.61l36.13-34.97c0.73-0.71,1.14-1.68,1.13-2.7c-0.01-1.02-0.43-1.99-1.16-2.69
					L180,7.81l0.97-7.37c0.19-1.4-0.37-2.8-1.46-3.69L147.5-29.29c-0.92-0.75-2.25-0.71-3.13,0.09L95.96,15.13z"/>
				<path class="st59" d="M95.96,15.13l29.49-50.61c0.43-0.74,1.16-1.25,2.01-1.41c0.84-0.16,1.71,0.06,2.38,0.59l11.85,9.52
					L95.96,15.13z"/>
				<path class="st59" d="M129.85-36.29c-0.67-0.53-1.54-0.75-2.38-0.59s-1.57,0.67-2.01,1.41l-29.5,50.61l45.73-41.92L129.85-36.29
					z"/>
				<path class="st21" d="M175.12,55.58c-1.22-3.06-17.48,1.83-17.56,0.61c-0.07-1.22,11.68-6.11,14.43-7.95
					c2.74-1.83,7.86-7.57,3.05-11.09c-4.81-3.53-24.43,10.02-25.73,9.26c-1.3-0.76,3.52-6.42,6.49-9.86
					c2.97-3.44,6.72-8.87,1.22-11.46s-13.28,5.66-17.25,9.26c-2.67,2.44-9.77,3.58-14.12,4.08l36.82,28.87
					c1.67-0.28,3.32-0.68,4.93-1.19C173.51,64.06,176.33,58.63,175.12,55.58z"/>
				<path class="st60" d="M107.26,47.24c0,0-2.36-11.46,2.95-20.93l11.83,9.26c0,0,13.75-0.82,17.73-4.39s11.75-11.84,17.25-9.26
					c5.5,2.58,1.76,8.02-1.22,11.46s-7.79,9.1-6.49,9.86s20.93-12.79,25.73-9.26c4.79,3.53-0.31,9.26-3.05,11.1
					s-14.5,6.72-14.43,7.95s16.33-3.67,17.56-0.61c1.22,3.06-1.61,8.48-7.71,10.54c-6.11,2.06-32.82,5.5-44.42-0.97
					S107.26,47.24,107.26,47.24z"/>
				<path class="st61" d="M159.35,64.64h0.09H159.35z"/>
				<path class="st21" d="M159.35,64.64c-5.16,0.62-27.86,0.3-31.33-7.61c-3.59-8.19-8.55-10.28-8.55-10.28
					c-3.44,4.29-3.26,8.66-0.31,12.85c1.18,0.81,2.43,1.61,3.84,2.38C131.64,66.83,148.71,66.14,159.35,64.64z"/>
				<path class="st21" d="M159.6,64.59l-0.15,0.02L159.6,64.59z"/>
				<path class="st9" d="M123.36,49.36c-4.08-4.7-10.48-5.82-14.27-2.51c-0.47,0.41-0.89,0.87-1.24,1.38
					c1.46,2.39,5.98,8.6,15.15,13.74c0.59,0.33,1.2,0.63,1.83,0.89C127.59,59.36,127.06,53.63,123.36,49.36z"/>
				
					<linearGradient id="SVGID_42_" gradientUnits="userSpaceOnUse" x1="-803.2419" y1="503.4177" x2="-804.0773" y2="504.0009" gradientTransform="matrix(145.4483 0 0 -85.9604 116956.9063 43375.3555)">
					<stop  offset="0" style="stop-color:#8A7EBB"/>
					<stop  offset="0.03" style="stop-color:#8378B5"/>
					<stop  offset="0.2" style="stop-color:#645C9A"/>
					<stop  offset="0.38" style="stop-color:#4B4685"/>
					<stop  offset="0.56" style="stop-color:#3A3677"/>
					<stop  offset="0.76" style="stop-color:#2F2D6E"/>
					<stop  offset="1" style="stop-color:#2C2A6B"/>
				</linearGradient>
				<path class="st62" d="M35.95,112.23c-8.76,0-16.5-2.41-23.12-7.22C-0.09,95.61-2.21,85.16-1.73,78.05
					c0.68-9.93,6.79-19.74,18.16-29.14c4.71-3.88,9.76-7.33,15.09-10.3c5.51-2.96,12.38-0.89,15.34,4.63
					c2.96,5.52,0.89,12.39-4.63,15.35c-8.69,4.7-20.93,14.62-21.38,21.02c-0.17,2.53,2.78,5.24,5.27,7.05
					c11.62,8.46,33.88-3.54,46.12-11.44c18.44-11.91,33.39-26.61,33.54-26.76c4.45-4.4,11.62-4.35,16.01,0.1
					c4.39,4.46,4.35,11.63-0.1,16.03c-0.67,0.67-16.78,16.51-37.17,29.68c-12.44,8.03-23.98,13.43-34.29,16.05
					C45.56,111.55,40.77,112.19,35.95,112.23z"/>
				<path class="st6" d="M21.15,81.21c-0.21-0.51-0.31-1.06-0.28-1.61c0.43-6.4,12.69-16.32,21.38-21.02
					c5.5-2.96,7.57-9.82,4.62-15.33l-0.06-0.1C36.66,48.83,11.45,65.06,21.15,81.21z"/>
				<path class="st6" d="M12.84,105c6.62,4.82,14.36,7.23,23.12,7.22c4.83-0.04,9.63-0.68,14.29-1.91
					c10.31-2.62,21.85-8.01,34.29-16.05c20.39-13.16,36.51-29.01,37.17-29.68c3.11-3.08,4.17-7.67,2.73-11.8
					c-0.79,0.78-85.77,85.56-124.58,36.22C1.75,94.16,5.6,99.73,12.84,105z"/>
				
					<linearGradient id="SVGID_43_" gradientUnits="userSpaceOnUse" x1="-798.6951" y1="502.2217" x2="-798.4974" y2="501.7771" gradientTransform="matrix(61.4884 0 0 -42.5904 49187.1445 21441.3262)">
					<stop  offset="0" style="stop-color:#FFFFFF;stop-opacity:0.5"/>
					<stop  offset="0.18" style="stop-color:#FFFFFF;stop-opacity:0.48"/>
					<stop  offset="0.39" style="stop-color:#FFFFFF;stop-opacity:0.43"/>
					<stop  offset="0.61" style="stop-color:#FFFFFF;stop-opacity:0.34"/>
					<stop  offset="0.83" style="stop-color:#FFFFFF;stop-opacity:0.21"/>
					<stop  offset="1" style="stop-color:#FFFFFF;stop-opacity:0.1"/>
				</linearGradient>
				<path class="st63" d="M108.27,48.02c-0.27,0.15-0.52,0.33-0.74,0.54c-3.44,3.17-32.59,29.77-48.41,35.58
					c0,0,26.56-11.01,51.07-32.44C114.72,47.71,112.7,45.6,108.27,48.02z"/>
				<path class="st15" d="M22.3,123.96c-0.1,0-0.19-0.02-0.29-0.05c-20.45-7.38-28.38-20.39-31.45-30
					c-3.33-10.42-1.83-18.97-1.76-19.32c0.08-0.46,0.52-0.77,0.99-0.68c0.46,0.08,0.77,0.53,0.68,0.99
					c-0.8,6.24-0.21,12.59,1.73,18.58c4.31,13.41,14.53,23.11,30.39,28.84c0.39,0.14,0.62,0.54,0.55,0.95
					C23.07,123.67,22.72,123.97,22.3,123.96z"/>
			</g>
			<g id="MUG" transform="translate(0.000000, 250.000000)">
				<ellipse class="st9" cx="277.62" cy="122.74" rx="9.36" ry="11.27"/>
				<path class="st13" d="M140.36,10.37c0.31,4.66-2.25,8.32-6.19,9.47c-3.94,1.15-11.77-1.52-11.77-1.52s-3.86-1.57-4.55,4.38
					s5.04,26.8,5.04,26.8s21.05,2.55,21.81-24.1C144.85,20.06,143.33,14.81,140.36,10.37z"/>
				<ellipse class="st9" cx="142.57" cy="26.69" rx="6.59" ry="11.48"/>
				
					<linearGradient id="SVGID_44_" gradientUnits="userSpaceOnUse" x1="-572.4008" y1="622.1356" x2="-572.0699" y2="620.7128" gradientTransform="matrix(171.5936 0 0 -138.0769 98397.3984 85858.3281)">
					<stop  offset="0" style="stop-color:#8A7EBB"/>
					<stop  offset="0.03" style="stop-color:#8378B5"/>
					<stop  offset="0.2" style="stop-color:#645C9A"/>
					<stop  offset="0.38" style="stop-color:#4B4685"/>
					<stop  offset="0.56" style="stop-color:#3A3677"/>
					<stop  offset="0.76" style="stop-color:#2F2D6E"/>
					<stop  offset="1" style="stop-color:#2C2A6B"/>
				</linearGradient>
				<path class="st64" d="M261.14,135.12c-6.97,0.03-13.93-0.63-20.78-1.95c-27.21-5.42-45.78-21.39-53.66-46.21
					c-15.77-49.6-25.61-49.6-41.91-49.6c-5.85,0-8.06-5.3-8.06-11.56s2.19-11.1,8.06-11.1c12.18,0,24.96,1.54,36.14,12.71
					c9.51,9.51,17.25,25.13,25.88,52.26c13.06,41.05,66.67,31.98,67.21,31.88c5.78-1.04,11.26,3.13,12.22,9.31
					c0.96,6.17-2.92,12.01-8.72,13.04C272.1,134.75,266.62,135.16,261.14,135.12z"/>
				<path class="st6" d="M191.5,98.55c9.49,18.21,26.15,30.08,48.86,34.59c6.85,1.32,13.81,1.98,20.78,1.95
					c5.49,0.04,10.96-0.37,16.38-1.21c5.78-1.03,9.69-6.87,8.72-13.04C286.24,120.86,217.97,140.5,191.5,98.55z"/>
				<path class="st6" d="M144.78,37.36c13.49,0,22.56,0,34.23,28.15c0,0-11.57-31.81-23.49-35.53c-11.92-3.72-17.87-1.77-17.87-1.77
					l0.97,5.79C139.9,36.16,142.27,37.46,144.78,37.36z"/>
				<path class="st21" d="M125.5,48.2c1.78-0.35,1.62-3.9,1.62-3.9l-1.4-3.41c1.62-2.44,1.98-5.5,0.97-8.24l-2.1-0.91
					c0,0,0.63-0.17,1.09-2.52c1.32-6.76-3.28-8.07-3.28-8.07c-0.93,0.41-2.36,5.05-3.6,10.72c1.46,8.03,4.12,17.63,4.12,17.63
					s13,1.57,18.94-10.68C138.01,45.59,125.5,48.2,125.5,48.2z"/>
				
					<linearGradient id="SVGID_45_" gradientUnits="userSpaceOnUse" x1="-561.504" y1="621.0717" x2="-561.657" y2="620.3058" gradientTransform="matrix(41.961 0 0 -79.3908 23677.0332 49283.668)">
					<stop  offset="0.11" style="stop-color:#B2DECD"/>
					<stop  offset="0.23" style="stop-color:#A2D4C9"/>
					<stop  offset="0.45" style="stop-color:#7ABABE"/>
					<stop  offset="0.76" style="stop-color:#3991AD"/>
					<stop  offset="1" style="stop-color:#016E9F"/>
				</linearGradient>
				<path class="st65" d="M105.17,72.41l-1.19-5.53l16.39-3.54c1.28-0.28,2.13-1.49,1.95-2.79l-7.11-49.58
					c-0.1-0.67-0.46-1.26-1-1.66s-1.22-0.56-1.89-0.44l-19.98,3.37l-0.95-5.58l19.98-3.37c2.17-0.37,4.39,0.16,6.17,1.46
					s2.96,3.26,3.27,5.43l7.1,49.57c0.59,4.23-2.16,8.21-6.34,9.13L105.17,72.41z"/>
				<path class="st13" d="M140.36,10.37c-0.36-0.52-0.73-1.02-1.12-1.49c-2.36-2.86-5.27-4.76-8.28-5.08
					c-7.33-0.76-12.38-13.29-15.11-9.93s-3.67,20.46,6.57,24.44c0,0,7.82,2.68,11.77,1.52C138.14,18.68,140.67,15.03,140.36,10.37z"
					/>
				
					<linearGradient id="SVGID_46_" gradientUnits="userSpaceOnUse" x1="-569.6672" y1="621.5711" x2="-568.4511" y2="620.7369" gradientTransform="matrix(89.7187 0 0 -115.9207 51114.3594 72033.7422)">
					<stop  offset="0.11" style="stop-color:#B2DECD"/>
					<stop  offset="0.23" style="stop-color:#A2D4C9"/>
					<stop  offset="0.45" style="stop-color:#7ABABE"/>
					<stop  offset="0.76" style="stop-color:#3991AD"/>
					<stop  offset="1" style="stop-color:#016E9F"/>
				</linearGradient>
				<path class="st66" d="M92.96-3.83l14.55,83.31c0.48,2.71-0.58,5.46-2.75,7.14c-6.19,4.79-20.21,13.3-38.43,9.84
					c-3.66-0.68-6.68-3.24-7.96-6.73L29.38,10.57L92.96-3.83z"/>
				
					<linearGradient id="SVGID_47_" gradientUnits="userSpaceOnUse" x1="-562.2451" y1="621.595" x2="-558.8867" y2="620.4645" gradientTransform="matrix(38.0355 0 0 -100.1478 21344.8555 62220.3047)">
					<stop  offset="0" style="stop-color:#F3D266"/>
					<stop  offset="0.14" style="stop-color:#F3D259"/>
					<stop  offset="0.4" style="stop-color:#F4D148"/>
					<stop  offset="0.67" style="stop-color:#F4D13D"/>
					<stop  offset="1" style="stop-color:#F4D13A"/>
				</linearGradient>
				<path class="st67" d="M42.54,7.6l-13.16,2.97l28.98,79.15c0.79,2.15,2.26,3.99,4.19,5.22c-4.35-8.56-8.02-24.92-14.57-45.31
					C42.87,33.75,42.12,18.38,42.54,7.6z"/>
				
					<linearGradient id="SVGID_48_" gradientUnits="userSpaceOnUse" x1="-568.7425" y1="607.3303" x2="-567.9091" y2="606.6277" gradientTransform="matrix(72.9807 -16.0191 -4.1705 -19.0003 44069.3984 2431.9753)">
					<stop  offset="0.11" style="stop-color:#B2DECD"/>
					<stop  offset="0.23" style="stop-color:#A2D4C9"/>
					<stop  offset="0.45" style="stop-color:#7ABABE"/>
					<stop  offset="0.76" style="stop-color:#3991AD"/>
					<stop  offset="1" style="stop-color:#016E9F"/>
				</linearGradient>
				<path class="st68" d="M59.33-5.01c17.58-3.86,32.64-3.28,33.64,1.3S80.55,7.7,62.97,11.56s-32.64,3.28-33.64-1.3
					S41.76-1.15,59.33-5.01z"/>
				
					<linearGradient id="SVGID_49_" gradientUnits="userSpaceOnUse" x1="-567.2203" y1="606.4826" x2="-569.0293" y2="606.1826" gradientTransform="matrix(70.099 -15.3866 -4.0076 -18.2582 42309.5938 2334.0254)">
					<stop  offset="0" style="stop-color:#8A7EBB"/>
					<stop  offset="0.03" style="stop-color:#8378B5"/>
					<stop  offset="0.2" style="stop-color:#645C9A"/>
					<stop  offset="0.38" style="stop-color:#4B4685"/>
					<stop  offset="0.56" style="stop-color:#3A3677"/>
					<stop  offset="0.76" style="stop-color:#2F2D6E"/>
					<stop  offset="1" style="stop-color:#2C2A6B"/>
				</linearGradient>
				<path class="st69" d="M59.4-4.69c16.88-3.71,31.35-3.14,32.31,1.25S79.78,7.53,62.9,11.24s-31.35,3.14-32.31-1.25
					C29.62,5.59,42.52-0.98,59.4-4.69z"/>
				
					<linearGradient id="SVGID_50_" gradientUnits="userSpaceOnUse" x1="-567.7929" y1="616.8193" x2="-567.3297" y2="614.7313" gradientTransform="matrix(73.2244 0 0 -24.8758 41608.9375 15307.958)">
					<stop  offset="0.4" style="stop-color:#F1666E"/>
					<stop  offset="0.54" style="stop-color:#EB606B"/>
					<stop  offset="0.73" style="stop-color:#DB5161"/>
					<stop  offset="0.94" style="stop-color:#C03751"/>
					<stop  offset="1" style="stop-color:#B82F4C"/>
				</linearGradient>
				<path class="st70" d="M50.78,0.97c-1.54-0.89-2.82-1.6-3.9-2.16c-6.03-3.16-5.52-1.62-8.15-0.75
					c-3.09,1.03-5.36-9.78-11.46-4.77c-4.48,3.69-0.81,11.97,3.61,17.42l0.42,0.49c3.27,3.22,16.46,3.33,31.58,0
					C74.71,8.61,84.57,4.61,89.1,0.94C89.1,0.94,60.98,6.85,50.78,0.97z"/>
				<path class="st21" d="M104.76,86.61c2.17-1.69,3.23-4.44,2.75-7.14L97.16,20.21c-1.79,7.43-5.49,25.05-5.75,44.24
					c-0.24,17.96-12.26,28.98-22.3,32.43C85.98,99.04,98.89,91.16,104.76,86.61z"/>
				
					<linearGradient id="SVGID_51_" gradientUnits="userSpaceOnUse" x1="-517.5276" y1="593.7057" x2="-516.9597" y2="591.53" gradientTransform="matrix(8.0321 -2.8949 -4.2772 -11.8673 6714.2339 5522.9263)">
					<stop  offset="0.4" style="stop-color:#F1666E"/>
					<stop  offset="0.54" style="stop-color:#EB606B"/>
					<stop  offset="0.73" style="stop-color:#DB5161"/>
					<stop  offset="0.94" style="stop-color:#C03751"/>
					<stop  offset="1" style="stop-color:#B82F4C"/>
				</linearGradient>
				<path class="st71" d="M21.23-20.85c1.93-0.7,4.34,1.05,5.37,3.91c1.03,2.86,0.3,5.74-1.64,6.44s-4.34-1.05-5.37-3.91
					C18.56-17.28,19.3-20.16,21.23-20.85z"/>
				<path class="st13" d="M123.26,39.21c0,0,3.32-0.92,3.56-5.16c0.19-3.57-3.35-3.93-4.47-3.95l0.27-0.12
					c2.6-1.25,2.69-4.1,1.9-6.93c-0.6-2.14-3.83-2.44-7.96-2.63l-0.57-3.96c0,0-9.67,3.13-11.21,5.92c-1.95,2.86,0.71,7.55,1.9,8.45
					c-0.79,1.78-1.09,3.74-0.87,5.67c0.4,3.09,2.58,4.01,2.58,4.01s0.86,5.96,3.96,6.65c3.09,0.69,12.95,1.14,14.44-1.54
					C128.27,42.93,124.69,39.26,123.26,39.21z"/>
				<path class="st21" d="M110.54,40.29l12.72-1.09c0,0-6.93-0.75-11.7-1.41s-3.95-6.82-3.95-6.82l14.72-0.86
					c0,0-10.6-1.89-14.21-2.64c-3.61-0.75-2.29-5.65-2.72-5.9c-0.25,0.23-0.47,0.5-0.64,0.8c-1.95,2.86,0.71,7.55,1.9,8.45
					c-0.79,1.78-1.09,3.74-0.87,5.67c0.4,3.09,2.58,4.01,2.58,4.01s0.86,5.96,3.96,6.65c2.34,0.42,4.73,0.59,7.11,0.52
					C111.17,46.91,110.54,40.29,110.54,40.29z"/>
				
					<linearGradient id="SVGID_52_" gradientUnits="userSpaceOnUse" x1="-566.1142" y1="619.1708" x2="-565.8619" y2="618.3675" gradientTransform="matrix(59.0525 0 0 -40.7873 33579.5586 25248.0742)">
					<stop  offset="0" style="stop-color:#FFFFFF;stop-opacity:0.5"/>
					<stop  offset="0.18" style="stop-color:#FFFFFF;stop-opacity:0.48"/>
					<stop  offset="0.39" style="stop-color:#FFFFFF;stop-opacity:0.43"/>
					<stop  offset="0.61" style="stop-color:#FFFFFF;stop-opacity:0.34"/>
					<stop  offset="0.83" style="stop-color:#FFFFFF;stop-opacity:0.21"/>
					<stop  offset="1" style="stop-color:#FFFFFF;stop-opacity:0.1"/>
				</linearGradient>
				<path class="st72" d="M193.3,51.29c0,0-9.7-34.99-46.6-35.57c0,0-4.17-0.23-4.87,2.23c-0.7,2.46,13.11,2.01,17.18,2.81
					C163.08,21.56,183.29,26.45,193.3,51.29z"/>
				<path class="st15" d="M63.72,90.76c-0.24,0-0.45-0.15-0.53-0.38L38.67,21.35c-0.1-0.3,0.05-0.62,0.35-0.73
					c0.14-0.05,0.3-0.04,0.43,0.02s0.24,0.18,0.29,0.32L64.26,90c0.05,0.14,0.04,0.3-0.02,0.43c-0.06,0.14-0.18,0.24-0.32,0.29
					C63.85,90.75,63.79,90.76,63.72,90.76z"/>
				<path class="st15" d="M57.18,54.32c-0.24,0-0.45-0.15-0.53-0.37L44.4,21.36c-0.09-0.29,0.06-0.59,0.34-0.7s0.59,0.03,0.72,0.3
					l12.25,32.59c0.11,0.29-0.04,0.62-0.33,0.73C57.32,54.31,57.25,54.32,57.18,54.32z"/>
			</g>
			<ellipse class="st73" cx="343.42" cy="575.26" rx="92.88" ry="14.39"/>
		</g>
	</g>
</g>
</svg>
