<?xml version="1.0" encoding="utf-8"?>
<!-- Generator: Adobe Illustrator 23.0.3, SVG Export Plug-In . SVG Version: 6.00 Build 0)  -->
<svg version="1.1" id="Layer_1" xmlns="http://www.w3.org/2000/svg" xmlns:xlink="http://www.w3.org/1999/xlink" x="0px" y="0px"
	 viewBox="0 0 1024 768" style="enable-background:new 0 0 1024 768;" xml:space="preserve">
<style type="text/css">
	.st0{fill-rule:evenodd;clip-rule:evenodd;fill:#FF6161;}
	.st1{fill-rule:evenodd;clip-rule:evenodd;}
	.st2{fill-rule:evenodd;clip-rule:evenodd;fill:#FFB42A;fill-opacity:0.5;}
</style>
<g>
	<g transform="translate(-74.000000, -32.000000)">
		<path class="st0" d="M797.9,157c4.4,14.5,6.3,28.6,10,43.2c4.1,16,8.4,32.7,14,48.3c10.5,29.1,27.6,48.8,43.7,75.5
			c12.6,20.9,47.3,91.4,53.8,102.5c4,7,6.6,17.2,9.4,24.7c1.6,4.3,3.3,15.1,2.5,19.4c-12.1-1.4-25-2.8-36.8,0
			c-3.9,0.9-17.1,8.9-20.8,7.9c-4.1-1-1.7-7.2-3.2-11c-4.4-10.7-9.3-21.7-12.6-32.8c-3.3-11.4-25.3-81.9-37.8-104.8
			c-6.4-11.8-11.2-23.6-18.3-35c-7.4-11.8-13.6-23.1-25.8-30.6c1.3-10.2,7.1-21.4,10.5-31.1c3.3-9.5,4.9-17.9,6.1-28.1
			c1.1-9.7,4.8-19.1,3.4-29c-0.7-5.1-4.1-8.5-5.3-13.1c-0.7-2.6-2.6-0.3,0.1-3.6C792,158.1,796.3,158.1,797.9,157z M787.7,164.5
			c2.1,11.5-4.8,27.2-7.3,38.5c-2.6,11.8-5.7,23.4-8.5,35.1c-1.4,5.8-4.1,11-5.8,16.6c-1.9,6.3-2.8,12.9-4.8,19.3
			c-4,12.7-9.4,24.8-7.9,38.3c1.4,11.7,3,24.4,6.8,35.5c4.6,13.2,8.9,25.7,9.9,39.8c1,13.4-2.3,27.4-5.8,40.2
			c-1.2,4.5-10.6,37.5-13.5,37c-2.2-14.9-13.7-29.6-21.2-42.5c-8.6-14.9-21.1-27.8-33.6-39.7c3.5-1.4,6.8-8.6,8.5-12
			c2.3-4.7,5-9.4,7.7-13.9c4.9-8.2,18.6-41,22.8-49.2c5-9.7,38.1-107.8,37.4-118c-0.3-4.5-0.6-6.2,1.8-9.7
			C777.4,175.5,784.1,168.9,787.7,164.5z M711,160c0,4.5,0.4,5.3-2.3,8.4c-2.3,2.6-5.2,4.4-7.5,7.2c-5,6.2-9.3,13-12.9,20.1
			c-6.9,13.9-11.4,30.3-13.7,45.6c-2.5,16.9-1,34.2-2.2,51.2c-0.4,6.3-1.5,13.8-5.7,18.9c-3.7,4.5-10.6,7.9-15.7,10.5
			c-11.8,5.9-21.7,13.8-30.7,23.7c-2.2,2.4-2.8,7.9-5.3,9.9c-2.5,2-10.2,8-13.1,9.3c-6.8,3.1-33.5,0.2-40.8-1.1
			c-7.2-1.3-17.5-7.3-23.9-10.4c-9-4.5-20.5-14-34.2-28.6c39-14.9,84.1-29,119-52.9c0.2,2.8,5.2,10.7,5.7,8.4
			c3.3-15,5.4-30.2,8.7-45.2c0.9-4,1.7-8,3.2-11.7c0.8-1.9-8.3-3.3-11.9-1.9c-13.6,5.4-27.7,8-41.9,11.1c-26.3,5.8-56.3,8-79,23.9
			c-9.7,6.8-19.4,15.4-27.3,24c-8.7,9.5-16.9,25.1-18.1,38.3c-15.8-7.1-36.5-4-52.8-2.6c5.9-14.9,25.2-29.6,37.1-39.7
			c9.8-8.4,19.4-17.1,30.2-24.2c24.2-15.9,48.5-30.9,76.4-39.9c13.8-4.5,27.6-9,41.9-11.3c7.8-1.3,15.8-1.6,23.6-2.4
			c7.7-0.8,10.6-2.4,16.3-7.8c10.6-10.1,25.2-12.3,38.9-16C686.6,171,699.5,168,711,160z M474,110.9l17.9,9.1
			c-7.3,2.9-12.9,4.9-16.9,6c-6,1.6-14.3,24.8-22,24.8s-7.8-20.2-4-28.5C451.6,116.8,459.9,113,474,110.9L474,110.9z"/>
		<g transform="translate(74.000000, 32.080356)">
			<path class="st1" d="M334.5,370.1c1.1,0.4,1.5-0.3,1.2-2.2C334.6,367.4,334.2,368.1,334.5,370.1 M725.5,89.3
				c-1.8,0.2-0.8,1.9,0.3,2.6C725.7,91,725.6,90.1,725.5,89.3 M621.4,348.5c1.1-0.8,0.7-1.5-1.1-2.1
				C619.3,347.3,619.6,348,621.4,348.5 M218.1,344.1c-5.8-0.9-10.3-9.7-15-7.9c-6,2.3-11.4,12.7-15.5,17.4c3.1,2.5,6.6,4.8,10,7.1
				c3.4,2.3,2.6,3.2,6,0.4c2.5-2,4.5-5.7,6.6-8.2C212.7,350,215.9,347.3,218.1,344.1 M351.5,676.3c1,0.1,1.7-23,2.5-26.2
				c1.8-7.1,5.1-14.2,8.6-20.5c1.5-2.7,4.2-6.2,5.4-9c1.8-4.3-1.1-7.2-1.9-12.1c-1.7-10.5,0.6-19.8,4.2-29.5
				c-6.8-1.5-13.3-4.1-20.2-5.1c0,9.3-0.9,17.1-4.7,25.6c-1,2.1-2.9,3.9-2.1,6.5c0.3,0.8,2.6,1.4,3.2,2.2c3.2,4.4,3.7,7.9,3.9,13.4
				C351,639.9,349,658,351.5,676.3 M303.5,357.4c3.7,3.2,15.7-19.1,19.8-19c8.7,0.3-3.7,22.2-4.4,24.9c3.5-1.2,6.8-9.1,8.7-12.2
				c1.6-2.6,7.5-15.5,10.8-16.3c6.6-1.6,3.6,10.4,2.7,13.2c-2.1,6.3-4.1,12.5-5.9,18.9c3.8-2.1,6.7-14.6,8.4-18.7
				c2.4-5.7,4.3-11.8,8-16.8c2.5-3.4,6.7-8.1,11.3-8.4c5.5-0.3,7.6,5.6,12.6,6.7c0.7-12.6-0.6-25.3,0.9-37.8
				c-9.9,0.2-19.8,0.7-29.5,2.3c-5.5,0.9-9.1,0.9-11.8,6c-2.1,4-3.7,8.1-5.7,12.2C321.7,327.9,313.6,343.3,303.5,357.4 M178.7,310.4
				c-7.2,7.4-13.7,15-20.5,22.8c-6.8,7.8-16.3,12.8-22.7,20.8c-5.9,7.3-10.3,15.8-15.9,23.4c-6.2,8.4-11.3,17.8-16.6,26.8
				c5.4,1,6.8,1.1,10.3-2.9c2.9-3.3,5.3-7.4,8.2-10.7c6.8-7.8,13.4-14.2,22-20.4c8.4-6,19.1-11.3,29.1-14.3c3.9-1.2,5.3-0.9,7.5-4.5
				c1.5-2.6,2.1-5.8,3.7-8.4c3.4-5.6,8.8-8.8,14.1-12.4C192,323.4,184.8,317.6,178.7,310.4 M659.7,95.1c-2,1.5-2.2,7-3.1,9.3
				c-1.7,4.2-4,8.2-6.1,12.3c-3.6,7.1-6.7,15.1-6.5,23.2c0.1,8.4,6.6,13.2,14.4,14.7c8.6,1.7,15.1-1.7,22.7-5.3
				c7.5-3.6,13.6-9.2,19.6-14.9c4.7-4.5,7.7-11.9,13-14.4c5.1-2.4,11.3-4.5,12.8-11.7c1-4.9-0.9-4.3-5.2-3.3
				c-4.6,1.1-7.8,4-12.1,5.6c2.4-5.4,2.9-9.8,0-15c-1.7-3-4.8-8-8.6-8.2c-2.5-0.1-5.5,2.7-7.8,3.5c-2.8,1.1-5.9,1.6-8.8,2.4
				C675.4,95.7,668.6,96.2,659.7,95.1 M676.7,432.7c2.9,0.5,12.2-32.4,13.4-37c3.5-12.8,6.7-26.8,5.8-40.2
				c-1-14.1-5.4-26.5-9.9-39.8c-3.8-11.2-5.4-23.8-6.8-35.5c-1.6-13.5,3.9-25.6,7.8-38.3c1.8-5.9,2.8-11.9,4.4-17.7
				c1.7-6.2,4.7-11.8,6.2-18.2c2.8-11.8,5.9-23.3,8.5-35.1c2.5-11.3,9.3-24.7,7.2-36.1c-3.5,4.3-7.8,8-11.3,12.2
				c-3.6,4.3-2.3,4.6-1.9,10.5c0.7,9.8-1.3,21.2-3.6,30.7c-4.8,19.8-13.2,37.8-19.3,57.1c-3.2,9.9-4.4,21-8.9,30.4
				c-4,8.4-9.5,15.8-13.8,23.9c-4.7,8.9-10.1,17.2-15.2,25.9c-2.4,4.1-4.9,8.1-7.1,12.3c-1.8,3.6-3.8,12.2-7.3,13.6
				c12.4,11.9,21.9,24,30.5,39C663,403.2,674.5,417.7,676.7,432.7 M702.5,232.2c11.7,7.2,17.6,17.7,24.8,29.1
				c7.2,11.3,13.9,22.9,20.3,34.6c12.7,23.4,22.1,46.7,29.1,72.4c3.2,11.6,7.8,22.9,11.1,34.2c3,10.5,4,21.2,8.4,31.3
				c1.2,2.8,2.1,8.9,5.3,9.9c3.8,1.2,13.9-4,17.7-5c12.4-3.1,25.3-3.7,38-2.3c0.7-4.4-4.3-13-5.9-17.3c-2.6-7.1-4.9-14.6-8.4-21.2
				c-6-11.5-12.9-22.7-19.8-33.5c-7.3-11.5-13.4-23.8-20.9-34.9c-3.5-5.2-8.4-12.1-10.7-17.9c-1.1-2.8-1.5-3.9-2.8-6.3
				c-1.2-2.1-2.6-4.2-3.8-6.3c-15.8-26.2-27.4-52.8-37.5-81.3c-5.5-15.6-10.2-31.4-14.6-47.4c-4.1-15-4.9-30.5-9.5-45.5
				c-2.7,1.8-7.2,1.6-7.1,5.1c0,0.7,3.8,5.7,4.2,6.7c0.8,2,1.4,4.1,1.7,6.2c1.9,10.2-1.9,20.2-3.2,30.2c-1.3,9.7-2.4,17.7-5.7,26.8
				C709.7,209.8,703.8,221.9,702.5,232.2 M432.6,292.7c11.5,10,22.1,21.1,35.6,27.9c6.4,3.2,11.4,7.6,18.6,8.9
				c7.2,1.3,14.7,0.5,22,0c7.4-0.5,14.2-0.6,21-3.7c2.9-1.3,7.4-2.6,9.9-4.6c2.5-2,4.1-5.2,6.3-7.6c9-9.8,18.9-17.7,30.7-23.6
				c13.1-6.6,20.4-14.2,21.4-29.3c1.1-17-0.4-34.3,2.2-51.1c2.3-15.3,6.8-31.7,13.7-45.5c3.5-7.1,7.9-13.9,12.9-20.1
				c2.2-2.8,5.2-4.6,7.5-7.2c2.7-3,2.3-3.8,2.3-8.4c-11.5,8-24.4,11-37.8,14.6c-13.6,3.6-28.3,5.9-38.9,15.9
				c-5.7,5.4-8.6,7-16.3,7.8c-7.9,0.8-15.8,1.2-23.6,2.4c-14.4,2.3-28.1,6.8-41.9,11.3c-27.9,9-52.2,24-76.4,39.9
				c-10.8,7.1-20.4,15.8-30.2,24.2c-11.9,10.1-27.9,23.7-33.8,38.6c16.3-1.5,32.8-6.2,48.6,0.9c1.2-13.2,10.2-26.1,18.9-35.6
				c7.8-8.4,17.2-16.8,26.7-23.6c22.7-16.2,53-20.4,79.5-26.2c14.3-3.1,27.6-5.6,41.2-11c3.4-1.4,13.5-7.4,15.4-3.8
				c1.2,2.3-1.9,5.6-2.7,7.5c-1.3,3.2-2.1,6.6-2.9,10.1c-3.5,15.5-5.7,31.3-9,46.8c-0.5,2.3-1.2,12.6-5.3,11.2
				c-2.7-0.9-0.2-16.7-0.4-19.6C512.9,263.7,471.7,277.8,432.6,292.7 M471.8,559.2c-7.7,0.3-15.6,4.5-23.2,6.4
				c-10.1,2.6-20.8,5.2-30.1,9.8c-5,2.4-5,3.9-3.7,9.4c1.1,4.4,2.3,8.6,3.2,13.1c2.2,11.1,4.7,22,7.5,32.9
				c28.9-24.1,65.7-37.7,101.7-47c5.1-1.3,10.3-1.7,15.4-2.6c4.5-0.8,9.7-0.2,14-1.1c2.8-0.6,5.2-2.4,8.1-3.1
				c6.1-1.4,13.4-1.5,19.2-3.7c7.8-2.9,16.6-6.7,24.4-10.7c8.5-4.3,15.3-7.5,17-16.8c1.4-7.4,4.8-14.2,5.9-21.5
				c1.4-9.4-0.3-17.8-0.9-27.2c-1.3-21.8-4.5-43.8-10.1-65.1c-5.3-20.4-9.1-41.3-12.8-61.9c-0.7-4-2.1-7.7-3.1-11.7
				c-1.6-6.6-4.7-4.9-10.6-4.5c-11.2,0.7-23-3.7-32.3-9.8c-4.4-2.8-9.9-9.3-14.9-10.7c-4.5-1.2-9,4.8-13.3,6.8
				c-10.2,4.8-22.7,6.1-33.8,6.9c-24.3,1.7-42.6-14.1-59.2-30.2c-11.1,12.4-23.1,24.2-36,34.7c-10.6,8.7-19.6,20-28.5,30.3
				c-8.3,9.7-15,24.8-26.3,31.6c-6.6,4-11.5,1.5-17.8-2.5c-5-3.2-10.6-4.9-15.7-7.8c-23.4-13.5-45.5-28.8-68.4-43.1
				c-5-3.1-12.9-10.5-18.8-11c-4.4-0.4-4,0.7-6.5,4.3c-2.4,3.5-4.9,7-7.4,10.5c-9.5,13.8-19.7,28-27.4,42.9
				c16.8-4,32.7-4.6,49.2-2.3c15.2,2.2,34.6,4.8,48.1,13c5.7,3.5,11.4,7.5,17.1,11.4c7.2,5,12.8,12,20.8,15.8
				c6.9,3.3,14.3,4.7,21.4,7.2c8,2.7,19.4,7.8,27.9,5.6c7.3-1.9,13.3-8.3,18.8-12.8c7.1-5.8,15.8-9.7,23-15.1
				c12.8-9.5,26.1-17.7,39.8-26.2c16.4-10.2,32.1-21.9,49.1-30.8c3.3-1.8,6.6-3,9.8-5.1c2.9-2,5-5.6,8.6-3c3.1,2.3,1.8,6.5,0.8,9.5
				c-0.9,2.8-1.7,3.6-1.1,6c0.5,2.2,4,5.7,5.2,7.9c5.6,10.3,9.6,21.4,14.9,31.9c5.2,10.2,11.1,19.9,15.9,30.3
				c9.6,20.4,22.9,38.6,31.4,59.7c-3.9,1.6-4.4-1.7-7.4-2c-3.3-0.3-2.1,0.3-5.4,2.7c-4.4,3.2-9.1,5.2-13.9,7.7
				c-10.5,5.5-21.3,12-32.6,15.8C509.4,540.5,491.4,552.1,471.8,559.2 M807.3,463.8c-0.7,4.8-1.5,9.6-2.2,14.5
				c-0.5,3.4-2.4,8.4-2,11.7c5-2.4,10.4-10.3,14.3-1.6c2.3,5.2-0.6,15.5-1.3,21c5.7-1.2,4.4-15.1,13.5-10.6c7,3.5,2.1,21,7.5,22.8
				c3.8-5.9,3.1-19.4,4.4-26.5c0.6-3.3-0.3-7.8,3.6-8c3.4-0.2,6,4.7,7.6,6.9c1.5-8.1,5.6-15.3,3.8-22.7c-1.1-4.6-2.2-9.2-3.4-13.8
				c-0.7-2.7-1.4-11-3.8-12.8c-4.4-3.5-20.3,2.7-25.1,4.1c-4.4,1.3-10,2.5-14.1,4.6C806,455.6,807.3,458.9,807.3,463.8 M666,185.7
				c6.5-0.7,12.2-4.7,17.2-8.8c8.2-6.8,9.5-12.1,11-22.5c-10.5,5.1-18.3,9.4-30.2,9.6c-13.6,0.2-20.3-7.7-26.6-18.7
				c-1.7,2.6-4.1,5.3-5.3,8.1c-1.5,3.5-1.4,2.8-0.9,6.4c0.7,5.6,3.5,12.7,6.3,17.5C643.5,187.8,655.5,189.3,666,185.7 M396.9,608.3
				h12.4c-0.7-4.5-1.4-9.1-2.1-13.6c-0.6-4,0.4-9.5-3.5-10.2c-3.2-0.6-6.4,3-9.7,2.7c-3.7-0.4-5.9-3-10.2-2c-6.2,1.5-4.9,8.3-5,13.9
				c0,2.2-0.9,5.6-0.2,7.7c1.2,3.8,0.2,2.3,3.9,2.6C386.9,610,392.4,608.5,396.9,608.3 M703.3,63c4.5,0.7,16.3,10.4,19.6,8.1
				c4.5-3.1-8.4-11.7-11.1-13.1c-12.9-6.6-37.1-1.4-45.8,10.7c5.7,0.6,12.7-4.7,18.5-5.5C690.7,62.2,697,63,703.3,63 M700.1,312.3
				c3.7,14.9,10.3,30.8,10.3,46.2c0,16-3.6,30.6-10.1,45.3c-3.2,7.4-6.2,14.8-9.9,21.9c-1.7,3.3-3.3,7.4-5.6,10.3
				c-2.9,3.6-3.8,3.3-7.3,0.5c-1.5,4-3.2,8-8.4,5.4c-3.8-1.9-3.7-6.7-5-10.2c-3.3-9.5-10.4-17.7-15.5-26.3
				c-5.2-8.9-9.5-18.4-15.2-26.9c-2.7-4.1-6-7.9-8.9-11.9c-2.2-3-5.6-10-8.7-11.8c-0.4,4,3.8,9.8,5.4,13.6
				c2.1,5.1,3.8,10.3,5.3,15.6c2.9,10.3,4.6,21,6.8,31.5c3.9,18.7,8.6,37.2,11.2,56.2c2.4,17.6,3.1,35.9,1.2,53.6
				c-0.8,7.6-5.3,14-8.3,21c-4.1,9.4-9.1,15.3-17.3,22c-14.9,12.1-31.4,19.4-49.6,24.8c-3.4,1-6.5,0.6-9.7,1.3
				c-3.6,0.8-6.4,2.6-10.3,3.2c-10,1.6-20.2,3.4-29.8,6.2c-7.6,2.2-15.1,4.6-22.7,6.9c-5.7,1.8-12.8,3.4-18.3,6
				c-13.6,6.4-26.4,14-39.1,22c-3.7,2.3-6.4,3.8-9.2,7.2c-3,3.8-2.5,6.4-4.1,10.7c-1.5,4-4.1,6.3-7.7,2.9c-3.3-3.1-2-9.7-2.3-13.5
				c-0.4-5.8-3.8-28-7.8-29.8c-2.9-1.3-11.3,1.5-14.8,1.9c-4.5,0.5-8.6,0.5-13.1-0.1c1.5,6.2-4,14.6-6.2,20.1
				c-3.9,9.3-6.9,18.4-8.5,28.3c-1.1,6.8-0.7,13.5-1.8,20.4c-1.1,7.1,0.6,18.1-9,19.2c-15.2,1.7-19.1-28.7-20.8-38.9
				c-2.7-16-0.6-31.8,1-47.8c0.1-1.3,0.8-7,0.2-8.1c-0.5-0.8-4.8-2.3-5.3-2.7c-4.8-3.4-2.9-5.2-1.4-10.3c2.7-9.7,1.9-21.9,8.5-30.4
				c5-6.5,16.3-2.6,22.9-0.8c4.9,1.3,9.7,3.1,14.4,4.8c3.3,1.2,6.9,4.8,9.8,5.4c5.7,1.2,9.9-6.1,14.1-8.7c7.7-4.6,15.7-8.9,23.9-12
				c15.2-5.7,30.9-9,46.5-13.8c9.5-2.9,19-6.2,28-10.4c6.7-3.1,13.4-7.6,20.7-9.7c9.1-2.7,18.4-6.4,27.3-10.1
				c9.5-3.9,19.8-6.5,29.5-9.7c-20.2-29.6-37.5-61.3-51.4-94.4c-1.6-3.8-3.1-7.7-4.6-11.5c-0.7-2-2.5-10.9-4.4-12.1
				c-3.4-2.3-17.2,8-21,10.5c-13.9,9.1-27.2,19-41.6,27.3c-12.5,7.2-24.3,15.4-36.3,23.1c-6.6,4.2-12.7,9.6-19.4,13.9
				c-6.7,4.3-14.5,12.2-22.5,14c-3,0.7-8-0.2-10.9-0.4c-4.2-0.3-8.9-0.7-13-1.9c-8-2.3-16.5-4.9-24.3-7.7
				c-14.1-5.1-25-17.8-37.7-25.6c-15.3-9.4-32.7-11.8-49.8-17c-18.7-5.7-39.5-6.3-59.3-4.8c0-18,8.7-31.6,18.2-46.4
				c-6.8-4.5-9.7-7.3-17.4-3.1c-5.7,3.1-10.9,5.9-16.2,9.3c-5.7,3.7-11.8,6.6-17.5,10.7c-6.2,4.5-11.6,9.2-17.3,14.2
				c-4.3,3.8-9.2,7.2-13.7,10.6c-4.4,3.4-9,2.9-14.7,0.6c-1.7-0.7-6.9-3-7.8-4.2c-1.8-2.3-0.5-3.9,1-6.9c3.4-7,7.8-14.1,12.3-20.4
				c4-5.7,9.2-10.4,13.4-16c4-5.3,6.8-11.4,11.4-16.2c5.1-5.3,11.3-9.6,16.1-15.3c2.4-2.8,5.2-5.9,5.4-9.2c0.1-2.6-2.7-5.1-2.7-6.9
				c-0.1-4.3,7.4-8.7,10.5-11.9c4.5-4.7,9-8.7,16.1-6.7c5.2,1.5,12.9,8,16.7,11.7c4.8,4.8,8.8,10.3,13.8,15c2.8,2.6,5.8,5.1,8.7,7.6
				c1.7,1.5,4.4,5.8,6.3,6.7c1.7,0.8,3.3,0,5.7,0c-1.1,0,4.3,0.9,4,0.9c2.6,0.7,5.1,1.4,7.6,2.2c10.3,3.3,19.9,9,29.2,14.6
				c23.7,14.3,46,29.5,69.2,44.7c6.9,4.5,8.8,4.2,14.1-2.3c4.9-6,9-12.7,13.6-18.9c7.6-10.3,16.2-20.3,25.2-29.4
				c9.3-9.4,20-17.3,29.9-26c2.8-2.4,14.1-10.6,13.4-13.6c-0.4-1.7-4.1-4.6-5.2-6.4c-1.7-2.6-3.5-5.6-4.8-8.5
				c-7.5-17.1,12-18.3,23.4-23.6c14-6.5,27.8-13.6,42-19.3c7.2-2.9,14.3-5.5,21.6-8.2c6.7-2.5,12.7-6.5,19.3-9.2
				c4.8-2,15.3-2.8,18.5-7c1.9-2.5,1.1-10.5,1.4-13.4c0.6-4.9,1.4-9.7,2.6-14.5c-2.4-0.4-6.9,2.2-9.1,3.2c-4.2,1.9-7.8,3.9-12.5,5.1
				c-9.9,2.6-20.4,2.9-30.1,5.7c-14.9,4.3-30.8,6.8-45.4,13c-16.8,7.1-31.2,19.7-43,33.2c-6.1,7-10.9,13.7-15.1,22
				c-1.1,2.2-2.4,9.4-4,10.9c-2.1,1.9-7.7-0.1-10.1-0.5c0,6.4,0.1,12.7-0.1,19.1c-0.2,6.7,1,17-1.4,23.2c-2.2,5.8-6.2,4.6-10.5,1.7
				c-5.7-3.8-8.6-6-13.8-0.1c-8.9,10.3-12.3,26.4-18.4,38.5c-2,4-6.9,12.3-9.6,4.1c-2-5.9,1.3-13.5-0.2-19.4
				c-2.1,3.7-8.3,14.5-13.2,14.5c-6.8,0-4.6-10.6-4.3-14.9c-4,4.3-15.7,18.2-18.6,7c-2.2-8.6,3.9-17.1,8.2-23.8
				c5-7.9,10-15.8,15.2-23.6c5.1-7.6,8.5-16.1,13.7-23.7c-3.9,0.5-11.6-0.7-9.2-6.9c1.3-3.2,5.3-1.9,7.2-3.8c2-2.1,3.1-7.9,4.3-10.6
				c5.6-13.3,13.7-24.3,23.1-35.2c16.5-19.2,37.6-34.5,58.8-47.3c25.3-15.3,51.4-24.6,79.8-32.1c13.4-3.5,27.1-5.2,40.6-7.7
				c5.6-1.1,11.4-1.7,15.8-5.2c6.6-5.3,11-9.3,19-12.7c6.5-2.7,12.6-4,19.7-5.2c7.6-1.3,16.3,0.4,23.5-1.7c6-1.8,13.1-5.6,18.6-8.7
				c2.8-1.6,7.7-2.4,9.2-3.8c2.9-2.6,4.8-8.9,6.6-12.3c-4.6,1.2-6.3-2-7.5-6c-2-6.5-2-4.4-8.4-7.1c-3.7-1.6-5-5.9-7.9-7.5
				c-3.2-1.6-8.2,1.9-12,0.7c-3.1-0.9-6-4.2-5.9-7.7c0.1-1.5,1.6-2.7,1.6-3.9c0.1-2.8-2.2-4.3-1.9-7.4c0.5-4.7,2.9-3.9,0.9-9
				c-2-5.1-1.2-6.1-0.6-11.4c0.2-1.5-0.6-3.8,0.4-5c0.6-0.7,2.8-0.8,3-1.2c0.8-1.4,0.9-2.5,1-5c0.1-1.4-0.3-4.3,1.1-5.3
				c1.3-0.9,3.1,0.8,4.3,0.2c1-0.5,1.8-2.8,3.4-3.1c5.9-1,4.1,5,7.2-2.5c1.8-4.4,3.1-6.2,6.3-8.7c1.4,0.6,2.2,0.4,2.6-0.8
				c0.5-0.8,0.9-1.7,1.4-2.5c2.5-0.6,2.8,1.3,4.7-0.6c3.2-3-0.1-9.8,6.4-8c4.7,1.3,5.8,7.3,10.7,8.8c0.7-2,0.6-7.7,3.4-8.3
				c2.9-0.6,5.1,4.7,6.2,6.4c0.7-1.5,1.8-5.9,2.9-7c3.2-3.1,2.3-0.1,5.1,0.3c0.5,0.5,0.9,1.1,1.4,1.6c1.5-0.7,3-1.5,4.4-2.3
				c3.1-0.6,2-0.3,4.8,0.8c2.2,0.9,0.9,1.9,3.6,2.5c1.9,0.4,3.6-1.6,5.7-1c0.6,0.3,1.3,0.5,1.9,0.8c0.9,2,2.3,2.3,4.1,1
				c2.2,0.9,5.1,4.5,7.4,4.4c4.4-0.2,3.4-6.3,8.2-6c1.8,0.1,6.4,4.9,7.7,6.4c1.8,2,1.3,3.7,3.5,6c3.3,3.3,1.3,1.5,4.5,3
				c4.6,2.2,6.3,1.4,8.2,6.7c1.7,4.6,2.6,10.4,2.6,15.3c0,3.1-2.2,9.8,2.1,8.3c3-1,2.5-8.4,5.7-6.1c2.4,1.8-2.4,11.2-2.4,13.4
				c-0.2,6.4,0.9,6.9-3.1,11.6c-1.9,2.2-6.1,6.4-7.1,9.3c-1.1,3.4,1.9,9.4,2.5,12.5c1.5,6.7,0.2,8.1-4.2,13.3
				c-0.5,0.3-0.9,0.6-1.4,0.9c-2.4,0-3,1.2-2,3.5c-0.9,2.6-0.8,5.2-2.2,7.8c-0.7,1.4-3.9,4.4-4.1,5.8c-0.3,2.5,1,3,3.1,5.6
				c8.6,10.6,12.6,24.4,16.8,37.2c7.5,22.5,16.8,44.5,25.7,66.5c3.5,8.6,7,16.8,10.7,25.5c4.5,10.8,10.9,20.7,16.2,31.1
				c3.7,7.2,7.5,15.2,12.1,21.4c5.8,7.9,9.1,18,14.2,26.5c5.5,9.1,11.8,18,17.1,27.4c5,8.9,11.3,17.1,16.1,26.3
				c6,11.5,12.9,25.2,14.6,38.2c0.6,4.6,2.4,12.2-0.5,16.1c-3,4.1-11.1,5.8-15.2,2.7c4.1,9.6,6.7,20.4,8.6,30.7
				c0.8,4.4,1.9,8.4,0.9,12.9c-0.9,4.1,0.6,1.7-2.7,4.1c-2.7,2-1.5-3.6-3.6,2.1c-0.5,1.2,0.4,4.5,0.4,5.9c-0.1,5.6-0.5,11.3-0.8,17
				c-0.2,4.3,0.5,7.9-4.7,7.4c-4.2-0.4-6.3-4.8-8.2-8c-0.7,5-1.1,10.1-1.7,15.1c-0.5,4.5,0.5,8.9-5.2,8.4
				c-9.4-0.8-13.1-17.8-15.5-25c-4.3,5.6-6.4,16.9-8.3,23.8c-1.8,6.6-3.9,20.6-13.1,12c-6.1-5.7-3.7-17-2.6-24.4
				c0.4-2.4,5.5-23.7,3.1-24.9c-3.4,3.7-7.5,9.7-13.1,6.5c-5.1-2.9-3.4-9.4-3-14.1c1.2-13.3,5.7-26.1,9.1-39
				c-1.9-0.4-6.6-0.8-8.2-2.3c-2-1.8-0.8-2.7-1.7-5.1c-1.2-3.2-3.4-6.4-5.1-9.4c-5.6-9.9-7.3-19.7-10.2-30.4
				c-2.8-10.4-8-19.5-10.8-30c-3.1-11.6-6.4-23.1-10-34.6c-8-25.3-19.4-49.4-32.6-72.4c-1.7-3-15.9-35.6-18.1-34.6
				c-1.5,0.7-2.4,9.1-3,11.4c-1.3,5.3-1.6,10.8-1.9,16.2C691.4,277.7,697,299.6,700.1,312.3z"/>
			<path class="st1" d="M220.8,269.4c5.3,1.3,7.2-11.1,7.8-14.9c1-6.2,2.1-11.5,5.4-16.9c1.6-2.6,3.6-5.3,5.7-7.6
				c1.2-1.3,4.3-3,4.9-4.5c1.8-3.9-0.3-13.8-0.3-18.2c0-2.8-1.8-16,1.5-16.9c4.3-1.2,5.4,10.8,5.9,13.5c0.5,3.1,0.5,6.1,0.8,9.2
				c0.3,2.9,1.9,4.6,2.5,6.5c1.7,5.5-2.3,10-5.3,14.9c-3.2,5.5-6.7,10.8-9,16.8c-2.5,6.5-2.3,13.3-4.2,19.9
				c-3.1,10.7-16.3,16.5-26.9,13.3c-5.7-1.7-4.5-5.5-6.3-9.9c-0.7-1.7-2.6-2.6-3.2-4.8c-0.6-2.3-0.1-5.4,0.4-7.8
				c2.2-11.5,5.9-23.5,9.4-34.7c-19.1,10.5-39.3,17.4-61.3,17c-10.9-0.2-18.9-2.5-26.8,6.8c-6.1,7.2-6.1,20-8.6,29
				c-2.7,9.8-5.2,22.3-11.4,30.4c-7.5,9.9-17.6,8.2-18.4-4.9c-0.6-11.2,4.9-21.8,4-33.2c-0.5-5.7-2.7-10.8-2.6-16.6
				c0.1-5,1.1-9.7,2-14.6c-10.9,1.3-19.4,5.8-27.1,13.3c-7.3,7-10.3,15.7-16.3,23.8c-5.5,7.4-10.3,17.5-21.1,17.2
				c-13.8-0.3-14.7-17.3-9.5-26.4c2.6-4.6,6.3-8.3,9.7-12.4c3.7-4.5,4.2-8.2,4.9-13.9c0.6-4.4,0.7-10.2,4.7-13.1
				c3.6-2.6,8-1.3,11.3-4.8c3.2-3.3,5.6-8.3,8.5-12c3.5-4.6,7.2-9.3,10.3-14.2c6.8-10.5,15.7-17.7,25-25.9
				c-3.4-2.1-12.4,0.2-16.6-0.4c-6.9-1.1-15.9-4.4-21.2-9.1c-11.1-9.8-16.5-22.6-17-37.4c-0.5-14.2,1.7-31.3,12.3-41.9
				c5.4-5.4,12.3-10.1,19.1-13.5c4.5-2.3,13.8-7.3,19.1-5.2c12.1,4.8-15.2,23.7-18.8,26.7C52.7,101.7,46,111,46.2,126.4
				c0.3,15,14.7,22.1,26.8,27.1c6.3,2.6,13.8,4.6,20.8,4.4c7.9-0.2,13.3-4.8,20.5-7.4c14.2-5.3,28.8-8.8,43.4-12.3
				c14.4-3.5,30.1-2.7,44.9-5c13.9-2.1,26.9-4.8,40-9.8c13.6-5.2,24.1-20.8,38.9-22.5c9.2-1,4.7,5.5,0.7,8.8
				c-4.8,4-9.9,7.5-14.7,11.5c-12.1,10.2-24.8,16.2-40.2,20.1c-11.2,2.8-23.2,5.5-35,7.2c-15,2.1-30,1.5-44.7,5.3
				c-8.7,2.3-17.2,5.2-25.4,8.9c-3.4,1.5-10.3,4-10.9,6.7c-0.8,3.5,2,3.4-1.4,6.7c-5.7,5.5-13.1,9.3-18.9,15
				c-6.4,6.3-12.5,12.4-17.7,19.8c-5.2,7.3-9.3,14.4-16.9,19.5c-2.5,1.7-6.8,4.6-9.7,5.4c-2.7,0.7-3.9-0.4-6.1,1.1
				c-6,3.9-2.4,16.2-4,22.2c-2,7.8-7.3,13.6-10.5,20.8c4.5-1,7.7-8.5,10.1-12.1c2.6-4,5.9-6.7,9.3-10.1c7-7.2,8.9-17.1,17.2-23.9
				c15.1-12.3,38.6-11.3,51.1-27.8c2-2.7,4-10.4,6.4-12.1c4.5-3.1,4.1,6.1,3.6,8.9c-1.6,9.3-7.3,20.4-14.9,26.3
				c-3.4,2.7-8.2,3.9-11.1,7.4c-0.7,0.3-1.4,0.6-2.2,0.9c0.4,1.5,0.7,3.1,0.7,4.7c0.1,2.8-0.6,5.5-0.7,8.3
				c-0.3,7.1,1.3,13.1,2.7,19.9c1,4.8-1.7,14.9,0.5,18.8c4.3-14.4,9.3-31,17.4-43.8c1.9-3,5.7-5.5,7.2-8.6c0.7-0.8,1.4-1.6,2.2-2.4
				c-1.3-1.2-2.4-2.5-3.3-3.9c-4.9-10.2,5.8-3.9,10.1-3c6.8,1.4,15.4-1.5,22.5-1.7c6.9-0.2,13.7-0.4,20.5-1.5
				c7.3-1.2,14.9-2.9,22-4.8c7.2-1.9,13.8-5.9,20.8-7.6c-7-4.8-9.2-11-11.6-18.7c-1.6-5.1-7.2-17.5-3.7-22.6c3.8-5.6,5.2,3,6.5,6.1
				c2.1,5.2,5.3,14,9.2,17.9c2.1,2.1,5,1.9,6.8,4.6c1.4,2.1,1.6,4.9,1.8,7.3c0.6,7-2.1,12.6-4.6,19c-5.8,14.9-8.1,30.8-15.7,45
				C211.5,270.5,216.2,269.9,220.8,269.4"/>
			<path class="st1" d="M317.4,152c3.7-0.9,15.3-2.1,11.9-8.9C325.9,136.3,316.9,147.3,317.4,152 M427.2,98.2
				c-2.2-0.7-5.6-2.2-7.9-2.1c-2.7,0.2-4.8,2.2-7.6,2.5c-5.7,0.5-10.1-1.9-13.8,4.2C405.8,102.8,421.6,105.4,427.2,98.2
				 M278.1,239.8c7.5,1,11.3-32.2,11.7-36.5c-3.4-0.3-12.5,6.3-13.3,9.3c-0.9,3.4,2.1,8.7,2.5,12.2
				C279.5,230,278.9,234.7,278.1,239.8 M320,50.2c-9.1,0.9-19.2,3.8-27.5-1.2c-6.7-4.1-9.2-12.7-14.9-17.8
				c0,14.6,13.1,26.1,26.5,30.7c6.8,2.4,17.2-1.2,23.2,2.6c1.7,1.1,5.5,6.2,5.6,8.3c0.5,7.1-4.6,0.7-7.5,1
				c-4,0.3-9.6,10.9-12.9,14.1c-2.5,2.4-5.3,4.4-8.2,6.5c-0.9,0.7-5.7,3.1-6,4.3c-0.2,1,2.4,4.9,3,5.9c3.8,6.8,8.4,11.7,14.5,16.5
				c3,2.4,6.1,3.7,9.1,5.6c1,0.6,4.9,6,3.8,5.8c1.7-5,6.4-10.9,9.5-15.4c3.2-4.6,7.5-9.4,12.9-11.2c2.4-0.8,6.3-1.5,8.8-1.7
				c1.7-0.1,3.5,0.1,5.2,0.4c2.5,1.1,3.5,0.2,2.9-2.6c2.6-5.4,1.1-12.2,4.4-17.7c3.9-6.5,10.3-9.4,17.5-8.7
				c3.3,0.3,6.8,1.7,10.1,1.2c3.2-0.6,6.9-3.2,10-4.3c12.2-4.3,27.3-9.6,36.9-18.7c1.5-1.4,5.6-5.2,5.9-7.2
				c-0.9-1.9-1.7-3.8-2.6-5.8c-0.2-2.8-1.6-3.6-4.1-2.3c-3-0.1-8.6,3.3-11.6,4.3c-3.8,1.2-7.6,2.3-11.3,3.7
				c-6.4,2.4-12.7,4.9-19.5,6.4c-7,1.5-10.3,2.4-14-4.2c-3.6-6.5-3.1-10.3-11.5-9.3c-7.5,0.8-13.7,3.7-20.6,6.6
				c-4.6,2-10.5,5.6-15.2,6.4c-3.4,0.6-7.2-0.8-10.5-1.5C327.6,50,324.3,50.1,320,50.2 M406.8,87.8h3.8c-2.9-1.7-5.8-3.4-8.8-5.1
				c-4.1,6.6-14.4,3.7-20.6,7.7c-5.1,3.2-9.9,17.1-5,22.1c6.8,7,10.2-8.5,12.1-12.1C392.3,93.1,398.2,87.6,406.8,87.8 M287.5,102.6
				c-3.1-5.8-1.1-11.3,3.5-14.3c6.5-4.4,13.1-9.2,19.5-14.1c-10.9-1.7-18.7-5.3-27.6-12c-10.3-7.7-13.2-14.8-12.9-27.7
				c0.1-6.5-0.8-25,9.7-19.6c8.7,4.4,9.9,16.8,19.2,21c9.2,4.2,20.1-0.2,29.8,3.1c2.8,0.9,10.1,7.4,12.4,7.4c3,0,10.5-6.6,13.3-8.2
				c7.1-3.9,16.2-7.7,24.1-8.9c4.9-0.7,6.6-1.2,10.1,2.4c4,4.1,5.3,9.1,6.7,14.4c15.2-6.3,30.6-12.1,46.2-17.2
				c5-1.6,8.4-3.7,12.6-6.3c6.1-3.7,9.4-2,10.6,5.7c1.9,13.6-6.4,22.4-13.6,32.6c-4,5.6-6.7,9.6-13.2,12.5c-6.8,3-14.9,2-22.2,4.3
				c1.9,2.3,2.9,7.6,4.5,9.2c1.3,1.3,7.8,1.1,10,2.2c6.5,3.4,5.7,9.2,1.7,14.8c-4.6,6.4-11.3,7.6-18.7,8.1c-3.3,0.2-6.2,0.3-9.5,0.1
				c-2.1-0.2-9.6-2.5-11.2-1.8c-1.9,0.8-2.3,5-3.2,6.9c-1.4,3.1-2.9,6.1-6.2,7.6c-2.8,1.2-6,0.9-8.5-0.8c-3.4-2.2-2.5-4.9-4.6-7.8
				c-0.2-3-1.5-3.6-3.9-1.7c-1.8,0.6-3.6,1.3-5.5,1.9c-3.8,1.4-7.3,2.7-10.6,5c-6.3,4.4-10.2,11.8-17.2,14.9
				c4.6,7.9,1.7,18.6-6,22.7c-1.7,0.9-3.9,2.1-5.7,2.6c-1.4,0.4-5,0.1-5.9,0.9c-1.4,1.1-2.1,11.7-3,14.1
				c-3.3,8.1-10.2,12.2-14.3,19.5c-4,7.2-3.1,18.3-4.3,26.4c-1.4,10-2.4,20.5-6.6,29.8c-2.9,6.2-11.5,13.6-19.1,12.4
				c-11.2-1.8-6.3-16.1-2.9-22.2c5.3-9.5,5.3-16.7,3.9-27.2c-4.4,0.7-15.4,5-14.8-3.4c0.4-5.7,12.7-11,17.1-13.9
				c9.8-6.5,19.9-14.1,28.1-22.4c3.4-3.5,8.3-9.8,10.1-14.5c1.3-3.4,1-6.8,1.3-10.4c0.3-3.3,3.2-7.9,3-10.8
				c-0.2-4.3-11.5-11.2-14.8-15.7C294.3,117.7,290.4,110,287.5,102.6"/>
			<path class="st1" d="M514.1,117.1c3.5-0.5,16.8-4.1,19.1-0.7c4.2,6.3-8.1,7.5-11.2,8c-13.6,2.5-27,5.9-40.2,9.6
				c-26.3,7.5-53.1,16.8-77.6,29c-3.8,1.9-15.1,9.7-19,5.7c-5-5.1,7.1-10.7,9.8-12.3c12.2-7,25.1-13.3,38.2-18.4
				C459.1,128,486.4,120.1,514.1,117.1"/>
			<path class="st1" d="M185.3,449.9c19.6-2.9,40.8,1.4,59.8,7.3c6.1,1.9,12.4,4.1,18,7.2c3,1.7,10.1,4.6,11.8,7.8
				c2.8,5.2-0.3,7.4-4.9,6.6c-4.3-0.8-9.7-3.3-14.2-4.4c-20.7-5.2-41.3-9.1-62.3-11.2c-5-0.5-8.7,0.1-13.5,1
				c-3.6,0.7-13.2,4.6-15.9,2.3C154.4,458,180.6,450.4,185.3,449.9"/>
			<path class="st1" d="M489.7,489.9c1.3,7.4-2.4,8.1-8.8,11.6c-6.4,3.5-12.9,6.5-19.7,9.3c-7.3,3.1-15,6.2-22.7,8.5
				c-6.5,1.9-16.4,6.2-23.2,5.5c-2.7-0.3-4.5,0.1-4.5-3.3c0-3.6,3.4-3.4,6.2-4.2c8.7-2.5,17-6.2,25.5-9.1
				C458.8,502.8,474.8,498.1,489.7,489.9"/>
			<path class="st1" d="M4.3,126.9c-5-8.3-4.9-19.3-3.5-28.7c0.5-3.2,8.1-26.5,12.7-21.6C16.2,79.5,6.9,97.8,6,102
				c-1.2,5-1.8,10-1,15.2C5.2,118.6,8.3,127.4,4.3,126.9"/>
			<path class="st1" d="M267.3,173.9c-3.7-5,1.2-16.3,2.7-21.6c0.9-3.3,3.7-15.7,8.2-13c4.3,2.6-0.5,14.2-1.4,17.4
				C275.6,161.4,273.7,173.8,267.3,173.9"/>
			<path class="st1" d="M675,441.7c0.7-1.6,1.4-3.2,2-4.8c1.7,1.3,4.1,1.9,2.4,3.9C678.3,442.1,676.5,442.1,675,441.7"/>
			<path class="st1" d="M613,128.2c-3,0.5-5,0.5-8,0.4C607.7,128.5,610.3,128.3,613,128.2"/>
			<path class="st1" d="M710.5,361.9c0-2,0-4,0-6C710.5,357.9,710.5,359.9,710.5,361.9"/>
			<path class="st1" d="M226.5,211.9c0-2,0-4,0-6C226.5,207.9,226.5,209.9,226.5,211.9"/>
			<path class="st1" d="M320,36.7c-2,0-4,0-6,0C316,35.8,318,36.2,320,36.7"/>
			<path class="st1" d="M333.5,652.9c0,1.3-0.1,2.7-0.1,4C333.5,655.6,333.5,654.3,333.5,652.9"/>
			<path class="st1" d="M81,173.4c1,0,2,0,3,0C83,173.4,82,173.4,81,173.4"/>
			<path class="st1" d="M645.5,526.9c0-1.3,0-2.7-0.1-4C645.5,524.3,645.5,525.6,645.5,526.9"/>
			<path class="st1" d="M696.4,264.9c0.1-1.3,0.1-2.7,0.2-4C696.5,262.3,696.5,263.6,696.4,264.9"/>
			<path class="st1" d="M605.6,62.9c-0.1,1.3-0.1,2.7-0.2,4C605.5,65.6,605.5,64.3,605.6,62.9"/>
			<path class="st1" d="M862.5,501.9c0-1.3,0-2.7,0-4C862.5,499.3,862.5,500.6,862.5,501.9"/>
			<path class="st1" d="M464.6,40.9c0-1.3-0.1-2.7-0.1-4C464.5,38.3,464.5,39.6,464.6,40.9"/>
			<path class="st1" d="M46.4,126.9c0.1-1.3,0.1-2.7,0.2-4C46.5,124.3,46.5,125.6,46.4,126.9"/>
			<path class="st1" d="M407,112.4c1,0,2,0,3,0C409,112.4,408,112.4,407,112.4"/>
			<path class="st1" d="M743.6,44.9c-0.1-1.3-0.1-2.7-0.2-4C743.5,42.3,743.5,43.6,743.6,44.9"/>
			<path class="st1" d="M84.5,251.9c0,1.3,0,2.7,0,4C84.5,254.6,84.5,253.3,84.5,251.9"/>
			<path class="st1" d="M868.6,483.9c-0.1-1.3-0.2-2.7-0.2-4C868.5,481.3,868.5,482.6,868.6,483.9"/>
			<path class="st1" d="M371,473.5c1,0,2-0.1,3-0.1C373,473.4,372,473.4,371,473.5"/>
			<path class="st1" d="M696.6,291.9c-0.1-1.3-0.2-2.7-0.2-4C696.5,289.3,696.5,290.6,696.6,291.9"/>
			<path class="st1" d="M217,449.4c-1.3,0-2.7,0-4,0C214.3,449.4,215.7,449.4,217,449.4"/>
			<path class="st1" d="M185,449.2c-1.3,0.1-2.7,0.3-4,0.4C182.3,449.5,183.7,449.4,185,449.2"/>
			<path class="st1" d="M695.5,282.9c0-1-0.1-2-0.1-3C695.5,280.9,695.5,281.9,695.5,282.9"/>
			<path class="st1" d="M740.6,87.9c-0.1-1-0.1-2-0.2-3C740.5,85.9,740.5,86.9,740.6,87.9"/>
			<path class="st1" d="M434.5,96.9c0-1,0-2,0-3C434.5,94.9,434.5,95.9,434.5,96.9"/>
			<path class="st1" d="M295.3,372.1c0.5,0,1.1,0.1,1.7,0.1C295.8,373.3,294.3,372.2,295.3,372.1"/>
			<path class="st1" d="M356,472.4c0.7,0,1.3,0,2,0C357.3,472.4,356.7,472.4,356,472.4"/>
			<path class="st1" d="M867.6,475.9c-0.1-1-0.1-2-0.2-3C867.5,473.9,867.5,474.9,867.6,475.9"/>
			<path class="st1" d="M87.6,278.9c-0.1,1-0.2,2-0.3,3C87.5,280.9,87.5,279.9,87.6,278.9"/>
			<path class="st1" d="M546,150.2c-1.2,0.9-2.6,0.4-4,0.4C543.3,150.4,544.7,150.3,546,150.2"/>
			<path class="st1" d="M861.5,514.9c0-1,0-2,0-3C861.5,512.9,861.5,513.9,861.5,514.9"/>
			<path class="st1" d="M635.4,551.9c0.1-1,0.2-2,0.2-3C635.5,549.9,635.5,550.9,635.4,551.9"/>
			<path class="st1" d="M70,172.4c0.7,0,1.3,0.1,2,0.1C71.3,172.4,70.7,172.4,70,172.4"/>
			<path class="st1" d="M514,117.3c-1.3,0.1-2.7,0.2-4,0.3C511.3,117.5,512.7,117.4,514,117.3"/>
			<path class="st1" d="M417.6,647.9c-0.1,1-0.2,2-0.3,3C417.5,649.9,417.5,648.9,417.6,647.9"/>
			<path class="st1" d="M221,269.3c-1.3,0.1-2.7,0.2-4,0.3C218.3,269.5,219.7,269.4,221,269.3"/>
			<path class="st1" d="M389,608.6c2.7-0.1,5.3-0.2,8-0.3C394.3,608.4,391.7,608.5,389,608.6"/>
			<path class="st1" d="M632.4,514.9c0.1-1.7,0.1-3.3,0.2-5C632.5,511.6,632.5,513.3,632.4,514.9"/>
			<path class="st1" d="M686,63.6c1.7-0.1,3.3-0.2,5-0.4C689.3,63.4,687.7,63.5,686,63.6"/>
			<path class="st1" d="M210,403.3c1.7,0.1,3.3,0.2,5,0.3C213.3,403.5,211.7,403.4,210,403.3"/>
			<path class="st1" d="M328.5,364.9c-0.7-1.5-0.7-2.8,0.1-4C329.1,362.3,329,363.6,328.5,364.9"/>
			<path class="st1" d="M807.5,459.9c0,1.3,0,2.7,0,4C807.5,462.6,807.5,461.3,807.5,459.9"/>
			<path class="st1" d="M406.5,590.9c0-1.3,0-2.7,0-4C406.5,588.3,406.5,589.6,406.5,590.9"/>
			<path class="st1" d="M359,457.3c1.3,0.1,2.7,0.2,4,0.3C361.7,457.5,360.3,457.4,359,457.3"/>
			<path class="st1" d="M334.1,369.8c-0.2-1.6,0.1-2.2,0.9-1.8C335.1,369.6,334.9,370.2,334.1,369.8"/>
			<path class="st1" d="M383.5,301.9c0,1,0,2,0,3C383.5,303.9,383.5,302.9,383.5,301.9"/>
			<path class="st1" d="M842.5,491.9c0-1,0-2,0-3C842.5,489.9,842.5,490.9,842.5,491.9"/>
			<path class="st1" d="M699,63.4c1.3,0,2.7,0,4,0C701.7,63.4,700.3,63.4,699,63.4"/>
			<path class="st1" d="M666,185.6l4-0.3L666,185.6z"/>
			<path class="st1" d="M603,353.4c-0.7,0-1.3,0-2,0C601.7,353.4,602.3,353.4,603,353.4"/>
			<path class="st1" d="M626.4,543.9c0.1-1,0.1-2,0.2-3C626.5,541.9,626.5,542.9,626.4,543.9"/>
			<path class="st1" d="M472,559.4c-0.7,0-1.3,0.1-2,0.1C470.7,559.4,471.3,559.4,472,559.4"/>
			<path class="st1" d="M383.5,305.9c0,1,0,2,0,3C383.5,307.9,383.5,306.9,383.5,305.9"/>
			<path class="st1" d="M323,49.4c-1,0-2,0-3,0C321,49.4,322,49.4,323,49.4"/>
			<path class="st1" d="M327.8,128.9c1.4,0.9,1.6,1.9,0.6,3C326.8,131.8,326.6,130.8,327.8,128.9"/>
			<path class="st1" d="M403,87.4c1.3,0,2.7,0,4,0.1C405.7,87.4,404.3,87.4,403,87.4"/>
			<path class="st1" d="M374.5,103.9c0,1,0,2,0,3C374.5,105.9,374.5,104.9,374.5,103.9"/>
			<path class="st1" d="M350,105.6l4-0.4L350,105.6z"/>
			<path class="st1" d="M530.8,289.3c-9.8,1.1-22.3,0.1-31.1-4.6c-6.1-3.3-9-14.1-0.1-15.7c5-0.9,11,3.6,15.4,5.3
				c5.3,2,10.8,3,16.2,4.4c3.7,1,9,3.4,5.7,8.7C536.3,288.3,530.9,291.1,530.8,289.3"/>
			<path class="st1" d="M669,337.5c-1,6.3-1.1,13.2-4.1,19c-4.4,8.3-5.2-0.6-4.5-5.1c1-6.7,1.6-13.6,1.1-20.4
				c-0.4-5.6-4.2-12.1-1.4-17.1C667.5,318.8,667.6,329.6,669,337.5"/>
			<path class="st1" d="M669.3,141.9c-4.1-0.9-10.9-3.7-5.1-7.5c2.4-1.6,7-0.8,9.7-2.3c1.6-0.9,2.5-2.8,4.1-3.5
				c5.3-2.3,5.9,1.6,3.9,6.6C679.8,140.4,674.7,142.2,669.3,141.9"/>
			<path class="st1" d="M666.9,108.8c6.8-5.1,5.9,1.3,2.3,5.7c-1.3,1.5-2.7,3-4,4.5l1.2,1.4c-0.2,2,1.7,3.6-0.6,4.9
				c-3.9,2.2-6.8-3-6.8-5.9C659,114.7,663.8,111.7,666.9,108.8"/>
			<path class="st1" d="M666.1,109.2c-6.3,6.2-6.1-6.3-2.7-9C669.8,95,665.6,107,666.1,109.2"/>
			<path class="st1" d="M678.2,113.9c-0.5-2.2-0.5-12.7,3.9-12C686.9,102.7,681.6,114.2,678.2,113.9"/>
			<path class="st1" d="M670,142.4c0.7,0,1.3,0.1,2,0.1C671.3,142.4,670.7,142.4,670,142.4"/>
			<path class="st1" d="M365.3,63.9c-5.4-9.2,6.9-25,13.1-12.2c0.8,1.7,2.7,6.4,0.5,7.8c-2.5,1.5-1.9-0.7-3.9-1
				c-2.4-0.4-1.6-1.5-4.4-0.3C368.6,59,366.7,62.3,365.3,63.9"/>
		</g>
		<circle class="st2" cx="373.4" cy="311.4" r="118.4"/>
		<circle class="st2" cx="939.9" cy="716.1" r="382.1"/>
	</g>
</g>
<circle class="st2" cx="327" cy="609.7" r="60"/>
</svg>
