<?xml version="1.0" encoding="utf-8"?>
<!-- Generator: Adobe Illustrator 23.0.3, SVG Export Plug-In . SVG Version: 6.00 Build 0)  -->
<svg version="1.1" id="Layer_1" xmlns="http://www.w3.org/2000/svg" xmlns:xlink="http://www.w3.org/1999/xlink" x="0px" y="0px"
	 viewBox="0 0 1024 768" style="enable-background:new 0 0 1024 768;" xml:space="preserve">
<style type="text/css">
	.st0{fill-rule:evenodd;clip-rule:evenodd;fill:#FF9354;fill-opacity:0.9;}
	.st1{fill-rule:evenodd;clip-rule:evenodd;fill:#FF5678;}
	.st2{fill-rule:evenodd;clip-rule:evenodd;}
	.st3{fill-rule:evenodd;clip-rule:evenodd;fill:#FFB3B3;}
</style>
<g>
	<g transform="translate(-74.000000, -32.000000)">
		<circle class="st0" cx="357.4" cy="289.5" r="110.1"/>
		<path class="st1" d="M752.2,145.9c4.1,13.5,5.9,26.6,9.3,40.2c3.8,14.9,7.8,30.4,13,44.9c9.8,27.1,25.7,45.4,40.6,70.2
			c11.7,19.4,44,85,50,95.3c3.7,6.5,6.1,16,8.7,23c1.5,4,3.1,14,2.3,18c-11.3-1.3-23.3-2.6-34.2,0c-3.6,0.8-15.9,8.3-19.3,7.3
			c-3.8-0.9-1.6-6.7-3-10.2c-4.1-10-8.6-20.2-11.7-30.5c-3.1-10.6-23.5-76.2-35.2-97.5c-6-11-10.4-21.9-17-32.6
			c-6.9-11-12.6-21.5-24-28.5c1.2-9.5,6.6-19.9,9.8-28.9c3.1-8.8,4.6-16.6,5.7-26.1c1-9,4.5-17.8,3.2-27c-0.7-4.7-3.8-7.9-4.9-12.2
			c-0.7-2.4-2.4-0.3,0.1-3.3C746.7,146.9,750.7,146.9,752.2,145.9z M742.7,152.9c2,10.7-4.5,25.3-6.8,35.8
			c-2.4,11-5.3,21.8-7.9,32.6c-1.3,5.4-3.8,10.2-5.4,15.4c-1.8,5.9-2.6,12-4.5,17.9c-3.7,11.8-8.7,23.1-7.3,35.6
			c1.3,10.9,2.8,22.7,6.3,33c4.3,12.3,8.3,23.9,9.2,37c0.9,12.5-2.1,25.5-5.4,37.4c-1.1,4.2-9.9,34.9-12.6,34.4
			c-2-13.9-12.7-27.5-19.7-39.5c-8-13.9-19.6-25.9-31.2-36.9c3.3-1.3,6.3-8,7.9-11.2c2.1-4.4,4.7-8.7,7.2-12.9
			c4.6-7.6,17.3-38.1,21.2-45.8c4.7-9,35.4-100.3,34.8-109.7c-0.3-4.2-0.6-5.8,1.7-9C733.1,163.1,739.4,157,742.7,152.9z
			 M671.4,148.7c0,4.2,0.4,4.9-2.1,7.8c-2.1,2.4-4.8,4.1-7,6.7c-4.7,5.8-8.6,12.1-12,18.7c-6.4,12.9-10.6,28.2-12.7,42.4
			c-2.3,15.7-0.9,31.8-2,47.6c-0.4,5.9-1.4,12.8-5.3,17.6c-3.4,4.2-9.9,7.3-14.6,9.8c-11,5.5-20.2,12.8-28.6,22
			c-2,2.2-2.6,7.3-4.9,9.2s-9.5,7.4-12.2,8.6c-6.3,2.9-31.2,0.2-37.9-1c-6.7-1.2-16.3-6.8-22.2-9.7c-8.4-4.2-19.1-13-31.8-26.6
			c36.3-13.9,78.2-27,110.7-49.2c0.2,2.6,4.8,10,5.3,7.8c3.1-14,5-28.1,8.1-42c0.8-3.7,1.6-7.4,3-10.9c0.7-1.8-7.7-3.1-11.1-1.8
			c-12.6,5-25.8,7.4-39,10.3c-24.5,5.4-52.4,7.4-73.5,22.2c-9,6.3-18,14.3-25.4,22.3c-8.1,8.8-15.7,23.3-16.8,35.6
			c-14.7-6.6-33.9-3.7-49.1-2.4c5.5-13.9,23.4-27.5,34.5-36.9c9.1-7.8,18-15.9,28.1-22.5c22.5-14.8,45.1-28.7,71.1-37.1
			c12.8-4.2,25.7-8.4,39-10.5c7.3-1.2,14.7-1.5,21.9-2.2c7.2-0.7,9.9-2.2,15.2-7.3c9.9-9.4,23.4-11.4,36.2-14.9
			C648.7,158.9,660.7,156.1,671.4,148.7z M451,103l16.6,8.5c-6.8,2.7-12,4.6-15.7,5.6c-5.6,1.5-13.3,23.1-20.5,23.1
			s-7.3-18.8-3.7-26.5C430.1,108.5,437.9,105,451,103L451,103z"/>
		<g transform="translate(74.000000, 32.080356)">
			<path class="st2" d="M316,341.8c1,0.4,1.4-0.3,1.1-2C316.1,339.3,315.8,340,316,341.8 M679.7,80.7c-1.7,0.2-0.7,1.8,0.3,2.4
				C679.9,82.3,679.8,81.4,679.7,80.7 M582.9,321.8c1-0.7,0.7-1.4-1-2C580.9,320.6,581.2,321.3,582.9,321.8 M207.8,317.7
				c-5.4-0.8-9.6-9-14-7.3c-5.6,2.1-10.6,11.8-14.4,16.2c2.9,2.3,6.1,4.5,9.3,6.6c3.2,2.1,2.4,3,5.6,0.4c2.3-1.9,4.2-5.3,6.1-7.6
				C202.8,323.2,205.7,320.6,207.8,317.7 M331.9,626.6c0.9,0.1,1.6-21.4,2.3-24.4c1.7-6.6,4.7-13.2,8-19.1c1.4-2.5,3.9-5.8,5-8.4
				c1.7-4-1-6.7-1.8-11.3c-1.6-9.8,0.6-18.4,3.9-27.4c-6.3-1.4-12.4-3.8-18.8-4.7c0,8.6-0.8,15.9-4.4,23.8c-0.9,2-2.7,3.6-2,6
				c0.3,0.7,2.4,1.3,3,2c3,4.1,3.4,7.3,3.6,12.5C331.4,592.8,329.5,609.6,331.9,626.6 M287.2,330c3.4,3,14.6-17.8,18.4-17.7
				c8.1,0.3-3.4,20.6-4.1,23.2c3.3-1.1,6.3-8.5,8.1-11.3c1.5-2.4,7-14.4,10-15.2c6.1-1.5,3.3,9.7,2.5,12.3c-2,5.9-3.8,11.6-5.5,17.6
				c3.5-2,6.2-13.6,7.8-17.4c2.2-5.3,4-11,7.4-15.6c2.3-3.2,6.2-7.5,10.5-7.8c5.1-0.3,7.1,5.2,11.7,6.2c0.7-11.7-0.6-23.5,0.8-35.2
				c-9.2,0.2-18.4,0.7-27.4,2.1c-5.1,0.8-8.5,0.8-11,5.6c-2,3.7-3.4,7.5-5.3,11.3C304.1,302.6,296.6,316.9,287.2,330 M171.1,286.3
				c-6.7,6.9-12.7,14-19.1,21.2c-6.3,7.3-15.2,11.9-21.1,19.3c-5.5,6.8-9.6,14.7-14.8,21.8c-5.8,7.8-10.5,16.6-15.4,24.9
				c5,0.9,6.3,1,9.6-2.7c2.7-3.1,4.9-6.9,7.6-10c6.3-7.3,12.5-13.2,20.5-19c7.8-5.6,17.8-10.5,27.1-13.3c3.6-1.1,4.9-0.8,7-4.2
				c1.4-2.4,2-5.4,3.4-7.8c3.2-5.2,8.2-8.2,13.1-11.5C183.5,298.4,176.8,293,171.1,286.3 M618.5,86.1c-1.9,1.4-2,6.5-2.9,8.6
				c-1.6,3.9-3.7,7.6-5.7,11.4c-3.3,6.6-6.2,14-6,21.6c0.1,7.8,6.1,12.3,13.4,13.7c8,1.6,14-1.6,21.1-4.9c7-3.3,12.6-8.6,18.2-13.9
				c4.4-4.2,7.2-11.1,12.1-13.4c4.7-2.2,10.5-4.2,11.9-10.9c0.9-4.6-0.8-4-4.8-3.1c-4.3,1-7.3,3.7-11.3,5.2c2.2-5,2.7-9.1,0-14
				c-1.6-2.8-4.5-7.4-8-7.6c-2.3-0.1-5.1,2.5-7.3,3.3c-2.6,1-5.5,1.5-8.2,2.2C633.1,86.6,626.8,87.1,618.5,86.1 M634.3,400.1
				c2.7,0.5,11.3-30.1,12.5-34.4c3.3-11.9,6.2-24.9,5.4-37.4c-0.9-13.1-5-24.6-9.2-37c-3.5-10.4-5-22.1-6.3-33
				c-1.5-12.6,3.6-23.8,7.3-35.6c1.7-5.5,2.6-11.1,4.1-16.5c1.6-5.8,4.4-11,5.8-16.9c2.6-11,5.5-21.7,7.9-32.6
				c2.3-10.5,8.6-23,6.7-33.6c-3.3,4-7.3,7.4-10.5,11.3c-3.3,4-2.1,4.3-1.8,9.8c0.7,9.1-1.2,19.7-3.3,28.6
				c-4.5,18.4-12.3,35.2-17.9,53.1c-3,9.2-4.1,19.5-8.3,28.3c-3.7,7.8-8.8,14.7-12.8,22.2c-4.4,8.3-9.4,16-14.1,24.1
				c-2.2,3.8-4.6,7.5-6.6,11.4c-1.7,3.3-3.5,11.3-6.8,12.6c11.5,11.1,20.4,22.3,28.4,36.3C621.6,372.6,632.3,386.1,634.3,400.1
				 M658.3,213.6c10.9,6.7,16.4,16.5,23.1,27.1c6.7,10.5,12.9,21.3,18.9,32.2c11.8,21.8,20.6,43.4,27.1,67.3
				c3,10.8,7.3,21.3,10.3,31.8c2.8,9.8,3.7,19.7,7.8,29.1c1.1,2.6,2,8.3,4.9,9.2c3.5,1.1,12.9-3.7,16.5-4.7
				c11.5-2.9,23.5-3.4,35.3-2.1c0.7-4.1-4-12.1-5.5-16.1c-2.4-6.6-4.6-13.6-7.8-19.7c-5.6-10.7-12-21.1-18.4-31.2
				c-6.8-10.7-12.5-22.1-19.4-32.5c-3.3-4.8-7.8-11.3-10-16.6c-1-2.6-1.4-3.6-2.6-5.9c-1.1-2-2.4-3.9-3.5-5.9
				c-14.7-24.4-25.5-49.1-34.9-75.6c-5.1-14.5-9.5-29.2-13.6-44.1c-3.8-14-4.6-28.4-8.8-42.3c-2.5,1.7-6.7,1.5-6.6,4.7
				c0,0.7,3.5,5.3,3.9,6.2c0.7,1.9,1.3,3.8,1.6,5.8c1.8,9.5-1.8,18.8-3,28.1c-1.2,9-2.2,16.5-5.3,24.9
				C665,192.8,659.5,204,658.3,213.6 M407.3,269.9c10.7,9.3,20.6,19.6,33.1,25.9c6,3,10.6,7.1,17.3,8.3c6.7,1.2,13.7,0.5,20.5,0
				c6.9-0.5,13.2-0.6,19.5-3.4c2.7-1.2,6.9-2.4,9.2-4.3c2.3-1.9,3.8-4.8,5.9-7.1c8.4-9.1,17.6-16.5,28.6-21.9
				c12.2-6.1,19-13.2,19.9-27.2c1-15.8-0.4-31.9,2-47.5c2.1-14.2,6.3-29.5,12.7-42.3c3.3-6.6,7.3-12.9,12-18.7c2-2.6,4.8-4.3,7-6.7
				c2.5-2.8,2.1-3.5,2.1-7.8c-10.7,7.4-22.7,10.2-35.2,13.6c-12.6,3.3-26.3,5.5-36.2,14.8c-5.3,5-8,6.5-15.2,7.3
				c-7.3,0.7-14.7,1.1-21.9,2.2c-13.4,2.1-26.1,6.3-39,10.5c-25.9,8.4-48.5,22.3-71.1,37.1c-10,6.6-19,14.7-28.1,22.5
				c-11.1,9.4-25.9,22-31.4,35.9c15.2-1.4,30.5-5.8,45.2,0.8c1.1-12.3,9.5-24.3,17.6-33.1c7.3-7.8,16-15.6,24.8-21.9
				c21.1-15.1,49.3-19,73.9-24.4c13.3-2.9,25.7-5.2,38.3-10.2c3.2-1.3,12.6-6.9,14.3-3.5c1.1,2.1-1.8,5.2-2.5,7
				c-1.2,3-2,6.1-2.7,9.4c-3.3,14.4-5.3,29.1-8.4,43.5c-0.5,2.1-1.1,11.7-4.9,10.4c-2.5-0.8-0.2-15.5-0.4-18.2
				C482,242.9,443.6,256,407.3,269.9 M443.7,517.7c-7.2,0.3-14.5,4.2-21.6,6c-9.4,2.4-19.3,4.8-28,9.1c-4.7,2.2-4.7,3.6-3.4,8.7
				c1,4.1,2.1,8,3,12.2c2,10.3,4.4,20.5,7,30.6c26.9-22.4,61.1-35.1,94.6-43.7c4.7-1.2,9.6-1.6,14.3-2.4c4.2-0.7,9-0.2,13-1
				c2.6-0.6,4.8-2.2,7.5-2.9c5.7-1.3,12.5-1.4,17.9-3.4c7.3-2.7,15.4-6.2,22.7-10c7.9-4,14.2-7,15.8-15.6c1.3-6.9,4.5-13.2,5.5-20
				c1.3-8.7-0.3-16.6-0.8-25.3c-1.2-20.3-4.2-40.7-9.4-60.5c-4.9-19-8.5-38.4-11.9-57.6c-0.7-3.7-2-7.2-2.9-10.9
				c-1.5-6.1-4.4-4.6-9.9-4.2c-10.4,0.7-21.4-3.4-30-9.1c-4.1-2.6-9.2-8.6-13.9-10c-4.2-1.1-8.4,4.5-12.4,6.3
				c-9.5,4.5-21.1,5.7-31.4,6.4c-22.6,1.6-39.6-13.1-55.1-28.1c-10.3,11.5-21.5,22.5-33.5,32.3c-9.9,8.1-18.2,18.6-26.5,28.2
				c-7.7,9-14,23.1-24.5,29.4c-6.1,3.7-10.7,1.4-16.6-2.3c-4.7-3-9.9-4.6-14.6-7.3c-21.8-12.6-42.3-26.8-63.6-40.1
				c-4.7-2.9-12-9.8-17.5-10.2c-4.1-0.4-3.7,0.7-6,4c-2.2,3.3-4.6,6.5-6.9,9.8c-8.8,12.8-18.3,26-25.5,39.9
				c15.6-3.7,30.4-4.3,45.8-2.1c14.1,2,32.2,4.5,44.7,12.1c5.3,3.3,10.6,7,15.9,10.6c6.7,4.7,11.9,11.2,19.3,14.7
				c6.4,3.1,13.3,4.4,19.9,6.7c7.4,2.5,18,7.3,25.9,5.2c6.8-1.8,12.4-7.7,17.5-11.9c6.6-5.4,14.7-9,21.4-14
				c11.9-8.8,24.3-16.5,37-24.4c15.3-9.5,29.9-20.4,45.7-28.6c3.1-1.7,6.1-2.8,9.1-4.7c2.7-1.9,4.7-5.2,8-2.8c2.9,2.1,1.7,6,0.7,8.8
				c-0.8,2.6-1.6,3.3-1,5.6c0.5,2,3.7,5.3,4.8,7.3c5.2,9.6,8.9,19.9,13.9,29.7c4.8,9.5,10.3,18.5,14.8,28.2
				c8.9,19,21.3,35.9,29.2,55.5c-3.6,1.5-4.1-1.6-6.9-1.9c-3.1-0.3-2,0.3-5,2.5c-4.1,3-8.5,4.8-12.9,7.2
				c-9.8,5.1-19.8,11.2-30.3,14.7C478.7,500.3,462,511.1,443.7,517.7 M755.8,429c-0.7,4.5-1.4,8.9-2,13.5c-0.5,3.2-2.2,7.8-1.9,10.9
				c4.7-2.2,9.7-9.6,13.3-1.5c2.1,4.8-0.6,14.4-1.2,19.5c5.3-1.1,4.1-14,12.6-9.9c6.5,3.3,2,19.5,7,21.2c3.5-5.5,2.9-18,4.1-24.6
				c0.6-3.1-0.3-7.3,3.3-7.4c3.2-0.2,5.6,4.4,7.1,6.4c1.4-7.5,5.2-14.2,3.5-21.1c-1-4.3-2-8.6-3.2-12.8c-0.7-2.5-1.3-10.2-3.5-11.9
				c-4.1-3.3-18.9,2.5-23.3,3.8c-4.1,1.2-9.3,2.3-13.1,4.3C754.6,421.4,755.8,424.4,755.8,429 M624.4,170.4c6-0.7,11.3-4.4,16-8.2
				c7.6-6.3,8.8-11.3,10.2-20.9c-9.8,4.7-17,8.7-28.1,8.9c-12.6,0.2-18.9-7.2-24.7-17.4c-1.6,2.4-3.8,4.9-4.9,7.5
				c-1.4,3.3-1.3,2.6-0.8,6c0.7,5.2,3.3,11.8,5.9,16.3C603.4,172.3,614.6,173.7,624.4,170.4 M374.1,563.4h11.5
				c-0.7-4.2-1.3-8.5-2-12.6c-0.6-3.7,0.4-8.8-3.3-9.5c-3-0.6-6,2.8-9,2.5c-3.4-0.4-5.5-2.8-9.5-1.9c-5.8,1.4-4.6,7.7-4.7,12.9
				c0,2-0.8,5.2-0.2,7.2c1.1,3.5,0.2,2.1,3.6,2.4C364.8,565,369.9,563.6,374.1,563.4 M659,56.2c4.2,0.7,15.2,9.7,18.2,7.5
				c4.2-2.9-7.8-10.9-10.3-12.2c-12-6.1-34.5-1.3-42.6,10c5.3,0.6,11.8-4.4,17.2-5.1C647.3,55.5,653.2,56.2,659,56.2 M656.1,288.1
				c3.4,13.9,9.6,28.6,9.6,43c0,14.9-3.3,28.5-9.4,42.1c-3,6.9-5.8,13.8-9.2,20.4c-1.6,3.1-3.1,6.9-5.2,9.6
				c-2.7,3.3-3.5,3.1-6.8,0.5c-1.4,3.7-3,7.4-7.8,5c-3.5-1.8-3.4-6.2-4.7-9.5c-3.1-8.8-9.7-16.5-14.4-24.5
				c-4.8-8.3-8.8-17.1-14.1-25c-2.5-3.8-5.6-7.3-8.3-11.1c-2-2.8-5.2-9.3-8.1-11c-0.4,3.7,3.5,9.1,5,12.6c2,4.7,3.5,9.6,4.9,14.5
				c2.7,9.6,4.3,19.5,6.3,29.3c3.6,17.4,8,34.6,10.4,52.3c2.2,16.4,2.9,33.4,1.1,49.8c-0.7,7.1-4.9,13-7.7,19.5
				c-3.8,8.7-8.5,14.2-16.1,20.5c-13.9,11.3-29.2,18-46.1,23.1c-3.2,0.9-6,0.6-9,1.2c-3.3,0.7-6,2.4-9.6,3
				c-9.3,1.5-18.8,3.2-27.7,5.8c-7.1,2-14,4.3-21.1,6.4c-5.3,1.7-11.9,3.2-17,5.6c-12.6,6-24.6,13-36.4,20.5c-3.4,2.1-6,3.5-8.6,6.7
				c-2.8,3.5-2.3,6-3.8,10c-1.4,3.7-3.8,5.9-7.2,2.7c-3.1-2.9-1.9-9-2.1-12.6c-0.4-5.4-3.5-26-7.3-27.7c-2.7-1.2-10.5,1.4-13.8,1.8
				c-4.2,0.5-8,0.5-12.2-0.1c1.4,5.8-3.7,13.6-5.8,18.7c-3.6,8.6-6.4,17.1-7.9,26.3c-1,6.3-0.7,12.6-1.7,19
				c-1,6.6,0.6,16.8-8.4,17.9c-14.1,1.6-17.8-26.7-19.3-36.2c-2.5-14.9-0.6-29.6,0.9-44.5c0.1-1.2,0.7-6.5,0.2-7.5
				c-0.5-0.7-4.5-2.1-4.9-2.5c-4.5-3.2-2.7-4.8-1.3-9.6c2.5-9,1.8-20.4,7.9-28.3c4.7-6,15.2-2.4,21.3-0.7c4.6,1.2,9,2.9,13.4,4.5
				c3.1,1.1,6.4,4.5,9.1,5c5.3,1.1,9.2-5.7,13.1-8.1c7.2-4.3,14.6-8.3,22.2-11.2c14.1-5.3,28.7-8.4,43.2-12.8
				c8.8-2.7,17.7-5.8,26-9.7c6.2-2.9,12.5-7.1,19.3-9c8.5-2.5,17.1-6,25.4-9.4c8.8-3.6,18.4-6,27.4-9c-18.8-27.5-34.9-57-47.8-87.8
				c-1.5-3.5-2.9-7.2-4.3-10.7c-0.7-1.9-2.3-10.1-4.1-11.3c-3.2-2.1-16,7.4-19.5,9.8c-12.9,8.5-25.3,17.7-38.7,25.4
				c-11.6,6.7-22.6,14.3-33.8,21.5c-6.1,3.9-11.8,8.9-18,12.9c-6.2,4-13.5,11.3-20.9,13c-2.8,0.7-7.4-0.2-10.1-0.4
				c-3.9-0.3-8.3-0.7-12.1-1.8c-7.4-2.1-15.3-4.6-22.6-7.2c-13.1-4.7-23.3-16.6-35.1-23.8c-14.2-8.7-30.4-11-46.3-15.8
				c-17.4-5.3-36.7-5.9-55.2-4.5c0-16.7,8.1-29.4,16.9-43.2c-6.3-4.2-9-6.8-16.2-2.9c-5.3,2.9-10.1,5.5-15.1,8.6
				c-5.3,3.4-11,6.1-16.3,10c-5.8,4.2-10.8,8.6-16.1,13.2c-4,3.5-8.6,6.7-12.7,9.9c-4.1,3.2-8.4,2.7-13.7,0.6
				c-1.6-0.7-6.4-2.8-7.3-3.9c-1.7-2.1-0.5-3.6,0.9-6.4c3.2-6.5,7.3-13.1,11.4-19c3.7-5.3,8.6-9.7,12.5-14.9
				c3.7-4.9,6.3-10.6,10.6-15.1c4.7-4.9,10.5-8.9,15-14.2c2.2-2.6,4.8-5.5,5-8.6c0.1-2.4-2.5-4.7-2.5-6.4c-0.1-4,6.9-8.1,9.8-11.1
				c4.2-4.4,8.4-8.1,15-6.2c4.8,1.4,12,7.4,15.5,10.9c4.5,4.5,8.2,9.6,12.8,14c2.6,2.4,5.4,4.7,8.1,7.1c1.6,1.4,4.1,5.4,5.9,6.2
				c1.6,0.7,3.1,0,5.3,0c-1,0,4,0.8,3.7,0.8c2.4,0.7,4.7,1.3,7.1,2c9.6,3.1,18.5,8.4,27.2,13.6c22,13.3,42.8,27.4,64.4,41.6
				c6.4,4.2,8.2,3.9,13.1-2.1c4.6-5.6,8.4-11.8,12.6-17.6c7.1-9.6,15.1-18.9,23.4-27.3c8.6-8.7,18.6-16.1,27.8-24.2
				c2.6-2.2,13.1-9.9,12.5-12.6c-0.4-1.6-3.8-4.3-4.8-6c-1.6-2.4-3.3-5.2-4.5-7.9c-7-15.9,11.2-17,21.8-21.9
				c13-6,25.9-12.6,39.1-17.9c6.7-2.7,13.3-5.1,20.1-7.6c6.2-2.3,11.8-6,17.9-8.6c4.5-1.9,14.2-2.6,17.2-6.5c1.8-2.3,1-9.8,1.3-12.5
				c0.6-4.6,1.3-9,2.4-13.5c-2.2-0.4-6.4,2-8.5,3c-3.9,1.8-7.3,3.6-11.6,4.7c-9.2,2.4-19,2.7-28,5.3c-13.9,4-28.6,6.3-42.2,12.1
				c-15.6,6.6-29,18.3-40,30.9c-5.7,6.5-10.1,12.7-14,20.5c-1,2-2.2,8.7-3.7,10.1c-2,1.8-7.2-0.1-9.4-0.5c0,6,0.1,11.8-0.1,17.8
				c-0.2,6.2,0.9,15.8-1.3,21.6c-2,5.4-5.8,4.3-9.8,1.6c-5.3-3.5-8-5.6-12.8-0.1c-8.3,9.6-11.4,24.6-17.1,35.8
				c-1.9,3.7-6.4,11.4-8.9,3.8c-1.9-5.5,1.2-12.6-0.2-18c-2,3.4-7.7,13.5-12.3,13.5c-6.3,0-4.3-9.9-4-13.9
				c-3.7,4-14.6,16.9-17.3,6.5c-2-8,3.6-15.9,7.6-22.1c4.7-7.3,9.3-14.7,14.1-21.9c4.7-7.1,7.9-15,12.7-22
				c-3.6,0.5-10.8-0.7-8.6-6.4c1.2-3,4.9-1.8,6.7-3.5c1.9-2,2.9-7.3,4-9.9c5.2-12.4,12.7-22.6,21.5-32.7c15.3-17.9,35-32.1,54.7-44
				c23.5-14.2,47.8-22.9,74.2-29.9c12.5-3.3,25.2-4.8,37.8-7.2c5.2-1,10.6-1.6,14.7-4.8c6.1-4.9,10.2-8.6,17.7-11.8
				c6-2.5,11.7-3.7,18.3-4.8c7.1-1.2,15.2,0.4,21.9-1.6c5.6-1.7,12.2-5.2,17.3-8.1c2.6-1.5,7.2-2.2,8.6-3.5
				c2.7-2.4,4.5-8.3,6.1-11.4c-4.3,1.1-5.9-1.9-7-5.6c-1.9-6-1.9-4.1-7.8-6.6c-3.4-1.5-4.7-5.5-7.3-7c-3-1.5-7.6,1.8-11.2,0.7
				c-2.9-0.8-5.6-3.9-5.5-7.2c0.1-1.4,1.5-2.5,1.5-3.6c0.1-2.6-2-4-1.8-6.9c0.5-4.4,2.7-3.6,0.8-8.4s-1.1-5.7-0.6-10.6
				c0.2-1.4-0.6-3.5,0.4-4.7c0.6-0.7,2.6-0.7,2.8-1.1c0.7-1.3,0.8-2.3,0.9-4.7c0.1-1.3-0.3-4,1-4.9c1.2-0.8,2.9,0.7,4,0.2
				c0.9-0.5,1.7-2.6,3.2-2.9c5.5-0.9,3.8,4.7,6.7-2.3c1.7-4.1,2.9-5.8,5.9-8.1c1.3,0.6,2,0.4,2.4-0.7c0.5-0.7,0.8-1.6,1.3-2.3
				c2.3-0.6,2.6,1.2,4.4-0.6c3-2.8-0.1-9.1,6-7.4c4.4,1.2,5.4,6.8,10,8.2c0.7-1.9,0.6-7.2,3.2-7.7c2.7-0.6,4.7,4.4,5.8,6
				c0.7-1.4,1.7-5.5,2.7-6.5c3-2.9,2.1-0.1,4.7,0.3c0.5,0.5,0.8,1,1.3,1.5c1.4-0.7,2.8-1.4,4.1-2.1c2.9-0.6,1.9-0.3,4.5,0.7
				c2,0.8,0.8,1.8,3.3,2.3c1.8,0.4,3.3-1.5,5.3-0.9c0.6,0.3,1.2,0.5,1.8,0.7c0.8,1.9,2.1,2.1,3.8,0.9c2,0.8,4.7,4.2,6.9,4.1
				c4.1-0.2,3.2-5.9,7.6-5.6c1.7,0.1,6,4.6,7.2,6c1.7,1.9,1.2,3.4,3.3,5.6c3.1,3.1,1.2,1.4,4.2,2.8c4.3,2,5.9,1.3,7.6,6.2
				c1.6,4.3,2.4,9.7,2.4,14.2c0,2.9-2,9.1,2,7.7c2.8-0.9,2.3-7.8,5.3-5.7c2.2,1.7-2.2,10.4-2.2,12.5c-0.2,6,0.8,6.4-2.9,10.8
				c-1.8,2-5.7,6-6.6,8.6c-1,3.2,1.8,8.7,2.3,11.6c1.4,6.2,0.2,7.5-3.9,12.4c-0.5,0.3-0.8,0.6-1.3,0.8c-2.2,0-2.8,1.1-1.9,3.3
				c-0.8,2.4-0.7,4.8-2,7.3c-0.7,1.3-3.6,4.1-3.8,5.4c-0.3,2.3,0.9,2.8,2.9,5.2c8,9.9,11.7,22.7,15.6,34.6
				c7,20.9,15.6,41.4,23.9,61.8c3.3,8,6.5,15.6,10,23.7c4.2,10,10.1,19.3,15.1,28.9c3.4,6.7,7,14.1,11.3,19.9
				c5.4,7.3,8.5,16.7,13.2,24.6c5.1,8.5,11,16.7,15.9,25.5c4.7,8.3,10.5,15.9,15,24.5c5.6,10.7,12,23.4,13.6,35.5
				c0.6,4.3,2.2,11.3-0.5,15c-2.8,3.8-10.3,5.4-14.1,2.5c3.8,8.9,6.2,19,8,28.6c0.7,4.1,1.8,7.8,0.8,12c-0.8,3.8,0.6,1.6-2.5,3.8
				c-2.5,1.9-1.4-3.3-3.3,2c-0.5,1.1,0.4,4.2,0.4,5.5c-0.1,5.2-0.5,10.5-0.7,15.8c-0.2,4,0.5,7.3-4.4,6.9c-3.9-0.4-5.9-4.5-7.6-7.4
				c-0.7,4.7-1,9.4-1.6,14c-0.5,4.2,0.5,8.3-4.8,7.8c-8.7-0.7-12.2-16.6-14.4-23.3c-4,5.2-6,15.7-7.7,22.1
				c-1.7,6.1-3.6,19.2-12.2,11.2c-5.7-5.3-3.4-15.8-2.4-22.7c0.4-2.2,5.1-22,2.9-23.2c-3.2,3.4-7,9-12.2,6
				c-4.7-2.7-3.2-8.7-2.8-13.1c1.1-12.4,5.3-24.3,8.5-36.3c-1.8-0.4-6.1-0.7-7.6-2.1c-1.9-1.7-0.7-2.5-1.6-4.7c-1.1-3-3.2-6-4.7-8.7
				c-5.2-9.2-6.8-18.3-9.5-28.3c-2.6-9.7-7.4-18.1-10-27.9c-2.9-10.8-6-21.5-9.3-32.2c-7.4-23.5-18-45.9-30.3-67.3
				c-1.6-2.8-14.8-33.1-16.8-32.2c-1.4,0.7-2.2,8.5-2.8,10.6c-1.2,4.9-1.5,10-1.8,15.1C648,255.9,653.2,276.3,656.1,288.1z"/>
			<path class="st2" d="M210.3,248.2c4.9,1.2,6.7-10.3,7.3-13.9c0.9-5.8,2-10.7,5-15.7c1.5-2.4,3.3-4.9,5.3-7.1
				c1.1-1.2,4-2.8,4.6-4.2c1.7-3.6-0.3-12.8-0.3-16.9c0-2.6-1.7-14.9,1.4-15.7c4-1.1,5,10,5.5,12.6c0.5,2.9,0.5,5.7,0.7,8.6
				c0.3,2.7,1.8,4.3,2.3,6c1.6,5.1-2.1,9.3-4.9,13.9c-3,5.1-6.2,10-8.4,15.6c-2.3,6-2.1,12.4-3.9,18.5c-2.9,10-15.2,15.3-25,12.4
				c-5.3-1.6-4.2-5.1-5.9-9.2c-0.7-1.6-2.4-2.4-3-4.5c-0.6-2.1-0.1-5,0.4-7.3c2-10.7,5.5-21.9,8.7-32.3c-17.8,9.8-36.6,16.2-57,15.8
				c-10.1-0.2-17.6-2.3-24.9,6.3c-5.7,6.7-5.7,18.6-8,27c-2.5,9.1-4.8,20.7-10.6,28.3c-7,9.2-16.4,7.6-17.1-4.6
				c-0.6-10.4,4.6-20.3,3.7-30.9c-0.5-5.3-2.5-10-2.4-15.4c0.1-4.7,1-9,1.9-13.6c-10.1,1.2-18,5.4-25.2,12.4
				c-6.8,6.5-9.6,14.6-15.2,22.1c-5.1,6.9-9.6,16.3-19.6,16c-12.8-0.3-13.7-16.1-8.8-24.6c2.4-4.3,5.9-7.7,9-11.5
				c3.4-4.2,3.9-7.6,4.6-12.9c0.6-4.1,0.7-9.5,4.4-12.2c3.3-2.4,7.4-1.2,10.5-4.5c3-3.1,5.2-7.7,7.9-11.2c3.3-4.3,6.7-8.6,9.6-13.2
				c6.3-9.8,14.6-16.5,23.3-24.1c-3.2-2-11.5,0.2-15.4-0.4c-6.4-1-14.8-4.1-19.7-8.5c-10.3-9.1-15.3-21-15.8-34.8
				c-0.5-13.2,1.6-29.1,11.4-39c5-5,11.4-9.4,17.8-12.6c4.2-2.1,12.8-6.8,17.8-4.8c11.3,4.5-14.1,22-17.5,24.8
				c-10.6,9-16.8,17.7-16.6,32c0.3,14,13.7,20.6,24.9,25.2c5.9,2.4,12.8,4.3,19.3,4.1c7.3-0.2,12.4-4.5,19.1-6.9
				c13.2-4.9,26.8-8.2,40.4-11.4c13.4-3.3,28-2.5,41.8-4.7c12.9-2,25-4.5,37.2-9.1c12.6-4.8,22.4-19.3,36.2-20.9
				c8.6-0.9,4.4,5.1,0.7,8.2c-4.5,3.7-9.2,7-13.7,10.7c-11.3,9.5-23.1,15.1-37.4,18.7c-10.4,2.6-21.6,5.1-32.6,6.7
				c-14,2-27.9,1.4-41.6,4.9c-8.1,2.1-16,4.8-23.6,8.3c-3.2,1.4-9.6,3.7-10.1,6.2c-0.7,3.3,1.9,3.2-1.3,6.2
				c-5.3,5.1-12.2,8.6-17.6,14c-6,5.9-11.6,11.5-16.5,18.4c-4.8,6.8-8.6,13.4-15.7,18.1c-2.3,1.6-6.3,4.3-9,5
				c-2.5,0.7-3.6-0.4-5.7,1c-5.6,3.6-2.2,15.1-3.7,20.6c-1.9,7.3-6.8,12.6-9.8,19.3c4.2-0.9,7.2-7.9,9.4-11.3
				c2.4-3.7,5.5-6.2,8.6-9.4c6.5-6.7,8.3-15.9,16-22.2c14-11.4,35.9-10.5,47.5-25.9c1.9-2.5,3.7-9.7,6-11.3c4.2-2.9,3.8,5.7,3.3,8.3
				c-1.5,8.6-6.8,19-13.9,24.5c-3.2,2.5-7.6,3.6-10.3,6.9c-0.7,0.3-1.3,0.6-2,0.8c0.4,1.4,0.7,2.9,0.7,4.4c0.1,2.6-0.6,5.1-0.7,7.7
				c-0.3,6.6,1.2,12.2,2.5,18.5c0.9,4.5-1.6,13.9,0.5,17.5c4-13.4,8.6-28.8,16.2-40.7c1.8-2.8,5.3-5.1,6.7-8c0.7-0.7,1.3-1.5,2-2.2
				c-1.2-1.1-2.2-2.3-3.1-3.6c-4.6-9.5,5.4-3.6,9.4-2.8c6.3,1.3,14.3-1.4,20.9-1.6c6.4-0.2,12.7-0.4,19.1-1.4
				c6.8-1.1,13.9-2.7,20.5-4.5c6.7-1.8,12.8-5.5,19.3-7.1c-6.5-4.5-8.6-10.2-10.8-17.4c-1.5-4.7-6.7-16.3-3.4-21
				c3.5-5.2,4.8,2.8,6,5.7c2,4.8,4.9,13,8.6,16.6c2,2,4.7,1.8,6.3,4.3c1.3,2,1.5,4.6,1.7,6.8c0.6,6.5-2,11.7-4.3,17.7
				c-5.4,13.9-7.5,28.6-14.6,41.9C201.7,249.2,206,248.7,210.3,248.2"/>
			<path class="st2" d="M300.1,139c3.4-0.8,14.2-2,11.1-8.3C308,124.4,299.7,134.6,300.1,139 M402.3,89c-2-0.7-5.2-2-7.3-2
				c-2.5,0.2-4.5,2-7.1,2.3c-5.3,0.5-9.4-1.8-12.8,3.9C382.4,93.3,397.1,95.7,402.3,89 M263.6,220.7c7,0.9,10.5-29.9,10.9-33.9
				c-3.2-0.3-11.6,5.9-12.4,8.6c-0.8,3.2,2,8.1,2.3,11.3C264.9,211.6,264.3,215.9,263.6,220.7 M302.6,44.3
				c-8.5,0.8-17.9,3.5-25.6-1.1c-6.2-3.8-8.6-11.8-13.9-16.6c0,13.6,12.2,24.3,24.6,28.6c6.3,2.2,16-1.1,21.6,2.4
				c1.6,1,5.1,5.8,5.2,7.7c0.5,6.6-4.3,0.7-7,0.9c-3.7,0.3-8.9,10.1-12,13.1c-2.3,2.2-4.9,4.1-7.6,6c-0.8,0.7-5.3,2.9-5.6,4
				c-0.2,0.9,2.2,4.6,2.8,5.5c3.5,6.3,7.8,10.9,13.5,15.3c2.8,2.2,5.7,3.4,8.5,5.2c0.9,0.6,4.6,5.6,3.5,5.4c1.6-4.7,6-10.1,8.8-14.3
				c3-4.3,7-8.7,12-10.4c2.2-0.7,5.9-1.4,8.2-1.6c1.6-0.1,3.3,0.1,4.8,0.4c2.3,1,3.3,0.2,2.7-2.4c2.4-5,1-11.3,4.1-16.5
				c3.6-6,9.6-8.7,16.3-8.1c3.1,0.3,6.3,1.6,9.4,1.1c3-0.6,6.4-3,9.3-4c11.3-4,25.4-8.9,34.3-17.4c1.4-1.3,5.2-4.8,5.5-6.7
				c-0.8-1.8-1.6-3.5-2.4-5.4c-0.2-2.6-1.5-3.3-3.8-2.1c-2.8-0.1-8,3.1-10.8,4c-3.5,1.1-7.1,2.1-10.5,3.4c-6,2.2-11.8,4.6-18.1,6
				c-6.5,1.4-9.6,2.2-13-3.9c-3.3-6-2.9-9.6-10.7-8.6c-7,0.7-12.7,3.4-19.2,6.1c-4.3,1.9-9.8,5.2-14.1,6c-3.2,0.6-6.7-0.7-9.8-1.4
				C309.6,44.1,306.6,44.2,302.6,44.3 M383.3,79.3h3.5c-2.7-1.6-5.4-3.2-8.2-4.7c-3.8,6.1-13.4,3.4-19.2,7.2
				c-4.7,3-9.2,15.9-4.7,20.6c6.3,6.5,9.5-7.9,11.3-11.3C369.8,84.2,375.3,79.1,383.3,79.3 M272.3,93.1c-2.9-5.4-1-10.5,3.3-13.3
				c6-4.1,12.2-8.6,18.1-13.1c-10.1-1.6-17.4-4.9-25.7-11.2c-9.6-7.2-12.3-13.8-12-25.8c0.1-6-0.7-23.3,9-18.2
				c8.1,4.1,9.2,15.6,17.9,19.5c8.6,3.9,18.7-0.2,27.7,2.9c2.6,0.8,9.4,6.9,11.5,6.9c2.8,0,9.8-6.1,12.4-7.6
				c6.6-3.6,15.1-7.2,22.4-8.3c4.6-0.7,6.1-1.1,9.4,2.2c3.7,3.8,4.9,8.5,6.2,13.4c14.1-5.9,28.5-11.3,43-16
				c4.7-1.5,7.8-3.4,11.7-5.9c5.7-3.4,8.7-1.9,9.9,5.3c1.8,12.6-6,20.8-12.6,30.3c-3.7,5.2-6.2,8.9-12.3,11.6
				c-6.3,2.8-13.9,1.9-20.6,4c1.8,2.1,2.7,7.1,4.2,8.6c1.2,1.2,7.3,1,9.3,2c6,3.2,5.3,8.6,1.6,13.8c-4.3,6-10.5,7.1-17.4,7.5
				c-3.1,0.2-5.8,0.3-8.8,0.1c-2-0.2-8.9-2.3-10.4-1.7c-1.8,0.7-2.1,4.7-3,6.4c-1.3,2.9-2.7,5.7-5.8,7.1c-2.6,1.1-5.6,0.8-7.9-0.7
				c-3.2-2-2.3-4.6-4.3-7.3c-0.2-2.8-1.4-3.3-3.6-1.6c-1.7,0.6-3.3,1.2-5.1,1.8c-3.5,1.3-6.8,2.5-9.9,4.7c-5.9,4.1-9.5,11-16,13.9
				c4.3,7.3,1.6,17.3-5.6,21.1c-1.6,0.8-3.6,2-5.3,2.4c-1.3,0.4-4.7,0.1-5.5,0.8c-1.3,1-2,10.9-2.8,13.1
				c-3.1,7.5-9.5,11.3-13.3,18.1c-3.7,6.7-2.9,17-4,24.6c-1.3,9.3-2.2,19.1-6.1,27.7c-2.7,5.8-10.7,12.6-17.8,11.5
				c-10.4-1.7-5.9-15-2.7-20.6c4.9-8.8,4.9-15.5,3.6-25.3c-4.1,0.7-14.3,4.7-13.8-3.2c0.4-5.3,11.8-10.2,15.9-12.9
				c9.1-6,18.5-13.1,26.1-20.8c3.2-3.3,7.7-9.1,9.4-13.5c1.2-3.2,0.9-6.3,1.2-9.7c0.3-3.1,3-7.3,2.8-10c-0.2-4-10.7-10.4-13.8-14.6
				C278.7,107.1,275,99.9,272.3,93.1"/>
			<path class="st2" d="M483.1,106.6c3.3-0.5,15.6-3.8,17.8-0.7c3.9,5.9-7.5,7-10.4,7.4c-12.6,2.3-25.1,5.5-37.4,8.9
				c-24.5,7-49.4,15.6-72.2,27c-3.5,1.8-14,9-17.7,5.3c-4.7-4.7,6.6-10,9.1-11.4c11.3-6.5,23.3-12.4,35.5-17.1
				C431.9,116.7,457.3,109.3,483.1,106.6"/>
			<path class="st2" d="M177.3,416.1c18.2-2.7,37.9,1.3,55.6,6.8c5.7,1.8,11.5,3.8,16.7,6.7c2.8,1.6,9.4,4.3,11,7.3
				c2.6,4.8-0.3,6.9-4.6,6.1c-4-0.7-9-3.1-13.2-4.1c-19.3-4.8-38.4-8.5-57.9-10.4c-4.7-0.5-8.1,0.1-12.6,0.9
				c-3.3,0.7-12.3,4.3-14.8,2.1C148.5,423.6,172.9,416.5,177.3,416.1"/>
			<path class="st2" d="M460.4,453.3c1.2,6.9-2.2,7.5-8.2,10.8c-6,3.3-12,6-18.3,8.6c-6.8,2.9-14,5.8-21.1,7.9
				c-6,1.8-15.3,5.8-21.6,5.1c-2.5-0.3-4.2,0.1-4.2-3.1c0-3.3,3.2-3.2,5.8-3.9c8.1-2.3,15.8-5.8,23.7-8.5
				C431.6,465.3,446.5,460.9,460.4,453.3"/>
			<path class="st2" d="M8.9,115.7C4.3,107.9,4.4,97.7,5.7,89c0.5-3,7.5-24.6,11.8-20.1c2.5,2.7-6.1,19.7-7,23.6
				c-1.1,4.7-1.7,9.3-0.9,14.1C9.8,107.9,12.7,116.1,8.9,115.7"/>
			<path class="st2" d="M253.5,159.4c-3.4-4.7,1.1-15.2,2.5-20.1c0.8-3.1,3.4-14.6,7.6-12.1c4,2.4-0.5,13.2-1.3,16.2
				C261.3,147.8,259.5,159.3,253.5,159.4"/>
			<path class="st2" d="M632.7,408.4c0.7-1.5,1.3-3,1.9-4.5c1.6,1.2,3.8,1.8,2.2,3.6C635.8,408.8,634.1,408.8,632.7,408.4"/>
			<path class="st2" d="M575.1,116.9c-2.8,0.5-4.7,0.5-7.4,0.4C570.1,117.2,572.5,117,575.1,116.9"/>
			<path class="st2" d="M665.7,334.2c0-1.9,0-3.7,0-5.6C665.7,330.5,665.7,332.4,665.7,334.2"/>
			<path class="st2" d="M215.6,194.7c0-1.9,0-3.7,0-5.6C215.6,191,215.6,192.9,215.6,194.7"/>
			<path class="st2" d="M302.6,31.8c-1.9,0-3.7,0-5.6,0C298.8,30.9,300.7,31.3,302.6,31.8"/>
			<path class="st2" d="M315.1,604.9c0,1.2-0.1,2.5-0.1,3.7C315.1,607.4,315.1,606.2,315.1,604.9"/>
			<path class="st2" d="M80.3,158.9c0.9,0,1.9,0,2.8,0C82.1,158.9,81.2,158.9,80.3,158.9"/>
			<path class="st2" d="M605.3,487.7c0-1.2,0-2.5-0.1-3.7C605.3,485.3,605.3,486.5,605.3,487.7"/>
			<path class="st2" d="M652.6,244c0.1-1.2,0.1-2.5,0.2-3.7C652.7,241.6,652.7,242.8,652.6,244"/>
			<path class="st2" d="M568.2,56.1c-0.1,1.2-0.1,2.5-0.2,3.7C568.1,58.7,568.1,57.4,568.2,56.1"/>
			<path class="st2" d="M807.1,464.4c0-1.2,0-2.5,0-3.7C807.1,462,807.1,463.2,807.1,464.4"/>
			<path class="st2" d="M437,35.7c0-1.2-0.1-2.5-0.1-3.7C437,33.3,437,34.5,437,35.7"/>
			<path class="st2" d="M48.1,115.7c0.1-1.2,0.1-2.5,0.2-3.7C48.2,113.2,48.2,114.5,48.1,115.7"/>
			<path class="st2" d="M383.5,102.2c0.9,0,1.9,0,2.8,0C385.3,102.2,384.4,102.2,383.5,102.2"/>
			<path class="st2" d="M696.5,39.4c-0.1-1.2-0.1-2.5-0.2-3.7C696.4,37,696.4,38.2,696.5,39.4"/>
			<path class="st2" d="M83.5,231.9c0,1.2,0,2.5,0,3.7C83.5,234.4,83.5,233.2,83.5,231.9"/>
			<path class="st2" d="M812.8,447.7c-0.1-1.2-0.2-2.5-0.2-3.7C812.7,445.3,812.7,446.5,812.8,447.7"/>
			<path class="st2" d="M350,438c0.9,0,1.9-0.1,2.8-0.1C351.9,437.9,350.9,437.9,350,438"/>
			<path class="st2" d="M652.8,269.1c-0.1-1.2-0.2-2.5-0.2-3.7C652.7,266.7,652.7,267.9,652.8,269.1"/>
			<path class="st2" d="M206.8,415.6c-1.2,0-2.5,0-3.7,0C204.3,415.6,205.6,415.6,206.8,415.6"/>
			<path class="st2" d="M177,415.4c-1.2,0.1-2.5,0.3-3.7,0.4C174.5,415.7,175.8,415.6,177,415.4"/>
			<path class="st2" d="M651.8,260.8c0-0.9-0.1-1.9-0.1-2.8C651.8,258.9,651.8,259.8,651.8,260.8"/>
			<path class="st2" d="M693.7,79.4c-0.1-0.9-0.1-1.9-0.2-2.8C693.6,77.5,693.6,78.5,693.7,79.4"/>
			<path class="st2" d="M409.1,87.8c0-0.9,0-1.9,0-2.8C409.1,85.9,409.1,86.8,409.1,87.8"/>
			<path class="st2" d="M279.6,343.7c0.5,0,1,0.1,1.6,0.1C280.1,344.8,278.7,343.8,279.6,343.7"/>
			<path class="st2" d="M336,437c0.7,0,1.2,0,1.9,0C337.3,437,336.7,437,336,437"/>
			<path class="st2" d="M811.8,440.2c-0.1-0.9-0.1-1.9-0.2-2.8C811.8,438.4,811.8,439.3,811.8,440.2"/>
			<path class="st2" d="M86.4,257c-0.1,0.9-0.2,1.9-0.3,2.8C86.3,258.9,86.3,258,86.4,257"/>
			<path class="st2" d="M512.7,137.3c-1.1,0.8-2.4,0.4-3.7,0.4C510.2,137.5,511.5,137.4,512.7,137.3"/>
			<path class="st2" d="M806.2,476.5c0-0.9,0-1.9,0-2.8C806.2,474.7,806.2,475.6,806.2,476.5"/>
			<path class="st2" d="M595.9,510.9c0.1-0.9,0.2-1.9,0.2-2.8C596,509.1,596,510,595.9,510.9"/>
			<path class="st2" d="M70.1,158c0.7,0,1.2,0.1,1.9,0.1C71.3,158,70.7,158,70.1,158"/>
			<path class="st2" d="M483,106.7c-1.2,0.1-2.5,0.2-3.7,0.3C480.5,106.9,481.8,106.8,483,106.7"/>
			<path class="st2" d="M393.3,600.2c-0.1,0.9-0.2,1.9-0.3,2.8C393.2,602.1,393.2,601.1,393.3,600.2"/>
			<path class="st2" d="M210.5,248.1c-1.2,0.1-2.5,0.2-3.7,0.3C208,248.3,209.3,248.2,210.5,248.1"/>
			<path class="st2" d="M366.7,563.7c2.5-0.1,4.9-0.2,7.4-0.3C371.7,563.5,369.2,563.6,366.7,563.7"/>
			<path class="st2" d="M593.1,476.5c0.1-1.6,0.1-3.1,0.2-4.7C593.2,473.4,593.2,475,593.1,476.5"/>
			<path class="st2" d="M643,56.8c1.6-0.1,3.1-0.2,4.7-0.4C646,56.6,644.5,56.7,643,56.8"/>
			<path class="st2" d="M200.3,372.7c1.6,0.1,3.1,0.2,4.7,0.3C203.3,372.9,201.8,372.8,200.3,372.7"/>
			<path class="st2" d="M310.5,337c-0.7-1.4-0.7-2.6,0.1-3.7C311,334.6,310.9,335.8,310.5,337"/>
			<path class="st2" d="M756,425.4c0,1.2,0,2.5,0,3.7C756,427.9,756,426.7,756,425.4"/>
			<path class="st2" d="M383,547.2c0-1.2,0-2.5,0-3.7C383,544.8,383,546,383,547.2"/>
			<path class="st2" d="M338.8,422.9c1.2,0.1,2.5,0.2,3.7,0.3C341.3,423.1,340,423,338.8,422.9"/>
			<path class="st2" d="M315.7,341.6c-0.2-1.5,0.1-2,0.8-1.7C316.6,341.4,316.4,341.9,315.7,341.6"/>
			<path class="st2" d="M361.6,278.4c0,0.9,0,1.9,0,2.8C361.6,280.3,361.6,279.4,361.6,278.4"/>
			<path class="st2" d="M788.5,455.1c0-0.9,0-1.9,0-2.8C788.5,453.3,788.5,454.2,788.5,455.1"/>
			<path class="st2" d="M655,56.6c1.2,0,2.5,0,3.7,0C657.6,56.6,656.3,56.6,655,56.6"/>
			<path class="st2" d="M624.4,170.3l3.7-0.3L624.4,170.3z"/>
			<path class="st2" d="M565.8,326.3c-0.7,0-1.2,0-1.9,0C564.6,326.3,565.1,326.3,565.8,326.3"/>
			<path class="st2" d="M587.5,503.5c0.1-0.9,0.1-1.9,0.2-2.8C587.6,501.6,587.6,502.6,587.5,503.5"/>
			<path class="st2" d="M443.9,517.9c-0.7,0-1.2,0.1-1.9,0.1C442.7,517.9,443.3,517.9,443.9,517.9"/>
			<path class="st2" d="M361.6,282.1c0,0.9,0,1.9,0,2.8C361.6,284,361.6,283.1,361.6,282.1"/>
			<path class="st2" d="M305.4,43.6c-0.9,0-1.9,0-2.8,0C303.5,43.6,304.4,43.6,305.4,43.6"/>
			<path class="st2" d="M309.8,117.5c1.3,0.8,1.5,1.8,0.6,2.8C308.9,120.2,308.7,119.3,309.8,117.5"/>
			<path class="st2" d="M379.8,78.9c1.2,0,2.5,0,3.7,0.1C382.3,78.9,381,78.9,379.8,78.9"/>
			<path class="st2" d="M353.2,94.3c0,0.9,0,1.9,0,2.8C353.2,96.1,353.2,95.2,353.2,94.3"/>
			<path class="st2" d="M330.5,95.9l3.7-0.4L330.5,95.9z"/>
			<path class="st2" d="M498.6,266.7c-9.1,1-20.7,0.1-28.9-4.3c-5.7-3.1-8.4-13.1-0.1-14.6c4.7-0.8,10.2,3.3,14.3,4.9
				c4.9,1.9,10,2.8,15.1,4.1c3.4,0.9,8.4,3.2,5.3,8.1C503.7,265.8,498.7,268.4,498.6,266.7"/>
			<path class="st2" d="M627.1,311.5c-0.9,5.9-1,12.3-3.8,17.7c-4.1,7.7-4.8-0.6-4.2-4.7c0.9-6.2,1.5-12.6,1-19
				c-0.4-5.2-3.9-11.3-1.3-15.9C625.7,294.1,625.8,304.2,627.1,311.5"/>
			<path class="st2" d="M627.4,129.6c-3.8-0.8-10.1-3.4-4.7-7c2.2-1.5,6.5-0.7,9-2.1c1.5-0.8,2.3-2.6,3.8-3.3
				c4.9-2.1,5.5,1.5,3.6,6.1C637.2,128.2,632.4,129.9,627.4,129.6"/>
			<path class="st2" d="M625.2,98.8c6.3-4.7,5.5,1.2,2.1,5.3c-1.2,1.4-2.5,2.8-3.7,4.2l1.1,1.3c-0.2,1.9,1.6,3.3-0.6,4.6
				c-3.6,2-6.3-2.8-6.3-5.5C617.8,104.3,622.3,101.5,625.2,98.8"/>
			<path class="st2" d="M624.4,99.2c-5.9,5.8-5.7-5.9-2.5-8.4C627.9,86,624,97.2,624.4,99.2"/>
			<path class="st2" d="M635.7,103.6c-0.5-2-0.5-11.8,3.6-11.2C643.8,93.2,638.9,103.9,635.7,103.6"/>
			<path class="st2" d="M628.1,130.1c0.7,0,1.2,0.1,1.9,0.1C629.3,130.1,628.7,130.1,628.1,130.1"/>
			<path class="st2" d="M344.7,57.1c-5-8.6,6.4-23.3,12.2-11.3c0.7,1.6,2.5,6,0.5,7.3c-2.3,1.4-1.8-0.7-3.6-0.9
				c-2.2-0.4-1.5-1.4-4.1-0.3C347.8,52.5,346,55.6,344.7,57.1"/>
		</g>
	</g>
	<circle class="st0" cx="712" cy="502.2" r="169.6"/>
</g>
<circle id="Oval" class="st3" cx="227.3" cy="552.9" r="71.7"/>
</svg>
