<svg id="Layer_1" data-name="Layer 1" xmlns="http://www.w3.org/2000/svg" viewBox="0 0 3317.35 1971.85"><defs><style>.cls-1{fill:#ff5678;}.cls-1,.cls-2,.cls-3,.cls-4{fill-rule:evenodd;}.cls-3{fill:#ffb42a;fill-opacity:0.5;}.cls-4{fill:#f96;}.cls-5{font-size:12px;font-family:MyriadPro-Regular, Myriad Pro;}</style></defs><title>Add-running</title><g id="composition-7"><path id="Accent" class="cls-1" d="M1427.09,970.82c15.23-59.25,29.58-119.8,52.18-176.74,14.15-35.64,29.13-71,44.15-106.22,2.08-4.9,3-9.62,7-12.06,5.41-3.25,16.6-3.18,22.71-4.3,86.71-15.92,174.32-28.06,262.22-34.89,100.31-7.8,198.11-4.23,297.37,12.12,84.88,14,168.93,33.27,252.06,55.34q18.33,4.86,36.6,10c5.68,1.59,15.1,2.4,20,5.71,10.58,7.08,14.16,36.1,18.13,48.39,5.31,16.47,8.4,39.11,18.63,53.12,15.24,20.87,38.44,39,57.33,56.31,65.92,60.53,138.19,115.74,223.34,145.67,131.72,46.29,270.62,75.31,407.07,104l9.53,2q-53,58.69-106,117.41l-59.74,66.19c-10.23,11.34-9.11,13.37-23.59,10.2-72.56-15.84-145-33.1-216.23-54.15-34.93-10.32-70.45-21-103-37.74-44.72-23-86.7-51.43-127.56-80.63-36.52-26.11-72.18-53.42-107.2-81.5-6.91-5.54-31.82-32.23-39.9-30.49-7,1.5-19,17.37-24.14,22q-20.24,18.33-40.68,36.45c-21.7,19.2-43.86,42.72-69.21,57.17-26.71,15.23-57.32,25.6-85.52,37.73q-23.58,10.14-47.21,20.22c-4.11,1.76-9.85,5.57-14.28,5.67-13.12.28-32.18-10.39-44.35-14.55q-46.9-16-93-34.22c-65.59-26-137.67-54.25-191.65-101-9.42-8.16-18.62-17.29-24.85-28.2-2.16-3.78-5.38-9-5.6-13.51-.35-7.12,3.65-8.51,9.6-13,30.7-23,63.81-43,96.37-63.15q11.48-7.11,23-14.13l-380.43,30.56-53.24,4.28" transform="translate(-245 -225.47)"/><path id="Ink" class="cls-2" d="M1993.57,246.08c40.19,1.84,81.4,3.71,121.24,9.37s76.78,20.06,112.67,37.53c64.72,31.49,130.87,69.77,172.5,130.35,19.47,28.32,35.34,58,62.21,80.28,6.28,5.21,13.13,11.48,21.47,13.07,6.63,1.27,12.48-1.42,19-1.74,12.39-.61,17.09,5.93,17.09,18.25,9.3-3.72,19.43-7.08,29.58-5.72,8.48,1.15,15.23,6.26,23.37,8.42,14.7,3.88,29.09-1.93,43.07-6.26,35.3-10.93,74.08-19.2,111.17-15.3,24.43,2.57,54,13.17,41.39,44.65-10.49,26.12-49.73,39.34-74.51,45.84-21.08,5.53-49.42.6-47.64,29.69,1.25,20.31,4.32,42.1,25.9,48.69,11.83,3.62,53.74,9,29.26,27.33-18.07,13.53-24.38,37.35-38.13,55.24-17.52,22.8-41.28,41.24-69,49.56-31.08,9.31-64,7.53-95.87,11.14,22.48,31,54.93,52.38,84.48,76,31.06,24.82,61,51.94,97,69.63,32.23,15.86,67,26.87,100.32,40.31,35,14.12,70.16,28.08,106.24,39.09,72.78,22.19,149.33,37.69,224.16,51.3,36.92,6.72,73.13,5.73,110.43,6.33,38.26.62,76.49,7.33,114.05,14.22,18.21,3.35,36.59,5.45,54.8,8.78,8.73,1.6,43.31,5.13,44.55,17.93,2,20.85-20.52,32.53-37,38.35-7.05,2.48-18.4,2.12-24.51,5.54-6.6,3.69-4,9.13-4.78,16.28-1.1,10.4-6.66,17.88-15.18,23.64-7,4.75-15.46,4.56-10.63,13.55,2.23,4.14,7.8,6.75,10.38,11.12a26.13,26.13,0,0,1,3.69,16.19c-1,10-7.68,17.7-16.93,21.25-14.78,5.68-32.13,1.66-47.28-.18-25.34-3.08-51.05-3.39-76.05-8.94-26.07-5.78-51.43-14.69-77.53-20.61-13.38-3-26.79-5.58-39.87-9.79-8.51-2.74-20.81-9.85-29.87-7.63-8.49,2.09-15.12,12.34-20.67,18.3-7.66,8.21-15.08,16.64-22.86,24.74-5.16,5.36-10.45,10.61-16.08,15.48-1.83,1.58-13.14,8.5-13.3,10.35-.44,5.25,11.91,5.16,14.55,7.24,15.36,12.15-7.72,19.84-17.68,19.23-23-1.4-46-4.22-68.78-7.59-54.14-8-108.13-16.72-159.9-34.86-51.21-18-101.17-37-148.54-63.79-45.46-25.68-89.43-54.7-132.37-84.37-20.84-14.4-41.82-29.32-59.41-47.66-17.21-17.94-31.23-38.54-45.5-58.81-34.17,33-67.06,67.74-103.76,98-34.92,28.79-76.9,44.17-117.51,62.87,1.32,8.5,41,13.59,48.26,15.8,33.11,10.08,64.89,26.25,97.09,38.94,53.58,21.1,104.42,48.56,122.26,107.17,17.54,57.63-2.81,115.63-27.62,167.69-29.29,61.45-64.08,118.37-106.14,171.94-17.89,22.79-37.16,43.77-56.79,65-16.75,18.11-31.11,39.56-24.09,65.3,13.48-4.21,16,6.31,7.13,15.22-7.83,7.91-21.37,9.45-31.83,10.76-31.71,4-64.46,2.57-96.21-.38-57.8-5.39-115.73-20-168-45.1-26-12.49-35.46,7.65-53.36,23.26-14.09,12.27-33.49,20.23-44.2,36.11-8.8,13.07-3,33.72,15.24,28.82,14.23-3.81,25.67-19.7,40.75-20.31,26.76-1.09-23.73,37.11-30.19,41.77,12.79,11.44,27.29-4.25,40.18-6.87,12.37-2.51,15.83,3.9,9.23,14.21-5.13,8-21.28,13.74-10.54,23.52,8.89,8.1,28.62,12.37,39.54,15.92a608.3,608.3,0,0,0,103.45,24c11.45,1.64,29.82.59,39.11,8.72,12.25,10.71,6.34,28.47.14,40.75-23.49,46.5-72.32,69.36-122.47,72.71-30.89,2.05-62.07.06-93,1.73-34,1.83-68,4.54-102,3.42-54.71-1.8-89.52-41.37-116.79-84.87-17.33-27.64-33.3-56.08-48.3-85-5.86-11.32-18.14-23-20.22-35.76-1.89-11.44,5.41-20.62,12.51-28.72,18.66-21.31,41.11-37.57,63-55.18,12.53-10,17.34-18.38,22.92-33,4.7-12.32,13.72-17.59,21.67-27.41,8.75-10.82,6-12.73-.82-21.56-7.13-9.26-4.33-22.89-1.33-33.36,4.29-15,13.51-18.32,27.28-23.16,12.56-4.41,23.2-12.16,34.33-19.34,55-35.47,106.8-75.61,162.46-110.09,54.92-34,112.32-64.08,164.74-102-42.57-5.73-80.09-28.72-120.24-42.33-20.61-7-41-14.45-61-23.2-7.62-3.34-16.49-6.3-23.28-11.22s-12.07-11.42-19.22-16.09c-17-11.08-37.16-17.39-55.41-26-19.71-9.33-39.17-19.53-57.49-31.4-17.1-11.08-33.52-23.75-47.74-38.39-11.33-11.66-22.35-26.86-38.39-32.21,1.69,22.34,29.36,40.84,44.52,54.29,24.61,21.82,50.19,40.37,77.69,58.39-30.85,26.44-68.45,43.66-104.58,61.52-40.62,20.08-80.1,42.34-120.56,62.73-34.27,17.28-70.33,30.59-105.17,46.64-37.58,17.32-76.26,31.84-115.48,45-35.48,11.93-68.89,24.64-102.38,41.37-32.55,16.28-67.38,28.72-102.2,39.16-39.13,11.73-76.46,22.89-114.09,39-33.93,14.5-68,23.77-103.91,31.65-11.86,2.61-27.09,7.38-35.4-4.1-6.3-8.71-7.25-22.14-9.05-32.38-6.93-39.18-7.47-79-13.7-118.24-23.64,7.13-46,15.91-71,17-15.67.71-25.2,2.33-29.11,19.45,9.07,1,41.48,1.47,42.35,14.32.79,11.59-18.81,11.71-25.76,12-12.45.57-23.72-1.48-30.36,10.71,9.78,3.61,31.47-3,35.8,10.19,5.59,17-19.76,16.94-28.88,18.3-15.92,2.39-14.28,14.89-13.19,28.25,1.43,17.59,2.52,35.19,4.89,52.69,5.07,37.38,13.76,74.19,17.87,111.71,3.56,32.44,5.55,63.6-17.62,89.45-9.32,10.39-22.28,22.36-36.92,23.59-14.87,1.26-14.59-9.16-23.85-16.82-5.67-4.7-13.18-5.66-19.85-8.19a140.58,140.58,0,0,1-58-44.42c-37.2-50.29-50.5-125.41-54.19-186.38-2.34-38.76,0-77.59,3.55-116.2,1.92-20.8,3.85-41.61,6.36-62.35.78-6.42,2.08-12.86,2.57-19.3.27-3.69-1.5-11.15.38-14.68-2.41,4.51-6.67,1.17-10.9-2.38-8.73-7.34-6-21.42-1.37-31.07,14.07-29.07,56.24-30.2,83.68-32.46,73.74-6.07,143.8-25.85,214.39-47-10-14.93,5.71-24.78,17.86-29.91,18.73-7.91,38.07-14.86,57-22.41,42.7-17.06,84.51-33,129.22-43.85,40.5-9.86,79.68-26.22,119.64-38.22,41.28-12.4,81.82-26.56,122.43-41,80.42-28.59,160.92-57.81,239-92.49,19.73-8.77,38.58-18.94,57.62-29.08,15.47-8.24,33.62-14.28,46.73-26.18,12.52-11.36,20-27.17,33.63-37.49,12.25-9.29,29-9.42,39.17-21C1714,1002,1730.4,995.15,1749,986c6-2.94,45.4-17.79,44.6-26.22-28.17,0-57.09,8.38-85,12.29-29.46,4.12-58.9,8.72-88.58,11a777.24,777.24,0,0,1-144.06-2.52c-7.16-.78-35.87-6.67-40.82,1-3.77,5.85,5.61,12.82,5.7,19.1.14,9.23-7.29,14.18-15.71,11-16.39-6.23-14-32.65-12.46-46.06,2.93-25.65,9.45-51.06,15.14-76.18-33.81,17.21-65.91,39.32-95,63.61-22.55,18.81-42.92,44.33-69.38,57.74-25.41,12.88-40.52,1.89-39.48-26.47a119,119,0,0,1,7.61-37.43c2.12-5.71,10.85-21.9,6.76-28-23.22,18.53-46.29,37.1-70.67,54.11-17.24,12-42.22,30.77-64.72,26-19.87-4.21-17.93-26.09-11.63-40.83,5.46-12.78,15.28-24.14,25-33.9,8.05-8.07,19.49-15.3,23.51-26.49-26.69,12-54.17,21.08-82.13,29.51-19.88,6-33.78,30.9-56.9,27.22s-13.93-32.29-4.69-44.74c6.46-8.7,15.41-16.37,24.08-22.8,8.46-6.28,21.33-11.74,25.49-22.19-27,5.08-54.22,13.91-82.05,12.28-16.52-1-44.1-8.18-40.84-30.4,3.3-22.5,33.25-24.23,50.09-28.42,23-5.73,44.94-16.47,67.1-24.67,44.69-16.53,90.26-29.79,136-43l14.45-4.16c51.62-14.89,103.53-27.56,155.79-39.93,25.83-6.11,51.57-12.78,77.61-18,25.18-5,50.77-8,75.77-14-21.07-31.8,4.44-57.94,32-73.08-17.47-3.53-35.24-5.66-52.56-9.94-14.79-3.66-29-9.28-43.94-12.52-25.61-5.56-51.18-8.48-73-24.35-41.31-30-44.82-77.67-10-113.77,35.13-36.43,86.69-53.49,136.3-55.19,55.54-1.89,118.73,8.88,170.69,28.55,25.53,9.66,52.11,21.95,74,38.4,14.89,11.2,38.43,32.65,58.41,32.65-23.93-29-53.3-58.89-57.62-98.1-4.09-37.12,12.74-76.58,41-100.59C1831.26,238.58,1924.38,242.92,1993.57,246.08Zm-321.73,1591c-14.73,22.92-35.11,41.53-54.34,60.55-6.63,6.56-20,14.9-20.59,25.18-.52,8.39,9.77,17.83,14.26,24.42,23.76,34.87,43.33,73.38,72.35,104.35,32.81,35,70.25,41.8,116.7,41.9,51.58.11,103.85,6.57,155.33,3.84,43.62-2.3,86.61-21.73,108.3-61.23-14.13-7.28-34.23-3.81-49.55-3.64-20.88.22-41.26-.16-61.89-3.79a265.81,265.81,0,0,1-54.76-15.45,179.4,179.4,0,0,1-26.47-13.19c-6.14-3.79-10.75-9.6-16.78-13.33-22.23-13.73-47.9,29.93-71.66,29.09-14.55-.51-9.28-14.83-3.22-22.84,10.93-14.46,30-23.39,44.39-33.94-13.4-12.34-28.55.6-41.31,7-15.95,8.07-32.53,18-50.36,21,1.34-23,32.59-35.3,49.83-44.65,7.67-4.16,17.29-8,19.18-17.17,1.42-6.88-1-16.67-1.73-23.61-.92-8.84-1.59-11.66-11-14.15-11.4-3-22.88-2.15-34.31-5.92C1723,1871.22,1698.63,1855.89,1671.84,1837.09Zm-1016-362.2c-7.63,2.12-15.35,3.95-23.1,5.59-15.35,3.24-30.72,6.6-46.12,9.54-7.72,1.48-16.3.54-18.57,7.92-1.17,3.78,1.77,10.57,2.27,14.5a186.33,186.33,0,0,1,1.06,21.4c.8,65.71-12.93,131.05-6.89,196.76,5.11,55.54,17.06,125.76,57.84,167.12,17.6,17.86,39.26,37.24,61.42,49.44,17.37,9.56,41.64-14.43,45.19-31.05,2.54-11.9-1.7-24.46-4.46-35.94-3.54-14.71-7.12-29.41-10.63-44.12-7.48-31.4-14.29-63.1-16.44-95.39a250.8,250.8,0,0,1,0-31.38c.33-5.74,3-19.56-1-24.47-5.19-6.35-17-2.2-24-1.66a67.94,67.94,0,0,1-22.72-1.82c-17.89-4.68-21-18.91-1.49-25.5,13.64-4.6,38.56,2.07,50-6.78,13.46-10.41-13.74-11.83-20.1-12.1-8.46-.36-36.52,1.85-35.08-13.92,1-11.7,25.21-12.48,33.66-13,18.06-1.06,40.9,5.7,48.71-16.08,3.13-8.72-15.71-13.15-20.43-17.48-11.49-10.51-15.25-28.54-16.24-43.31-1-14.53,13.32-64.88-8.45-66.21C673.56,1466.57,662.45,1473,655.79,1474.89Zm1070.93,290.58c-12.82,15.27-23.9,32-35.83,47.94,28,15.45,56.63,27.88,85.57,41.17,13.16,6,22.39,10.83,35.13,1.67,9.14-6.57,16-15.91,24.91-22.75,12.82-9.81,26.21-18.82,39.36-28.17-38.78-14.16-78.14-26.58-116.91-40.76C1744.46,1759.27,1737.18,1753,1726.72,1765.47ZM1407.45,1717c8.3,8.41-7.67,31.71-10.81,39.68a620.21,620.21,0,0,0,76.45-11.31c8.6-1.78,5.43,8.69,2.21,12.15-4,4.27-11.93,5.56-17.25,7.09-19.57,5.61-39.64,8.31-59.72,11.3,9.19,11.32,31.3,29,24.18,46-12.84-11.07-22.08-25.8-36.28-35.37-4.11,6.12-12.62,27.73-22,26.41-14.65-2.08.19-27.33,3.25-33.41-9.86,0-46.93,8.66-52.1-3.49-5.3-12.43,30.48-12,37.09-15l-1.23-1.51-1.24-1.49c-5-6-9.7-11.84-10.37-20,11.07,3.81,18.45,21.15,30.61,21.4,11.53.24,16.67-17.08,20.78-25.29C1393.4,1729.51,1401.33,1710.77,1407.45,1717Zm1247.38-163.44c24.78,20.92,8,63.1-10.81,82.06-21,21.25-67.79,40.76-94.43,19.11-14.58-11.86-9.32-29.94-5.72-45.71,4-17.52,6.47-32.29,21-44.31C2587.41,1546,2629.68,1532.34,2654.83,1553.55Zm-50.32,12.16c-24.18,5.14-48.68,29.31-54.43,54.22-7.54,32.66,26.36,35,48.69,30.14,28.09-6.17,57.94-26.78,59.37-59.1C2659.37,1563.07,2623.3,1561.71,2604.51,1565.71ZM844.9,1424.49c-36.21,13.48-70.25,31.93-108.24,39.93-11.6,2.44-16.36,5.11-19.22,15.91-4,15.12-7.83,30.45-5,46.25,5.95,32.81,51.59,28.79,76.93,27.5,13-.66,38,1.72,49.32-6.4,8.24-5.93,4.78-17.06,3.5-25.71C837.42,1489.6,842.67,1456.84,844.9,1424.49Zm1974.27-312.61c-13.33,2.51-36.38,13.38-17.27,27,12.75,9.09,31.73,10.19,46.71,12.44,29.27,4.38,60.51,8.17,85.9,24.69,47.06,30.59,41.29,88.34,27.22,135.6,10.14,6,39.91-33.08,45.52-39.43q34.13-38.64,68.54-77c9.82-10.94-70.67-48.76-77.9-52.16-38.23-18-73.92-29.84-116.8-32.93C2860.75,1108.6,2839.3,1108.08,2819.17,1111.88Zm-166-95.78c-3.66,9.21,2.74,13.39,8.62,19.75,32.88,35.58,56,85.94,74.33,130.11,9.13,22,15.53,44.23,21.18,67.31,5.54,22.64,23.16,28.69,44.26,35.11,48.62,14.81,99.8,19.77,148.59,34.39,13.07,3.92,15.63-24.83,16.45-32.12,2.34-20.75.17-42.4-10.73-60.68-20.6-34.57-61.89-41.92-98.73-47.81-21.06-3.36-48.82-6.84-65.49-21.24-8.36-7.24-9.55-15.53-3-24.52,11.89-16.38,32.84-18.49,51.56-19.82,9.12-.65,65.56,5.05,67.41-1.63-28.11-9.16-57-15.2-84.65-25.68-21.6-8.17-43.38-15.89-65.18-23.55l-21.8-7.64c-22.17-7.78-42.47-17.24-63.74-26.6C2664.25,1008,2656.92,1006.66,2653.18,1016.1ZM3129.92,1166c-7,9.47-14,17.42-19.3,28.06-6.15,12.41-16.37,20.33-24.91,31,44.35,7.83,86.65,17.77,129.37,32.11,21.94,7.36,44.6,11,67,16.28,18.82,4.42,38.88,11.28,58.37,7.22-22.2-30.6-81.41-22.14-97-59.2-10.61-25.22,15.46-45.33,36.77-49.7,37.23-7.65,76.92-8.23,114.73-11,.4-14.47-136.86-22-150.44-23.14-24.09-2.08-49.24-6.6-73.3-7.44C3148.94,1129.45,3141.64,1150.24,3129.92,1166Zm-523.78-105.85c-13.22,12.78-26.16,25.84-39.37,38.65-8.69,8.41-20.45,17.38-27.3,27.4-8.73,12.81,6.57,19,16.77,25,25.75,15.3,52.36,29.58,78.56,44.13,23.53,13.07,48,29.71,74,37.36,13.9,4.09,26.95,10.44,40.35,15.8-6.47-58-39.78-110.76-70.51-159.15-7.05-11.11-14.34-22.07-21.39-33.18-3.56-5.59-10.15-18.79-17.6-19.93C2628.62,1034.57,2612.82,1053.7,2606.14,1060.16Zm673.64,147.73c16.1,9.23,32.25,13.92,50.41,6.95q6.7-2.74,13.26-5.79C3331.35,1192.54,3295.55,1202.6,3279.78,1207.89Zm-1333.86-202c-28.55,12.87-59.09,25.7-83.91,45.12-9.17,7.18-29.65,22.24-24.86,35.9,4.1,11.7,26.78,21.67,37.54,25.23,56.63,18.75,121.08,5.11,173.23,39.53,14.11,9.31,18.71,21.48,29.19,33.73,9.49,11.08,21.48,9.7,34.22,5.1,16.73-6,32.15-15.27,49-21.2,8.58-3,23.18-5,24.07-16.63,4.2-54.65-7.45-124.27-55.61-157.71C2074.69,957.42,2000.12,981.44,1945.92,1005.89Zm-30.62,127.35c-1.38,6.93,52.2,19.47,58,21.08,32.35,8.91,62.58,30.11,96.09,33.53,5.83-13-40.59-33.7-47.93-36.37C1988,1139.3,1950.49,1137.1,1915.3,1133.24ZM2967.46,1109c40.62,16.65,80,37,114,65.39,11.74,9.78,40.28-36.62,46.66-43.74C3074.06,1128.37,3020.74,1118.05,2967.46,1109ZM2208.24,782.54c-37.65,24.89-70.45,57.43-111.79,76.51,12.93,2,27.06-6.34,39.41-9.28,12-2.86,24.2-4.75,35.91-8.8,7.2-2.49,36.91-18.55,42.48-7.66,8.72,17-52.65,28.78-61.37,31.68q-44.19,14.68-87.9,30.71c-28.24,10.33-56.47,21.44-85.66,28.86-29.64,7.53-61.08,9.47-89.58,21.17-25.2,10.34-46.86,27.46-71.17,39.54s-52.09,19.61-73.1,37.63a300.75,300.75,0,0,0,79.44,60.38c4.73-37.2,48.32-58.39,78.14-72.69,65-31.17,162.65-78.18,228.91-25.35,48.43,38.61,55,111.88,55,169.23,13.12-4.17,25.1-10.82,37.28-17.1,8.44-4.34,8.54-16.45,9.6-24.53,1.73-13.25,5.31-26.07,9.42-38.77,9.1-28.1,20.48-55.51,31.32-83,17.56-44.41,39.19-88.2,50-134.91,7-30.49,15.42-82.89-21.32-98C2271.44,745.08,2234.05,765.49,2208.24,782.54ZM2043.79,658.45c-6.14,4.12-3.85,16.47-3.43,22.67,1.52,22.53.57,45.16,1.32,67.73.92,27.5,1.12,77.94,29.47,93.36,19.39,10.55,43.51-5.26,59-16,26.18-18.2,50.2-39.34,76.75-57.11,31.46-21.07,91.09-50.21,121.2-10.58,16.3,21.45,14,53.41,10,78.37-5.37,32.92-17.9,64.15-30.36,94.92-25.72,63.55-52.57,128.12-66.88,195.38,32.62-19.39,58-47.34,86.45-71.9,21.1-18.2,52.44-39.1,57.31-68.76,1.1-6.7,7.58-11.47,12-16a69.66,69.66,0,0,0,13.57-19.18c8.11-16.44,13.38-34.19,16.71-52.17,7-37.73,3.65-75.29-2.78-112.79-2.91-17,1.36-35.17-2.6-51.7-2.74-11.48-10.84-10.8-21.61-13.41-38.8-9.41-77.67-18.52-116.49-27.84-15.77-3.79-32.92-10.89-49.29-10.65-13.44.19-24.72,8.21-36.32,14-19,9.54-49.31,26.21-71.18,16.73-25.47-11,4.22-36-8.56-47.78-8.76-8.09-34.94-3.24-46.82-5.25C2064.71,659.43,2049.76,654.45,2043.79,658.45Zm400.93,325.83c-18.53,2.92-29.26,11-39.46,26.74-10.37,16-11.61,24,3.18,36.53,15.95,13.53,32.63,26.89,49.56,39.08,21.46,15.45,45.27,27.14,66.48,43,9.28,6.93,51.44-47.4,58.76-54.85,10.09-10.27,20.45-20.58,31.27-30,4-3.46,16.36-11.48,16.37-17.35,0-14.87-32.93-28.16-43.53-32.26-23.75-9.16-48.65-12.86-73.95-13.24C2491,981.51,2466.94,980.78,2444.72,984.28Zm82.57-65.37c-17.4,9.24-35.57,17-53.07,26.07-6.21,3.21-45.37,19.67-43.4,29.5,44.07-2.79,87.95-10.25,131.87-1.72,19.73,3.84,38.53,10.27,55,22.12,12.49,9,22,26.23,34.4,10.88-25.3-14.35-48.1-33.37-70.54-51.84-9.82-8.08-19.93-15.68-29.9-23.55C2545.73,925.7,2536,914.31,2527.29,918.91ZM1484.94,704.07c-13.79,1.93-27.22,5.59-40.76,8.73-54.85,12.7-109.9,24.11-164.6,37.56C1170.47,777.19,1058.1,803.05,954.06,846c8.75,9.67,31.92,2.66,42.78.77,21.25-3.72,41.87-10.21,62.87-15.11,20.53-4.79,41.14-10.5,61.85-14.49,9.54-1.84,26.36-4.26,26.74,10,.55,20.28-38.83,35.44-53.29,42.85-15.45,7.93-30.41,16.69-45.13,25.9-11.63,7.29-33.08,17-36.85,31.48,37.75-16,75.51-31.93,113-48.46,14.13-6.23,28.45-12.1,41.9-19.7,9-5.07,20.51-14,31.13-14.76,14.38-1.09,16.76,12,10.71,22.52-7.59,13.19-23.23,20.63-34.74,29.87-14.67,11.77-27.66,25.66-40.87,39-11,11.06-25.08,22-30.81,36.91,19.72,6.59,42.11-14.55,56.6-25,22.76-16.42,44-34.29,65.68-52,11.11-9.08,24.36-23.78,39-26.49,18.53-3.44,17,17.76,12.5,29.44-10,26.12-33.56,47.89-35.24,77.33-1,18.13,14.31,11.22,24.55,4,17.24-12.25,28.91-30.91,44.56-44.95,37.67-33.82,80.81-62.67,127.42-82.7,8.34-3.59,11.34-16.46,13.88-24.2,3.78-11.54,8.13-22.74,12.68-34,10-24.72,18.14-51.44,32.11-74.27,3.89-6.37,13.94-12.86,5.63-16.61C1498.2,701.25,1489.6,703.41,1484.94,704.07Zm397.89-41.82c-14.12,1.65-28.41,1.5-42.56,3-23.08,2.43-13,30.53-16.73,47.46-11,49.83-63.75,59.25-103.76,35.73-22.51-13.23-36-32.19-48.13-54.37-6.9-12.64-12-14.68-26.31-11.51-9.8,2.17-18.72,1.71-28.68,2.43-12.55.91-13.64,3.57-13.9,15.51-.22,10.61-1.75,18-8.8,26.55-13.45,16.36-36,27.13-55.22,35.36s-41,14.36-51.62,33.83c-5.33,9.82-11,21.54-12.58,32.7-1.69,12.2,2.45,19.76-4.66,31-14.78,23.38-21.55,48.94-29,75.51-2.43,8.66-3.4,12.22,6.05,14.6,13.55,3.42,32.8-1.77,46.71-2.31,9.92-.39,15.72-17.9,18.94-25,6.27-13.79,14-26.84,21.66-39.89,17.45-29.57,36.11-58.94,58.9-84.77,17.2-19.5,42.6-43.77,64.62-16.37,21.47,26.7,36.94,58,62.76,81.24,22.71,20.48,46.11,20.8,69.66,1.4,23.18-19.1,40.81-45.16,55.22-71.16,15.58-28.11,27.33-58.13,42.52-86.41,4.76-8.87,26.75-32.85,20-43.12C1903.43,656.73,1889.18,661.51,1882.83,662.25Zm118.24-6.13c-12.43.58-24.93-.81-37.36-1.06-22.5-.45-41.31.34-52.6,21.9-10,19-18.47,39.28-27.57,58.77-19.76,42.33-39.16,85.64-69.5,121.67-26.89,31.91-61.63,48-96.6,17.5-15.51-13.52-27.29-31-38.42-48.1-8.92-13.74-19.1-37.93-34-45.94-16.67-8.93-35.75,11.56-45.93,22.68-17.13,18.69-31.45,40.67-45.2,61.89-10,15.4-19.51,31.12-29.21,46.69-3.92,6.32-19.93,27-14.6,34.84s31.41,2.5,39,1.78c18-1.72,36-2.34,54-3.89,56-4.83,111.26-17.14,167.45-20.43,37-2.17,73.48-9.33,109.91-15.83,35.43-6.32,71.09-10.64,106.13-19,20.61-4.92,41.25-9.84,61.82-14.93,7.12-1.77,40.75-6.57,42.84-15.83-23.16-4-35.32-13-43.53-35.64-10.29-28.31-11.48-59.86-12.36-89.7-.34-11.47-.39-23-.4-34.43V685.29c0-8.23,3.55-23.17-3.87-28.88C2024.12,651.12,2009,655.74,2001.07,656.12ZM2460.86,839c1,37.31-5.69,74.91-21,109,16,2.57,35.08-17.55,48.52-24.28,5.18-2.6,39.46-15.06,28-24.59C2495.23,881.55,2481.39,857.07,2460.86,839Zm459.48,30.34c4.7,9.28-1.1,21.05-4.25,29.85,24.45,5.88,48.8,11.65,73.44,16.64,18.56,3.76,12.09,14.9-4,14.14-22.41-1.07-43.26-10.57-65.57-11.8-21.24-1.18-23.74,17.38-41.86,21,.62-10.21,8.88-17.3,14.8-25-9.77-5-19.76-9.68-29.24-15.21-4.91-2.86-18.48-14.87-13.25-21.25s19.1,5.63,24,8.29c7,3.78,21,12.1,29.19,9.72C2914.86,892.38,2912.52,876.19,2920.34,869.29ZM2568.05,626.21c-9.92.69-20.71-2.65-30.1,1.72s-20.55,13.89-28.38,20.5c-7.59,6.4-11.36,14.18-20.79,18s-19.07,3.45-22.7,15c8.55,2.34,25.32-.77,32,5.52,9.74,9.14-7.25,19.21-14.29,22.08-10.11,4.13-18.38,2.79-28.71,2-4.49-.34-4.45-1.72-8.14.51-13.65,8.26-4.2,37.64.23,48.36,21.67,52.47,95.74,34.8,138.46,29.43-13.59-13.7-35.85-28.82-37-50.33-.33-6.41,1.26-17.86,9.48-18.4,6.57-.42,14.46,9.52,18.56,13.43,12.13,11.61,27.83,30.86,45.39,32.52,23.46,2.23,41.51-35.79,51.24-52.37-12-2.25-25.06-2.12-32-13.86-8.27-14-8.41-35.32-8.27-51,.13-13.38,4.39-28-13.48-28.66C2603.11,620,2584.67,625.06,2568.05,626.21ZM992.59,660.52c-3.42,7.45-18.27,10.38-24.79,12.37-24.81,7.58-49,17.21-73.22,26.66-48.82,19.07-97.12,40.13-141.7,68.15-8.33,5.24-4.25-4.87-2.09-8.51,4.86-8.17,15.05-14,22.66-19,20.61-13.55,42.43-23.06,65.21-32.13,45.59-18.13,91.87-37.35,138.62-52C982.7,654.36,997.18,650.49,992.59,660.52Zm566.27,36.94c-9.07.94-19.68-1.13-28.4,1.83-11.36,3.86-9.49,11.66-12.85,21.25-5.7,16.29-11.8,32.44-17.75,48.63,22-1,43.12-18.47,61.78-28.51,10.57-5.68,47.3-24.54,36.22-41.81C1590.85,687.92,1568.92,696.41,1558.86,697.46Zm250.64-28.39c-13.63-.25-28.63,3.88-42.43,4.57-18.51.92-36.73,4.44-55.21,5.29-12.16.56-24.1,3.06-36.13,4.7,12,27.74,35.33,52,64.68,62.06,23.16,7.92,55.57,9.27,71.39-12.67C1820.9,720.41,1835.77,669.54,1809.5,669.07Zm710.12-114.59c-14.87,9.88-26.78,24-39.21,36.68-31.11,31.65-63.31,65.53-76.78,108.91-1.85,5.94,12.18,11.19,16,11.42,8,.49,9.65-3.56,12.8-10.34,7.8-16.8,10.79-35.56,23.26-49.88,15.2-17.46,33.5-34.49,51.14-49.49,12-10.19,41.37-24.54,44.82-41.39C2555.7,540.47,2528.63,548.49,2519.62,554.48ZM2136,669.75c-8.4,2.45-9.07,10.24-11,18.62-7.73,33.7,70.45-3.07,81.34-8.57-3.62-10.82-39.25-8.85-47.5-9.28C2152.44,670.2,2142.24,667.94,2136,669.75Zm461.8,17.51c-11.58.44-6.24-46.9,6.93-42.14C2616.05,649.21,2605.26,687,2597.83,687.26ZM969.22,632.82c-17.74,15.32-45.59,17.38-67.64,22.29-32.5,7.25-64.72,16.48-97,24.82-20.35,5.26-8.89-7.29,1.3-12C823.44,659.82,843.28,655.5,862,651c20.28-4.83,41-8,61.17-13.32C937.14,634.07,955.14,624.73,969.22,632.82Zm551.86-329.24c19.71,3.62,39.39,9.93,56.67,20.27,14.31,8.55,13.74,21.86-4.39,14.13-84.6-36-189.58-14.2-272.19,17.7-9.12,3.52-8.44-4.16-5.68-10.07,3.79-8.15,11.9-12.88,19.68-16.67,23.38-11.37,50.33-17.81,75.75-22.53C1433.29,298.53,1478.51,295.77,1521.08,303.58Zm12.36-51.74c10.75,2.91,23.1,10.15,29.68,19.33,7.69,10.74,1.57,16.23-9.1,9.91-11.92-7.05-22.82-14.08-36.49-17.8-7.22-2-6.93-6.5-1.74-10.47C1520.64,249.08,1528.18,250.4,1533.44,251.84Z" transform="translate(-245 -225.47)"/><polygon id="Triangle" class="cls-3" points="2618.01 145.52 2277.38 1971.85 878.59 798.12 2618.01 145.52"/><g id="shapes"><polygon class="cls-4" points="2509.35 492.3 3059.12 327 3115.35 457.65 2570.86 693 2509.35 492.3"/><polygon class="cls-4" points="2720.35 174.67 3267.26 0 3317.35 110.63 2772.85 346 2720.35 174.67"/></g><polygon class="cls-4" points="0 1770.83 549.78 1605.53 606 1736.18 61.51 1971.53 0 1770.83"/><polygon class="cls-4" points="211 1453.2 757.92 1278.53 808 1389.16 263.5 1624.53 211 1453.2"/><text class="cls-5" transform="translate(1177 960.53)">#FF9354</text><text class="cls-5" transform="translate(1177 960.53)">#FF9354</text></g></svg>