<?xml version="1.0" encoding="utf-8"?>
<!-- Generator: Adobe Illustrator 23.0.3, SVG Export Plug-In . SVG Version: 6.00 Build 0)  -->
<svg version="1.1" id="Layer_1" xmlns="http://www.w3.org/2000/svg" xmlns:xlink="http://www.w3.org/1999/xlink" x="0px" y="0px"
	 viewBox="0 0 1024 768" style="enable-background:new 0 0 1024 768;" xml:space="preserve">
<style type="text/css">
	.st0{fill-rule:evenodd;clip-rule:evenodd;fill:#FF9354;fill-opacity:0.9;}
	.st1{fill-rule:evenodd;clip-rule:evenodd;fill:#FF6161;}
	.st2{fill-rule:evenodd;clip-rule:evenodd;}
</style>
<circle class="st0" cx="711" cy="299" r="183.71"/>
<g>
	<g transform="translate(-54.000000, -30.000000)">
		<path class="st1" d="M285.2,455.11c4.67-3.18,14.22-14.57,19.22-17.2c11.12-5.85,60.67-17.36,62.29-18.04
			c2.45-1.04,18.4-4.65,27.68-6.94c21.81-5.37,99.97-40.04,120.57-48.92c2.63,6.92,24.34,37.47,20.62,40.6
			c-12.26,10.31-34.24,23.14-48.44,30.53c-11.49,5.97-23.66,10.92-35.94,14.95c-13.95,4.58-23.52,9.5-37.42,14.19
			c-13.68,4.61,2.67,19.04,9.69,22.02c7.88,3.34,20.08,5.04,28.13,7.94c-14.17,22.02-26.07,48.76-28.45,75.14
			c-0.57,6.35-5.41,12.17-13.29,10.27c-4.06-0.98-41.55-5.97-47.66-7.37c-40.8-9.31-114.05-58.03-95.19-108
			C271.32,466.26,281.19,457.84,285.2,455.11z"/>
		<g transform="translate(54.000000, 30.000000)">
			<path class="st2" d="M254.03,160c3.05-0.26,10.93-6.35,6.79-9.43C256.65,147.47,253.65,157.88,254.03,160 M95.25,183.35
				c0.8-0.14,0.45-4.5-0.81-5.06c-3.96-1.76-4.29,4.85-4.39,6.62c-0.12,2.23-0.4,8.52,4.41,6.79
				C97.2,190.73,95.5,185.03,95.25,183.35 M329,203.72c-0.11,3.89,7.76,11.38,10.69,6.89C342.15,206.84,329.2,195.98,329,203.72
				 M51,115.94c2.28,5.81,13.54-2.11,13.96-6.37C65.82,100.84,50.88,110.14,51,115.94 M145,141c5.25-0.43,12.15-7.1,17.21-9.59
				c3.42-1.69,12.74-3.7,13.75-7.52c0.88-3.33-14.93,3.79-16.28,4.43C153.49,131.21,147.9,134.52,145,141 M538.9,95
				c4.18-3.23,9.27-5.32,14.63-5.18c2.68,0.07,8.26,1.74,8.47-2.89c0.34-7.53-23.3,1.65-27,3.13C536.3,91.71,537.6,93.35,538.9,95
				 M278,388.39c-3.07-5.09-8.59-8.04-12.74-12.39c1.52,7.14-1.91,13.48-4.26,20C266.67,393.46,272.33,390.92,278,388.39 M810.8,497
				c1.69-5.66,3.38-11.29,5.36-16.86c2.21-6.24,3.31-6.78-1.98-11.14c-4.39,8.31-8.79,16.61-13.18,24.92
				C804.13,495.25,807.39,496.54,810.8,497 M356,87.36c-5.82-6.56-33.09-6.97-29.71,7.5c1.18,5.05,7.88-0.31,12.08-1.49
				C342.54,92.21,354.34,92.05,356,87.36 M355,180.21c-0.71-1.67-2.11-7.71-4.2-8.19c-2.04-0.46-10.07,5.87-11.58,6.84
				c-7.53,4.83-14.88,10.02-22.22,15.14c2.81,0,5.36-1,8.16-1.02c3.32-0.03,5.7,1.34,8.94,0.56
				C341.05,191.86,349.12,184.16,355,180.21 M362.54,30.57c0.65-3,34.75,6.01,38.84,7.65c2.23,0.9,13.75,6.88,11.27-2.14
				c-1.41-5.14-14.72-9.06-18.98-10.47c-10.84-3.58-22.27-6.12-33.82-5.53c-2.24,0.11-19.22,1.09-12.13,7.92
				C350.16,30.35,358.92,29.61,362.54,30.57 M370,442.71c6.35,3.12,12.84,5.52,19.48,7.96c2.95,1.09,7.54,3.93,10.8,3.21
				c2.66-0.59,3.52-4.64,4.92-7.36c5.12-9.94,11.23-17.95,18.81-26.15c-3.52-2.57-21.38,8.75-25.8,10.43
				c-4.43,1.67-8.6,3.36-12.93,5.36C381.19,438.04,373.15,439.72,370,442.71 M482.46,358c9.26-4.19,18.03-11.62,25.62-18.27
				c8.72-7.64,16.53-15.64,22.91-25.52c-3.84,0.2-12.32,12.55-12.41-0.9c-0.05-6.86,9.35-13.62,12.27-19.98
				c-7.26-4.1-13.91,20.39-22.24,14.45c-8.02-5.72,4.64-25.38,7.08-31.59c-4.71-3.13-31.52,31.92-35.4,36.4
				c-2.43,2.81-8.17,6.54-9.54,9.82c-0.82,1.95-0.93,8.13-0.54,9.93c0.82,3.75,4.98,8.24,6.83,11.73
				C479.39,348.49,481.43,353.09,482.46,358 M865.15,484.35c-8.01-11.3,0.26-16.23,6.77-25.61c5.21-7.5,10-15.77,13.3-24.15
				c8.25-20.95,15.7-40.43,19.78-62.6c-5.61,2.56-9.12,12.31-11.92,17.44c-3.77,6.9-7.09,14.15-11.29,20.84
				c-7.85,12.52-15.55,25.87-25.54,36.72c-4.52,4.92-8.35,10.45-13.57,14.88c-2.38,2.02-6.95,3.69-8.7,6.22
				c-1.66,2.39,0.2,3.92-0.43,6.77c-0.65,2.93-3.61,6.05-4.88,8.87c-1.67,3.7-3.22,7.41-5.09,11.04c-2.03,3.95-2.59,6.01-3.14,9.87
				c-0.6,4.22,1.24,4.66-2.45,8.55c6.68,2.94,13.36,5.89,20.03,8.83c2.25,0.99,4.51,1.99,6.76,2.98c0.48-0.89,0.95-1.78,1.43-2.67
				c1.83-1.78,3.52-6.18,4.57-8.53C855.18,503.97,860.13,494.11,865.15,484.35 M220.32,436.92
				c-18.96,49.92,47.67,91.95,88.68,101.25c5.68,1.29,11.23,2.97,16.88,4.35c6.17,1.51,11.64,1.21,17.8,1.84
				c4.9,0.5,7.23,4.28,11.84,5.33c7.71,1.74,7.24-4.05,7.79-10.26c2.34-26.33,15.78-51.72,30-73.69c-6.5-2.32-12.93-4.86-19.34-7.4
				c-5.49-2.18-13.89-8.3-19.79-8.62c-4.36-0.24-11.01,3.49-15.25,5.12c-7.06,2.72-14.13,5.04-21.49,6.9
				c-12.86,3.25-27.17,7.67-40.48,8.01c-3.84,0.1-14.36,1.88-17.12-0.49c-5.26-4.52,2.04-8.29,6.45-9.9
				c26.26-9.62,54.15-13.71,80.49-23.57c13.55-5.08,26.97-10.74,40.61-15.74c11.76-4.31,24.07-8.12,35.43-13.43
				c15-7,30.07-15.72,43.07-25.99c2.6-2.05,8.05-5.11,9.83-8.09c1.57-2.62,1.37-0.01,1.05-3.19c-0.23-2.28-3.03-5.38-4.18-7.54
				c-4.28-8.04-8.15-16.31-11.4-24.82c-20.73,8.89-40.44,20.99-60.87,30.49c-20.55,9.56-43.74,16.31-65.73,21.69
				c-9.36,2.29-20.12,3.01-28.7,7.54c-3.65,1.92-7.25,4.15-11.16,5.26c-1.15,2.21-2.29,2.65-3.41,1.3c-0.7-0.79-1.61-1.12-2.72-1
				c-2.39,0.4-4.83,1.53-7.06,2.4c-11.31,4.38-22.14,9.87-32.87,15.48c-5.09,2.65-10.31,5.27-15.18,8.3
				c-2.61,1.62-4.95,3.26-7.09,5.49C223.85,436.62,224.46,438.82,220.32,436.92 M646.98,140.53c4.79,0.08,9.16-2.52,14.16-2.37
				c7.86,0.23,14.08,6.32,18.64,12.19c9.02,11.62,6.72,25.65,2.19,38.66c-2.17,6.22-5.15,12.18-8.87,17.63
				c-3.29,4.82-9.18,9.37-11.48,14.74c-3.79,8.85,3.86,5.08,8.54,3.2c5.89-2.38,11.41-5.33,16.41-9.31
				c22.28-17.74,39.22-42.4,44.9-70.72c2.77-13.82,2.56-29.97-7.07-41.25c-8.8-10.31-23.99-13.68-36.98-11.77
				c-14.04,2.07-26.76,8.01-38.19,15.67c-3.32,2.22-6.36,4.65-9.48,7.14c-4.09,3.26-6.54,3.35-5.52,8.46
				c0.76,3.8,2.83,7.74,4.16,11.39C640.89,141,639.98,142.77,646.98,140.53 M662.26,258.33l-0.97,1.66
				c6.68,0.32,12.91-5.58,18.6-8.46c7.4-3.74,13.97-8.84,20.45-14c11.43-9.09,23.01-19.33,31.52-31.26
				c19.08-26.75,36.41-60.66,31.2-94.57c-5.61-36.55-37.58-50.62-71.64-45.78c-15.35,2.18-29.06,9.03-42.79,15.99
				c-6.92,3.51-12.77,8.06-19.11,12.46c-3.29,2.29-6.3,2.58-6.51,6.58c-0.16,3.01,5.05,9.83,6.46,12.56
				c17.25-17.6,35.84-32.15,61.89-33.05c30.99-1.07,49.32,28.31,49.18,56.45c-0.13,27.59-12.03,54.14-31.01,73.97
				c-8.62,9.01-16.84,16.24-27.43,22.82c-5.28,3.28-9.17,6.22-15.07,8.4c-4.17,1.54-3.74,0.73-4.8,4.59
				C661.3,249.98,662.23,254.93,662.26,258.33 M493.86,633.24c-0.4,4.97-1.41,9.87-2.54,14.72c-0.4,1.74-2.68,7.24-2.28,9.2
				c0.66,3.24-0.22,1.16,2.62,2.84c2.96,1.76,6.4,1.66,9.64,2.19c2,0.33,9.32,3.78,10.56,3.23c2.15-0.95,2.09-4.31,4.45-5.64
				c3.22-1.81,7.96-0.26,11,1.16c8.12,3.79,13.7,11.63,21.56,15.92c13.95,7.62,30.51,11.84,46.08,13.58
				c8.43,0.94,17.06,2.6,25.39,0.62c6.56-1.56,15.09-1.41,18.66-8.46c-31.7-8.72-80.09-19.39-92.62-55.77
				c-6.81,6.18-18.2,2.85-26.44,2c-9.06-0.94-17.15-0.72-25.44-4.85C493.9,627.25,493.71,629.94,493.86,633.24 M213.18,407.92
				c14.92,0.9,29.07-6.16,38.25-18.08c2.26-2.93,4.58-5.93,5.94-9.41c0.29-0.88,0.59-1.76,0.88-2.64c1.42-2.43,0.8-3.58-1.87-3.44
				c-1.5-2.06-5.32-2.76-4.23-6.5c0.82-2.82,3.83-2.87,6.46-3.76c-1.31-2.19-2.09-3.29-3.96-5.25c-4.86,4.37-13.67,12.95-17.09,2.91
				c-1.64-4.82,1.25-9.42,0.53-14.07c-0.29-1.92-2.73-6.83-4.14-7.98c-7.52-6.12-18.36-3.59-26.34,0.02
				c-5.5,2.48-6.68,3.65-7.58,9.35c-0.91,5.79-1.76,11.58-2.77,17.36c3.3-1.72,3.9-5.44,6.06-8.11c0.81,1.47,1.61,2.94,2.42,4.41
				c1.14-0.64,2.2-0.6,3.18,0.1c1.59,2.45,0.59,6.08,0.1,8.65c5.31-0.5,7.56,5.43,2.2,7.83c-5.55,2.49-8.05-4.29-8.24-8.68
				c-2.07,2.47-4.2,1.15-5.64,2.42c-1.44,1.27-2.01,3.92-2.52,6.82c-0.84,4.76-3,11.64-1,16.41
				C196.78,403.36,206.23,407.05,213.18,407.92 M645.61,179.98c-4.94,6.87-13.36,15.86-15.12,24.15c5.44-3.19,16.94-18.55,19.9-6.32
				c1.7,7.02-7.02,15.39-9.16,22.19c8.58-2.82,14.69-11.66,20.04-18.48c6.82-8.7,13.79-20.16,15.53-31.22
				c1.41-8.95-4.8-17.29-14.02-18.17c-4.71-0.45-9.63,0.3-14.18,1.39c-2.08,0.5-5.17,1.12-7.02,2.23c-2.33,1.4-2.64,4.67-4.84,1.95
				c-2.91,5.49-5.82,10.97-8.73,16.46c2.9-1.05,8.81-5.51,11.97-5.05C644.6,169.78,645.55,176.5,645.61,179.98 M183.28,45.64
				c-12.95,0.38-26.48,3.14-38.73,7.24c-3.04,1.02-15.88,4.64-13.18,9.89c1.79,3.47,11.42-1.43,14.34-2.25
				c12.48-3.51,25.34-5.82,38.12-7.93c3.1-0.51,13.6-0.46,14.14-4.52C198.64,43.12,186.94,45.64,183.28,45.64 M535.59,610.47
				c-7.02,0.86-13.75,0.54-20.78-0.32C508.9,609.42,502.89,607,497,607c0,6.3-0.43,6.34,6.21,7.68c4.64,0.94,9.34,1.47,14.02,2.12
				c8.25,1.15,17.41,4.39,25.76,2.73c-0.2-1.09-0.84-8.47-1.71-9.2C540.8,609.92,536.3,610.47,535.59,610.47 M422.19,144.68
				c1.96,1.25,6.47,6.23,8.81,6.32c-0.83-5.77-7.27-15.82-14.67-12.25c-1.81,0.87-5.62,5.23-3.9,7.15
				C413.36,146.92,419.79,144.68,422.19,144.68 M353.78,196.02c0.07-1.01,0.14-2.01,0.22-3.02c-2.71,1.6-6.07,2.35-8,4.92
				c2.31,1.03,4.63,2.05,6.94,3.08C353.22,199.34,353.5,197.68,353.78,196.02 M567.46,349.24c12.82,4.49,24.57,10.48,34.01,20.66
				c8.16,8.8,11.99,24.31,13.98,35.84c4.93,28.55-4.58,55-10.85,82.31c-3.18,13.85-7.93,27.18-12.37,40.68
				c-3.88,11.78-7.21,24.12-12.57,35.33c-4.54,9.5-10.35,18.87-14.34,28.72c-2.15,5.3-5.64,23.51-13.8,17.79
				c-2.23,5.82-2.77,5.33-0.39,9.37c1.72,2.93,7.57,6.99,10.33,9.38c7.35,6.36,16.66,11.59,25.28,16.04
				c15.79,8.15,32.72,14.25,48.99,21.68c7.19,3.29,14.99,7.17,13.37,16.58c-1.35,7.89-5.91,13.87-13.03,17.37
				c-6.68,3.29-16.24,5.84-23.59,6.87c-4.36,0.61-5.36-1.2-8.92-1.83c-3.96-0.7-8.58,0.65-12.66,0.62
				c-18.33-0.16-34.37-4.77-49.18-15.4c-5.29-3.8-13.08-14.1-20.01-14.1c-3.54,0-2.79,2.15-5.91,3.41
				c-3.84,1.56-10.46-1.38-14.24-2.07c-8.05-1.47-16.23-2.96-21.59-9.89c-5.79-7.49-3.73-16.77-1.24-25.09
				c2.81-9.38,7.53-18.89,9.54-28.42c0.49-2.32,0.94-6.63,0.44-8.99c-0.77-3.66-4.46-5.84-4.57-9.8c-0.03-1.2,1.69-2.79,1.99-4.03
				c0.67-2.73,0.56-5.56,0.84-8.34c0.49-4.96,1.62-9.7,2.4-14.6c1.77-11.15,5.27-21.09,8.65-31.83c3.28-10.42,6.41-18.18,12.75-27.2
				c3.28-4.67,14.27-21.32,8.91-26.12c-7.34,14.43-15.93,25.68-27.18,37.17c-8.6,8.79-17,20.6-27.76,26.85
				c-11.83,6.88-26.29,10.93-39.35,14.57c-6.21,1.73-11.37,5.57-18.07,6.27c-7.26,0.77-14.65-0.14-21.76-1.76
				c-2-0.46-7.77-3.53-9.59-3.34c-2.67,0.29-6.51,5.05-9.43,5.92c-7.13,2.13-11.99-1.94-17.4-5.69c-5.87-4.07-7.64-5.09-14.41-5.58
				c-8.29-0.6-16.36-3.52-24.51-5.31c-14.34-3.15-26.53-9.52-39.56-16.2c-14.94-7.65-27.72-18.2-38.98-30.66
				c-16.56-18.32-39.61-69.09-12.57-86.86c-15.92-2.16-30.5-9.11-32.44-27.13c-1.01-9.43,0.89-19.87,3.27-28.96
				c1.08-4.15,2.37-8.27,3.61-12.38c0.93-1.39,1.42-2.9,1.48-4.55c0.57-2.14-0.25-3.2-2.47-3.19c-4.19-4.9-7.35-9.23-8.19-16.19
				c-0.27-2.21-0.51-5.59,1.06-7.46c0.73-0.75,1.6-1.26,2.63-1.51c2.46,0.14,3.15-1.07,2.08-3.63c1.19-3.63-0.58-6.46,3.92-7.97
				c1.44,0.31,2.88,0.64,4.31,1.01c1.82,0.83,3.01,0.23,3.56-1.8c4.24-1.66,2.28-4.11,8.04-1.98c3.48,1.29,6.8,3.51,9.33,6.22
				c3.18-2.04-4.05-14.67-4.3-18.7c-0.57-9.49,3.35-17.34,8.46-25.14c9.93-15.16,23.78-28.19,37.45-39.91
				c26.17-22.46,53.67-43.83,83.22-61.73c-12.19-8.47-26.43-10.76-40.94-6.83c-13.37,3.63-24.21,10.22-36.52,15.98
				c-11.4,5.34-23.51,7.53-27.14-7.04c-4.07-16.31,8.92-22.37,20.58-29.69c-2.91-2.17-12.5-0.62-16.12-0.36
				c-8.07,0.57-15.8,2.39-23.64,4.01c-3.76,0.77-7.22,0.6-10.95,1.36c-5.54,1.12-11.33,2.39-16.94,3.99
				c-13.34,3.82-26.58,9.61-38.11,17.41c-9.96,6.74-16.87,16.26-24.9,25.02c-9.15,9.99-17.93,19.83-31.5,23.49
				c-6.35,1.71-13.81,3.27-18.32-2.41c-4.19-5.28-4.43-11.64-4.29-18.09c0.3-14.25,7.19-29.66,15.2-41.31
				c8.7-12.64,20.34-19.88,31.34-30.06c-15.9,1.14-31.27,9.52-45.9,15.31c-3.08,1.22-6.19,2.59-9.28,3.72
				c-3.3,1.2-5.49,0.47-8.65,1.02c-7.22,1.26-13.41,4.3-20.43-0.55c-13.28-9.17,0.03-27.83,9.17-33.55
				C59.5,98.01,72.46,91.3,86.49,85.61c-7.59-8.24-1.11-19.99,5.89-25.84c8.86-7.4,20.14-11.63,30.81-15.59
				c8.44-3.13,16.73-6.14,25.5-8.02c9.22-1.98,20-5.01,29.35-4.72c8.77,0.27,16.55-1.27,25.43-1.52c7.39-0.21,14.8-0.03,22.19-0.22
				c19.89-0.51,39.85,0.83,59.28,2.26c-15.4-45.03,86.03-31.12,107.67-25.24c19.67,5.35,42.2,11.55,58.71,24.23
				c7,5.37,13.64,11.48,19.85,17.75c9.16,9.25,14.23,21.36,19.08,33.31c12.29-6.02,24.04-12.58,37.49-15.57
				c12.8-2.84,25.9-6.69,38.77-8.83c9.79-1.63,23.99-2.74,32.22,4.17c8.94,7.5,13.6,19.18,18.94,29.18
				c25.64-24.33,54.24-42.08,90.8-40.9c35.77,1.16,59.3,32.05,63.63,65.52c4.78,36.89-11.65,75.43-33.93,103.99
				c-9.99,12.81-20.32,25.18-33.76,34.74c-6.67,4.74-13.7,9.93-21.01,13.63c-3.64,1.84-7.63,3.51-11.46,4.93
				c-1.73,0.64-3.5,1.28-5.3,1.72c-5.13,1.24-4.13-0.42-6.04,4.07c-1.55,3.64-1.36,9.92-2.02,13.92c-0.76,4.57-1.21,9.21-2.31,13.72
				c-1.92,7.82-3.91,15.44-6.31,23.08c-4.54,14.45-10.65,29.01-18.14,42.19c6.35,2.76,15.24,3.04,22.03,3.87
				c7.34,0.9,14.7,2.8,22.33,4.94c15.28,4.27,28.94,7.88,43.48,14.28c15.09,6.64,28.54,16.56,43.07,24.45
				c13.36,7.26,26.87,16.35,39.27,25.06c2.95,2.07,4.78,3.88,7.13,6.5c2.4,2.68,3.17,3.21,6.04,5.53c1.3,1.05,5.06,6.33,6.54,6.53
				c2.65,0.35,2.24-1.63,4.32-4.39c4.34-5.76,10.4-10.23,14.71-16.13c3.6-4.93,7.35-9.92,11.19-14.15
				c9.3-10.25,17.01-21.62,23.62-33.91c3.44-6.4,7.07-12.49,10.8-18.53c3.72-6.01,10.34-13.95,17.75-13.59
				c-0.6-3.06-2.49-3.57,0.78-5.44c2.1-1.21,6.2,0.74,7.82,1.96c4.29,3.24,4.48,9.54,4.21,14.26c-0.7,12.18-3.25,24.21-6.8,35.72
				c-4.27,13.85-9.62,26.06-15.46,39.28c-4.65,10.53-10.42,24.45-22,29.25c7.77,11.1,4.04,20.14-1.15,31.92
				c-3.8,8.61-8.81,17.51-16.45,23.21c-8.61,6.42-17.95,0.97-26.95-3.27c-5.44-2.57-22.07-8.62-18.68-16.51
				c-4.15-0.55-6.77-3.57-10.55-4.5c-4-0.98-3.32,0.64-7.55,1.25c-3.25,0.47-8.1-2.44-11.16-3.48c-5.11-1.74-10.2-3.52-15.3-5.27
				c-14.36-4.94-28.47-9.81-42.97-13.77c-26.97-7.37-54.28-11.55-81.16-18.13c-5.39-1.32-10.75-2.59-16.36-3.65
				c-1.16-0.22-7.17-0.55-7.9-1.79c-1.28-2.17,2.65-14.33,2.99-16.81c2.22-16.27,1.49-34.08-1.63-50.16
				c-1.3-6.69-7.09-15.34-7.04-21.87c0.03-4.38,3.91-9.16,6.19-13.12c5.63-9.81,11.54-20.4,15.71-30.6
				c6.39-15.61,10.3-33.23,13.13-49.95c1.47-8.72,3.18-18.16,3.58-26.98c0.31-6.72-0.25-13.77,0.73-20.65
				c-3.72,0.35-8.98,2.28-12.33,0.22c-4.23-2.6-5.37-10.04-4.83-14.47c-14.49,2.53-14.01-11.21-13.11-21.95
				c-26.18,0,7.35-38.9,11.54-47.26c1.93-3.84,1.87,0.47,1.02-5.47c-0.37-2.61-2.16-5.51-3.17-7.91c-2.2-5.24-4.58-10.4-7.12-15.49
				c-5.37-10.74-11.45-21.12-18.09-31.12c-5.97,4.16-11.36,9.09-16.35,14.38c3.2-8.37,12.98-18.74,8.8-28.24
				c-3.88-8.81-16.82-8.2-24.47-6.59c-20.78,4.38-40.7,10.76-60.5,18.15c6.13,3.52,15.52,0.8,21.61-1.89
				c7.54-3.33,15.66-6.82,23.78-8.59c7.09-1.54,16.4-1.01,14.35,8.54c-1.66,7.74-9.23,15.19-14.22,20.98
				c-11,12.75-24.8,22.62-38.35,32.48c-14.57,10.6-28.6,22.12-43.36,32.41c-26.67,18.61-55.34,34.78-82.89,52.14
				c-14.32,9.02-30.54,16.29-46.07,22.97c-17.08,7.36-33.46,15.23-51.18,21.05c-9.84,3.23-19.59,5.88-29.26,9.56
				c-6.06,2.3-16.62,6.91-20.62,0.08c-8.13-13.88,21.3-32.13,29.37-40.61c5.56,5.4-21.88,25.54-19.73,33.41
				c1.69,6.18,8.21-1.8,11.37-3.49c5.09-2.72,11.13-4.09,16.24-7.2c10.5-6.37,22.95-13.73,25.34-26.9
				c-1.67-1.76-1.65-3.39,0.06-4.87c0.76-0.91,1.37-1.9,1.81-2.98c0.75-2.07,1.05-4.66,1.45-6.86c1.18-6.49-1.78-12.57,0.99-18.92
				c-16.18,12.26-31.73,26.11-47.09,39.38c-13.78,11.9-28.15,27.49-33.22,45.26c-0.65,2.28-1.73,4.86-1.61,7.26
				c0.23,4.72,0.7,3.7,4.5,5.22c3.8,1.52,9.33,1.39,13.42,1.55c2.33,0.09,12.73-2.38,10.66,2.74c-1.19,2.95-8.4,2.84-10.99,3.11
				c-6.48,0.68-9.99-0.02-6.92,7.01c1.38,3.15,4.16,5.28,6.35,7.72c6.09,6.78,9.39,17.18,14.18,25.14
				c5.46,9.07,11.45,17.7,17.82,26.15c2.63,3.49,6.14,10.04,9.79,12.53c3.4,2.32-0.6,2.13,5.05,1.19c2.46-0.41,4.7-2.01,7.05-2.59
				c14.09-3.43,28.58-7.3,43.15-11.54c18.64-5.42,38.21-10.04,55.99-17.85c15.93-7,31.75-15.32,47.85-22.41
				c4.7-2.07,9.4-3.44,13.05-7.24c4.41-4.59,8.06-10.6,12.13-15.54c6.92-8.4,13.3-16.94,20.74-24.89
				c5.54-5.92,15.37-16.93,23.19-19.29c14.86-4.49,6.91,18.15,4.99,23.87c3.49,0.79,5.33-3.69,9.43-2.4
				c4.91,1.54,5.42,8.07,6.03,12.16c0.16,1.09-1.31,3.13-0.86,4.1c0.15,0.33,3.36,2.23,3.97,3.1c2.24,3.19,1.8,7.07,0.95,10.51
				c-4.4,17.81-20.03,30.82-31.53,43.96c5.14-0.97,8.96-3.9,13.81-5.36c4.56-1.36,9.14-1.29,13.73-1.68
				c4.81-0.41,9.43-2.21,14.35-2.3C557.39,347.18,562.34,348.65,567.46,349.24"/>
			<path class="st2" d="M23.74,189c-2.83,1.85-3.63,3.67-3.73,7.95c-0.04,1.75,0.08,8.29,2.53,8.05
				C24.84,204.76,23.74,191.25,23.74,189 M9.09,199.65c1.32-13.7,6.33-27.63,18.13-36.17c2.92-2.11,6.22-2.04,9.41-3.37
				c1.92-0.8,4.96-4.52,7.14-4.08c8.03,1.62-1.25,12.29-2.6,15.1c-4.21,8.69-3.92,16.33-3.8,25.71c0.1,7.13,1.58,19.14-2.02,25.59
				c-3.83,6.87-12.14,2.41-16.77-1.66C12.72,215.64,8.3,207.47,9.09,199.65"/>
			<path class="st2" d="M150.01,240.14c0,7.65,6.21,2.47,5.98-2.97C155.67,229.17,149.72,234.1,150.01,240.14 M183,197.88
				c-6.79,6.11-12.03,9.54-13.34,18.93c-0.99,7.11-0.01,14.16,0.04,21.33c0.07,12.01-9.63,24.64-20.07,10.87
				c-7.61-10.04-4.88-25.84,1.33-35.93c3.26-5.3,7.91-10.53,13.28-13.83C168.28,196.75,179.65,191.87,183,197.88"/>
			<path class="st2" d="M88.15,383c-0.79,1.86-2.64,9.47,1.14,7.75C92.62,389.23,90.46,384.19,88.15,383 M68.22,359.52
				c-0.58-2.86-0.34-20.79,4.59-19.45c3.88,1.05,4.52,10.23,6.1,13.43c5.88,11.89,19.39,19.3,24.05,31.58
				c5.2,13.71-10.52,14.14-18.86,8.58C74.23,387.09,68.52,370.99,68.22,359.52"/>
			<path class="st2" d="M56.12,286c2.14-2.89,2.36-4.44,1.14-7C55.69,280.7,55.97,283.13,56.12,286 M57.67,298.95
				c-11.17,1.25-11.73-19.34-9.82-26.41c1.52-5.63,4.8-11.68,8.17-16.27c0.68-0.93,7.14-9.25,8.41-9.27c4.86-0.08,3.52,5.41,3,7.46
				c-1.65,6.44-2.31,11.82-1.86,18.96C66.04,281.06,69.66,299.2,57.67,298.95"/>
			<path class="st2" d="M565,120.62c-15.98,13.4-31.15,27.9-48.52,39.63c-8.5,5.74-17.39,10.81-25.87,16.64
				c-4.32,2.97-8.73,5.63-13.52,7.81c-4.23,1.93-7,2.18-3.49-2.4c2.35-3.06,7.61-5.19,10.81-7.36c4.92-3.35,9.57-7.06,14.75-10.03
				c9.13-5.24,18.2-9.46,26.62-15.89c7.47-5.7,15.17-11.26,22.3-17.32C551.13,129.1,561.27,117.18,565,120.62"/>
			<path class="st2" d="M565.32,169c7.18,6.15-10.79,22.98-14.89,26.8c-4.32,4.02-9.08,7.61-13.79,11.18
				c-1.66,1.26-10.68,9.66-12.98,8.98c-4.52-1.34,1.41-6.79,2.96-8.21c4.99-4.6,10.09-9.07,14.98-13.8
				c4.4-4.26,9.17-8.21,13.43-12.6C558.48,177.78,561.38,171.75,565.32,169"/>
			<path class="st2" d="M33,416.76c-1.88-4.35-5.24,0.48-3.53,2.65C31.08,421.46,32.76,417.59,33,416.76 M22,408.17
				c1.01-6.39,3.33-9.94,9.33-4.49c4.12,3.75,12.41,14.41,11.62,20.22c-1.03,7.62-9.43,5.46-13.78,1.47
				C24.7,421.29,22.74,413.84,22,408.17"/>
			<path class="st2" d="M35.14,533.97c-7.35-0.56-13.61-6.2-16.73-12.81c-2.62-5.56-5.11-14.52,4.11-11.6
				C28.53,511.48,51.7,534.87,35.14,533.97"/>
			<path class="st2" d="M124.16,497.74c-5.68,1.29-11.29-2.45-14.78-6.66c-2.17-2.63-7.23-11.83-4.68-15.62
				c3.55-5.28,8.91,5.34,10.76,7.44C118.36,486.19,127.84,492.49,124.16,497.74"/>
			<path class="st2" d="M129.28,354c-4.45-2.06-8.58-4.55-10.37-9.48c-1.14-3.14-2.09-12.56,2.96-12.52
				C127.71,332.05,141.1,353.06,129.28,354"/>
			<path class="st2" d="M98.08,256c5.96-0.11,7.37,3.18,8.2,7.9c0.56,3.2,3.29,14.08,0.46,16.31c-4.05,3.18-10.49-4.11-11.79-6.98
				C92.25,267.34,95.97,261.54,98.08,256"/>
			<path class="st2" d="M200.46,582.14c2.9,1.32,9.5,4.25,6.98,8.79c-2.64,4.75-10.21,0.13-13.04-1.94
				c-1.18-0.87-8.71-6.56-8.39-8.46C186.67,576.47,197.04,581.76,200.46,582.14"/>
			<path class="st2" d="M9.33,285.51c1.98,4.96,4.21,22.02-6.23,12.81c-3.19-2.81-3.67-6.32-2.57-10.18
				C2.12,282.54,4.43,283.65,9.33,285.51"/>
			<path class="st2" d="M562.54,222c-2.31-4.72,3.4-7.77,6.45-10.81c1.99-1.99,10.36-12.77,13.11-12.16
				C587.74,200.28,565.31,219.89,562.54,222"/>
			<path class="st2" d="M98,564.09c5.45-0.87,6.72,5.18,10.23,7.81c1.5,1.13,6.67,2.13,5.63,4.53
				C111.13,582.73,97.74,568.33,98,564.09"/>
			<path class="st2" d="M144,421.19c3.74-1.57,14.55,6.85,11.45,10.49C150.81,437.12,144.26,424.17,144,421.19"/>
			<path class="st2" d="M222.92,542.99c-2.73,0.27-14.25-3.35-9.98-8.2C215.93,531.39,223.9,539.9,222.92,542.99"/>
			<path class="st2" d="M85,519.73c-2.71,1.08-12.48-1.15-9.41-5.39C78.52,510.3,85,516.37,85,519.73"/>
			<path class="st2" d="M165,538.04c3.17-0.33,5.46,1.58,6,4.82C167.04,543.42,165.82,542.47,165,538.04"/>
			<path class="st2" d="M577,68.49c1.34,0.01,2.67,0.01,4,0.02C579.66,68.5,578.33,68.5,577,68.49"/>
			<path class="st2" d="M556,347c-2,0-4,0.01-6,0.01C552,347,554,347,556,347"/>
			<path class="st2" d="M283.14,21c-0.09,2-0.18,4-0.28,6C282.95,25,283.05,23,283.14,21"/>
			<path class="st2" d="M902.81,361c0.64,2.22-0.3,2.59-2.81,1.11C900.93,361.74,901.87,361.37,902.81,361"/>
			<path class="st2" d="M846,535.49c1,0.01,2.01,0.01,3,0.02C847.99,535.5,847,535.5,846,535.49"/>
			<path class="st2" d="M656,374.53c-1.68,1.28-3.35,1.46-5-0.07C652.67,374.48,654.33,374.5,656,374.53"/>
			<path class="st2" d="M618.56,204c-0.04,1.67-0.09,3.34-0.13,5C618.48,207.33,618.52,205.66,618.56,204"/>
			<path class="st2" d="M705,49.7c-1.67,0-3.33,0-5,0C701.67,49.07,703.33,49.28,705,49.7"/>
			<path class="st2" d="M216,29.35c-1.67,0.1-3.33,0.2-5,0.29C212.67,29.55,214.33,29.45,216,29.35"/>
			<path class="st2" d="M257,29.67c-1.33-0.11-2.67-0.23-4-0.34C254.33,29.44,255.67,29.56,257,29.67"/>
			<path class="st2" d="M279,31.25c-1.33,0.5-2.67,0.79-4,0.01C276.33,31.26,277.67,31.26,279,31.25"/>
			<path class="st2" d="M160,33.99c-1.67,0.34-3.33,0.68-5,1.01C156.67,34.67,158.33,34.33,160,33.99"/>
			<path class="st2" d="M619.57,441c-0.05,1-0.09,2-0.14,3C619.48,443,619.52,442,619.57,441"/>
			<path class="st2" d="M68.47,360c0.02,0.67,0.04,1.34,0.06,2C68.51,361.33,68.49,360.67,68.47,360"/>
			<path class="st2" d="M909,356.41l-5,0.03C905.66,355.2,907.33,355.35,909,356.41"/>
			<path class="st2" d="M567,349.33c-1.33-0.22-2.67-0.44-4-0.66C564.33,348.89,565.67,349.11,567,349.33"/>
			<path class="st2" d="M201,581.99c-1.67-0.32-3.33-0.65-5-0.97L201,581.99z"/>
			<path class="st2" d="M537.55,295c-0.03-1-0.06-2-0.09-3C537.48,293,537.52,294,537.55,295"/>
			<path class="st2" d="M221,29.68c-1-0.12-2-0.25-3-0.37C219,29.44,220,29.56,221,29.68"/>
			<path class="st2" d="M385,4.95c-1-0.3-2-0.61-3-0.91C383,4.35,384,4.65,385,4.95"/>
			<path class="st2" d="M504,679.44c0.67,0.04,1.34,0.08,2,0.12C505.33,679.52,504.66,679.48,504,679.44"/>
			<path class="st2" d="M45,142.46c1,0.03,2.01,0.05,3,0.08C46.99,142.51,46,142.49,45,142.46"/>
			<path class="st2" d="M716,50.68c-1.67-0.12-3.33-0.23-5-0.35C712.67,50.44,714.33,50.56,716,50.68"/>
			<path class="st2" d="M189,45.99c-2.34,0-4.67,0.01-7,0.01C184.34,46,186.67,46,189,45.99"/>
			<path class="st2" d="M661.45,252c0.03,1.67,0.06,3.34,0.1,5C661.52,255.33,661.49,253.66,661.45,252"/>
			<path class="st2" d="M539,610.03c-1.34-0.02-2.67-0.04-4-0.06C536.34,609.99,537.67,610.01,539,610.03"/>
			<path class="st2" d="M681,80.19c2-0.22,4-0.44,6-0.67C685.08,81.23,683.01,80.1,681,80.19"/>
			<path class="st2" d="M528,610.56c-1-0.04-2.01-0.07-3-0.11C526.01,610.48,527,610.52,528,610.56"/>
			<path class="st2" d="M493.42,628c0.05,1.67,0.1,3.34,0.15,5C493.53,631.33,493.48,629.66,493.42,628"/>
			<path class="st2" d="M646,141.6c1.33-0.12,2.67-0.25,4-0.37C648.78,142.16,647.35,141.62,646,141.6"/>
			<path class="st2" d="M209,407.63c1.33,0.25,2.67,0.49,4,0.73C211.67,408.12,210.33,407.88,209,407.63"/>
			<path class="st2" d="M417,144.5c1.66-1.42,3.33-1.26,5-0.02C420.33,144.49,418.67,144.5,417,144.5"/>
			<path class="st2" d="M354.43,195c0.05-0.67,0.1-1.33,0.15-2C354.53,193.67,354.48,194.33,354.43,195"/>
			<path class="st2" d="M645.48,176c0.01,1.34,0.03,2.67,0.04,4C645.51,178.66,645.49,177.33,645.48,176"/>
			<path class="st2" d="M204.28,385.03c2.19,0.74,6.61,2.99,9.16,2.69c2.05-0.24,3.73-2.73,5.71-2.72c5.32,0.01,4.33,6.15,1.76,9.45
				C213.97,403.37,198.45,393.7,204.28,385.03"/>
			<path class="st2" d="M225.98,353c7.25,1.87,3.64,17.81-2.45,18.91c-7.17,1.29-8.42-11.67-7.01-16.36
				c3.69,2.19,1.41,10.02,6.06,7.86C225.53,362.03,225.08,355.67,225.98,353"/>
		</g>
	</g>
</g>
</svg>
