<?xml version="1.0" encoding="utf-8"?>
<!-- Generator: Adobe Illustrator 23.0.3, SVG Export Plug-In . SVG Version: 6.00 Build 0)  -->
<svg version="1.1" id="Layer_1" xmlns="http://www.w3.org/2000/svg" xmlns:xlink="http://www.w3.org/1999/xlink" x="0px" y="0px"
	 viewBox="0 0 1024 768" style="enable-background:new 0 0 1024 768;" xml:space="preserve">
<style type="text/css">
	.st0{fill-rule:evenodd;clip-rule:evenodd;fill:#FF9354;fill-opacity:0.9;}
	.st1{fill-rule:evenodd;clip-rule:evenodd;fill:#FF6161;}
	.st2{fill-rule:evenodd;clip-rule:evenodd;}
</style>
<g id="react-group-199">
	<g id="react-group-200">
		<circle class="st0" cx="328.09" cy="389.45" r="158.38"/>
		<path id="react-path-203" class="st1" d="M303.25,421.07c4.75,35.59,9.49,71.18,14.24,106.78l3.83,28.74
			c0.48,3.63,0.03,10.78,1.87,14.03c0.65,1.15,2.36,1.69,3.62,2.36c4.33,2.33,8.66,4.65,12.99,6.97
			c36.63,19.67,73.26,39.33,109.89,59c35.15,18.87,70.31,37.75,105.46,56.62c3.64,1.95,9.52,7.05,13.45,5.71
			c3.73-1.28,7.55-4.42,10.94-6.41c6.51-3.81,13.01-7.63,19.52-11.44c39.37-23.07,78.73-46.14,118.1-69.21
			c16.24-9.52,32.48-19.04,48.73-28.55c4.44-2.6,8.89-5.21,13.33-7.81c2.32-1.36,2.63-1.31,3.54-3.63c3.42-8.64,5-18.54,7.42-27.51
			c2.67-9.88,5.33-19.77,8-29.65c1.19-4.41,0.63-4.98-1.31-9.24c-3.84-8.43-7.68-16.85-11.51-25.28
			c-8.52-18.7-17.04-37.4-25.56-56.1c-3.45-7.56-11.74-12.88-17.72-18.45l-92.76-86.36c-2.36-2.19-4.71-4.39-7.07-6.58
			c-0.39,13.18-2.99,27.36,0.83,40.09c6.27,20.9,12.54,41.8,18.81,62.7c3.03,10.1,6.06,20.21,9.09,30.31
			c0.56,1.88,3.99,9.32,3.08,10.97c-0.51,0.92-4.84,1.84-5.78,2.2c-4.03,1.53-8.06,3.07-12.09,4.6
			c-11.23,4.27-22.45,8.54-33.68,12.81c-10.1,3.84-20.19,7.68-30.29,11.52c-3.42,1.3-7.45,3.71-11.06,3.51
			c-3.23-0.18-6.91-1.78-10.04-2.59c-5.5-1.42-11.01-2.83-16.51-4.25c-10.81-2.78-21.62-5.57-32.43-8.35
			c-12.16-3.13-22.43-12.33-32.83-19.14c-17.88-11.71-35.76-23.41-53.63-35.12c-4.09-2.68-4.11-4.21-5.74-9.1
			c-3.67-11-7.33-21.99-11-32.99c-1.96-5.87-4.36-11.77-5.84-17.78c-2.44-9.92-3.88-20.19-5.82-30.22
			c-0.58-3.03-1.16-6.05-1.75-9.08c-7.49,3.04-14.97,6.08-22.46,9.12c-1.08,0.44-6.37,1.75-6.84,2.83c-0.3,0.68,1.27,3.78,1.5,4.44
			c6.21,18.39,12.42,36.77,18.63,55.16c1.95,5.78,3.9,11.57,5.86,17.35c-4.67-7.33-9.33-14.67-14-22c-3.67,12.33-7.33,24.67-11,37
			c-8.67-10-17.33-20-26-30c-3,10-6,20-9,30c-9.33-12.33-18.67-24.67-28-37c-1.11,6.44-2.22,12.87-3.33,19.31
			c-0.33,1.94-0.27,7.52-1.56,9.05C308.3,421.7,305.23,421.07,303.25,421.07"/>
		<g id="react-group-201" transform="translate(94.999879, 58.999801)">
			<path id="react-path-204" class="st2" d="M799.19,439.01c-0.53,16.75-0.16,38.5-9.33,53.23c-1.48,2.38-6.49,9.78-7.05,3.27
				c-0.55-6.4,1.02-12.73-0.53-19.2c-0.83-3.46-3.64-11.02-8.43-7.9c-2.44,1.59-3.09,5.53-4.04,8.01c-1.41,3.67-3,7.29-4.49,10.94
				c-5.2,12.73-10.59,27.92-22.15,36.35c1.51-10.98,5.64-22.7,2.86-33.8c-0.94-3.78-3.81-10.69-8.73-8.47
				c-4.8,2.16-7.91,11.79-10.18,16.08c-6.87,13.01-13.9,25.77-21.63,38.29c-3.89,6.3-8.09,12.05-13.18,17.44
				c-3.18,3.37-7.15,9.07-12.17,9.57c0-9.6,3.16-18.88,6.04-27.92c3.1-9.72,5.93-19.53,8.98-29.27c2.64-8.45,4.81-16.84,6.57-25.5
				c0.73-3.58,1.3-7.29,4.36-9.61c2.75-2.08,7.08-3.07,10.15-4.6c8.04-4.02,16.31-8.35,23.78-13.34c3.07-2.05,5.71-4.7,8.92-6.54
				c3.66-2.1,7.08-3.86,10.46-6.41c14.61-11.02,27.77-24.57,36.65-40.7c1.44,6.48,3.35,12.81,3.56,19.49
				C799.8,425.27,799.4,432.16,799.19,439.01 M678.98,516.02c-2.34-3.95-5.89-2.33-9.03-0.43c-4.87,2.95-9.75,5.88-14.64,8.79
				c-9.95,5.93-19.72,12.17-29.45,18.47c-19.79,12.81-40.28,23.3-61.15,34.15c-20.17,10.48-39.54,22.95-58.44,35.56
				c-4.54,3.03-9.05,6.13-13.41,9.42c-3.87,2.92-6.97,7.01-11.04,9.61c-4.24,2.7-7.16,0.51-11.22-1.48
				c-5.08-2.49-10.37-4.58-15.56-6.83c-20.94-9.08-41.94-18.5-62.31-28.8c-20.25-10.24-39.43-22.04-58.83-33.76
				c-9.24-5.58-18.32-11.52-27.43-17.3c-9.7-6.16-19.74-10.77-29.91-16c-4.5-2.32-8.49-5.46-13.11-7.57
				c-4.86-2.21-9.99-3.8-14.35-6.99c-1.95-1.43-3.6-3.14-5.83-4.16c-1.83-0.83-3.91-0.97-5.72-1.85c-3.68-1.8-4.73-5.44-5.44-9.23
				c-4.58-24.34-7.02-49.35-9.67-73.96c-1.49-13.84-3.16-27.62-5.22-41.39c-0.93-6.21,0.94-11.01,1.92-17.05
				c1.15-7.05,1.6-14.25,2.37-21.35c3.62,6.71,6.76,13.76,11.37,19.89c3.4,4.51,9.21,10.92,15.46,10.77
				c9.73-0.23,9.28-16.92,9.67-23.54c4.43,3.95,5.77,10.4,9.45,14.99c3.36,4.19,7.93,9.4,13.08,11.28
				c10.86,3.95,9.81-16.2,9.22-21.92c-0.3-2.87-1.92-7.4,1.92-6.1c3.54,1.2,6.98,6.19,9.95,8.48c5.14,3.96,10.78,7.25,16.05,11.03
				c6.54,4.69,13.6,8.08,20.27,12.44c4.17,2.73,8.72,3.34,13.27,5.35c6.66,2.94,12.55,7.33,18.89,10.86
				c12.56,6.98,26.49,13.25,40.22,17.46c4.44,1.36,10.37,5.2,13.74,1.26c2.08-2.43,3.44-6.14,5.2-8.86c2.23-3.45,4.6-6.8,7.05-10.09
				c8.74-11.68,18.43-22.71,29.2-32.56c12.53-11.46,26.23-21.77,40.88-30.36c6.3-3.69,32.59-20.23,38.36-8.59
				c-4.75-0.3-8.86,1.44-12.93,3.62c-0.99,0.53-6.1,4.18-4.91,0.96c-1.49,0.28-2.79,2.21-3.91,3.08c-1.94,1.49-4.89,3.21-7.14,4.44
				c-2.22,1.22-4.97,1.52-7,2.99c-0.74,0.54-1.19,1.41-1.89,2l-2.02,0.02c-0.3,1.12-0.61,2.24-0.91,3.36
				c-1.14-3.67-2.78,1.1-4.69,2.65c-1.15,0.93-2.97,1.89-4.32,2.49c-1.01,0.45-1.17-0.6-2.15,0.2c-0.87,0.71-1.43,2.26-2.37,3.14
				c-1.15,1.08-2.62,1.92-3.91,2.85c-2.46,1.77-5.06,3.16-7.55,4.84c-3.35,2.26-5.11,6.14-8.36,8.5c-1.54,1.12-3.93,1.25-4.77,1.96
				c-2.09,1.8-1.4,4.52-5.3,4.64c0.36,0.57,0.57,1.18,0.64,1.85c-0.93-0.16-1.76-0.54-2.48-1.16c0.16,3.89-3.66,5.28-5.96,7.67
				c-1.32,1.38-2.97,3.32-3.9,4.98c-0.16,0.28-0.45,2.49-0.52,2.52c-0.35,0.17-2.51-1.72-2.3-1.57c-0.6,3.59-4.08,6.99-5.6,10.32
				c-0.8,1.75-1.62,4.57-3.2,5.8c-0.43,0.33-1.75-0.02-2.85,1.15c-0.8,0.85-1.73,2.43-2.05,3.57c-0.22,0.76,0.04,2.71-0.27,3.17
				c-0.57,0.83-1.46,0-2.36,0.61c-1.66,1.13-1.7,2.91-4.12,3.14c1.67,4.06,11.75,5.31,15.42,6.46c10.36,3.26,21.24,6.52,30.93,11.52
				c2.51,1.29,4.88,2.36,5.32,5.33c0.62,4.14-1.49,9.65-1.89,13.83c-1.09,11.3-1.31,22.93-1.09,34.28
				c0.22,10.75,0.56,21.6,1.07,32.33c0.46,9.95,2.47,19.71,3.55,29.59c0.3,2.71,0.1,14.95,4.76,14.33
				c3.89-0.51,1.43-8.87,1.36-11.26c-0.16-5.3,0.95-10.71,0.91-16.06c-0.02-2.57,1.1-4.79,1.21-7.25c0.11-2.43-1.1-4.35-0.74-6.87
				c0.35-2.42,7.5-16.33,0.63-14.7c0.4-1.99,0.75-3.99,1.29-5.95c0.73,0.66,1.33,1.43,1.77,2.31c0.61-4.27,0.41-8.54,0.79-12.81
				c0.17-1.94,0.95-4.06,0.69-6.01c0.05-0.81-0.05-1.6-0.31-2.38c-0.42-0.45-0.95-0.68-1.57-0.7c-0.33-1.07-0.41-1.36,0.17-2.41
				c0.25-0.71,0.74-1.15,1.48-1.33c1.41-0.17,1.57-0.98,0.48-2.43c0.57-2.86,0.64-4.67,0.23-7.53c-0.34-2.4,0.92-7.05-0.37-9.19
				c-1.51-2.5-2.25-0.08-2.53-3.54c-0.06-0.73-0.11-2.26,0.19-2.99c0.32-0.8,1.29-0.47,1.42-0.75c0.84-1.93,0.9-5.71-2.08-5.39
				c0.12-1.38,0.23-2.75,0.35-4.13c2.15,2.48,1.4,0.38,2.62-1c1.65-1.86,3.26-2.18,5.61-2.91c6.27-1.96,12.31-4.9,18.44-7.29
				c12.98-5.06,26.19-9.57,38.79-15.55c26.49-12.57,52.46-26.21,79.11-38.45c-1.9-3.53-0.72-3.71,0.67-7.02
				c1.86,1.29,1.47,0.39,2.79,0.31c-0.12-1.11,0.22-1.44,1.03-1c0.64,0.2,1.3,0.27,1.98,0.21c1.65,0.28,3,1.19,4.5,1.54
				c0.49,0.36,1.03,0.63,1.62,0.82c0.53-0.12,0.98-0.38,1.36-0.79c2.43,0.45,3.25,2.28,3.35,4.93c0.02,0.46-1.39,0.93-0.99,1.55
				c0.71,1.08,2.6,0.82,3.69,0.96c-0.24,1.12-0.48,2.25-0.71,3.37c4.77-2.2,3.52,4.68,4.97,6.95c0.4,0.63,1.3,0.13,1.77,0.86
				c0.61,0.95,0.42,2.3,0.94,3.26c1.17,2.15,2.35,1.89,3.52,4.35c6.11,12.85,14.24,24.82,20.1,37.95c2.79,6.25,5.31,12.6,8.23,18.79
				c2.68,5.7,4.21,10.54,2.3,16.77c-4.43,14.44-9.18,29.14-14.99,43.08C679.56,516.94,679.27,516.48,678.98,516.02 M369.69,623.78
				c-0.42,0.71-0.83,1.42-1.25,2.13C367.51,620.59,369.98,623.06,369.69,623.78 M350.13,613.83c-1.33-0.4-0.76-2.58-0.71-3.51
				c0.84,1.05,1.67,2.12,2.37,3.28C351.23,613.67,350.68,613.75,350.13,613.83 M296.52,593.4c1.4-0.79,2.41-1.35,3.99-2.24
				C298.91,594.3,298.91,594.3,296.52,593.4 M212.2,316.46c-2.14,5.25,4.38,37.67-1.69,38.72c-0.87-2.85-0.98-10.68-4.59-11.61
				c-4.47-1.16-4.03,6.9-4.64,9.4c-9.18-6.39-13.26-18.73-17.65-28.51c-5.59-12.46-9.99-25.43-14.19-38.41
				c-3.59-11.1-6.56-22.4-10.2-33.49c-2.28-6.96-4.74-13.94-6.27-21.12c-0.33-1.56-1.64-5.51-0.53-6.99
				c1.62-2.16,7.45,0.31,9.32,0.88c12.18,3.67,24.82,5.24,37.34,7.37c13.91,2.37,27.78,4.81,41.77,6.64
				c3.5,0.46,6.99,0.89,10.49,1.31c2.27,0.27,5.71,0,7.86,1.02c4.36,2.06,5.29,9.94,6.91,14.03c6.05,15.25,13.16,30.02,19.53,45.14
				c5.74,13.61,10.08,28.1,18.33,40.5c-6.15-2.73-13.94-17.14-20.81-8.83c-2.95,3.57-2.21,8.28-1.97,12.55
				c0.34,6.18,0.45,12.41,0.45,18.6c-6.72-1.75-11.24-9.38-14.77-14.79c-4.82-7.38-7.86-14.34-9.99-22.81
				c-0.93-3.67-3.38-3.76-5.56-5.95c-1.4-1.41-2.1-3.31-4.11-1.26c-2.52,2.58-0.85,9.72-0.41,12.76c1.03,7.24,4.43,18.39,1.13,25.2
				c-4.45,9.18-16.39-13.93-17.79-17.26C229.46,337.85,216.76,305.26,212.2,316.46 M203.86,159.05c0.75,0.11,1.5,0.23,2.26,0.34
				c-0.61,0.54-1.87,2.41-2.9,1.92C203.43,160.56,203.64,159.8,203.86,159.05 M243.69,150.5c-0.24,0.26-0.47,0.52-0.71,0.78
				c-1.08-1.35-0.7-3.31-0.7-4.87C243.71,147.27,244.06,148.99,243.69,150.5 M246.91,165.46v4.41
				C243.92,168.57,243.86,167.9,246.91,165.46 M250.53,171.06c-2.09-0.57-2.34-1.04-2.05-4.25
				C249.35,168.61,249.92,169.8,250.53,171.06 M262.57,203.69c-0.88,2.26-6-3.12-5.81-4.73c0.18-1.53,0.97-1.99,2.05-1.01
				c0.36,0.33-0.17,1.51,0.06,1.92C259.69,201.36,261.36,202.57,262.57,203.69 M262.63,217.28c-1.28,3.21-3.57-1.84-0.22-1.98
				C262.63,215.95,262.71,216.61,262.63,217.28 M260.14,212.23c-0.5-0.66-0.98-1.34-1.45-2.02c1.73,0.35,3.1,2.87,4.92,1.19
				C263.4,213.96,261.58,214.03,260.14,212.23 M148.4,170.58c-2.78-3.03,15.34-5.16,17.53-5.68c15.86-3.78,30.84-9.26,45.68-15.97
				c7.08-3.2,14.12-6.45,21.03-10c2.98-1.53,7.07-2.83,9.57-5.13c1.78-1.64,1.71-2.89,4.02-3.87c1.96-0.83,2.06-0.05,2.96-1.55
				c0.54-0.9,1.15-4.2,0.83-5.17c-0.86-2.66-2.13-0.5-3.92-2.34c-1.29-1.32-0.98-5.08-0.62-6.64c0.46,0.74,0.72,1.55,0.79,2.42
				c1.94-0.96,1.16-4.24,3.28-4.78c2.23-0.57,2,1.17,2.59,2.95c1.69-2.48,0.34-4.59-0.58-7.02c4.65-0.87,9.64-1.71,14.25-0.17
				c3.33,1.12,6.18,3.86,9.7,4.4c3.44,0.52,4.11-1.11,6.64-2.77c2.06-1.35,3.83,0.24,4.89-0.78c-0.65,3.43-6.28,2.96-5.58,7.25
				c0.31,1.93,2.68,3.66,3.75,5.16c1.35,1.88,2.43,3.97,3.35,6.09c3.58,8.26,5.11,17.84,6.61,26.67c3.71,21.8,4.17,44.03,7.66,65.89
				c1.66,10.42,3.33,20.84,4.19,31.36c0.22,2.63,1.82,8.6,0.51,11.13c-1.11,2.14-3.58,2.14-5.75,2.66
				c-4.25,1.01-8.23,2.38-12.31,3.9c-3.65,1.36-4.71,2.2-7.06-1.24c-2.27-3.32-3.39-7.29-5.01-10.93c-2.07-4.64-4.56-9.12-6.96-13.6
				c4.71,0,7.42-2.54,7.29-7.32c-0.14-5.3-4.49-6.56-6.29-10.91c-1.75,2.27-1.89,2.33-3.14,0.18c-1.42-2.46-2.39-6.97-3.26-9.76
				c0.62,0.67,1.25,1.33,1.87,1.99c1.57-2.16-0.89-5.57-1.71-7.61c-1.27-3.14-1.49-6.54-2.7-9.68c-0.66-1.71-2.18-3.06-2.55-4.84
				c-0.25-1.2,0.75-2.33,0.51-3.54c-0.41-2.11-2.8-4.38-3.54-6.53c-1.14-3.3-2.38-6.21-3.8-9.43c-1.92-4.36-1.47-8.93-1.82-13.57
				c-0.36-4.81-1.9-9.41-2.45-14.2c-0.38-3.31,0.8-7.47-1.7-10.12c-0.29,4.4,0.97,4.34-3.17,5.13c-4.71,0.9-8.13,4.41-12.58,5.46
				c-0.92,0.22-1.59-3.79-1.23,1.68c-2.14-1.58-6.7,0.38-4.99,1.32c-1.29,1.38-3.83,0.43-4.25,2.49
				c-4.38-4.26-11.41,10.24-16.62,2.68c-0.86,5.13-4.57,8.15-9.55,8.83c-2.51,0.34-4.05,1.18-6.27,1.93
				c-0.45,0.15-0.62,0.8-1.15,0.97c-0.82,0.27-2.01-0.54-2.6-0.38c-1.2,0.32-2.53,1.89-4.2,2.21c-1.92,0.36-4.01,0.19-5.92-0.03
				c-2.4-0.28-3.45-0.56-5.8,0.23c-2.11,0.71-4.37,2.7-6.33,0.53C159.36,175.85,152.02,174.54,148.4,170.58 M290.74,106.3
				c-2.33-0.28-0.71-2.28,0.37-2.89C294.04,101.78,293.26,106.6,290.74,106.3 M161.72,125.42c13.68-19.73,37.07-33.29,57.65-44.69
				c11.24-6.23,22.72-12.27,34.52-17.37c5.87-2.53,11.81-4.97,17.8-7.2c3.2-1.19,6.44-2.27,9.68-3.35c0.9-0.3,2.53-1.21,3.46-1.12
				c-0.16-0.02,2.33,0.66,1.84,0.88c1.61-0.7,2.37-2.52,4.26-3.25c2.12-0.82,4.82-1.16,7.1-1.23c2.01-0.07,3.75,0.76,5.67,0.83
				c1.26,0.04,2.33-0.56,3.56-0.64c0.63-0.04,0.58,0.9,0.96,0.96c0.17,0.02,1.85-0.61,1.86-0.6c0.61,0.39,1.15,1.93,1.71,2.53
				c1.59,1.72,3.91,2.91,6.03,3.82c2.57,1.1,8.85,2.21,5.94,6.28c2.07-0.3,3.03,1.57,0.44,2.04c-1.4,0.26-2-1.03-3.04-1.9
				c-2.4-2.02-8.24-4.9-11.71-4.77c-1.95,0.07-3.45,1.55-5.25,2.09c-1.77,0.53-2.65-0.29-4.2-0.16c-1.81,0.15-2.98,1.69-4.71,1.96
				c-1.62,0.26-2.52-0.85-3.97-0.77c-1.72,0.09-3.39,1.58-5.03,2.09c-2.61,0.8-4.53,1.34-7.08,2.67
				c-4.94,2.57-10.46,3.54-15.55,5.75c-4.07,1.76-8.69,2.69-12.46,4.65c-4.19,2.17-8.4,4.33-12.5,6.69
				c-2.96,1.7-8.99,2.29-12.26,1.86c-0.05,6.02-3.01,1.8-5.99,4.44c0.71,0.62,1.51,1.08,2.4,1.37c-3.24,1.29-6.23,2.9-9.36,4.38
				c-3.24,1.54-6.69,1.87-8.82,4.78c-1.96,2.68-1.3,1.3-4.22,2.35c-1.34,0.48-2.51,1.96-3.48,2.95c-1.66,1.7-2.03,4.28-2.98,0.78
				c-0.28,0.43-1.37,3.15-1.58,3.21c-1.19-1.26-1.36,0.23-2.02,0.77c0.35,1.16-0.15,1.93-1.5,2.29c-0.68,0.51-1.38,1.01-2.07,1.49
				c-2.54,1.76-5.76,3.27-7.55,5.89c-1.32-0.78-1.81-2.12-1-3.49c-2.52,2.32-5.52,4.7-6.2,8.27c-0.31-0.3-0.68-0.52-1.09-0.65
				c-1.02,0.69,0.31,2.75,0.96,3.21c2.83-1.1-0.71-0.7,1.19-0.52c0.54,0.05,1.1,0.46,1.69,0.46c1.75,0.02,3.4-0.06,5.13-0.33
				c3.83-0.59,7.59-1.69,11.3-2.79c4.04-1.2,8.07-2.4,12.02-3.87c3.25-1.21,6.45-2.56,9.64-3.91c1.28-0.54,2.55-1.08,3.83-1.62
				c2.43-1.01,3.71-2.68,3.37,0.17c1.93-0.32,3.61-3.05,5.09-4.17c2.09-1.57,4.44-2.74,6.91-3.54c1-0.32,1.74-0.74,2.77-0.74
				c0.51,0,0.81,1.43,1.13,1.35c2.22-0.54,1.21-1.77,2.21-3.54c2.18-3.87,8.06-6.01,11.67-8.22c2.29-1.4,3.92-3.28,6.04-4.82
				c0.99-0.72,1.71-1.04,2.75-1.35c0.79-0.24,1.77,1.59,2.28-0.24c-1.85-0.75-3.37-1.69-5.15-2.24c-1.26-0.39,0.25-1.73-1.74-0.93
				c-0.8,0.32-1.07,1.87-1.37,2.52c-2.23-1.99-8.48,0.07-11.12,0.9c-0.18,0.06-1-0.37-1.38-0.35c-1.52,0.1-2.58,2.15-3.59,3.04
				c-2.67,2.35-5.56,3.33-8.84,4.67c0.87-4.77,7.3-6.73,11.05-8.56c5.48-2.67,10.58-6.09,16.58-7.53c4-0.96,9.29-1.73,11.02,2.92
				c1.03,2.79,1.16,9.7-2.33,10.99c-0.37-1.3,0.81-2.41,1.17-3.54c-3.48,1.33-4.05,5.51-6.69,7.69c-1.48,1.22-2.02,1.62-2.73,2.8
				c-0.71,1.18-1.06,2.27-2.73,3.52c-2.73-5.8-2.27,2.14-3.65,3.14c0.56-0.4-2.26,0.77-1.92,0.65c-0.13,0.05-1.36-1.94-2.15-1.9
				c-1.45,0.08-1.17,1.67-1.87,2.47c-2.36,2.71-5.42,4.49-9.22,4.07c-0.09,1.93,0.51,4.24-2.13,4.41l-0.35-4.28
				c-1.43,1.45-3.32,2.83-4.49,4.51c-1.33,1.91-1.19,3.09-3.39,4.37c-2.3,1.33-7.21,3.96-9.95,4.19c0.68-0.96,0.56-1.83-0.36-2.61
				c-1.38,1.42-3.41,1.56-4.88,2.85c5.1,2.13-3.92,2.02-5.06,2.26c-0.76,0.16-1.43,0.86-2.21,1.02c-1.03,0.21-1.16-0.87-2.05-0.53
				c-1.3,0.5-0.77,1.92-2.13,2.63c-0.97,0.51-2.63,0.51-3.73,0.99c-2.62,1.16-8.2,3.73-9.97,0.61c-0.9,5.35-10.06,2.09-13.45,1.73
				C165.5,133.81,157.41,131.63,161.72,125.42 M181.23,70.72c0.66-0.56,1.32-0.52,1.97,0.12c-0.92-4.84,6.17-7.19,9.26-9.24
				c4.1-2.73,8.93-8.02,14.29-7.6c-0.91,0.68-1.83,1.36-2.74,2.03c1.31,0.17,2.61,0.34,3.91,0.51c-0.74,1.08-1.47,2.16-2.21,3.24
				c-1.2-6.64-7.49,1.74-9.3,2.96c-1.83,1.23-3.66,2.15-5.28,3.64c-1.61,1.49-3.07,4.16-5.73,2.82c-0.24,3.79-3.29,2.76-5.4,4.86
				C179.91,72.75,180.66,71.82,181.23,70.72 M209.06,51.8c6.49-2.43,12.13-6.92,18.24-10.13c5.84-3.07,11.79-5.82,17.73-8.68
				c3.01-1.45,8.52-5.2,11.97-3.29c4.64,2.58-1.75,3.41-3.41,4.31c-0.61-3.98-2.76-0.37-1.48,1.84c-3.54-1.53-11.27,4.46-14.65,6.11
				c-0.76,0.37-0.42,0.59-1.29,1.03c-0.21,0.11-2.43,0.61-3.07,0.83c-3.18,1.07-5.28,0.22-6.65,4.06c-0.29-0.9-0.57-1.81-0.86-2.71
				c-1.99,4.47-8.05,6.43-11.92,9.08c-1,0.68-3.85,3.33-5.11,2.78C206.79,56.25,207.5,52.38,209.06,51.8 M326.05,65.29
				c2.74,0.18,0.1,1.46,0.85,2.3c-0.08-0.1,1.65,1.38,1.42,0.98c0.31,0.55,1.04,0.53,1.42,1.64c1.3,3.82-4.36,7.76-6.27,9.93
				c-3.71,4.21-5.85,9.55-9.71,13.63c-1.74,1.84-3.48,3.11-5.9,3.8c-1.69,0.48-3.48-0.03-5.04,1.59c-1.25,1.31-0.97,2.06-2.35,2.75
				c-2.44,1.23-3.51,0.15-5.89,2.81c-2.04-5.55,3.83-5.55,6.89-8.65c4.23-4.29,8.86-8.61,12.83-13.19
				c3.52-4.07,4.93-7.64,6.61-12.59c0.53-1.56,1.1-4.9,2.55-5.88C325.71,62.87,324.35,65.17,326.05,65.29 M339.51,209.57
				c7.18-8.03,16.09-15.24,25.75-20.08c3.45-1.73,8.36-4,11.94-1.34c3.51,2.61,2.75,7.82,1.34,11.36c-1.36-0.53-0.08-5.51-0.78-6.74
				c-1.53-2.68-4.84-1.26-7.1-0.36c-2.64,1.05-4.99,2.22-7.08,4.13c-0.85,0.77-2.47,1.47-3.01,2c-0.82-0.34-1.3-0.09-1.44,0.74
				c0.17,0.51,0.15,1.01-0.06,1.51c-0.12,0.16-1.18-0.49-1.33-0.36c-0.69,0.59-1.33,1.28-2.01,1.83c-1.36,1.1-2.51,1.62-3.77,3.15
				c-2.42,2.96-5.61,4.7-8.04,7.52c-0.55,0.64-1.21,2.27-1.33,2.42c-1.23,1.43-3.05,2.57-4.43,4.08c-2.39,2.62-4.95,4.38-7.71,6.62
				c-1.19,0.97-2.58,2.01-3.37,3.35c-0.36,0.61-0.56,3.97-0.58,3.99c-2.71,2.97-2.18-3-1.98-3.75
				C326.73,221.59,334.17,215.55,339.51,209.57 M324.73,263.99c0.34,1.26,0.61,2.31,0.96,3.59
				C323.54,265.82,323.54,265.82,324.73,263.99 M322.41,268.13c-0.79,0.8-1.58,1.58-2.38,2.37
				C318.27,268.65,322.73,267.81,322.41,268.13 M321.3,236.17c-0.84,3.4-3.91,7.52-6.03,10.2c0.23-0.3-1.8,0.3-2.04,0.43
				c-0.75,0.44,1.05,3.26-1.56,2c-0.93,0.52,0.9,2.66-0.36,3.61c-3.64-8.29,6.29-15.46,10.14-21.61
				C323.33,232.53,321.77,234.27,321.3,236.17 M297.68,280.96c2.65,0.68,4.03,0.25,5.82-2.35c1.08-1.56,1.47-4.33,3.93-1.99
				l0.43-3.01c3.51,1.44,3.22,6.65,4.75,9.54c0.75-3.27,2.52-12.39,7.93-10.92c6.08,1.64-4.04,12.1-4.98,14.66
				c-2.07-3.21-1.25-0.22-2.83,0.23c-1.35,0.39-3.47-0.61-5.11-0.52c-5,0.27-9.4,2.52-13.97,4.43c-1.16-3.12-2.31-6.24-3.47-9.36
				c2.69,0.21,8.25-6.95,9.04-1.75c-1.99-0.35-2.56-0.26-3.53,1.56C296.33,281.16,296.98,280.99,297.68,280.96 M308.91,321.68
				c-0.01-0.02,5.17,0.3,5.64,0.13c3.55-1.3,2.24-5.32,2.96-8.16c1.46,1.34,0.69,3.8,1.14,5.54c0.53,2.04,2.06,3.79,2.2,5.97
				c0.32,4.94-3.73,3.84-6.8,5.44c-2.63,1.37-2.92,3.08-5.13-0.6c-0.6-1-1.89-3.59-1.76-4.86
				C307.28,323.87,309.28,322.82,308.91,321.68 M313.08,343.05l-1.43-1.61c4.27,1.31,1.75-0.66,2.73-3.35
				c3.28,2.18,5.95,4.43,8.54,0.06l4.48,18.07c-3.01,0.71-6.89-3.94-8.96-5.54c-1.19-0.92-7.81-4.48-3.83-5.51
				C314.1,344.46,313.59,343.76,313.08,343.05 M342.33,286.31c-2.49,2.36-4.99,3.69-7.7,5.55c-2.38,1.63-1.56,3.51-3.62,5.32
				c-1.37,1.21-4.57,2.44-6.26,3.37c-3.01,1.64-5.7,1.96-8.8,0.12c0.84,6.78-3.8,7.31-9.58,8.65c-2.76,0.64-4.39,1.62-6.38-0.9
				c-1.36-1.73-1.89-4.86-0.2-6.44c2.69-2.51,9.85-1.64,13.3-3.23c2.62-1.2,5.29-7.95,8.52-5.49c-1.67-2.65,0.27-3.37,1.72-5.26
				c1.59-2.07,2.56-4.5,4.2-6.56c3.12-3.91,7.91-7.85,12.34-10.21c3.9-2.08,5.95-0.61,6.53,3.75c0.29,2.19,0.28,5.45-0.94,7.4
				c-0.39,0.62-1.68,0.63-2.07,1.21C342.71,284.6,343.33,285.35,342.33,286.31 M388.08,233.71c3.11,2.41,2.81,7.47,3.3,10.91
				c0.69,4.86,0.19,9.56,0.12,14.5c-0.08,5.18-2.62,8.56-3.82,13.42c-1.33,5.4-3.05,8.27-6.03,12.8c3.24,0.51-1.58,10.17-2.37,11.42
				c-0.86,1.36-7.81,7.62-4.83,7.62c-1.64,2.17-3.43,4.39-5.07,6.5c-0.64,0.83-1.78,1.16-2.28,1.74c-1.04,1.19-1.1,2.25-1.84,3.64
				c-1.13,2.11-1.5,1.55-2.97,3.08c-1.02,1.06-1.69,2.45-2.69,3.47c-3.23,3.26-3.64,0.59-5.45-1.92c-0.28,0.67-0.77,1.1-1.48,1.27
				c-0.57-2.84,3.33-5.72,4.97-7.45c2.68-2.83,5.14-5.95,7.51-9.05c5.08-6.64,9.65-13.69,13.25-21.24
				c3.83-8.04,6.89-16.74,8.48-25.5c1.21-6.68,2.36-18.15-6.57-19.85c-6.49-1.24-13.65,2.71-19.01,5.9
				c-3.26,1.95-6.54,3.88-9.65,6.07c-3.37,2.37-6.29,5.73-9.95,7.64c2-1.04-4.61,2.09-3.59,1.21c-0.47,0.41-0.06,1.67-0.38,2.24
				c-0.41,0.74-1.83,1.47-2.46,1.95c-1.68,1.26-4.36,2.55-5.13,4.64c-10.66-7.6,10.54-21.1,15.97-24.53
				C356.85,237.37,375.6,224.05,388.08,233.71 M416.82,159.78c-0.1-5.47,4.36-12.95,7.37-17.41c1.47-2.19,3.83-2.1,4.69-4.68
				c0.5-1.48-0.15-3.04-0.01-4.53c0.2-2.01,1.07-3.63,2.08-5.36c9.11-15.66,20.19-29.51,31.98-43.17
				c5.81-6.73,11.33-13.73,17.6-20.05c2.62-2.64,9.66-12.14,13.69-11.19c2.13,0.5,3.37,3.76,4.34,5.42
				c1.59,2.75,3.34,5.32,5.28,7.85c5.11,6.67,11,12.52,17.95,17.25c4.34,2.95,8.73,5.83,12.98,8.92c3.5,2.55,8.78,5.46,11.28,9.04
				c2.5,3.58-1.17,6.61-3.17,9.58c-3.12,4.62-5.98,9.4-9.11,14.02c-1.24-0.89-0.92-2.71-1.77-3.86c-0.76-1.01-1.83-1.43-2.87-2.06
				c-2-1.2-3.96-2.67-5.77-0.66c-3.16,3.52,1.19,11.83,5.87,10.92c0.55,3.47-8.81,9.18-11.15,11.1
				c-7.2,5.86-14.63,10.95-24.14,11.48c-3.85,0.21-7.85-0.08-11.51-1.37c-1.75-0.62-3.69-1.46-5.03-2.81
				c-1.61-1.61-2.02-4.01-3.58-5.6c-1.35-1.38-3.21-1.6-4.56-2.98c-1.35-1.39-2.02-3.58-2.57-5.38c-1.07-3.51-1.28-7.22-2.31-10.74
				c-0.62-2.12-1.13-4.95-3.16-2.92c-2.94,2.96-1.46,12.26-0.71,15.8c1.08,5.06,3.6,9.13,6.25,13.48c2.87,4.72,3.93,9.1,4.44,14.56
				c0.96,10.22,3.9,20.03,8.46,29.22c1.92,3.87,4.22,7.51,6.3,11.3c0.97,1.76,3.14,7.79,5.77,7.75c4.21-0.05-1.79-12.33-2.62-14.39
				c-4.61-11.41-9.02-23.41-10.01-35.77c6.61,1.7,13.82,3.32,20.66,2.24c-4.42,9.88,0.2,19.72-0.37,29.89
				c-0.28,5.1-0.49,9.81-0.38,14.89c0.09,4.46-1.92,8.92-3.66,12.95c-3.46,8.01-7.81,17.89-14.23,24.02
				c-5.37,5.13-12.55,5.53-19.57,4.35c-15.96-2.69-26.44-14.96-33.14-28.89c-4.3-8.95-7.59-18.5-9.63-28.22
				C416.41,182.51,417.03,171.19,416.82,159.78 M437.55,83.97c-14.89-10.78,6.75-23.01,17.76-21.34c2.58,0.39,7.34,1.46,7.1,4.83
				c-0.2,2.76-4.8,5.83-6.56,7.53C450.81,79.84,445.69,89.86,437.55,83.97 M545.88,323.39c-0.51-0.46-4.68,0.67-3.03-1.8
				c1.37-2.05,5.18,0.52,6.56,1.05C548.27,323.42,547.28,324.64,545.88,323.39 M483.87,453.7c-1.28,0.16-2.62-3.29,2-0.71
				C485.2,453.23,484.54,453.47,483.87,453.7 M483.74,509.97c0.16,1.55,0.63,2.57-0.47,3.69
				C482.34,512.51,482.22,510.9,483.74,509.97 M485.61,533.21c-0.14,0.84-0.27,1.68-0.41,2.52c-1.07-0.54-2.13-1.08-3.2-1.62
				C483.21,533.82,484.41,533.51,485.61,533.21 M486.92,513.61c1.59,0.59,0.85-1.3,2-1.57c0.41,1.98-0.1,3.67-1.23,5.3
				C487.58,516.95,487,513.64,486.92,513.61 M527.5,373.33c-2.23-0.28-2.57,2.07-4.23,2.98c-1.07,0.59-4.34,0.15-4.94,1.28
				c0.8,0.23,1.61,0.46,2.41,0.7c-1.84,0.99-3.68,1.99-5.52,2.98c4.43,0,9.04-2.12,13.44-1.49c1.86,0.26,3.22,0.89,4.39,2.4
				c0.71,0.92,1.33,2.39,1.44,3.52c0.12,1.22-0.83,2.06-0.66,2.64c1.98,0.05,1.75,3.3,1.3,4.63c-0.97,2.87-4.8,7.37-8.23,5.55
				c1.44,2.04,1.07,3.2-1.05,4.39c0.19-0.67,0.33-1.85-0.75-1.74c-0.28,1.13-0.17,2.92-1.09,3.77c-1.03,0.95-1.96-0.16-2.94,0.46
				c-1.17,0.74-0.82,1.89-1.74,2.69c-1.22,1.05-1.39,0.31-2.85,0.51c-2.21,0.31-0.8-1.06-2.56,0.73c-0.61,0.62-0.51,2.22-1.5,3.12
				c-1.9,1.73-6.98,3.54-8.8,1.32c-4.38,6.94-17.51,8.61-23.62,3.13c-9.75-8.74,8.43-26.52,14.43-32.15
				c6.02-5.65,12.71-10.54,19.48-15.25c3.85-2.68,7.79-5.11,11.82-7.49c2.49-1.47,5.61-4.16,8.66-3.9c2.74,0.23,5.08,2.36,7.97,2.78
				c2.09,0.3,6.14,0.81,3.51,3.64c-1.23,1.32-6.07,3.46-7.71,3.78c-0.97,0.19-1.99-0.17-2.94,0.02c-1.62,0.33-2.74,1.7-4.5,1.53
				C531.26,372.45,530.24,373.68,527.5,373.33 M556.35,276.1c0,2.05-3.74,1.54-4.52,0.84c-1.29-1.14-1.33-4.57-1.81-6.13
				C552.2,271.37,556.35,273.37,556.35,276.1 M526.22,208.51c7.86-6.46,16.12-12.38,24.85-17.59c3.13-1.87,7.54-5.63,11.43-5.16
				c1.63,0.2,5,2.07,3.77,4.13c-0.23,0.39-2.04,0.54-2.6,0.82c-0.64,0.32-1.13,1.19-1.72,1.62c-4.08,2.99-8.98,4.83-13.08,7.9
				c-3.36,2.52-6.5,5.33-10.12,7.49c-3.47,2.07-7.1,3.38-10.4,5.68c0.07-0.05-4.29,1.52-3.44,1.81
				C521.08,213.92,525.12,209.41,526.22,208.51 M578.6,206.1c4.67-1.86,9.23-4.12,14.12-5.37c2.44-0.62,4.94-1.09,7.47-0.81
				c0.43-0.75,1-0.92,1.71-0.5c0.56,0.86,1.29,1.51,2.2,1.97c1.39,1.07,6.52,2.47,5.49,4.83c-0.68,1.56-5.82,1.69-7.23,2.04
				c-4.25,1.06-8.21,3.44-12.59,4.03c-0.41,0.05-1.75-0.44-1.77-0.44c-1.71,0.37-3.13,2.15-4.6,3c-3.16,1.83-7.7,2.14-9.97,5.29
				c7.35,4.98,13.72,0.04,20.18-3.72c3.87-2.25,8.02-3.88,12.25-5.32c2.21-0.75,4.44-1.54,6.68-2.2c0.93-0.34,1.88-0.58,2.86-0.73
				c0.91-0.18,1.56,0.15,1.95,0.99c2.71-0.09,2.94-1.79,4.57,1.38c2.3,4.47-1.22,4.24-4.52,4.79c-4.58,0.76-9.24,2.47-13.76,3.61
				c-1.04,0.26-10.17,2.38-10.18,2.45c-0.41,2.88,25.79,0.21,28.04-0.22c3.97-0.76,8.23-2.93,12.34-2.41
				c3.16,0.4,10.34,5.03,5.31,8.11c-0.99-4.74-4.39-0.83-6.17,0.78c-2.37,2.13-5.76,1.93-9,2.76c-4.44,1.14-15.8,5.42-18.95-0.04
				c1,4.78-17.11,2.35-19.6,2.19c-2.43-0.15-5.56,0.36-7.91-0.33c-1.53-0.45-2.38-1.45-3.82-1.67c-0.35,0.38-0.78,0.64-1.27,0.78
				c-0.73-0.37-1.39-0.84-1.98-1.41c-4.85-2.23-12.35-3.46-9.66-10.56C563.35,212.68,572.44,208.56,578.6,206.1 M624.06,210.24
				c0.12-0.42,0.24-0.83,0.36-1.25c0.01,1.28,3.07,1.82,2.71,3.48c-0.78,3.67-4.3-1.84-4.6-2.44
				C623.04,210.1,623.55,210.17,624.06,210.24 M642.68,216.34c0.35,1.5,4.41,4.7,3.4,5.44C644.49,219.6,640.07,220.59,642.68,216.34
				 M574.26,353.48c1.49-2.95,5.97,2.07,5.5-2.96c2.44,0.22,0.92,2.08,3.84,1.26c1.1-0.31,1.84-1.52,3.17-1.8
				c0.36-0.08,1.9,0.05,2.43,0.03c1.76-0.05,8.65-0.25,3.91-2.56c2.66-1.76,2.98-0.87,5.38,0.74c-0.61-3.33,2.91-1.44,4.55-1.02
				c-1.17-1.9,1.73-3.91,2.68-5.2c-0.34,1.98-0.16,4.19,2.7,2.92c0.71-0.31,0.55-1.71,1.12-1.94c1.03-0.42,1.61,0.34,1.98,0.3
				c0.36-0.04,1.13,0.16,1.9-0.13c1-0.38,0.52-1.71,1.78-1.91c0.82-0.13,1.42,1.08,2.43,1.09c0.52,0,1.38-0.52,1.77-0.49
				c0.07,0.01,0.56-1.18,1.16-1.21c0.88-0.04,1.24,2.32,1.56,2.78c1.54,2.19,3.6,3.62,5.97,4.79c-4.28,3.93-12.93,3.51-18.31,4.84
				c-2.92,0.72-5.41,1.75-8.08,3.09c-0.64,0.42-1.2,0.93-1.66,1.54c-0.38-0.25-0.76-0.5-1.14-0.75c-1.46,0.09-2.85-0.63-4.49-0.36
				c-5.09,0.86-9.07,4.67-14.24,5.52c-2.32,0.38-4.23,0.92-5.75-1.1C573.1,359.19,573.32,355.35,574.26,353.48 M567.29,330
				c1.15,0.98-0.23,4.15,2,3.8c1.58-0.24,1.27-2.7,2.51-3.22c1.63-0.68,2.62,0.94,4.16,0.79c2.86-0.28,2.7-2.78,0.28-3.88
				c2.52-0.66,3.32,2.31,5.55,2.28c2.92-0.04,2.23-3.49,4.72-4.06c1.08-0.25,0.72,1.34,1.42,1.53c1.4,0.39,2.38-0.28,3.61-0.88
				c1.11-0.53,1.9-1.56,3.11-1.9c0.55-0.16,1.95,0.13,2.35-0.16c0.82-0.59,1.54-2.91,2.35-3.21c-0.16,0.06,2.47,1.38,2.84,1.5
				c-0.23,0.98-0.77,1.09-1.61,0.35c0,2.2,6.13,2.89,4.87,0.17c3.31,1.37,0.85,2.08,0.51,3.99c-0.13,0.77-0.58,0.75-0.45,1.56
				c0.06,0.38,1.8,0.05,1.78,0.56c-0.15,3.29-10.64,4.3-12.62,4.59c-4.11,0.6-8.01,1.61-11.97,2.86c-2.95,0.93-8.04,3.58-11.18,3.42
				C566.99,339.86,566.4,333.96,567.29,330 M557.19,296.42c-1.1-3.66,2.43-11.22,7.04-10.28c1.13,0.23,1.41,1.17,2.29,1.59
				c1.23,0.58,3.22,0.28,4.28,0.88c2.38,1.35,1.18,4.79,3.57,6.03C570.6,295.55,558.94,302.24,557.19,296.42 M561.56,310.65
				c1.62-0.87,4.26-0.98,5.36-2.66c0.55,0.38,1.59,2.7,2.58,2.35c0.46-0.17,0.94-1.42,0.91-1.42c0.88-0.02,1.06-1.22,2.4-1.08
				c1.24,0.12,2.62,1.61,3.72,2.16c-0.19-3.68,0.75-4.04,3.74-6.01c0.66-0.43,1.2-2.05,1.81-2.71c-0.58,3.87,0.88,3.89,3.97,4.47
				c3.87,0.73,6.28,2.81,7.83,6.54c-3.3-0.64-7.55,0.13-8.85,3.68c-2.63-4.81-12.2,1.83-15.29,3.19c-2.3,1.01-4.97,2.37-6.9,0.01
				c-1.36-1.66-0.58-3.65-0.55-5.12c0.01-0.46,0.48-0.49,0.44-1.18C562.67,311.98,561.53,311.63,561.56,310.65 M596.77,386.27
				c-0.87,0.33-5.35,0.51-5.38-0.97C591.36,383.98,599.29,385.31,596.77,386.27 M589.48,381.46c-3.39,2.09-7.19-5.28-8.43-7.4
				c3.56,0.45,5.29-2.52,7.39-4.78c1.99,4.37,5.02,2.06,8.21,0.6c3.76-1.72,7.87-1.73,11.72-3.11c1.2-0.43,2.31-1.07,3.48-1.57
				c0.94-0.35,1.89-0.71,2.82-1.09c0.66-0.6,0.9-1.34,0.71-2.21c-0.32-0.74-0.1-1.2,0.64-1.39c0.89,0.26,1.79,0.42,2.71,0.46
				c1.48-0.29,3.61-1.69,1.82-3.2c1.92-1.74,3.84-0.01,5.69,0.75c-0.44-1.25-0.88-2.5-1.32-3.75c0.92,0.39,3.64,4.19,3.91,4.17
				c1.76-0.13,1.58-2.49,2.59-3.44c0.58,0.72,0.75,6.08,3.04,4.27c0.98-0.77-1.13-3.4-1.65-4c2.62,0.59,4.91,3.72,5.62,6.15
				c-1.24,0.18-2.4-0.07-3.45-0.75c-0.68,3.38,5.59,2.01,6.6,3.78c1.99,3.46-10.93,5.86-12.61,6.19c-3.37,0.64-7.34,0.88-10.43,2.37
				c-2.96,1.43-3.66,1.84-7.11,2.11c-3.94,0.31-7.79,1.61-11.61,2.62C596.51,379.11,592.42,379.65,589.48,381.46 M661.58,257.57
				c3.11-1.12,13.61-6.94,16.28-4.35c-0.28-0.27,1.93,4.29,1.9,4c0.19,2.37,0.13,3.33-2.79,4.46c-2.09,0.81-3.91-0.92-5.8-0.23
				c-2.07,0.75-0.62,2.09-1.68,3.02c-1.17,1.02-3.41,1.46-4.87,1.91c-3.55,1.1-7.13,2.01-10.67,3.2c-7.19,2.4-14.81,4.64-22.2,6.34
				c-5.52,1.27-14.9,4.43-19.99,0.7c-0.5,2.12-1.71,1.83-3.4,2.14c-1.32,0.24-3.71,0.9-4.89,0.93c-1.96,0.06-7.4-0.46-6.65-3.2
				c-0.21,0.76,4.23-1.83,3.46-1.99c1.89,0.4,1.27-0.55,2.82-1.08c2.02-0.69,4.13-0.65,6.18-1.38c5.19-1.84,9.54-4.23,15.02-5.38
				C636.84,264.03,649.51,261.92,661.58,257.57 M159.89,541.16c-1.01,0.03-1.8-2.85,1.28-0.8
				C160.74,540.63,160.31,540.9,159.89,541.16 M135.52,537.44c-1.38,0.35-1.93-0.42-1.65-2.31
				C135.79,534.37,136.34,535.14,135.52,537.44 M116.7,533.58c-0.35-1.69,0.9-2.07,2.03-2.82
				C118.62,532.99,118.62,532.99,116.7,533.58 M69.36,519.7c-1.91-0.42-4.45-2.28-4.88,0.85c-0.32-0.73-1.95-4.14-1.25-4.92
				c0.36-0.41,1.75,1.5,1.6,1.31c1.67-3.38,4.55,0.7,6.15,1.9C70.45,519.13,69.9,519.41,69.36,519.7 M565.18,146.61
				c0.66-1.39,1.43-1.83,2.33-1.32C566.11,148.54,561.36,150.3,565.18,146.61 M598.17,116.04c1.18,2.2-0.59,3.14-1.86,4.97
				C597.05,119.04,597.57,117.67,598.17,116.04 M741.55,331.29c4.24,0,13.28-2.24,15.84,2.61c1.69-3.3,3.62,2.88,5.09,3.88
				c0.16,0.11,1.22-0.7,1.71-0.4c0.74,0.45,1.38,1.67,1.81,2.4c1.28,2.19,1.83,4.8,2.54,7.21c-7.41,0-15.01-1.73-22.41-2.35
				c-4.86-0.41-9.62-0.42-14.49-0.16c-0.97,0.05-2.89-0.27-3.71-0.09c-0.84,0.18-2.36,1.9-3.29,1.62c1.44,2.7,19.87,9.24,21.27,6.25
				c-1.67-1.01-5.37-1.78-5.36-4.22c0-2.73,3.47-2.72,5.31-2.64c4.02,0.18,10.75,1.51,12.4,5.69c0.71,1.79,0.92,6.3,0.15,8.03
				c-0.5,1.12-1.35,2.46-2.69,2.69c-0.55,0.09-1.35-0.64-1.43-0.62c-2.76,0.59-7.86,2.8-10.87-0.32
				c-2.17,2.81-12.62-0.26-15.82-1.32c-5.59-1.85-13.3-4.39-16.7-9.61c-4.14-6.36,4.28-11.74,9.11-14.33
				C726.62,332.07,734.17,331.29,741.55,331.29 M769.78,346c1.3,0.37,2.6,0.73,3.9,1.1C773.33,349.38,768.2,347.57,769.78,346
				 M809.09,428.87c0.4-9.14-2.24-17.18-3.77-26.01c-0.38-2.19,0.01-6.02-1.66-7.82c-1.59-1.72-5.14-0.32-5.28-3.37
				c-1.57,1.83-1.41,2.22-3.34,0.11c0.35,0.9,0.4,1.82,0.15,2.76c-1.2-0.69-5.53-2.96-5.17,0.15c-3.57-0.79-2.53-3.02-4.57-4.72
				c-0.29-0.24-1.45,0.62-1.9,0.25c-0.82-0.66-1.22-1.26-1.91-2.12c-0.88,1.06-2.07,1.83-3.14,2.66c-0.62-1.36-1.84-2.35-3.29-2.68
				c1.36,2.85,4.73,6.55,0.11,8.17c-2.76,0.97-7.28-0.22-10.2,0.01c-10.83,0.84-22.69-1.52-33.16-4.1
				c-10.76-2.65-21.64-6.39-31.31-11.86c-2.06-1.17-3.36-2.55-5.14-3.99c-1.73-1.41-2.98-1.63-5.06-2.53
				c-3.73-1.62-7.15-4.21-9.99-7.1c-6.11-6.22-11.78-14.35-10.08-23.46c1.7-9.08,7.93-16.17,14.61-22.14
				c7.88-7.06,16.78-12.95,26.23-17.7c4.22-2.12,15.03-10.1,19.2-5.43c2.67,2.98,1.17,6.79-2.48,7.45c-0.9,0.16-1.84-0.44-2.75-0.03
				c-1.31,0.6-0.85,1.3-1.39,1.8c-0.94,0.86-1.94,2.21-3.34,2.96c-4.9,2.61-9.63,4.68-14.31,7.86c-2.16,1.47-4.23,2.1-6.14,3.37
				c-1.89,1.27-2.32,3.38-4.87,2.08c0.91,3.7-4.53,7.66-6.67,9.93c-3.3,3.51-7.26,7.99-5.72,13.18
				c3.02,10.17,16.65,17.89,25.37,22.36c10.89,5.58,22.89,10.02,35.01,11.85c6.03,0.91,12.25,1.48,18.33,2.06
				c4.73,0.45,11.98-1.2,15.38,3.06c0.11-4.96,15.61-4.53,18.91-5.16c-6.62-22.62-19.61-42.72-33.49-61.51
				c-6.82-9.22-13.51-18.71-21.28-27.16c-8.51-9.26-18.22-17.53-27.46-26.04c-18.11-16.7-38.59-31.61-59.43-44.74
				c-20.79-13.1-42.33-25.99-65.11-35.34c-26.02-10.67-53.41-17.68-80.84-23.66c3.72-4.74,9.77-7.05,14.53-10.52
				c1.67-1.21,3.92-4.13,6.09-4.53c2.35-0.43,4.19,2.09,5.86,3.36c4.79,3.64,8.11,2.09,13.6,1.87c3.28-0.13,11.06,1.7,12.45-2.74
				c1.84,2.45-0.83,4.42-2.2,6.22c0.99,1.39,1.8-0.05,2.78-0.27c0.3-0.25,0.6-0.5,0.91-0.75c0.49-0.71,0.93-0.71,1.32-0.01
				c0.59,0.88,1.18,0.69,1.77-0.59c0.16-0.1,0.32-0.21,0.49-0.31c0.71-0.38,1.4-0.98,2.05-1.45c4.99-3.57,9.43-6.6,14.94-9.23
				c4.63-2.2,2.14-6.42,5.19-9.4c0.69-0.67,1.85-0.34,2.59-0.91c0.72-0.56,0.83-1.2,1.36-1.8c1.27-1.45-0.24-3.12,2.99-1.35
				l-1.17-6.56c6.34,6.15,6.31-11.54,7.18-14.16c-0.11,0.35,0.57-2.33,0.57-2.31c0.19-5.31,0.91-9.16-5.31-9.47
				c2.35-1.48,3.07,1.41,4.16-1.58c0.54-1.5-1.15-4.08,1.55-3.11c0.57-3.19,0.01-5.77-0.7-8.87c-0.73-3.17-0.3-5.29-0.27-8.46
				c0.04-3.6-1.65-7.21-2.19-10.75c-0.42-2.77,0.01-7.15-3.57-6.13c-0.5-0.79,1.27-3.22,1.2-4.42c-0.11-1.86-2.14-3.76-2.71-5.55
				c-0.84,0.87-2.03,1.16-3.18,0.77c1.08-2.43,0.07-3.25-0.97-5.35c-0.59-1.2-0.23-2.53-1.5-3.39c-0.72-0.49-1.96,0.34-2.53-0.24
				c-1.22-1.24-0.77-2.88-1.61-4.52c-1.05-2.05-3.45-3.61-5.11-5.15c-9.3-8.65-19.4-15.25-31.78-18.63
				c-12.48-3.41-27.03-4.63-39.47-0.7c-4.97,1.57-9.39,1.41-13.86,4.34c-1.45,0.95-1.61,0.7-2.34,2.28
				c-0.17,0.37,1.38,1.35,0.43,1.96c-1.03,0.66-2.16-0.68-2.69-1.79c-6.47,4.69-12.54,10.93-16.23,18.1
				c-3.66,7.12-4,15.48-5.4,23.22c-6.45-7.37-15.18-10.91-24.67-7.36c-8.27,3.09-14.68,9.88-16.3,18.67
				c-0.99,5.36,0.09,10.79,2.53,15.63c1.05,2.09,2.33,4.4,4.26,5.81c1.53,1.11,4.15,0.96,4.87,2.96c1.11,3.07-5.28,9.71-6.93,12.4
				c-3,4.87-5.78,9.89-7.9,15.21c-7.6-10.74-14.88-22.46-23.52-32.36c-8.16-9.34-17.88-17.72-27.42-25.62
				c-19.79-16.39-40.38-31.79-62.52-44.85C289.19,7.71,264.29,0.96,240.26,3.34c-23.48,2.33-41.45,17.18-56.58,34.31
				c-29.08,32.93-46.89,79.86-48.63,123.69c-0.52,13.17,0.48,26.16,3.73,38.93c1.55,6.08,1.32,12.06,2.22,18.22
				c1.02,6.95,2.77,13.87,4.47,20.68c6.47,25.93,14.72,51.83,23.97,76.9c4.81,13.04,10.63,25.78,18.51,37.27
				c3.64,5.31,8.35,9.46,12.26,14.51c3.8,4.89,4.8,10.89,5.63,16.89c2,14.39,3.33,28.83,4.53,43.31c0.51,6.13,1.11,12.21,1.92,18.3
				c0.71,5.31-1.07,5.05-5.54,6.85c0.91-4.77-20.44-1.52-22.45-1.2c-2.19,0.35-4.51,0.36-6.24,0.64c-1.93,0.31-3.82,0.77-6.04,0.7
				c-3.27-0.09-9.39-0.93-10.64,3.24c-0.86-4.84-6.53,0.45-2.34-0.45c-4.31,0.48-8.71-0.32-13.07,0.09c-5,0.46-10.04,0.91-15,1.66
				c-3.45,0.52-6.75,1.85-10.21,2.24c-4.43,0.49-9.05,0.45-13.52,0.84c-16.49,1.46-33.59,5.05-49.63,9.17
				c-3.63,0.93-7.81,1.6-11.28,3.09c-0.93,0.4-1.76,1.3-2.65,1.64c-1.49,0.58-1.29,0.18-2.61,0.44c-7.94,1.59-16.13,4.18-24.07,6.21
				c-4.4,1.13-11.57,2.15-15.16,5.22c-1.61,1.38-3.02,3.82-0.44,5.38c2.06,1.25,5-0.74,6.67-1.82c-1.49,3.87-4.29,5.8-2.77,10.21
				c1.2,3.48,3.89,7.77,8.04,5.53c0.56,1.29,0.78,3.86,2.42,4.34c1.47,0.43,2.54-1.44,3.98-1c0.52,0.16,0.32,1.13,0.78,1.39
				c0.8,0.44,1.6,0.62,2.51,0.93c0.78,0.27,2.05,0.81,2.86,0.87c0.52,0.04,1.74-0.85,1.74-0.85c1.19,0.18,1.83,2.46,2.69,3.12
				c1.11,0.86,2.03,1.05,3.43,1.36c2.9,0.64,6.64,1.75,8.55-1.22c-0.44,2.12,2.44,1.91,3.72,2.18c-0.14-1.12-0.76-2.14-1.71-2.75
				c2.84,0.19,1.69,3.02,3.79,3.76c1.5,0.53,1.33-0.82,2.47-0.97c1.51-0.2,2.66,0.9,5.01-0.11c0.51,2.27,0.7,4.56,3.49,4.9
				c1.64,0.2,5.45-2.76,5.24-0.3c3.66-1.07,5.04-0.35,6.96,2.88c0.32-1.98,1.89-1.4,3.32-1.53c2.27-0.19,2.33-0.01,4.09-1.3
				c0.16-0.12,1.55-3.29,2.16-1.32c0.28,0.88-1.55,2.96-2.23,3.49c0.84,0.43,3.6,1.92,4.66,1.64c0.92-0.24,0.92-1.81,2.02-1.89
				c-0.27,0.9-0.54,1.8-0.81,2.71c2.15,0.31,3.94-1.12,5.63-2.18c1.62,4.09,6.24,1.78,8.75,4.86c1.33,1.63,1.39,2.86,3.92,3.29
				c2.59,0.43,4.85-0.7,7.06,1.43c-0.7-1.33-2.44-2.43-0.71-3.85c1.18,1.67,1.78,3.68,3.14,5.23c0.19-0.79,0.37-1.58,0.56-2.37
				c3.53,3.78,7.99,3.81,12.51,5.91v-2.77c3.24,4.95,3.41,1.82,7.29-0.2c-0.26,1.46-0.53,2.91-0.79,4.36
				c2.79-0.21,5.39,3.09,7.68,0.29c1.38,2.32,3.06,1.18,5.32,1.91c1.29,0.42,2.25,1.69,3.5,2.15c1.88,0.69,2.44,0.66,4.21,1.26
				c1.57,0.53,2.47,1.57,4.44,1.9c1.28,0.22,2.44,0.2,3.66,0.14c0.47-0.02,0.32-1.09,1.37-0.84c1.63,0.39,2.83,2.42,4,3.47
				c1.76-4.42,6.69,1.5,9.07,2.29c0.23-1.13,0.19-2.5,1.01-3.43c0.96,2.11,1.33,3.89,3.33,5.25c1.15,0.79,2.85,1.35,4.18,1.63
				c0.84,0.18,2.38-0.04,2.9,0.22c0.9,0.44,1.24,1.63,2.15,1.74c0.54,0.07,1.33-1.35,1.74-1.24c1.84,0.5,2.86,2.74,4.72,3.95
				c5.53,3.6,12.49,3.95,18.65,4.73c1.55,0.2,1.77-0.22,3.03,0.68c0.67,0.48,0.37,1.96,1.19,2.37c3.1,1.56,3.11-1.76,3.76-3.83
				c1.03,1.35,1.2,3.14,2.61,4.22c0.77-0.02,1.54-0.01,2.3,0.05c0.43,0.49,0.72,1.06,0.85,1.71c1.86,1.26,3.97,0.82,5.89,1.76
				c0.63,0.31,1.75,2.18,2.52,2.72c1.39,0.96,3.54,1.48,5.12,1.89c3.33,0.88,8.1-0.29,10.08,3.19c2.63-2.82,1.61,0.55,3.4,1.25
				c1.05,0.42,2.64-1.24,3.81-1.08c2.1,0.3,2.86,2.58,3.54,4.23c1.28-0.29,0.4-3.91,0.37-4.71c1.59-0.19,1.95,4.01,2.22,4.93
				c2.51-1.21-1.61-4.98,1.09-6.19c-0.25,3.21,2.31,5.86-2.26,6.32c0.63,1.93,15.37,4.08,16.39,2.38c0.23,3.16,2.35,0.21,3.13-0.87
				c0.09,1.84-0.54,4.45,1.53,5.31c1.4,0.58,4.57-0.92,5.12-2.3c0.63,2.1,1.68,2.03,2.99,3.37c0.9,0.92,1.49,2.51,2.44,3.27
				c1.74,1.41,4.97,1.2,6.99,0.88c3.96-0.62,3.49-1.38,4.9,2.74c0.32-1.56,1.32-4.83,3.06-2.4c1.11,1.54-1.25,4.94-1.94,6.3
				c1.53-0.84,3.04-1.83,4.78-2.19c0.1,0.53,0.19,1.67-0.07,2.16c0.05-0.1,1.9,1.14,2.59,1.49c-0.17-0.08,0.54-3.18,0.52-3.07
				c2.44,1.51,0.75,4.39,2.91,5.88c0.56,0.39,1.87-0.06,2.55,0.17c1.18,0.41,2.2,1.51,3.24,2.16c-0.83-1.12-0.71-3-0.66-4.29
				c0.53,0.29,0.91,1.39,1.45,1.48c0.2,0.03,2.31,0.31,2.29,0.3c2.19,1.53,1.74,1.73-0.14,3.57c0.67,1.06,3.48-0.78,4.24-1.08
				c0.16,0.41,0.2,1.91,0.5,2.18c0.18,0.44,0.36,0.89,0.55,1.33c0.56-0.42,1.16-0.56,1.8-0.42c0.41,0.14,3.58,1.43,3.79,0.99
				c-0.69-0.22-1.32-0.57-1.88-1.03c1.83-1.64,3.03-2.52,4.72-0.14c0.21,0.3-0.52,1.37-0.3,1.76c0.81,1.45,2.46,2.61,3.58,3.79
				c0.46-1.63-0.62-5.72,1.96-5.57c2.06,0.12,3.63,5.12,2.92,6.67c0.82-0.9,5.72-1.79,6.64-1.51c2.61,0.79,1.88,3.21,5.1-0.33
				c2.19,1.51,0.26,2.09,0.65,3.93c0.58,0.12,1.13-0.02,1.65-0.43c-0.39,7.84,5.4,1.85,9.15,3.05c1.47,0.47,1.85,2.14,3.43,2.63
				c0.84,0.26,1.77-0.35,2.58-0.2c0.65-0.09,1.3-0.21,1.94-0.34c0.82-0.41,1.2,0.05,1.15,1.37c1.31,0.68,0.82,0.95,2.35,1.08
				c0.99,0.09,1.9-0.94,3.02-0.77c1.94,0.3,1.68,1.79,2.92,2.57c1.11,0.7,2.37,0.68,3.74,0.54c0.7-0.07,2.66-0.97,2.9-0.97
				c1.47-0.02,0.67-0.33,2.43,0.93c1.37,0.98,1.95,1.62,3.63,2.07c1.93,0.52,5.35,1.65,6.65,0.25c1.75,2.63,3.13,0.7,5.44,0.87
				c1.18,0.09,1.37,0.55,2.43,0.73c1.71,0.3,3.84,0.04,5.66,0.62c2.86,0.92,3.19,1.38,6.11,1.51c0.53-0.21,1.06-0.41,1.58-0.62
				c0.16,0.88,0.57,1.6,1.25,2.16c1.64,0.34,2.71-0.48,4.06-1.39c1.01,3.13,4.27,3.41,7.06,3.82c4.5,0.66,8.81,1.03,13.16,2.51
				c3.67,1.25,7.35,2.65,10.87,4.25c3.11,1.41,6.04,3.52,9.55,2.53c7.96-2.24,15.68-10.42,22.34-15.11
				c7.89-5.56,16.4-10.14,24.64-15.13c32.82-19.89,67.49-36.72,99.85-57.36c17.67-11.26,34.06-24.65,53.03-33.76
				c-2.7,11.16-7.3,22.49-6.47,34.18c0.33,4.71,1.72,10.27,5.37,13.56c4.52,4.07,9.54,1.48,13.86-1.43
				c9.25-6.22,15.42-15.3,22.35-23.82c8.19-10.08,14.54-20.92,20.56-32.41c1.44,2.02,0.35,5.41,0.37,7.66
				c0.03,2.86,0.8,5.62,2.13,8.17c3.43,6.59,9.95,8.19,15.84,3.67c11.34-8.69,17.92-24.18,23.99-36.65
				c3.47,6.45,8.38,14.56,16.7,9.96c6.87-3.8,10.9-12.29,13-19.48C810.09,471.77,808.15,450.39,809.09,428.87"/>
			<path id="react-path-205" class="st2" d="M798.68,302.81c-0.78-1.9-1.13-1.59,0.31-3.43
				C800.11,300.48,799.21,301.39,798.68,302.81 M833.38,417.92c-2.2-6.26-0.84-13.06-2.18-19.48c-0.61-2.95-1.58-5.8-1.93-8.8
				c-0.16-1.33-1.34-7.32-0.53-8.27c-2.48-1.5-2.49-2.62-3.07-5.57c0.88-0.94,0.77-1.74-0.33-2.4c-0.72-0.88-1.45-1.75-2.17-2.63
				c3.17,1.55,1.29-2.42,0.97-4.7c-0.26-1.81-0.43-3.69-1.03-5.42c-0.74-2.13-2.39-3.2,1.04-3.2c-1.13-1.28-2.82-2.61-3.38-4.18
				c-0.81-2.26,0.53-5.25-1.12-7.25c-0.92-1.11-5.66-1.55-4.83-3.96c0.42-1.23,2.34-0.31,2.94-1.17c2.33-3.38-4.56-4.78-4.9-6.21
				c-0.44-1.86,2.05-2.28,2.21-4.02c0.15-1.7-2.5-4.5-3.2-6.03c-0.95,0.23-2,1.74-3.09,1.02c-0.21-0.14,0.1-6.04-0.14-6.82
				c-0.24-0.77-0.74-2.81-0.92-3.19c-0.71-1.5-2.73-2.23-3.05-4.01c-0.19-1.06,3.95-2.66-0.8-2.71c1.71-3.01-1.42-4.84-2.56-7.41
				c-1.46-3.31-2.33-6.88-3.83-10.2c-1.46-3.23-3.1-6.3-5.21-9.15c-1.91-2.59-2.73-5.08-4.26-7.81c-0.3-0.24-0.61-0.48-0.91-0.72
				c-1.27,0.18-1.68-0.39-1.22-1.74c-0.97-1.44-1.7-2.98-2.55-4.48c-1-1.75-2.34-3.17-3.37-4.88c-1.37-2.26-1.77-4.8-3.32-7.06
				c-1.9-2.78-4.04-5.24-5.8-8.12c-2.21-3.62-4.65-5.87-7.42-8.67c-1.32-1.33-1.48-4.67-3.1-6.56c-1.76-2.06-3.5-2.62-4.73-5.33
				c-1.59-3.52-3.92-5.21-6.19-8.25c-1.87-2.51-2.79-5.4-4.85-7.83c-1.78-2.09-3.79-3.99-5.68-5.97c-2.39-2.5-4.16-5.54-6.65-7.91
				c0.36,0.34-2.17-1.66-2.04-1.6c-0.56-0.29-2.36-0.51-2.1-0.36c-3.76-2.21-8.47-10.29-14.12-6.01c-2.97,2.25-1.55,6.39,0.53,8.63
				c0.89,0.96,5.53,5.72,6.53,3.71c1.08,1.53,4.41,8.94,7.18,6.82c-0.28,2.53,1.18,1.69,2.15,3.4c0.64,1.13,0.33,1.68,0.79,3.44
				c1.28,4.84,6.15,9.58,8.74,13.8c6.46,10.51,13.58,20.48,20.05,31.01c6.16,10.03,13.06,19.55,18.97,29.71
				c6.72,11.56,15.1,22.47,20.16,34.93c0.17,0.42,1.58,1.08,1.93,1.71c0.61,1.09,0.48,2.98,0.87,4.22
				c1.36,4.29,3.56,8.52,6.07,12.07c2.2,3.12,2.36,7.36,3.88,11.02c2.14,5.16,4.39,10.26,6.47,15.44c3.23,8.07,5.42,15.8,7.65,24.22
				c1.45,5.46,2.6,10.91,3.06,16.55c0.42,5.18,0.53,10.58,2.45,15.49C832.72,423.04,834.26,420.42,833.38,417.92"/>
			<path id="react-path-206" class="st2" d="M94.24,528.98c-2.32-0.47-4.51-1.09-5-3.76c-0.34,1.26-0.67,2.51-1.01,3.77
				c2.83,0.64,5.65,1.28,8.48,1.92C96.05,529.75,95.57,529.25,94.24,528.98"/>
			<path id="react-path-207" class="st2" d="M100.47,91.44c0.18-0.75,0.4-1.49,0.68-2.21c0.19,0.7,1.13,2.22,0.58,2.88
				C101.04,92.95,100.34,92.47,100.47,91.44 M111.85,69.78c0.76,0.34,2.41,0.4,3.36,0.69c-2.45,2.11-2.89,1.49-6.06,1.24
				C109.01,69.58,109.88,68.91,111.85,69.78 M90.58,122.66c0.33,0.01,0.66,0.02,0.99,0.03c0.02-0.93,0-1.86-0.07-2.79
				c3.35,0.73,1.45-5.12,0.4-6.33c3.26,0.11,4.85-10.22,5.89-12.22c0.92-1.77,1.96-2.45,2.63-4.61c0.59-1.89,1.22-3.58,2.07-5.37
				c1.95-4.1,4.5-7.83,4.03-12.61c1.65,3.59,3.1,0.01,4.15-1.71c1.68-2.76,5.8-6.29,6.23-9.58c0.39-2.89-1.76-3.04-0.49-5.72
				c1.28-2.71,2.34-2.44,4.58-3.31c1.49-0.58,1.79,0.12,2.85-1.76c0.68-1.22,0.44-2.13,1.32-3.13c0.36,0.31,0.77,0.44,1.23,0.39
				c0.71-0.94,1.18-1.98,1.4-3.13c0.58-1.55,0.86-2.98,1.73-4.46c0.83-1.4,2.29-5.15,3.07-5.83c0.83-0.72,5.51-0.35,5.49-0.33
				c1.93-2.43-1.62-4.86,3.3-4.35c-0.97-1.81,2.44-4.05,3.43-5.06c2.47-2.51,2.67-3.67,3.19-6.83c0.26-1.61-1.47-1.42,0.85-1.79
				c0.96-0.15,1.88,1.08,2.57,0.9c3.05-0.79-0.14-0.64,0.7-1.89c0.27-0.4,1.63-1.99,1.61-1.97c-0.07,0.08,0.31-1.39,0.61-1.76
				c0.58-0.05,1.16-0.15,1.72-0.31c0.29-0.58,0.54-1.17,0.76-1.78c2.21-1.84,5.52-2.67,7.05-4.7c0.99-1.31,0.69-2.59,1.97-3.9
				c1.22-1.24,2.83-0.34,3.07-3.15c0.31-3.57-3.53-5.17-5.1-1.56c-4.26-5.25-22.07,14-24.12,16.52
				c-8.93,10.92-17.72,22.11-25.05,34.18c-7.14,11.76-13,24.14-17.58,37.12c-2.21,6.26-3.55,12.48-4.9,18.95
				c-0.45,2.17-3.84,11.82-2.43,13.99C90.01,122.75,90.3,122.7,90.58,122.66"/>
			<path id="react-path-208" class="st2" d="M793.89,390.4c1.51-1,1.51-1,1.77-2.9C793.64,387.87,793.64,387.87,793.89,390.4"/>
			<path id="react-path-209" class="st2" d="M52.05,518.02c0.02,0,0.03,0,0.04,0.01C52.06,518,51.95,517.88,52.05,518.02"/>
			<path id="react-path-210" class="st2" d="M51.04,519.04c0.47,1,1.21,1.25,2.24,0.75C53.69,520.37,49.76,516.17,51.04,519.04"/>
			<path id="react-path-211" class="st2" d="M118.97,60.35c-2.36,4.62,0.6,1.26,0.44,2.76C119.51,62.12,119.92,60.72,118.97,60.35"
				/>
			<path id="react-path-212" class="st2" d="M502.16,131.87c1.02,8.29,12.36,4.37,14.91-0.65c1.86-3.65,6.55-18.07,1.5-21.11
				c-3.74-2.26-4.54,7.47-5.46,9.65c-1.55,3.64-2.75,1.06-6.19,2C503.13,122.78,501.74,128.43,502.16,131.87"/>
			<path id="react-path-213" class="st2" d="M489.77,116.7c4.05,0.9,8.02,0.44,10.9-2.76c1.59-1.77,3.71-5.29,0.85-7
				c-2.6-1.55-5.55,2.08-8.29,1.33c-3.73-1.02-1.81-5.02-3.09-7.66C485.45,103.32,482.83,115.16,489.77,116.7"/>
			<path id="react-path-214" class="st2" d="M493.97,137.62c-3.91-0.01-3.94,4.8-1.9,6.86c1.95,1.97,6.89,3.96,9.53,2.43
				C506.82,143.89,497.13,137.94,493.97,137.62"/>
			<path id="react-path-215" class="st2" d="M266.7,328.66c0.83,0.4,3.29,2.49,4.33,1.55c-1.46-1.47-2.92-2.95-4.39-4.42
				C265.84,326.68,265.28,327.97,266.7,328.66"/>
			<path id="react-path-216" class="st2" d="M248.25,117.9c-0.42,0.31-0.83,0.62-1.25,0.93c1.4,1.17,1.37,1.51,2.78,0.41
				C249.36,118.68,248.85,118.24,248.25,117.9"/>
			<path id="react-path-217" class="st2" d="M512.97,392.82c-0.79-1.41-2.27,1.19-3.27,1.61c-1.63,0.69-2.97-2.95-2.5,1.41
				c-3.69-1.69-5.93,2.19-8.31,4.2c-3.36,2.85-7.47,4.4-9.71,8.45c10.55,2.47,22.15-6.63,30.02-12.6c1.28-0.98,7.7-5.9,3.35-6.38
				C520.77,389.32,514.29,395.19,512.97,392.82"/>
			<path id="react-path-218" class="st2" d="M509.84,384.27c2.07-1.63-2.39-1.78-3.1-1.95c0.06,1.3,0.12,2.59,0.18,3.88
				C507.93,385.6,508.9,384.96,509.84,384.27"/>
			<path id="react-path-219" class="st2" d="M502.08,389.7c0.62-0.39,2.34-1.59,1.17-2.49c-1.06,0.67-1.82,1.77-1.98,3.03
				C501.54,390.06,501.81,389.88,502.08,389.7"/>
			<path id="react-path-220" class="st2" d="M331.17,284.7c-1.32,0.52-1.91,1.34-1.77,2.46
				C331.42,286.74,331.04,284.82,331.17,284.7"/>
		</g>
	</g>
</g>
</svg>
